<svg width="16" height="17" viewBox="0 0 16 17" fill="none" xmlns="http://www.w3.org/2000/svg">
    <path d="M8.27158 12.3965C7.81574 11.9406 7.26314 11.6116 6.58978 11.3333C7.26308 11.0551 7.81565 10.7261 8.27148 10.2704C8.72735 9.81452 9.05638 9.2619 9.3347 8.58851C9.61297 9.26184 9.94196 9.81442 10.3978 10.2703C10.8536 10.7261 11.4062 11.0551 12.0795 11.3333C11.4061 11.6117 10.8535 11.9407 10.3977 12.3966C9.9419 12.8524 9.61295 13.405 9.3347 14.0783C9.05641 13.4049 8.72742 12.8523 8.27158 12.3965Z"
          fill="#4C4FB1" stroke="#4C4FB1" stroke-width="1.5"/>
    <path d="M13.1808 3.48729C13.3869 3.69337 13.6204 3.85918 13.8812 3.99997C13.6203 4.14079 13.3869 4.30661 13.1808 4.5127C12.9747 4.71884 12.8088 4.95239 12.668 5.21338C12.5272 4.95239 12.3613 4.71883 12.1552 4.51268C11.9491 4.3066 11.7156 4.14078 11.4547 3.99997C11.7156 3.85918 11.9491 3.69338 12.1552 3.48731C12.3613 3.28117 12.5272 3.04761 12.668 2.78662C12.8088 3.0476 12.9747 3.28116 13.1808 3.48729Z"
          stroke="#4C4FB1" stroke-width="1.5"/>
    <path d="M5.95167 5.99995C5.49072 6.19994 5.09875 6.44012 4.76991 6.76896C4.44101 7.09787 4.20078 7.48995 4.00072 7.95106C3.80061 7.48993 3.56033 7.09784 3.23141 6.76894C2.90255 6.44011 2.51058 6.19994 2.04964 5.99995C2.51067 5.79988 2.90267 5.55966 3.23153 5.2308C3.56041 4.90192 3.80064 4.50989 4.00072 4.04883C4.20074 4.50988 4.44093 4.9019 4.76978 5.23078C5.09863 5.55966 5.49064 5.79988 5.95167 5.99995Z"
          fill="#4C4FB1" stroke="#4C4FB1" stroke-width="1.5"/>
</svg>