<svg width="16" height="16" viewBox="0 0 16 16" fill="none" xmlns="http://www.w3.org/2000/svg">
    <g clip-path="url(#clip0_709_42675)">
        <path fill-rule="evenodd" clip-rule="evenodd"
              d="M8 0.666748C7.63969 0.666748 7.28546 0.763701 6.9715 0.948251C6.65753 1.1328 6.39442 1.39872 6.20755 1.72035L6.80502 2.09872L6.20555 1.72382L0.286619 12.0401L0.280942 12.0502C0.0978907 12.3812 0.0010332 12.7564 8.21989e-06 13.1386C-0.00101672 13.5208 0.0938252 13.8966 0.275099 14.2286C0.456373 14.5606 0.71776 14.8373 1.03325 15.0311C1.34875 15.2249 1.70735 15.3292 2.07339 15.3334L13.9189 15.3334L13.9266 15.3333C14.2926 15.3291 14.6513 15.2249 14.9667 15.0311C15.2822 14.8373 15.5436 14.5606 15.7249 14.2286C15.9062 13.8966 16.001 13.5208 16 13.1386C15.999 12.7564 15.9021 12.3812 15.7191 12.0502L15.7134 12.0401L9.79446 1.72382L9.79245 1.72035C9.60558 1.39872 9.34247 1.1328 9.0285 0.948251C8.71454 0.763701 8.36031 0.666748 8 0.666748ZM8 3.33341C8.64433 3.33341 9.16667 3.78113 9.16667 4.33341V8.33341C9.16667 8.8857 8.64433 9.33341 8 9.33341C7.35567 9.33341 6.83333 8.8857 6.83333 8.33341V4.33341C6.83333 3.78113 7.35567 3.33341 8 3.33341ZM6.66667 12.0001C6.66667 11.2637 7.26065 10.6667 7.99337 10.6667H8.00663C8.73935 10.6667 9.33333 11.2637 9.33333 12.0001C9.33333 12.7365 8.73935 13.3334 8.00663 13.3334H7.99337C7.26065 13.3334 6.66667 12.7365 6.66667 12.0001Z"
              fill="#F32A4C"/>
    </g>
    <defs>
        <clipPath id="clip0_709_42675">
            <rect width="16" height="16" fill="white"/>
        </clipPath>
    </defs>
</svg>
