<svg id="Layer_1" data-name="Layer 1" xmlns="http://www.w3.org/2000/svg" width="490" height="140" viewBox="0 0 490 140"><title>BurpSuite-Professional</title><path d="M303.9,118.1V99.3c0-1,.2-1.7,1.4-1.7s1.7.4,1.7,1.6v25.1c0,.8,0,1.7-1,1.9a1.9,1.9,0,0,1-2.3-1.1l-10.5-18.4a2.8,2.8,0,0,0-.9-1c0,.4-.1.8-.1,1.2v17.6c0,1-.2,1.7-1.4,1.7s-1.7-.4-1.7-1.8V99.2c0-.8,0-1.6,1-1.8a1.8,1.8,0,0,1,2.2,1c2.2,3.9,4.4,7.8,6.7,11.8l4.4,7.7Z" fill="#414042"/><path d="M142.9,114.8v10c0,1-.4,1.6-1.5,1.6s-1.6-.4-1.6-1.6V99.5c0-1.5.4-1.9,1.8-1.8,3.3,0,6.5-.1,9.7.2a6.7,6.7,0,0,1,6.1,6.1,18.8,18.8,0,0,1-.3,5.8c-.5,2.5-2.1,3.8-5.4,4.9l.5,1c1.5,2.5,3,5.2,4.3,7.8s.5,2.1-.4,2.5-1.7.1-2.4-1l-5.3-9.5a1.2,1.2,0,0,0-1.4-.8Zm0-8.5v4.5c0,.7.2,1,.9,1h6.7a3.4,3.4,0,0,0,3-1.7,7.1,7.1,0,0,0,.2-7.3,4,4,0,0,0-3.6-2.1h-6.3c-.8,0-1,.3-1,1.1a32.8,32.8,0,0,1,.1,4.4Z" fill="#414042"/><path d="M179,119.8c-.7,4.4-4.8,7.3-9.5,6.8a8.4,8.4,0,0,1-7.8-8.3V105.7a8.5,8.5,0,0,1,8.7-8.2h.2a8.5,8.5,0,0,1,8.7,8.2ZM164.8,112v6a6,6,0,0,0,3.8,5.3,5.8,5.8,0,0,0,7.3-3.5,5.7,5.7,0,0,0,.3-1.9q.1-5.9,0-11.8a5.7,5.7,0,0,0-11.4-.1v6Z" fill="#414042"/><path d="M122.1,115.1v10.2c0,1-.6,1.3-1.5,1.3s-1.5-.3-1.6-1.3V99.8c0-1.9.3-2.2,2.2-2.2a74.6,74.6,0,0,1,9.4.3,6.8,6.8,0,0,1,6.1,6.2,18.3,18.3,0,0,1-.1,5.2,6.7,6.7,0,0,1-7,5.7h-7A.4.4,0,0,0,122.1,115.1Zm0-8.8c0,1.4.1,2.8,0,4.2s.2,1.4,1.3,1.3h5.9a3.8,3.8,0,0,0,4-2.5,7.1,7.1,0,0,0-.1-6.2,3.8,3.8,0,0,0-3.6-2.4H123c-.7,0-.9.3-.9.9S122.1,104.8,122.1,106.3Z" fill="#414042"/><path d="M227.1,126c-5.5-.5-8-1.6-8-3.2a1.6,1.6,0,0,1,1.1-1.3,4.4,4.4,0,0,1,2,.2,13.1,13.1,0,0,0,6.4.8,5.6,5.6,0,0,0,4-2.3,2.9,2.9,0,0,0-.4-4.1l-1.6-1.3-7.9-5.2c-2.5-1.7-4-3.8-3.4-7s2.8-5.1,5.9-5.8,6.1.2,8.9,1.5a1.7,1.7,0,0,1,1.1,2.2h-.1a1.9,1.9,0,0,1-2.4.6,21.5,21.5,0,0,0-4.2-1.4,9.2,9.2,0,0,0-3.7.5,3.4,3.4,0,0,0-2.5,3.1,3.8,3.8,0,0,0,1.9,3.4l8.7,5.7a6.5,6.5,0,0,1,3.3,5.1,7.5,7.5,0,0,1-4.4,7.3A11,11,0,0,1,227.1,126Z" fill="#414042"/><path d="M205.3,112v8.2c0,2.6,0,2.8,2.9,2.8h6.5c1,0,1.7.3,1.7,1.5s-.4,1.7-1.7,1.7H203.8c-1.2,0-1.6-.4-1.6-1.7V99.1c0-1.2.4-1.6,1.7-1.7h10.9c1.1,0,1.6.5,1.6,1.6s-.4,1.5-1.6,1.6h-8.4c-.8,0-1.1.3-1.1,1.1s.1,4.1,0,6.2.4,1.2,1.2,1.1h5.4c1.3,0,1.7.4,1.7,1.6s-.6,1.5-1.7,1.5Z" fill="#414042"/><path d="M195.9,97.5h-11a1.4,1.4,0,0,0-1.6,1.2v24h0v2.5a1.2,1.2,0,0,0,1.2,1.3h.2c1.2.1,1.7-.3,1.7-1.6v-2.4h0v-2.3h0v-8.1h6.7c1.2,0,1.6-.5,1.6-1.6s-.4-1.5-1.6-1.5h-5.5c-.8,0-1.1-.2-1.1-1.1s.1-4.1,0-6.2.3-1.2,1.2-1.2H196c1.1,0,1.7-.4,1.7-1.5S197.1,97.5,195.9,97.5Z" fill="#414042"/><path d="M263.1,111.8v12.4c0,1.5-.3,1.9-1.5,1.9s-1.6-.4-1.6-2V99.2c0-1.4.4-1.9,1.6-1.9s1.5.4,1.5,1.7Z" fill="#414042"/><path d="M284.3,119.8c-.7,4.4-4.8,7.3-9.5,6.8a8.4,8.4,0,0,1-7.8-8.3V105.7a8.5,8.5,0,0,1,8.7-8.2h.2a8.5,8.5,0,0,1,8.7,8.2ZM270.2,112v6a6,6,0,0,0,3.8,5.3,5.8,5.8,0,0,0,7.3-3.5,5.7,5.7,0,0,0,.3-1.9q.1-5.9,0-11.8a5.7,5.7,0,0,0-11.4-.1v.4a52.6,52.6,0,0,0,0,5.6Z" fill="#414042"/><path d="M330.2,123.6,326,111.6l-4.2-12.3-.2-.4a.5.5,0,0,0-.2-.4,1,1,0,0,0-.9-.5c-1.1-.3-1.6,0-2,1.4l-7.4,24.5c-.4,1.5-.2,2,1,2.4s1.5.1,2-1.4l1.6-5.2h10l1.8,5c.5,1.5,1,1.8,2.2,1.4S330.7,125.1,330.2,123.6Zm-13.6-7.2,1.2-3.9,2.6-8.3,4.2,12.2Z" fill="#414042"/><path d="M348.8,122.9H337.7V99c0-1.4-.4-1.7-1.5-1.7s-1.6.4-1.6,1.9v24.9c0,1.5.4,2,1.6,2H349c1.4,0,1.7-.4,1.7-1.6S350.2,122.9,348.8,122.9Z" fill="#414042"/><path d="M247.6,126c-5.5-.5-8-1.6-8-3.2a1.6,1.6,0,0,1,1.1-1.3,4.4,4.4,0,0,1,2,.2,13.1,13.1,0,0,0,6.4.8,5.6,5.6,0,0,0,4-2.3,2.9,2.9,0,0,0-.4-4.1l-1.6-1.3-7.9-5.2c-2.5-1.7-4-3.8-3.4-7s2.8-5.1,5.9-5.8,6.1.2,8.9,1.5a1.7,1.7,0,0,1,1.1,2.2h-.1a1.9,1.9,0,0,1-2.4.6,21.5,21.5,0,0,0-4.2-1.4,9.2,9.2,0,0,0-3.7.5,3.4,3.4,0,0,0-2.5,3.1,3.8,3.8,0,0,0,1.9,3.4l8.7,5.7a6.5,6.5,0,0,1,3.3,5.1,7.5,7.5,0,0,1-4.4,7.3A11,11,0,0,1,247.6,126Z" fill="#414042"/><path d="M118.9,49.9V21c0-2.7,1-3.7,3.8-3.7,6.1,0,12.2.2,18.3,0A13.9,13.9,0,0,1,154.6,27c2.3,7.1,1.2,13.5-4.1,19-.7.8-.1.9.3,1.2,9.5,7,8.4,22.2,3.4,28.6-3.4,4.3-7.7,6.9-13.2,7H122.4c-2.3,0-3.3-1.1-3.3-3.3C118.9,69.5,118.9,59.7,118.9,49.9Zm7.3,12.9V74.2c0,1,.2,1.3,1.2,1.3h13.3a9.2,9.2,0,0,0,8.8-5.6,17.7,17.7,0,0,0,1.3-5.6,14.1,14.1,0,0,0-4.2-11.8,7,7,0,0,0-5.5-2.4H127.3c-.8,0-1.1.2-1.1,1.1Zm0-29.1v8.3c0,.7.2,1,1,1h14.2a5.8,5.8,0,0,0,4.8-2.4c2.5-3.4,2.6-7.3,1.5-11.1s-3.1-4.8-6.4-4.8H127.2c-.9,0-1.1.3-1.1,1.1C126.2,28.4,126.2,31,126.2,33.8Z" fill="#eb5d2d"/><path d="M235.6,56.5l5.2,9.4,6.4,11.5a3.9,3.9,0,0,1-1.5,5.2h0a3.8,3.8,0,0,1-4.9-1.6l-13-23.3a1.8,1.8,0,0,0-1.7-1.1h-8.9c-1,0-1.2.3-1.2,1.2V78.9a4.5,4.5,0,0,1-.6,2.7c-1.2,1.6-2.9,1.2-4.4,1a2.7,2.7,0,0,1-2.2-2.7V21.2c0-2.9.9-3.9,3.9-3.9h19c6.1.1,11.3,2.4,14.7,7.8a20.2,20.2,0,0,1,2.9,9.8c.2,4.5,0,9-2.1,13.2s-5.8,6.9-10.5,7.9ZM216.1,37V48.4c0,.6.1,1,.9,1h17.8a4.3,4.3,0,0,0,2.9-1.1,9,9,0,0,0,2.4-2.7,16.7,16.7,0,0,0,.4-16,8.3,8.3,0,0,0-7.9-4.9H217.1c-.8,0-1.1.2-1.1,1.1C216.2,29.5,216.1,33.2,216.1,37Z" fill="#eb5d2d"/><path d="M256.3,50V21.1c0-2.7,1-3.7,3.7-3.7h18.9c9.9,0,17.2,6.9,17.8,16.7a34.6,34.6,0,0,1-.7,10.6,15.6,15.6,0,0,1-15.3,12.1H265.2c-1.9,0-1.7-.3-1.7,1.6V78.8a11.9,11.9,0,0,1-.2,1.9,3.3,3.3,0,0,1-.6,1.2c-1.3,1.4-3,1.1-4.5.8a2.6,2.6,0,0,1-2-2.8v-1C256.3,69.2,256.3,59.6,256.3,50Zm7.2-13V48.4c0,.6,0,1.2.9,1.1h17.7a4.2,4.2,0,0,0,3-1.2,10.3,10.3,0,0,0,2.3-2.7,16.7,16.7,0,0,0,.4-16,8.2,8.2,0,0,0-7.8-4.9H264.5c-.9,0-1.1.3-1.1,1.1.2,3.7.1,7.5.1,11.4Z" fill="#eb5d2d"/><path d="M382.2,43.2V63.5a19.3,19.3,0,0,1-16.9,19.4A19.3,19.3,0,0,1,342.7,64V21.6a5.7,5.7,0,0,1,.6-2.8,3.5,3.5,0,0,1,3.7-1.7,4,4,0,0,1,3,3.4v43c0,5.2,4.4,10.9,9.4,12a12.8,12.8,0,0,0,15.3-9.3,10.6,10.6,0,0,0,.3-3V21.9a6,6,0,0,1,.1-1.4,3.7,3.7,0,0,1,3.7-3.4,3.9,3.9,0,0,1,3.5,3.8v4.8C382.2,31.5,382.2,37.3,382.2,43.2Z" fill="#414042"/><path d="M162.5,43.3V20.8a3.6,3.6,0,1,1,7.1,0V63.7c0,5.2,4.4,10.9,9.5,12,10,2.2,15.7-6.3,15.6-12.4-.1-13.8,0-27.6,0-41.3a6.6,6.6,0,0,1,.2-2,3.6,3.6,0,0,1,3.8-2.6,4.1,4.1,0,0,1,3.4,3.6v1.1c0,13.8-.1,27.6,0,41.4a19.8,19.8,0,0,1-38.7,5.8,17.4,17.4,0,0,1-.7-5C162.5,57.2,162.5,50.2,162.5,43.3Z" fill="#eb5d2d"/><path d="M318.4,16.6a42.7,42.7,0,0,1,14.6,3.9,4.1,4.1,0,0,1,2.6,2.8,3.4,3.4,0,0,1-.9,3.4,3.8,3.8,0,0,1-4.1.7c-1.6-.6-3-1.4-4.5-2.1a17.9,17.9,0,0,0-12.9-.8c-4,1.3-6.5,4.1-6.7,7.8s1.6,5.8,4.2,7.6l18.6,12.3a20,20,0,0,1,5.8,5.3c4.7,7.3,4,16.8-5.6,22.4-5,3-10.6,3.5-16.4,2.7a92.8,92.8,0,0,1-11.5-2.7c-2.5-.8-3.3-2.3-2.8-4.7a3,3,0,0,1,2.2-2.2,5.8,5.8,0,0,1,3.9.1A35.4,35.4,0,0,0,316.3,76c4.8.1,9.2-.9,12.5-4.8s2.6-7.3-.6-10.5a22.8,22.8,0,0,0-2.4-2L306.6,45.9c-3.7-2.4-6.4-5.6-7.2-10.1-1.5-7.6,3-15,10.6-17.9A25.2,25.2,0,0,1,318.4,16.6Z" fill="#414042"/><path d="M441.5,50V21.1c0-2.7,1-3.7,3.7-3.7h25.1c1.4,0,2.6.3,3.2,1.6a4.2,4.2,0,0,1-.2,4.4,3.3,3.3,0,0,1-3.1,1.2H450c-1.1,0-1.5.3-1.5,1.4.1,5.5,0,11.1,0,16.6,0,.9.2,1.2,1.1,1.1h13.9c1.4,0,2.6.2,3.3,1.5a4.4,4.4,0,0,1-.1,4.4,2.8,2.8,0,0,1-2.8,1.3H449.6c-.9,0-1.2.2-1.2,1.2V74.4c0,1,.3,1.2,1.2,1.2h20.2c3.1,0,4.4,1.8,3.8,4.7a2.9,2.9,0,0,1-3,2.4H444.8c-2.8,0-3.7-1-3.7-3.7C441.5,69.3,441.5,59.6,441.5,50Z" fill="#414042"/><path d="M415.4,52.5V25.8c0-1.1-.4-1.4-1.4-1.3H402.8c-2.1,0-3.1-1.1-3.4-3a3.4,3.4,0,0,1,2.4-4H435c2.3,0,3.5,1.2,3.5,3.5s-1.1,3.7-3.5,3.7H424.1c-1.7,0-1.5-.2-1.5,1.6V78.7a10.6,10.6,0,0,1-.1,1.8,2.4,2.4,0,0,1-2,2.2,7,7,0,0,1-2.9.1c-1.6-.3-2.3-1.4-2.3-3.3V59.8C415.4,57.3,415.4,54.9,415.4,52.5Z" fill="#414042"/><path d="M389.1,50V21.1c0-3.2,2.9-4.9,5.8-3.3a2.4,2.4,0,0,1,1.3,1.8,5.3,5.3,0,0,1,.1,1.8V78.9c0,3.4-1.7,4.3-5.1,3.7-1.5-.3-2.1-1.4-2.1-3.1V50Z" fill="#414042"/><polygon points="54.4 87.7 14.6 79.9 14.6 19.4 54.4 11.6 54.4 87.7" fill="#404042"/><polygon points="56.3 87.7 96.1 79.9 96.1 19.4 56.3 11.6 56.3 87.7" fill="#eb5c2c"/><path d="M75.2,20.8l3.4.7V31.9c-4,3.9-6,6-10,10.6l10,.4V53.3l13.6-.4A169.1,169.1,0,0,0,78.6,68.6v8.2l-3.4.7V67.9c4-5.1,6-7.5,9.9-11.9l-10,.5V45.9l-13.6-.3A173.1,173.1,0,0,1,75.1,30.3V26C75.2,23.9,75.2,22.9,75.2,20.8Z" fill="#fff"/></svg>