<svg id="Layer_1" data-name="Layer 1" xmlns="http://www.w3.org/2000/svg" width="490" height="140" viewBox="0 0 490 140"><title>BurpSuite-EnterpriseEdition</title><path d="M121.9,83.3c-2.6,0-3.7-1.1-3.7-3.7V20.3c0-2.6,1.1-3.7,3.7-3.7h19.6c6.5,0,13.8,5.8,13.8,16.4a17.7,17.7,0,0,1-5.8,13.3c5.3,4.3,8,8.1,8,17.3,0,13.1-9.4,19.7-17.3,19.7Zm3.6-40.6h15.4c4,0,7.1-3.5,7.1-9.7s-2.7-9.1-7.1-9.1H125.5Zm0,33.3h15.4c4.3,0,9.6-3.5,9.6-12.4,0-2.8.3-5.3-2.9-9.6-1.9-2.6-3.8-4-6.7-4H125.5Z" fill="#eb5c2c"/><path d="M202.4,64a20,20,0,0,1-39.9,0V20.6a3.7,3.7,0,1,1,7.3,0V64.3c0,2.8,1.7,6.7,5.2,9.6a10,10,0,0,0,7.4,2.4c2.8,0,4.7-.2,7.5-2.4s5.2-6.8,5.2-9.6V20.6a4,4,0,0,1,3.6-4.3,4.1,4.1,0,0,1,3.7,4.3Z" fill="#eb5c2c"/><path d="M231.3,16.6c11.7,0,18.9,7.5,18.9,19.7,0,6.8-1.3,11.9-4.6,15.3a16,16,0,0,1-9.3,4.7L248,77.4a3.8,3.8,0,0,1,.7,2.6c0,1.5-1.8,3.3-3,3.3s-2.9.1-4-2L228,56.6H216.6v23c0,2.6-1,3.7-3.6,3.7s-3.7-1.1-3.7-3.7V20.3c0-2.6,1.1-3.7,3.7-3.7Zm-14.7,7.3V49.3h16.9c2.8,0,4.3,0,6.6-3s2.8-6.7,2.8-10c0-8.9-5.3-12.4-9.6-12.4Z" fill="#eb5c2c"/><path d="M279.2,16.6c11.7,0,18.9,7.5,18.9,19.7,0,9.5-2.5,14.9-8.7,18.3-3.6,2-6.5,2-9.9,2h-15v23c0,2.6-1,3.7-3.6,3.7s-3.7-1.1-3.7-3.7V20.3c0-2.6,1.1-3.7,3.7-3.7Zm-14.7,7.3V49.3h16.9c2.8,0,4.3,0,6.6-3s2.8-6.7,2.8-10c0-8.9-5.3-12.4-9.6-12.4Z" fill="#eb5c2c"/><path d="M332.1,52.9A16.6,16.6,0,0,1,340,67.5c0,7.3-7.6,16.2-20.8,16.2A45.6,45.6,0,0,1,308.5,82c-7-2-8.1-1.5-8.1-5.5,0-1.2.9-3.1,4.4-3.1,1.8,0,6.8,3,14.2,3s13.7-5.1,13.7-10.1c0-2.8-1.9-5.3-4.4-7L308.2,45.8c-4.7-3.2-7.5-7.7-7.5-12.7,0-10.1,8-17.2,19.5-17.2a14.3,14.3,0,0,1,4.1.4c8.5,2.3,13.5,3.5,13.5,7.4,0,1.9-1.3,3.5-4,3.5s-6.5-4-13.4-4S308,27.8,308,32.5a9.2,9.2,0,0,0,4.1,7.1Z" fill="#404042"/><path d="M384.7,64a20,20,0,0,1-39.9,0V20.6a3.7,3.7,0,1,1,7.3,0V64.3c0,2.8,1.7,6.7,5.2,9.6a10,10,0,0,0,7.4,2.4c2.8,0,4.7-.2,7.5-2.4s5.2-6.8,5.2-9.6V20.6a4,4,0,0,1,3.6-4.3,4.1,4.1,0,0,1,3.7,4.3Z" fill="#404042"/><path d="M391.6,20.3c0-2.6,1.1-3.7,3.7-3.7s3.6,1.1,3.6,3.7V79.6c0,2.6-1,3.7-3.6,3.7s-3.7-1.1-3.7-3.7Z" fill="#404042"/><path d="M425.5,23.9V79.6c0,2.6-1.1,3.7-3.7,3.7s-3.6-1.1-3.6-3.7V23.9H405.7c-2.2,0-3.5-1.2-3.5-3.6s1.3-3.7,3.5-3.7H438c2.2,0,3.5,1.3,3.5,3.7s-1.3,3.6-3.5,3.6Z" fill="#404042"/><path d="M452.1,76h22c2.2,0,3.5,1.2,3.5,3.6s-1.3,3.7-3.5,3.7H448.5c-2.6,0-3.7-1.1-3.7-3.7V20.3c0-2.6,1.1-3.7,3.7-3.7h25.6c2.2,0,3.5,1.3,3.5,3.7s-1.3,3.6-3.5,3.6h-22V43.3h15.6c2.2,0,3.4,1.3,3.4,3.7s-1.2,3.6-3.4,3.6H452.1Z" fill="#404042"/><path d="M117.7,124.9h9.7a1.4,1.4,0,0,1,1.5,1.6,1.4,1.4,0,0,1-1.5,1.6H116.1c-1.1,0-1.6-.5-1.6-1.6V100.4c0-1.1.5-1.6,1.6-1.6h11.3a1.4,1.4,0,0,1,1.5,1.6,1.4,1.4,0,0,1-1.5,1.6h-9.7v8.5h6.9c1,0,1.5.6,1.5,1.6s-.5,1.6-1.5,1.6h-6.9Z" fill="#404042"/><path d="M136.1,106.7v19.8c0,1.1-.4,1.6-1.6,1.6s-1.6-.5-1.6-1.6V100.4c0-1.1.5-1.6,1.6-1.6s1.2.4,1.9,1.6l11.1,19.8V100.4c0-1.1.4-1.6,1.6-1.6s1.6.5,1.6,1.6v26.1c0,1.1-.5,1.6-1.6,1.6s-1.2-.4-1.9-1.6Z" fill="#404042"/><path d="M163.6,102v24.5c0,1.1-.5,1.6-1.6,1.6s-1.6-.5-1.6-1.6V102h-5.5a1.4,1.4,0,0,1-1.5-1.6,1.4,1.4,0,0,1,1.5-1.6h14.2a1.4,1.4,0,0,1,1.5,1.6,1.4,1.4,0,0,1-1.5,1.6Z" fill="#404042"/><path d="M176.4,124.9h9.7a1.4,1.4,0,0,1,1.5,1.6,1.4,1.4,0,0,1-1.5,1.6H174.9c-1.1,0-1.6-.5-1.6-1.6V100.4c0-1.1.5-1.6,1.6-1.6h11.3a1.4,1.4,0,0,1,1.5,1.6,1.4,1.4,0,0,1-1.5,1.6h-9.7v8.5h6.9c1,0,1.5.6,1.5,1.6s-.5,1.6-1.5,1.6h-6.9Z" fill="#404042"/><path d="M201.3,98.8c5.1,0,8.3,3.3,8.3,8.7,0,3-.6,5.2-2,6.7a7,7,0,0,1-4.1,2.1l5.1,9.3a1.7,1.7,0,0,1,.3,1.1,1.7,1.7,0,0,1-1.3,1.5c-.7,0-1.3,0-1.8-.9l-6-10.9h-5v10.1c0,1.1-.4,1.6-1.6,1.6s-1.6-.5-1.6-1.6V100.4c0-1.1.5-1.6,1.6-1.6Zm-6.5,3.2v11.2h7.4a2.9,2.9,0,0,0,2.9-1.3,6.3,6.3,0,0,0,1.2-4.4c0-3.9-2.3-5.5-4.2-5.5Z" fill="#404042"/><path d="M223.6,98.8c5.1,0,8.3,3.3,8.3,8.7s-1.1,6.6-3.8,8.1a7.9,7.9,0,0,1-4.4.9h-6.6v10.1c0,1.1-.4,1.6-1.6,1.6s-1.6-.5-1.6-1.6V100.4c0-1.1.5-1.6,1.6-1.6Zm-6.5,3.2v11.2h7.4a2.9,2.9,0,0,0,2.9-1.3,6.3,6.3,0,0,0,1.2-4.4c0-3.9-2.3-5.5-4.2-5.5Z" fill="#404042"/><path d="M244.6,98.8c5.1,0,8.3,3.3,8.3,8.7,0,3-.6,5.2-2,6.7a7,7,0,0,1-4.1,2.1l5.1,9.3a1.7,1.7,0,0,1,.3,1.1,1.7,1.7,0,0,1-1.3,1.5c-.7,0-1.3,0-1.8-.9l-6-10.9h-5v10.1c0,1.1-.4,1.6-1.6,1.6s-1.6-.5-1.6-1.6V100.4c0-1.1.5-1.6,1.6-1.6Zm-6.5,3.2v11.2h7.4a2.9,2.9,0,0,0,2.9-1.3,6.3,6.3,0,0,0,1.2-4.4c0-3.9-2.3-5.5-4.2-5.5Z" fill="#404042"/><path d="M257.2,100.4c0-1.1.5-1.6,1.6-1.6s1.6.5,1.6,1.6v26.1c0,1.1-.4,1.6-1.6,1.6s-1.6-.5-1.6-1.6Z" fill="#404042"/><path d="M278.7,114.7a7.3,7.3,0,0,1,3.5,6.4c0,3.2-3.3,7.1-9.2,7.1a20,20,0,0,1-4.7-.7c-3.1-.9-3.6-.7-3.6-2.4s.4-1.4,1.9-1.4,3,1.3,6.2,1.3,6-2.2,6-4.4a3.9,3.9,0,0,0-1.9-3.1l-8.8-5.9a6.8,6.8,0,0,1-3.3-5.6c0-4.4,3.5-7.6,8.6-7.6a6.3,6.3,0,0,1,1.8.2c3.7,1,5.9,1.5,5.9,3.3a1.5,1.5,0,0,1-1.8,1.5c-1,0-2.9-1.8-5.9-1.8s-5.5,2-5.5,4.1a4,4,0,0,0,1.8,3.1Z" fill="#404042"/><path d="M289.5,124.9h9.7a1.4,1.4,0,0,1,1.5,1.6,1.4,1.4,0,0,1-1.5,1.6H287.9c-1.1,0-1.6-.5-1.6-1.6V100.4c0-1.1.5-1.6,1.6-1.6h11.3a1.4,1.4,0,0,1,1.5,1.6,1.4,1.4,0,0,1-1.5,1.6h-9.7v8.5h6.9c1,0,1.5.6,1.5,1.6s-.5,1.6-1.5,1.6h-6.9Z" fill="#404042"/><path d="M322.1,124.9h9.7a1.4,1.4,0,0,1,1.5,1.6,1.4,1.4,0,0,1-1.5,1.6H320.5c-1.1,0-1.6-.5-1.6-1.6V100.4c0-1.1.5-1.6,1.6-1.6h11.3a1.4,1.4,0,0,1,1.5,1.6,1.4,1.4,0,0,1-1.5,1.6h-9.7v8.5H329c1,0,1.5.6,1.5,1.6s-.5,1.6-1.5,1.6h-6.9Z" fill="#404042"/><path d="M338.9,128.1c-1.1,0-1.6-.5-1.6-1.6V100.4c0-1.1.5-1.6,1.6-1.6h8.6c3.4,0,7.6,2.9,7.6,8.7v12c0,5.8-4.1,8.7-7.6,8.7Zm1.6-3.2h6.2a4.6,4.6,0,0,0,2.9-.7,5.8,5.8,0,0,0,2.2-4.5V107.3a5.9,5.9,0,0,0-2.2-4.6,4.6,4.6,0,0,0-2.9-.7h-6.2Z" fill="#404042"/><path d="M359.4,100.4c0-1.1.5-1.6,1.6-1.6s1.6.5,1.6,1.6v26.1c0,1.1-.4,1.6-1.6,1.6s-1.6-.5-1.6-1.6Z" fill="#404042"/><path d="M375.5,102v24.5c0,1.1-.5,1.6-1.6,1.6s-1.6-.5-1.6-1.6V102h-5.5a1.4,1.4,0,0,1-1.5-1.6,1.4,1.4,0,0,1,1.5-1.6H381a1.4,1.4,0,0,1,1.5,1.6A1.4,1.4,0,0,1,381,102Z" fill="#404042"/><path d="M385.2,100.4c0-1.1.5-1.6,1.6-1.6s1.6.5,1.6,1.6v26.1c0,1.1-.4,1.6-1.6,1.6s-1.6-.5-1.6-1.6Z" fill="#404042"/><path d="M410.5,119.4a8.9,8.9,0,0,1-17.9,0V107.3a8.9,8.9,0,0,1,17.9,0Zm-14.7.2a5.4,5.4,0,0,0,1.1,3.2c1.5,1.7,2.2,2.2,4.6,2.2A4.4,4.4,0,0,0,405,124a5.8,5.8,0,0,0,2.3-4.4V107.1a5.7,5.7,0,0,0-1.1-3.1c-1.5-1.7-2.2-2.2-4.6-2.2a4.4,4.4,0,0,0-3.4,1.1,5.9,5.9,0,0,0-2.3,4.2Z" fill="#404042"/><path d="M418,106.7v19.8c0,1.1-.4,1.6-1.6,1.6s-1.6-.5-1.6-1.6V100.4c0-1.1.5-1.6,1.6-1.6s1.2.4,1.9,1.6l11.1,19.8V100.4c0-1.1.4-1.6,1.6-1.6s1.6.5,1.6,1.6v26.1c0,1.1-.5,1.6-1.6,1.6s-1.2-.4-1.9-1.6Z" fill="#404042"/><polygon points="54.4 87.7 14.6 79.9 14.6 19.4 54.4 11.6 54.4 87.7" fill="#404042"/><polygon points="56.3 87.7 96.1 79.9 96.1 19.4 56.3 11.6 56.3 87.7" fill="#eb5c2c"/><path d="M75.2,20.8l3.4.7V31.9c-4,3.9-6,6-10,10.6l10,.4V53.3l13.6-.4A169.1,169.1,0,0,0,78.6,68.6v8.2l-3.4.7V67.9c4-5.1,6-7.5,9.9-11.9l-10,.5V45.9l-13.6-.3A173.1,173.1,0,0,1,75.1,30.3V26C75.2,23.9,75.2,22.9,75.2,20.8Z" fill="#fff"/></svg>