<svg id="Layer_1" data-name="Layer 1" xmlns="http://www.w3.org/2000/svg" width="490" height="140" viewBox="0 0 490 140"><title>BurpSuite-CommunityEdition</title><path d="M121.5,83.5c-2.6,0-3.7-1.1-3.7-3.7V20.5c0-2.6,1.1-3.7,3.7-3.7h19.6c6.5,0,13.8,5.8,13.8,16.4a17.7,17.7,0,0,1-5.8,13.3c5.3,4.3,8,8.1,8,17.3,0,13.1-9.4,19.7-17.3,19.7Zm3.6-40.6h15.4c4,0,7.1-3.5,7.1-9.7s-2.7-9.1-7.1-9.1H125.1Zm0,33.3h15.4c4.3,0,9.6-3.5,9.6-12.4,0-2.8.3-5.3-2.9-9.6-1.9-2.6-3.8-4-6.7-4H125.1Z" fill="#ec663b"/><path d="M202,64.2a20,20,0,0,1-39.9,0V20.8a3.7,3.7,0,1,1,7.3,0V64.5c0,2.8,1.7,6.7,5.2,9.6a10,10,0,0,0,7.4,2.4c2.8,0,4.7-.2,7.5-2.4s5.2-6.8,5.2-9.6V20.8a4,4,0,0,1,3.6-4.3,4.1,4.1,0,0,1,3.7,4.3Z" fill="#ec663b"/><path d="M230.9,16.8c11.7,0,18.9,7.5,18.9,19.7,0,6.8-1.3,11.9-4.6,15.3a16,16,0,0,1-9.3,4.7l11.7,21.1a3.8,3.8,0,0,1,.7,2.6c0,1.5-1.8,3.3-3,3.3s-2.9.1-4-2L227.6,56.8H216.2v23c0,2.6-1,3.7-3.6,3.7s-3.7-1.1-3.7-3.7V20.5c0-2.6,1.1-3.7,3.7-3.7Zm-14.7,7.3V49.5h16.9c2.8,0,4.3,0,6.6-3s2.8-6.7,2.8-10c0-8.9-5.3-12.4-9.6-12.4Z" fill="#ec663b"/><path d="M278.8,16.8c11.7,0,18.9,7.5,18.9,19.7,0,9.5-2.5,14.9-8.7,18.3-3.6,2-6.5,2-9.9,2h-15v23c0,2.6-1,3.7-3.6,3.7s-3.7-1.1-3.7-3.7V20.5c0-2.6,1.1-3.7,3.7-3.7Zm-14.7,7.3V49.5H281c2.8,0,4.3,0,6.6-3s2.8-6.7,2.8-10c0-8.9-5.3-12.4-9.6-12.4Z" fill="#ec663b"/><path d="M331.7,53.1a16.6,16.6,0,0,1,7.9,14.6c0,7.3-7.6,16.2-20.8,16.2a45.6,45.6,0,0,1-10.7-1.7c-7-2-8.1-1.5-8.1-5.5,0-1.2.9-3.1,4.4-3.1,1.8,0,6.8,3,14.2,3s13.7-5.1,13.7-10.1c0-2.8-1.9-5.3-4.4-7L307.8,46c-4.7-3.2-7.5-7.7-7.5-12.7,0-10.1,8-17.2,19.5-17.2a14.3,14.3,0,0,1,4.1.4c8.5,2.3,13.5,3.5,13.5,7.4,0,1.9-1.3,3.5-4,3.5s-6.5-4-13.4-4-12.4,4.6-12.4,9.3a9.2,9.2,0,0,0,4.1,7.1Z" fill="#404042"/><path d="M384.3,64.2a20,20,0,0,1-39.9,0V20.8a3.7,3.7,0,1,1,7.3,0V64.5c0,2.8,1.7,6.7,5.2,9.6a10,10,0,0,0,7.4,2.4c2.8,0,4.7-.2,7.5-2.4s5.2-6.8,5.2-9.6V20.8a4,4,0,0,1,3.6-4.3,4.1,4.1,0,0,1,3.7,4.3Z" fill="#404042"/><path d="M391.2,20.5c0-2.6,1.1-3.7,3.7-3.7s3.6,1.1,3.6,3.7V79.8c0,2.6-1,3.7-3.6,3.7s-3.7-1.1-3.7-3.7Z" fill="#404042"/><path d="M425.1,24.1V79.8c0,2.6-1.1,3.7-3.7,3.7s-3.6-1.1-3.6-3.7V24.1H405.3c-2.2,0-3.5-1.2-3.5-3.6s1.3-3.7,3.5-3.7h32.3c2.2,0,3.5,1.3,3.5,3.7s-1.3,3.6-3.5,3.6Z" fill="#404042"/><path d="M451.7,76.2h22c2.2,0,3.5,1.2,3.5,3.6s-1.3,3.7-3.5,3.7H448.1c-2.6,0-3.7-1.1-3.7-3.7V20.5c0-2.6,1.1-3.7,3.7-3.7h25.6c2.2,0,3.5,1.3,3.5,3.7s-1.3,3.6-3.5,3.6h-22V43.5h15.6c2.2,0,3.4,1.3,3.4,3.7s-1.2,3.6-3.4,3.6H451.7Z" fill="#404042"/><polygon points="54 87.8 14.2 80.1 14.2 19.6 54 11.8 54 87.8" fill="#404042"/><polygon points="55.8 87.8 95.7 80.1 95.7 19.6 55.8 11.8 55.8 87.8" fill="#ec663b"/><path d="M74.7,21l3.4.7V32.1c-4,3.9-6,6-10,10.6l10,.4V53.5L91.8,53A169.1,169.1,0,0,0,78.1,68.7v8.2l-3.4.7V68.1c4-5.1,6-7.5,9.9-11.9l-10,.5V46.1L61,45.8A173.1,173.1,0,0,1,74.7,30.5V26.2C74.7,24.1,74.7,23.1,74.7,21Z" fill="#fff"/><path d="M130,125.1a1.4,1.4,0,0,1,1.5,1.5,1.4,1.4,0,0,1-1.5,1.6h-5.1c-3.4,0-7.4-2.8-7.4-8.4V108.1c0-5.6,4.1-8.4,7.4-8.4H130a1.4,1.4,0,0,1,1.5,1.6,1.3,1.3,0,0,1-1.5,1.5h-4.4a4.4,4.4,0,0,0-2.9.7,5.8,5.8,0,0,0-2.2,4.4v12a5.6,5.6,0,0,0,2.2,4.4,4.5,4.5,0,0,0,2.9.7Z" fill="#404042"/><path d="M151.9,119.8a8.7,8.7,0,0,1-17.3,0V108a8.7,8.7,0,0,1,17.3,0Zm-14.2.2a5.2,5.2,0,0,0,1.1,3.1c1.5,1.6,2.1,2.1,4.4,2.1a4.3,4.3,0,0,0,3.3-1,5.7,5.7,0,0,0,2.2-4.2V107.8a5.5,5.5,0,0,0-1.1-3c-1.5-1.6-2.1-2.1-4.4-2.1a4.3,4.3,0,0,0-3.3,1,5.7,5.7,0,0,0-2.2,4.1Z" fill="#404042"/><path d="M159.9,107.1v19.5c0,1.1-.4,1.6-1.5,1.6s-1.6-.5-1.6-1.6V101.3c0-1.1.5-1.6,1.6-1.6s1.2.5,1.8,1.6l6.4,11,6.4-11c.6-1.1.8-1.6,1.8-1.6s1.6.5,1.6,1.6v25.3c0,1.1-.5,1.6-1.6,1.6s-1.5-.5-1.5-1.6V107.1l-5,8.4c-.4.6-.5,1.3-1.7,1.3s-1.3-.7-1.7-1.3Z" fill="#404042"/><path d="M185.2,107.1v19.5c0,1.1-.4,1.6-1.5,1.6s-1.6-.5-1.6-1.6V101.3c0-1.1.5-1.6,1.6-1.6s1.2.5,1.8,1.6l6.4,11,6.4-11c.6-1.1.8-1.6,1.8-1.6s1.6.5,1.6,1.6v25.3c0,1.1-.5,1.6-1.6,1.6s-1.5-.5-1.5-1.6V107.1l-5,8.4c-.4.6-.5,1.3-1.7,1.3s-1.3-.7-1.7-1.3Z" fill="#404042"/><path d="M223.6,119.9a8.5,8.5,0,0,1-17,0V101.4a1.6,1.6,0,1,1,3.1,0v18.7a5.8,5.8,0,0,0,2.2,4.1,4.3,4.3,0,0,0,3.2,1,4.4,4.4,0,0,0,3.2-1,5.7,5.7,0,0,0,2.2-4.1V101.4a1.7,1.7,0,0,1,1.5-1.8,1.7,1.7,0,0,1,1.6,1.8Z" fill="#404042"/><path d="M231.6,107.4v19.2c0,1.1-.4,1.6-1.5,1.6s-1.6-.5-1.6-1.6V101.3c0-1.1.5-1.6,1.6-1.6s1.2.4,1.8,1.6l10.8,19.2V101.3c0-1.1.4-1.6,1.5-1.6s1.6.5,1.6,1.6v25.3c0,1.1-.5,1.6-1.6,1.6s-1.2-.4-1.8-1.6Z" fill="#404042"/><path d="M251.5,101.3c0-1.1.5-1.6,1.6-1.6s1.5.5,1.5,1.6v25.3c0,1.1-.4,1.6-1.5,1.6s-1.6-.5-1.6-1.6Z" fill="#404042"/><path d="M267.9,102.8v23.8c0,1.1-.5,1.6-1.6,1.6s-1.5-.5-1.5-1.6V102.8h-5.3a1.4,1.4,0,0,1-1.5-1.5,1.4,1.4,0,0,1,1.5-1.6h13.8a1.4,1.4,0,0,1,1.5,1.6,1.4,1.4,0,0,1-1.5,1.5Z" fill="#404042"/><path d="M284,114.2l-8.2-12.5c-.2-.3-.1-.4-.1-.7s1-1.3,1.8-1.3,1,.6,1.3,1.1l6.8,10.1,6.7-10.1c.3-.4.5-1.1,1.3-1.1s1.8.6,1.8,1.3.1.5-.1.7l-8.2,12.5v12.4c0,1.1-.5,1.6-1.6,1.6a1.4,1.4,0,0,1-1.5-1.6Z" fill="#404042"/><path d="M316.5,125.1h9.4a1.4,1.4,0,0,1,1.5,1.5,1.4,1.4,0,0,1-1.5,1.6H314.9c-1.1,0-1.6-.5-1.6-1.6V101.3c0-1.1.5-1.6,1.6-1.6h10.9a1.4,1.4,0,0,1,1.5,1.6,1.4,1.4,0,0,1-1.5,1.5h-9.4v8.3h6.7c.9,0,1.5.6,1.5,1.6s-.5,1.5-1.5,1.5h-6.7Z" fill="#404042"/><path d="M333.5,128.2c-1.1,0-1.6-.5-1.6-1.6V101.3c0-1.1.5-1.6,1.6-1.6h8.4c3.3,0,7.4,2.8,7.4,8.4v11.7c0,5.6-4,8.4-7.4,8.4Zm1.5-3.1h6.1a4.5,4.5,0,0,0,2.9-.7,5.6,5.6,0,0,0,2.2-4.4V108a5.8,5.8,0,0,0-2.2-4.4,4.4,4.4,0,0,0-2.9-.7H335Z" fill="#404042"/><path d="M354.1,101.3c0-1.1.5-1.6,1.6-1.6s1.5.5,1.5,1.6v25.3c0,1.1-.4,1.6-1.5,1.6s-1.6-.5-1.6-1.6Z" fill="#404042"/><path d="M370.5,102.8v23.8c0,1.1-.5,1.6-1.6,1.6s-1.5-.5-1.5-1.6V102.8H362a1.4,1.4,0,0,1-1.5-1.5,1.4,1.4,0,0,1,1.5-1.6h13.8a1.4,1.4,0,0,1,1.5,1.6,1.4,1.4,0,0,1-1.5,1.5Z" fill="#404042"/><path d="M380.6,101.3c0-1.1.5-1.6,1.6-1.6s1.5.5,1.5,1.6v25.3c0,1.1-.4,1.6-1.5,1.6s-1.6-.5-1.6-1.6Z" fill="#404042"/><path d="M405.9,119.8a8.7,8.7,0,0,1-17.3,0V108a8.7,8.7,0,0,1,17.3,0Zm-14.2.2a5.3,5.3,0,0,0,1.1,3.1c1.5,1.6,2.1,2.1,4.4,2.1a4.3,4.3,0,0,0,3.3-1,5.7,5.7,0,0,0,2.2-4.2V107.8a5.6,5.6,0,0,0-1.1-3c-1.5-1.6-2.1-2.1-4.4-2.1a4.3,4.3,0,0,0-3.3,1,5.7,5.7,0,0,0-2.2,4.1Z" fill="#404042"/><path d="M413.9,107.4v19.2c0,1.1-.4,1.6-1.5,1.6s-1.6-.5-1.6-1.6V101.3c0-1.1.5-1.6,1.6-1.6s1.2.4,1.8,1.6L425,120.5V101.3c0-1.1.4-1.6,1.5-1.6s1.6.5,1.6,1.6v25.3c0,1.1-.5,1.6-1.6,1.6s-1.2-.4-1.8-1.6Z" fill="#404042"/></svg>