<svg xmlns="http://www.w3.org/2000/svg" width="112.01" height="112" viewBox="0 0 112.01 112"><title>open-api-logo</title><rect width="112" height="112" fill="none"/><path d="M29.6,64.41H0V66c0,.32,0,.64.08,1v.22c0,.35.07.71.12,1.07.07.54,0,.07,0,.1a8.9,8.9,0,0,0,.15,1.14h0a49.07,49.07,0,0,0,1.53,7h0l.33,1.08v.12c.1.32.21.64.33,1l.09.24.3.84.14.38.27.69.38.43.23.54.29.66.19.44.37.79L5,84l.44.9.07.13.52,1H6l.12.2L31.35,71l.09-.06A20.07,20.07,0,0,1,29.6,64.41Z" fill="#95d600"/><polygon points="1.44 77.96 1.45 77.99 2.4 77.69 1.44 77.96" fill="#95d600"/><path d="M36.86,78l-.07.07L16,98.87l.32.3.59.52.3.27.71.6.19.16.82.62.1.08.89.69h0a46.52,46.52,0,0,0,3.89,2.63l.14.08.82.52.47.27.45.25.81.48h.11c.76.4,1.53.76,2.3,1.12h0l.74-1.79L40.09,80.24v-.09A20,20,0,0,1,36.86,78Z" fill="#4e5a30"/><path d="M34.7,75.9c-.22-.25-.44-.51-.65-.77s-.37-.46-.54-.7-.39-.54-.58-.82-.37-.56-.54-.84L7.11,88c.39.64.79,1.27,1.21,1.89V90h0V90h0l.1.15h0c.44.67.89,1.3,1.35,1.91h0l.61.8.08.1.65.81.36.31.6.71.27.3.52.59.3.32.13.15.39.42.16.16.7.72L35.39,76.63A9.47,9.47,0,0,1,34.7,75.9Z" fill="#6ca439"/><path d="M62.33,78l-.7.54,0,.09,15.2,25.23c.7-.46,1.4-.93,2.08-1.43a51.6,51.6,0,0,0,4.27-3.53L62.41,78.05Z" fill="#4e5a30"/><path d="M75,105Z" fill="#95d600"/><polygon points="74.95 105.01 74.95 105.01 74.95 105.01 74.95 105.01 74.95 105.01" fill="#95d600"/><path d="M75,105h0l.2-.11h0Z" fill="#95d600"/><polygon points="74.96 105.03 74.97 105.03 74.97 105.03 74.96 105.03" fill="#95d600"/><polygon points="74.95 105.04 74.96 105.04 74.92 104.98 74.95 105.04" fill="#95d600"/><path d="M75,105Z" fill="#95d600"/><polygon points="74.94 105.05 74.94 105.05 74.95 105.04 74.95 105.04 74.94 105.05" fill="#95d600"/><polygon points="74.94 105.05 74.94 105.05 74.94 105.05 74.94 105.05 74.94 105.05" fill="#95d600"/><path d="M75,105Z" fill="#95d600"/><path d="M75,105l.2-.11L75,105Z" fill="#95d600"/><polygon points="75.2 104.9 75.2 104.89 75.2 104.89 75.2 104.9" fill="#95d600"/><polygon points="74.94 105.06 74.94 105.06 74.94 105.06 74.94 105.06" fill="#95d600"/><polygon points="74.93 105.05 74.94 105.05 74.94 105.05 74.93 105.05" fill="#95d600"/><polygon points="74.94 105.05 74.94 105.05 74.94 105.05 74.94 105.05 74.94 105.05 74.94 105.05" fill="#95d600"/><path d="M74.68,104l-.52-.86L60,79.62l-.87.49q-.43.24-.9.45a20.07,20.07,0,0,1-14.37,1.12c-.32-.1-.63-.22-.94-.33s-.63-.21-.94-.33l-10.48,25.4-.41,1-.35.85h.17l.74.28.93.36.48.18h0a49.57,49.57,0,0,0,10.12,2.42l.4,0H44l.8.09H45l1,.08h.33l.86,0h2.43a49.33,49.33,0,0,0,8.23-.69H58l.86-.16.49-.09.51-.11.84-.18h.15a50,50,0,0,0,11.9-4.44h0l.73-.41.87-.49.6-.34h0v0h0l.2-.12h0Z" fill="#95d600"/><path d="M36.88,46.85l.7-.54,0-.09L22.33,21c-.71.46-1.4.94-2.09,1.44A49.42,49.42,0,0,0,16,26L36.8,46.77Z" fill="#95d600"/><path d="M14.53,27.34c-.24.24-.46.48-.69.72l-.69.72A49,49,0,0,0,8.94,34l-.18.26-.42.62-.43.66-.16.24A49.43,49.43,0,0,0,.05,60.41v2H29.47v-1a6.7,6.7,0,0,1,.05-1A20.06,20.06,0,0,1,34,49.67c.21-.26.45-.5.67-.74s.43-.5.67-.74Z" fill="#4e5a30"/><path d="M75.37,20l-.12-.07-.78-.47L74,19.21,73.55,19l-.8-.43-.13-.07a48.8,48.8,0,0,0-5.32-2.39l-.14,0L66,15.58A49.09,49.09,0,0,0,56,13.22l-.41-.06h-.41l-.8-.09h-.22l-1-.08H51.57V42.55a20.17,20.17,0,0,1,4.48,1L77.8,21.8A14.45,14.45,0,0,0,75.37,20Z" fill="#4e5a30"/><polygon points="24.53 20.78 24.01 19.92 24.01 19.92 24.53 20.78 24.53 20.78" fill="#6ca439"/><polygon points="24.01 19.92 24.01 19.92 24.01 19.92 24.01 19.92" fill="#6ca439"/><path d="M48.61,12.83h-1a50,50,0,0,0-6.23.64h-.14l-.86.16-.49.09-.51.11-.84.18h-.15a49.81,49.81,0,0,0-11.92,4.52h0l-.73.41-.87.49-.65.37h0l-.17.1h0l.52.86h0L39.28,45.17l.87-.49q.43-.24.9-.45a20,20,0,0,1,6.6-1.85l1-.08h1V12.8Z" fill="#6ca439"/><path d="M99.15,60V58.78a3.66,3.66,0,0,0-.08-.93v-.24c0-.35-.07-.68-.11-1v-.17l-.15-1.12h0a50.45,50.45,0,0,0-1.52-7h0L97,47.26v-.14c-.1-.32-.21-.64-.32-1l-.09-.26-.3-.82-.15-.39L95.83,44l-.22-.53-.22-.53-.29-.67-.17-.38-.37-.8-.12-.24L94,39.91l-.07-.13-.52-1h0a49.76,49.76,0,0,0-2.82-4.58L68.82,56a20.17,20.17,0,0,1,1,4.48H99.17C99.16,60.26,99.16,60.12,99.15,60Z" fill="#4e5a30"/><path d="M69.72,62.41v1a6.7,6.7,0,0,1,0,1,20.06,20.06,0,0,1-4.45,10.74c-.21.26-.45.5-.67.74s-.43.5-.67.74L84.73,97.48c.24-.24.46-.48.69-.72l.69-.72a50.64,50.64,0,0,0,4.22-5.24l.15-.21.46-.67.4-.61.19-.3A49.46,49.46,0,0,0,99.21,64.4v-2H69.72Z" fill="#6ca439"/><path d="M108,4.05A13.81,13.81,0,0,0,85.83,20L55.74,50A13.81,13.81,0,1,0,62,56.27L92.06,26.18A13.81,13.81,0,0,0,108,4.05Z" fill="#424143"/></svg>