<svg width="24" height="24" viewBox="0 0 24 24" fill="none" xmlns="http://www.w3.org/2000/svg">
    <path d="M7.98019 15.06C7.82819 15.06 7.70019 15.008 7.59619 14.904C7.49219 14.8 7.44019 14.672 7.44019 14.52V9.372C7.44019 9.22 7.49219 9.092 7.59619 8.988C7.70019 8.876 7.82819 8.82 7.98019 8.82C8.13219 8.82 8.26019 8.876 8.36419 8.988C8.47619 9.092 8.53219 9.22 8.53219 9.372V9.864C8.75619 9.544 9.02419 9.28 9.33619 9.072C9.65619 8.864 10.0682 8.76 10.5722 8.76C11.0202 8.76 11.4042 8.88 11.7242 9.12C12.0442 9.36 12.2722 9.652 12.4082 9.996C12.9042 9.172 13.6402 8.76 14.6162 8.76C15.0642 8.76 15.4362 8.872 15.7322 9.096C16.0362 9.32 16.2602 9.608 16.4042 9.96C16.5482 10.312 16.6202 10.68 16.6202 11.064V14.52C16.6202 14.672 16.5642 14.8 16.4522 14.904C16.3482 15.008 16.2202 15.06 16.0682 15.06C15.9162 15.06 15.7882 15.008 15.6842 14.904C15.5802 14.8 15.5282 14.672 15.5282 14.52V11.28C15.5282 10.76 15.4362 10.38 15.2522 10.14C15.0682 9.892 14.7522 9.768 14.3042 9.768C13.8962 9.768 13.5562 9.876 13.2842 10.092C13.0202 10.3 12.7842 10.576 12.5762 10.92V14.52C12.5762 14.672 12.5202 14.8 12.4082 14.904C12.3042 15.008 12.1762 15.06 12.0242 15.06C11.8722 15.06 11.7442 15.008 11.6402 14.904C11.5362 14.8 11.4842 14.672 11.4842 14.52V11.28C11.4842 10.76 11.3922 10.38 11.2082 10.14C11.0242 9.892 10.7082 9.768 10.2602 9.768C9.85219 9.768 9.51219 9.876 9.24019 10.092C8.97619 10.3 8.74019 10.576 8.53219 10.92V14.52C8.53219 14.672 8.47619 14.8 8.36419 14.904C8.26019 15.008 8.13219 15.06 7.98019 15.06Z" fill="black"/>
    <path d="M7.59619 14.904L7.77296 14.7272H7.77296L7.59619 14.904ZM7.59619 8.988L7.77309 9.1649L7.77939 9.15811L7.59619 8.988ZM8.36419 8.988L8.18099 9.15811L8.18729 9.1649L8.19407 9.1712L8.36419 8.988ZM8.53219 9.864H8.28219V10.6571L8.737 10.0074L8.53219 9.864ZM9.33619 9.072L9.19993 8.86237L9.19751 8.86399L9.33619 9.072ZM11.7242 9.12L11.5742 9.32L11.7242 9.12ZM12.4082 9.996L12.1757 10.0879L12.3616 10.5581L12.6224 10.1249L12.4082 9.996ZM15.7322 9.096L15.5813 9.29537L15.5839 9.29726L15.7322 9.096ZM16.4522 14.904L16.282 14.7207L16.2754 14.7272L16.4522 14.904ZM15.6842 14.904L15.5074 15.0808L15.6842 14.904ZM15.2522 10.14L15.0514 10.289L15.0538 10.2921L15.2522 10.14ZM13.2842 10.092L13.4389 10.2884L13.4397 10.2878L13.2842 10.092ZM12.5762 10.92L12.3623 10.7906L12.3262 10.8503V10.92H12.5762ZM12.4082 14.904L12.238 14.7207L12.2314 14.7272L12.4082 14.904ZM11.6402 14.904L11.4634 15.0808L11.6402 14.904ZM11.2082 10.14L11.0074 10.289L11.0098 10.2921L11.2082 10.14ZM9.24019 10.092L9.39491 10.2884L9.39566 10.2878L9.24019 10.092ZM8.53219 10.92L8.31825 10.7906L8.28219 10.8503V10.92H8.53219ZM8.36419 14.904L8.19396 14.7207L8.18741 14.7272L8.36419 14.904ZM7.98019 14.81C7.89201 14.81 7.82836 14.7826 7.77296 14.7272L7.41941 15.0808C7.57202 15.2334 7.76436 15.31 7.98019 15.31V14.81ZM7.77296 14.7272C7.71757 14.6718 7.69019 14.6082 7.69019 14.52H7.19019C7.19019 14.7358 7.2668 14.9282 7.41941 15.0808L7.77296 14.7272ZM7.69019 14.52V9.372H7.19019V14.52H7.69019ZM7.69019 9.372C7.69019 9.28382 7.71757 9.22017 7.77296 9.16478L7.41941 8.81122C7.2668 8.96383 7.19019 9.15618 7.19019 9.372H7.69019ZM7.77939 9.15811C7.83638 9.09673 7.89814 9.07 7.98019 9.07V8.57C7.75823 8.57 7.56399 8.65527 7.41299 8.81789L7.77939 9.15811ZM7.98019 9.07C8.06223 9.07 8.12399 9.09673 8.18099 9.15811L8.54739 8.81789C8.39638 8.65527 8.20214 8.57 7.98019 8.57V9.07ZM8.19407 9.1712C8.25545 9.22819 8.28219 9.28995 8.28219 9.372H8.78219C8.78219 9.15005 8.69692 8.95581 8.5343 8.8048L8.19407 9.1712ZM8.28219 9.372V9.864H8.78219V9.372H8.28219ZM8.737 10.0074C8.94392 9.71176 9.18981 9.47005 9.47486 9.28001L9.19751 8.86399C8.85857 9.08995 8.56846 9.37624 8.32738 9.72063L8.737 10.0074ZM9.47243 9.28161C9.74078 9.10719 10.1013 9.01 10.5722 9.01V8.51C10.035 8.51 9.5716 8.62081 9.19994 8.86239L9.47243 9.28161ZM10.5722 9.01C10.9729 9.01 11.3026 9.11632 11.5742 9.32L11.8742 8.92C11.5058 8.64368 11.0675 8.51 10.5722 8.51V9.01ZM11.5742 9.32C11.8604 9.53462 12.0581 9.79036 12.1757 10.0879L12.6407 9.90408C12.4863 9.51364 12.228 9.18538 11.8742 8.92L11.5742 9.32ZM12.6224 10.1249C13.0723 9.37741 13.7263 9.01 14.6162 9.01V8.51C13.5541 8.51 12.736 8.96658 12.194 9.86707L12.6224 10.1249ZM14.6162 9.01C15.0213 9.01 15.3372 9.11058 15.5813 9.29535L15.883 8.89665C15.5352 8.63342 15.1071 8.51 14.6162 8.51V9.01ZM15.5839 9.29726C15.8507 9.49383 16.0461 9.74483 16.1728 10.0547L16.6356 9.86534C16.4743 9.47117 16.2217 9.14617 15.8805 8.89474L15.5839 9.29726ZM16.1728 10.0547C16.3044 10.3763 16.3702 10.7121 16.3702 11.064H16.8702C16.8702 10.6479 16.792 10.2477 16.6356 9.86534L16.1728 10.0547ZM16.3702 11.064V14.52H16.8702V11.064H16.3702ZM16.3702 14.52C16.3702 14.602 16.3435 14.6638 16.2821 14.7208L16.6223 15.0872C16.7849 14.9362 16.8702 14.742 16.8702 14.52H16.3702ZM16.2754 14.7272C16.22 14.7826 16.1564 14.81 16.0682 14.81V15.31C16.284 15.31 16.4764 15.2334 16.629 15.0808L16.2754 14.7272ZM16.0682 14.81C15.98 14.81 15.9164 14.7826 15.861 14.7272L15.5074 15.0808C15.66 15.2334 15.8524 15.31 16.0682 15.31V14.81ZM15.861 14.7272C15.8056 14.6718 15.7782 14.6082 15.7782 14.52H15.2782C15.2782 14.7358 15.3548 14.9282 15.5074 15.0808L15.861 14.7272ZM15.7782 14.52V11.28H15.2782V14.52H15.7782ZM15.7782 11.28C15.7782 10.7406 15.6847 10.2932 15.4506 9.98789L15.0538 10.2921C15.1877 10.4668 15.2782 10.7794 15.2782 11.28H15.7782ZM15.453 9.99104C15.2032 9.65439 14.7938 9.518 14.3042 9.518V10.018C14.7106 10.018 14.9332 10.1296 15.0514 10.289L15.453 9.99104ZM14.3042 9.518C13.85 9.518 13.4524 9.63921 13.1287 9.89622L13.4397 10.2878C13.66 10.1128 13.9424 10.018 14.3042 10.018V9.518ZM13.1295 9.89563C12.8377 10.1255 12.5828 10.4258 12.3623 10.7906L12.7901 11.0494C12.9855 10.7262 13.2026 10.4745 13.4389 10.2884L13.1295 9.89563ZM12.3262 10.92V14.52H12.8262V10.92H12.3262ZM12.3262 14.52C12.3262 14.602 12.2995 14.6638 12.2381 14.7208L12.5783 15.0872C12.7409 14.9362 12.8262 14.742 12.8262 14.52H12.3262ZM12.2314 14.7272C12.176 14.7826 12.1124 14.81 12.0242 14.81V15.31C12.24 15.31 12.4324 15.2334 12.585 15.0808L12.2314 14.7272ZM12.0242 14.81C11.936 14.81 11.8724 14.7826 11.817 14.7272L11.4634 15.0808C11.616 15.2334 11.8084 15.31 12.0242 15.31V14.81ZM11.817 14.7272C11.7616 14.6718 11.7342 14.6082 11.7342 14.52H11.2342C11.2342 14.7358 11.3108 14.9282 11.4634 15.0808L11.817 14.7272ZM11.7342 14.52V11.28H11.2342V14.52H11.7342ZM11.7342 11.28C11.7342 10.7406 11.6407 10.2932 11.4066 9.98789L11.0098 10.2921C11.1437 10.4668 11.2342 10.7794 11.2342 11.28H11.7342ZM11.409 9.99104C11.1592 9.65439 10.7498 9.518 10.2602 9.518V10.018C10.6666 10.018 10.8892 10.1296 11.0074 10.289L11.409 9.99104ZM10.2602 9.518C9.80601 9.518 9.40836 9.63921 9.08472 9.89622L9.39566 10.2878C9.61601 10.1128 9.89837 10.018 10.2602 10.018V9.518ZM9.08547 9.89563C8.79374 10.1255 8.53883 10.4258 8.31825 10.7906L8.74612 11.0494C8.94154 10.7262 9.15864 10.4745 9.39491 10.2884L9.08547 9.89563ZM8.28219 10.92V14.52H8.78219V10.92H8.28219ZM8.28219 14.52C8.28219 14.602 8.25545 14.6638 8.19407 14.7208L8.5343 15.0872C8.69692 14.9362 8.78219 14.742 8.78219 14.52H8.28219ZM8.18741 14.7272C8.13202 14.7826 8.06836 14.81 7.98019 14.81V15.31C8.19601 15.31 8.38836 15.2334 8.54096 15.0808L8.18741 14.7272Z" fill="black"/>
    <path fill-rule="evenodd" clip-rule="evenodd" d="M9.99998 2.20004C6.08172 2.99541 2.99538 6.08174 2.20001 10H3.73661C4.48133 6.91202 6.91199 4.48136 9.99998 3.73664V2.20004ZM9.99998 20.2634C6.91199 19.5187 4.48133 17.088 3.73661 14H2.20001C2.99538 17.9183 6.08171 21.0046 9.99998 21.8V20.2634ZM14 21.8V20.2634C17.088 19.5187 19.5186 17.088 20.2633 14H21.7999C21.0046 17.9183 17.9182 21.0046 14 21.8ZM14 3.73664V2.20004C17.9182 2.99541 21.0046 6.08174 21.7999 10H20.2633C19.5186 6.91202 17.088 4.48136 14 3.73664Z" fill="black"/>
</svg>
