<svg width="24" height="24" viewBox="0 0 24 24" fill="none" xmlns="http://www.w3.org/2000/svg">
    <path d="M20.781 15.9592C16.4936 14.727 15.523 13.7564 14.2908 9.46898C14.2536 9.33923 14.135 9.25 14.0002 9.25C13.8653 9.25 13.7467 9.33923 13.7095 9.46898C12.477 13.7567 11.5064 14.727 7.21898 15.9592C7.08923 15.9964 7 16.115 7 16.2498C7 16.3847 7.08923 16.5033 7.21898 16.5405C11.5067 17.773 12.477 18.7433 13.7095 23.031C13.7467 23.1608 13.8653 23.25 14.0002 23.25C14.135 23.25 14.2536 23.1608 14.2908 23.031C15.523 18.7436 16.4933 17.773 20.781 16.5405C20.9108 16.5033 21 16.3847 21 16.2498C21 16.115 20.9108 15.9967 20.781 15.9592Z" fill="black"/>
    <path d="M23.2968 4.98013C20.6075 4.20742 20.043 3.64269 19.2697 0.953212C19.2352 0.832801 19.1252 0.75 19 0.75C18.8748 0.75 18.7648 0.832801 18.7303 0.953212C17.9572 3.64269 17.3925 4.20742 14.7032 4.98013C14.5828 5.01465 14.5 5.12468 14.5 5.24986C14.5 5.37504 14.5828 5.48507 14.7032 5.51959C17.3925 6.29259 17.9572 6.85731 18.7303 9.54679C18.7648 9.6672 18.8748 9.75 19 9.75C19.1252 9.75 19.2352 9.6672 19.2697 9.54679C20.043 6.85731 20.6075 6.29259 23.2968 5.51959C23.4172 5.48507 23.5 5.37532 23.5 5.24986C23.5 5.1244 23.4172 5.01465 23.2968 4.98013Z" fill="black"/>
    <path d="M11.5 8.25022C11.5 8.05798 11.3729 7.88902 11.1879 7.83601C7.99971 6.91923 7.33077 6.25029 6.41442 3.06206C6.36141 2.87715 6.19245 2.75 6.00022 2.75C5.80798 2.75 5.63902 2.87715 5.58601 3.06206C4.66923 6.25029 4.00029 6.91923 0.812057 7.83601C0.62715 7.88902 0.5 8.05755 0.5 8.25022C0.5 8.44288 0.62715 8.61141 0.812057 8.66442C3.99986 9.58034 4.66923 10.2497 5.58601 13.4379C5.63902 13.6229 5.80798 13.75 6.00022 13.75C6.19245 13.75 6.36141 13.6229 6.41442 13.4379C7.33077 10.2497 8.00014 9.58034 11.1879 8.66442C11.3729 8.61098 11.5 8.44245 11.5 8.25022Z" fill="black"/>
</svg>
