<svg width="24" height="24" viewBox="0 0 24 24" fill="none" xmlns="http://www.w3.org/2000/svg">
    <path d="M10.8188 20.992C9.15475 20.992 7.68275 20.608 6.40275 19.84C5.12275 19.088 4.13075 18.08 3.42675 16.816C2.73875 15.536 2.39475 14.168 2.39475 12.712C2.39475 10.904 2.85875 9.216 3.78675 7.648C4.71475 6.08 5.95475 4.832 7.50675 3.904C9.07475 2.96 10.7628 2.488 12.5708 2.488C14.2188 2.488 15.7388 2.848 17.1308 3.568C18.5388 4.272 19.6508 5.256 20.4668 6.52C21.2988 7.768 21.7148 9.192 21.7148 10.792C21.7148 11.8 21.5548 12.752 21.2348 13.648C20.9308 14.544 20.4428 15.28 19.7708 15.856C19.1148 16.432 18.2748 16.72 17.2508 16.72C16.4508 16.72 15.8268 16.544 15.3788 16.192C14.9308 15.84 14.6588 15.424 14.5628 14.944C14.0668 15.552 13.4748 16.008 12.7868 16.312C12.0988 16.6 11.3708 16.744 10.6028 16.744C9.32275 16.744 8.32275 16.352 7.60275 15.568C6.88275 14.784 6.52275 13.768 6.52275 12.52C6.52275 11.32 6.78675 10.28 7.31475 9.4C7.85875 8.52 8.56275 7.848 9.42675 7.384C10.3068 6.92 11.2348 6.688 12.2108 6.688C13.4108 6.688 14.4348 7.096 15.2828 7.912L15.3548 7.504C15.3868 7.296 15.4828 7.12 15.6428 6.976C15.8188 6.832 16.0188 6.76 16.2428 6.76C16.4828 6.76 16.6828 6.848 16.8428 7.024C17.0188 7.184 17.1068 7.392 17.1068 7.648L17.0828 7.912L16.2908 12.472C16.1788 13.064 16.1228 13.584 16.1228 14.032C16.1228 14.48 16.2188 14.856 16.4108 15.16C16.6188 15.448 16.9228 15.592 17.3228 15.592C18.3148 15.592 19.0748 15.16 19.6028 14.296C20.1468 13.432 20.4188 12.264 20.4188 10.792C20.4188 9.32 20.0428 8.056 19.2908 7C18.5388 5.928 17.5548 5.12 16.3388 4.576C15.1388 4.032 13.8828 3.76 12.5708 3.76C10.9868 3.76 9.50675 4.168 8.13075 4.984C6.77075 5.8 5.68275 6.896 4.86675 8.272C4.05075 9.648 3.64275 11.128 3.64275 12.712C3.64275 13.896 3.92275 15.032 4.48275 16.12C5.05875 17.192 5.88275 18.064 6.95475 18.736C8.04275 19.408 9.33075 19.744 10.8188 19.744C11.7948 19.744 12.6428 19.648 13.3628 19.456C14.0828 19.28 14.9068 19.008 15.8348 18.64C15.9308 18.608 16.0188 18.592 16.0988 18.592C16.2748 18.592 16.4188 18.648 16.5308 18.76C16.6428 18.872 16.6988 19.008 16.6988 19.168C16.6988 19.28 16.6668 19.384 16.6028 19.48C16.5388 19.592 16.4588 19.672 16.3628 19.72C14.6668 20.568 12.8188 20.992 10.8188 20.992ZM11.1308 15.088C13.0828 15.088 14.2508 13.968 14.6348 11.728L15.0188 9.496C14.3148 8.76 13.4108 8.392 12.3068 8.392C11.6188 8.392 10.9708 8.544 10.3628 8.848C9.77075 9.152 9.29075 9.6 8.92275 10.192C8.55475 10.768 8.37075 11.464 8.37075 12.28C8.37075 13.208 8.62675 13.912 9.13875 14.392C9.65075 14.856 10.3148 15.088 11.1308 15.088Z" fill="black"/>
    <path d="M6.40275 19.84L6.53138 19.6256L6.52939 19.6244L6.40275 19.84ZM3.42675 16.816L3.20652 16.9344L3.20834 16.9376L3.42675 16.816ZM3.78675 7.648L4.00189 7.77533L3.78675 7.648ZM7.50675 3.904L7.63505 4.11857L7.6357 4.11818L7.50675 3.904ZM17.1308 3.568L17.0159 3.79008L17.0189 3.79161L17.1308 3.568ZM20.4668 6.52L20.2567 6.65561L20.2587 6.65867L20.4668 6.52ZM21.2348 13.648L20.9993 13.5639L20.998 13.5677L21.2348 13.648ZM19.7708 15.856L19.608 15.6662L19.6058 15.6681L19.7708 15.856ZM15.3788 16.192L15.2243 16.3886L15.3788 16.192ZM14.5628 14.944L14.8079 14.895L14.704 14.3754L14.369 14.786L14.5628 14.944ZM12.7868 16.312L12.8833 16.5427L12.8878 16.5407L12.7868 16.312ZM7.60275 15.568L7.41862 15.7371L7.60275 15.568ZM7.31475 9.4L7.10208 9.26853L7.10038 9.27138L7.31475 9.4ZM9.42675 7.384L9.31014 7.16285L9.30847 7.16375L9.42675 7.384ZM15.2828 7.912L15.1094 8.09214L15.4474 8.41741L15.5289 7.95545L15.2828 7.912ZM15.3548 7.504L15.601 7.54746L15.6018 7.54201L15.3548 7.504ZM15.6427 6.976L15.4843 6.78229L15.4755 6.79018L15.6427 6.976ZM16.8428 7.024L16.6578 7.19217L16.6658 7.20098L16.6746 7.20899L16.8428 7.024ZM17.1068 7.648L17.3557 7.67063L17.3568 7.65934V7.648H17.1068ZM17.0828 7.912L17.3291 7.95478L17.3308 7.94476L17.3317 7.93463L17.0828 7.912ZM16.2908 12.472L16.5364 12.5185L16.5371 12.5148L16.2908 12.472ZM16.4108 15.16L16.1994 15.2935L16.2035 15.3001L16.2081 15.3064L16.4108 15.16ZM19.6028 14.296L19.3912 14.1628L19.3894 14.1656L19.6028 14.296ZM19.2908 7L19.0861 7.14357L19.0871 7.14502L19.2908 7ZM16.3388 4.576L16.2355 4.8037L16.2367 4.8042L16.3388 4.576ZM8.13075 4.984L8.00323 4.76896L8.00213 4.76963L8.13075 4.984ZM4.86675 8.272L5.08178 8.39952V8.39952L4.86675 8.272ZM4.48275 16.12L4.26043 16.2344L4.26253 16.2383L4.48275 16.12ZM6.95475 18.736L6.82196 18.9478L6.82338 18.9487L6.95475 18.736ZM13.3628 19.456L13.3034 19.2131L13.2983 19.2144L13.3628 19.456ZM15.8348 18.64L15.7556 18.4025L15.7426 18.4076L15.8348 18.64ZM16.5308 18.76L16.354 18.9368H16.354L16.5308 18.76ZM16.6028 19.48L16.3947 19.3413L16.39 19.3485L16.3857 19.356L16.6028 19.48ZM16.3628 19.72L16.4746 19.9436H16.4746L16.3628 19.72ZM14.6348 11.728L14.3884 11.6856L14.3883 11.6858L14.6348 11.728ZM15.0188 9.496L15.2651 9.53839L15.2865 9.41423L15.1994 9.32319L15.0188 9.496ZM10.3628 8.848L10.2509 8.62438L10.2485 8.62561L10.3628 8.848ZM8.92275 10.192L9.13344 10.3266L9.13507 10.324L8.92275 10.192ZM9.13875 14.392L8.96774 14.5744L8.97087 14.5772L9.13875 14.392ZM10.8188 20.742C9.19472 20.742 7.76818 20.3677 6.53137 19.6256L6.27413 20.0544C7.59732 20.8483 9.11478 21.242 10.8188 21.242V20.742ZM6.52939 19.6244C5.28675 18.8944 4.3269 17.9184 3.64516 16.6944L3.20834 16.9376C3.9346 18.2416 4.95875 19.2816 6.27611 20.0556L6.52939 19.6244ZM3.64696 16.6976C2.97855 15.4541 2.64475 14.1268 2.64475 12.712H2.14475C2.14475 14.2092 2.49895 15.6179 3.20654 16.9344L3.64696 16.6976ZM2.64475 12.712C2.64475 10.9492 3.09653 9.30509 4.00189 7.77533L3.57161 7.52067C2.62098 9.12691 2.14475 10.8588 2.14475 12.712H2.64475ZM4.00189 7.77533C4.90884 6.24291 6.1191 5.02501 7.63505 4.11857L7.37845 3.68943C5.7904 4.63899 4.52066 5.91709 3.57161 7.52067L4.00189 7.77533ZM7.6357 4.11818C9.16527 3.19731 10.8088 2.738 12.5708 2.738V2.238C10.7167 2.238 8.98423 2.72269 7.37781 3.68982L7.6357 4.11818ZM12.5708 2.738C14.1809 2.738 15.6612 3.08937 17.0159 3.79005L17.2456 3.34595C15.8163 2.60663 14.2566 2.238 12.5708 2.238V2.738ZM17.0189 3.79161C18.3889 4.47656 19.4661 5.43097 20.2567 6.65559L20.6768 6.38441C19.8354 5.08103 18.6887 4.06744 17.2426 3.34439L17.0189 3.79161ZM20.2587 6.65867C21.0615 7.86282 21.4648 9.2379 21.4648 10.792H21.9648C21.9648 9.1461 21.536 7.67318 20.6748 6.38132L20.2587 6.65867ZM21.4648 10.792C21.4648 11.7731 21.3091 12.6965 20.9993 13.5639L21.4702 13.7321C21.8004 12.8075 21.9648 11.8269 21.9648 10.792H21.4648ZM20.998 13.5677C20.7074 14.4242 20.2436 15.1214 19.6081 15.6662L19.9334 16.0458C20.6419 15.4386 21.1541 14.6638 21.4715 13.7283L20.998 13.5677ZM19.6058 15.6681C19.0031 16.1973 18.2251 16.47 17.2508 16.47V16.97C18.3244 16.97 19.2264 16.6667 19.9357 16.0439L19.6058 15.6681ZM17.2508 16.47C16.4846 16.47 15.9224 16.3012 15.5332 15.9954L15.2243 16.3886C15.7311 16.7868 16.4169 16.97 17.2508 16.97V16.47ZM15.5332 15.9954C15.1239 15.6739 14.8903 15.3072 14.8079 14.895L14.3176 14.993C14.4272 15.5408 14.7376 16.0061 15.2243 16.3886L15.5332 15.9954ZM14.369 14.786C13.8968 15.3648 13.3361 15.7959 12.6857 16.0833L12.8878 16.5407C13.6134 16.2201 14.2367 15.7392 14.7565 15.102L14.369 14.786ZM12.6902 16.0814C12.0337 16.3562 11.3386 16.494 10.6028 16.494V16.994C11.4029 16.994 12.1638 16.8438 12.8833 16.5426L12.6902 16.0814ZM10.6028 16.494C9.37738 16.494 8.45005 16.121 7.78688 15.3989L7.41862 15.7371C8.19545 16.583 9.26812 16.994 10.6028 16.994V16.494ZM7.78688 15.3989C7.11643 14.6688 6.77275 13.7169 6.77275 12.52H6.27275C6.27275 13.8191 6.64908 14.8992 7.41862 15.7371L7.78688 15.3989ZM6.77275 12.52C6.77275 11.3575 7.02813 10.3636 7.52912 9.52862L7.10038 9.27138C6.54537 10.1964 6.27275 11.2825 6.27275 12.52H6.77275ZM7.5274 9.53146C8.04961 8.6867 8.7219 8.0463 9.54503 7.60425L9.30847 7.16375C8.4036 7.6497 7.66789 8.3533 7.1021 9.26854L7.5274 9.53146ZM9.54335 7.60514C10.3881 7.15971 11.2762 6.938 12.2108 6.938V6.438C11.1933 6.438 10.2254 6.68029 9.31015 7.16286L9.54335 7.60514ZM12.2108 6.938C13.3475 6.938 14.309 7.32194 15.1094 8.09214L15.4561 7.73186C14.5605 6.87006 13.474 6.438 12.2108 6.438V6.938ZM15.5289 7.95545L15.6009 7.54745L15.1086 7.46055L15.0366 7.86855L15.5289 7.95545ZM15.6018 7.54201C15.6249 7.39242 15.6918 7.2682 15.81 7.16182L15.4755 6.79018C15.2737 6.9718 15.1486 7.19958 15.1077 7.46599L15.6018 7.54201ZM15.8011 7.16949C15.9331 7.06143 16.0774 7.01 16.2428 7.01V6.51C15.9601 6.51 15.7044 6.60257 15.4844 6.78251L15.8011 7.16949ZM16.2428 7.01C16.413 7.01 16.5456 7.06882 16.6578 7.19217L17.0277 6.85583C16.8199 6.62718 16.5525 6.51 16.2428 6.51V7.01ZM16.6746 7.20899C16.7942 7.31769 16.8568 7.4564 16.8568 7.648H17.3568C17.3568 7.32759 17.2433 7.05031 17.0109 6.83901L16.6746 7.20899ZM16.8578 7.62536L16.8338 7.88937L17.3317 7.93463L17.3557 7.67063L16.8578 7.62536ZM16.8364 7.86922L16.0444 12.4292L16.5371 12.5148L17.3291 7.95478L16.8364 7.86922ZM16.0451 12.4255C15.9311 13.028 15.8728 13.5641 15.8728 14.032H16.3728C16.3728 13.6039 16.4264 13.1 16.5364 12.5185L16.0451 12.4255ZM15.8728 14.032C15.8728 14.5157 15.9766 14.9408 16.1994 15.2935L16.6221 15.0265C16.4609 14.7712 16.3728 14.4443 16.3728 14.032H15.8728ZM16.2081 15.3064C16.4695 15.6684 16.8541 15.842 17.3228 15.842V15.342C16.9914 15.342 16.768 15.2276 16.6134 15.0136L16.2081 15.3064ZM17.3228 15.842C18.404 15.842 19.2438 15.3628 19.8161 14.4264L19.3894 14.1656C18.9057 14.9572 18.2255 15.342 17.3228 15.342V15.842ZM19.8143 14.4292C20.3922 13.5114 20.6688 12.2914 20.6688 10.792H20.1688C20.1688 12.2366 19.9013 13.3526 19.3912 14.1628L19.8143 14.4292ZM20.6688 10.792C20.6688 9.27534 20.2805 7.95892 19.4944 6.85498L19.0871 7.14502C19.805 8.15308 20.1688 9.36466 20.1688 10.792H20.6688ZM19.4954 6.85643C18.717 5.74681 17.6973 4.90989 16.4408 4.3478L16.2367 4.8042C17.4122 5.33011 18.3605 6.10919 19.0861 7.14357L19.4954 6.85643ZM16.442 4.3483C15.2097 3.78967 13.9185 3.51 12.5708 3.51V4.01C13.847 4.01 15.0678 4.27433 16.2355 4.8037L16.442 4.3483ZM12.5708 3.51C10.9414 3.51 9.41742 3.93032 8.00323 4.76897L8.25827 5.19903C9.59608 4.40568 11.0321 4.01 12.5708 4.01V3.51ZM8.00213 4.76963C6.60625 5.60715 5.48868 6.73313 4.65172 8.14448L5.08178 8.39952C5.87682 7.05886 6.93526 5.99284 8.25937 5.19837L8.00213 4.76963ZM4.65172 8.14448C3.81307 9.55867 3.39275 11.0827 3.39275 12.712H3.89275C3.89275 11.1733 4.28843 9.73733 5.08178 8.39952L4.65172 8.14448ZM3.39275 12.712C3.39275 13.9372 3.68288 15.1123 4.26047 16.2344L4.70503 16.0056C4.16262 14.9517 3.89275 13.8548 3.89275 12.712H3.39275ZM4.26253 16.2383C4.8599 17.3501 5.71472 18.2537 6.82197 18.9478L7.08753 18.5242C6.05078 17.8743 5.2576 17.0339 4.70297 16.0017L4.26253 16.2383ZM6.82338 18.9487C7.95695 19.6488 9.29206 19.994 10.8188 19.994V19.494C9.36944 19.494 8.12855 19.1672 7.08612 18.5233L6.82338 18.9487ZM10.8188 19.994C11.8102 19.994 12.6808 19.8966 13.4272 19.6976L13.2983 19.2144C12.6047 19.3994 11.7793 19.494 10.8188 19.494V19.994ZM13.4221 19.6989C14.1563 19.5194 14.9916 19.2433 15.9269 18.8724L15.7426 18.4076C14.8219 18.7727 14.0092 19.0406 13.3034 19.2132L13.4221 19.6989ZM15.9138 18.8772C15.9908 18.8515 16.0517 18.842 16.0988 18.842V18.342C15.9858 18.342 15.8707 18.3645 15.7557 18.4028L15.9138 18.8772ZM16.0988 18.842C16.2165 18.842 16.2943 18.8771 16.354 18.9368L16.7075 18.5832C16.5432 18.4189 16.333 18.342 16.0988 18.342V18.842ZM16.354 18.9368C16.4186 19.0014 16.4488 19.0735 16.4488 19.168H16.9488C16.9488 18.9425 16.8669 18.7426 16.7075 18.5832L16.354 18.9368ZM16.4488 19.168C16.4488 19.2291 16.4322 19.2851 16.3947 19.3413L16.8108 19.6187C16.9013 19.4829 16.9488 19.3309 16.9488 19.168H16.4488ZM16.3857 19.356C16.3412 19.4339 16.2946 19.4746 16.2509 19.4964L16.4746 19.9436C16.6229 19.8694 16.7363 19.7501 16.8198 19.604L16.3857 19.356ZM16.2509 19.4964C14.5916 20.3261 12.7821 20.742 10.8188 20.742V21.242C12.8554 21.242 14.7419 20.8099 16.4746 19.9436L16.2509 19.4964ZM11.1308 15.338C12.1571 15.338 13.004 15.042 13.6438 14.4284C14.2792 13.8191 14.6837 12.9222 14.8812 11.7702L14.3883 11.6858C14.2018 12.7738 13.8303 13.5569 13.2977 14.0676C12.7696 14.574 12.0564 14.838 11.1308 14.838V15.338ZM14.8811 11.7704L15.2651 9.53839L14.7724 9.45361L14.3884 11.6856L14.8811 11.7704ZM15.1994 9.32319C14.444 8.53347 13.4726 8.142 12.3068 8.142V8.642C13.3489 8.642 14.1855 8.98653 14.8381 9.66881L15.1994 9.32319ZM12.3068 8.142C11.5804 8.142 10.8941 8.30282 10.2509 8.62439L10.4746 9.07161C11.0474 8.78518 11.6571 8.642 12.3068 8.642V8.142ZM10.2485 8.62561C9.61431 8.9513 9.10116 9.43145 8.71043 10.06L9.13507 10.324C9.48034 9.76855 9.92719 9.3527 10.477 9.07039L10.2485 8.62561ZM8.71208 10.0574C8.31378 10.6808 8.12075 11.4257 8.12075 12.28H8.62075C8.62075 11.5023 8.79572 10.8552 9.13342 10.3266L8.71208 10.0574ZM8.12075 12.28C8.12075 13.2538 8.39055 14.0332 8.96776 14.5744L9.30974 14.2096C8.86295 13.7908 8.62075 13.1622 8.62075 12.28H8.12075ZM8.97087 14.5772C9.53697 15.0903 10.2646 15.338 11.1308 15.338V14.838C10.3649 14.838 9.76453 14.6217 9.30663 14.2068L8.97087 14.5772Z" fill="black"/>
</svg>
