<svg version="1.1" id="Layer_1" xmlns="http://www.w3.org/2000/svg" x="0px" y="0px"
     viewBox="0 0 24 24" style="enable-background:new 0 0 24 24;" xml:space="preserve">
<path style="fill-rule:evenodd;clip-rule:evenodd;" d="M23.4,15l-3.2-5H22c0.6,0,1-0.4,1-1s-0.4-1-1-1h-9V6c0-0.1,0-0.2,0-0.2
	c0.6-0.3,1-1,1-1.8c0-1.1-0.9-2-2-2s-2,0.9-2,2c0,0.8,0.4,1.4,1,1.8c0,0.1,0,0.2,0,0.2v2H2C1.4,8,1,8.4,1,9s0.4,1,1,1h1.8l-3.2,5
	c0,0,0,0,0,0H0c0,0,0,4,5,4s5-4,5-4H9.4l-3.2-5H11v11H9c-0.6,0-1,0.4-1,1s0.4,1,1,1h3h3c0.6,0,1-0.4,1-1s-0.4-1-1-1h-2V10h4.8
	l-3.2,5c0,0,0,0,0,0H14c0,0,0,4,5,4s5-4,5-4H23.4z M7,15H3l2-3.1L7,15z M17,15l2-3.1l2,3.1H17z"/>
</svg>