<?xml version="1.0" encoding="utf-8"?>
<!-- Generator: Adobe Illustrator 27.2.0, SVG Export Plug-In . SVG Version: 6.00 Build 0)  -->
<svg version="1.1" id="Layer_1" xmlns="http://www.w3.org/2000/svg" x="0px" y="0px"
	 viewBox="0 0 24 24" style="enable-background:new 0 0 24 24;" xml:space="preserve">
<path style="fill-rule:evenodd;clip-rule:evenodd;" d="M20,1H4C2.3,1,1,2.3,1,4v16c0,1.7,1.3,3,3,3h16c1.7,0,3-1.3,3-3V4
	C23,2.3,21.7,1,20,1z M11.8,21H4c-0.6,0-1-0.4-1-1V4c0-0.6,0.4-1,1-1h7.8v1.1L5,11.9h6.8v4.3h2l-2,2.3V21z M21,20c0,0.6-0.4,1-1,1
	h-6.3v-1.8l4.3-4.9h-4.3V9.9H9.2l4.5-5.2V3H20c0.6,0,1,0.4,1,1V20z"/>
</svg>

