<svg width="24" height="24" viewBox="0 0 24 24" fill="none" xmlns="http://www.w3.org/2000/svg">
    <path fill-rule="evenodd" clip-rule="evenodd" d="M12.4166 21.2917C8.97003 21.2917 5.63329 19.2502 3.79167 16.4627V19.5001C3.79167 20.0293 3.36261 20.4584 2.83334 20.4584C2.30406 20.4584 1.875 20.0293 1.875 19.5001V14.5C1.875 13.5105 2.67716 12.7084 3.66667 12.7084H8.66669C9.19597 12.7084 9.62503 13.1374 9.62503 13.6667C9.62503 14.196 9.19597 14.625 8.66669 14.625H4.93614C6.27865 17.2848 9.34206 19.3751 12.4166 19.3751C16.7199 19.3751 20.2083 15.8866 20.2083 11.5834C20.2083 7.28014 16.7199 3.79167 12.4166 3.79167C9.51509 3.79167 6.9827 5.3772 5.64066 7.73365C5.37873 8.19357 4.79355 8.35407 4.33363 8.09214C3.87372 7.8302 3.71322 7.24503 3.97515 6.78511C5.64414 3.85459 8.79859 1.875 12.4166 1.875C17.7784 1.875 22.125 6.22159 22.125 11.5834C22.125 16.9452 17.7784 21.2917 12.4166 21.2917Z" fill="#000000"/>
    <path fill-rule="evenodd" clip-rule="evenodd" d="M12 5C12.5523 5 13 5.44772 13 6V11.382L16.4472 13.1056C16.9412 13.3526 17.1414 13.9532 16.8944 14.4472C16.6474 14.9412 16.0468 15.1414 15.5528 14.8944L11.5528 12.8944C11.214 12.725 11 12.3788 11 12V6C11 5.44772 11.4477 5 12 5Z" fill="#000000"/>
</svg>