<?xml version="1.0" encoding="utf-8"?>
<!-- Generator: Adobe Illustrator 26.0.0, SVG Export Plug-In . SVG Version: 6.00 Build 0)  -->
<svg version="1.1" id="Layer_1" xmlns="http://www.w3.org/2000/svg" x="0px" y="0px"
     viewBox="0 0 24 24" style="enable-background:new 0 0 24 24;" xml:space="preserve">
<path style="fill-rule:evenodd;clip-rule:evenodd;" d="M12,1c-0.3,0-0.5,0.1-0.7,0.3C11.1,1.5,11,1.7,11,2v10c0,0.6,0.4,1,1,1h10
	c0.6,0,1-0.4,1-1c0-1.4-0.3-2.9-0.8-4.2c-0.6-1.3-1.4-2.5-2.4-3.6c-1-1-2.2-1.8-3.6-2.4C14.9,1.3,13.4,1,12,1z M13,11V3.1
	c0.8,0.1,1.7,0.3,2.4,0.6c1.1,0.5,2.1,1.1,2.9,2c0.8,0.8,1.5,1.8,2,2.9c0.3,0.8,0.5,1.6,0.6,2.4H13z M8.4,3.7
	c0.5-0.2,0.7-0.8,0.5-1.3C8.7,1.9,8.1,1.7,7.6,1.9C6,2.6,4.5,3.7,3.4,5.1C2.3,6.6,1.5,8.2,1.2,10c-0.3,1.8-0.2,3.6,0.3,5.3
	C2,17,3,18.6,4.3,19.8c1.3,1.3,2.8,2.2,4.6,2.7c1.7,0.5,3.5,0.6,5.3,0.3c1.8-0.3,3.4-1.1,4.8-2.3c1.4-1.1,2.5-2.6,3.2-4.2
	c0.2-0.5,0-1.1-0.5-1.3c-0.5-0.2-1.1,0-1.3,0.5c-0.6,1.4-1.5,2.5-2.6,3.5c-1.1,0.9-2.5,1.6-3.9,1.8s-2.9,0.2-4.3-0.2
	c-1.4-0.4-2.7-1.2-3.7-2.2c-1-1-1.8-2.3-2.3-3.7c-0.4-1.4-0.5-2.9-0.3-4.3C3.4,8.9,4,7.5,5,6.4C5.9,5.2,7.1,4.3,8.4,3.7z"/>
</svg>
