<svg width="24" height="24" viewBox="0 0 24 24" fill="none" xmlns="http://www.w3.org/2000/svg">
    <circle cx="12" cy="12" r="9.25" stroke="black" stroke-width="1.5"/>
    <path d="M12.1881 16.12C11.3881 16.12 10.6681 15.948 10.0281 15.604C9.39613 15.252 8.89613 14.752 8.52813 14.104C8.16813 13.448 7.98813 12.684 7.98813 11.812C7.98813 10.94 8.16813 10.18 8.52813 9.532C8.89613 8.876 9.39613 8.376 10.0281 8.032C10.6681 7.68 11.3881 7.504 12.1881 7.504C12.7321 7.504 13.2161 7.568 13.6401 7.696C14.0721 7.824 14.5001 8.008 14.9241 8.248C15.1001 8.344 15.1881 8.496 15.1881 8.704C15.1881 8.824 15.1441 8.932 15.0561 9.028C14.9681 9.116 14.8521 9.16 14.7081 9.16C14.6281 9.16 14.5561 9.144 14.4921 9.112C14.1401 8.928 13.7961 8.788 13.4601 8.692C13.1241 8.596 12.7361 8.548 12.2961 8.548C11.6081 8.548 11.0201 8.692 10.5321 8.98C10.0521 9.26 9.68813 9.648 9.44013 10.144C9.20013 10.632 9.08013 11.188 9.08013 11.812C9.08013 12.436 9.20013 12.996 9.44013 13.492C9.68813 13.98 10.0521 14.368 10.5321 14.656C11.0201 14.936 11.6081 15.076 12.2961 15.076C12.7361 15.076 13.1241 15.028 13.4601 14.932C13.7961 14.836 14.1401 14.696 14.4921 14.512C14.5561 14.48 14.6281 14.464 14.7081 14.464C14.8521 14.464 14.9681 14.508 15.0561 14.596C15.1441 14.684 15.1881 14.792 15.1881 14.92C15.1881 15.128 15.1001 15.28 14.9241 15.376C14.5001 15.616 14.0721 15.8 13.6401 15.928C13.2161 16.056 12.7321 16.12 12.1881 16.12Z" fill="black"/>
    <path d="M10.0281 15.604L9.90647 15.8224L9.90976 15.8242L10.0281 15.604ZM8.52813 14.104L8.30893 14.2243L8.31073 14.2275L8.52813 14.104ZM8.52813 9.532L8.31009 9.40969L8.30959 9.41059L8.52813 9.532ZM10.0281 8.032L10.1476 8.25158L10.1486 8.25105L10.0281 8.032ZM13.6401 7.696L13.5679 7.93533L13.5691 7.9357L13.6401 7.696ZM14.9241 8.248L14.801 8.46559L14.8044 8.46747L14.9241 8.248ZM15.0561 9.028L15.2331 9.20494L15.2404 9.19693L15.0561 9.028ZM14.4921 9.112L14.3763 9.33359L14.3803 9.33561L14.4921 9.112ZM13.4601 8.692L13.5288 8.45162L13.4601 8.692ZM10.5321 8.98L10.6581 9.19595L10.6592 9.1953L10.5321 8.98ZM9.44013 10.144L9.21651 10.0322L9.21579 10.0337L9.44013 10.144ZM9.44013 13.492L9.21504 13.6009L9.21725 13.6053L9.44013 13.492ZM10.5321 14.656L10.4035 14.8704L10.4077 14.8728L10.5321 14.656ZM13.4601 14.932L13.5288 15.1724L13.4601 14.932ZM14.4921 14.512L14.3803 14.2884L14.3763 14.2904L14.4921 14.512ZM15.0561 14.596L15.2329 14.4192L15.2329 14.4192L15.0561 14.596ZM14.9241 15.376L14.8044 15.1565L14.801 15.1584L14.9241 15.376ZM13.6401 15.928L13.5691 15.6883L13.5679 15.6887L13.6401 15.928ZM12.1881 15.87C11.4252 15.87 10.7465 15.7063 10.1465 15.3838L9.90976 15.8242C10.5897 16.1897 11.3511 16.37 12.1881 16.37V15.87ZM10.1498 15.3856C9.55903 15.0566 9.09162 14.59 8.74552 13.9805L8.31073 14.2275C8.70063 14.914 9.23322 15.4474 9.90648 15.8224L10.1498 15.3856ZM8.74729 13.9837C8.41064 13.3703 8.23813 12.6489 8.23813 11.812H7.73813C7.73813 12.7191 7.92561 13.5257 8.30896 14.2243L8.74729 13.9837ZM8.23813 11.812C8.23813 10.975 8.41067 10.2582 8.74666 9.65341L8.30959 9.41059C7.92558 10.1018 7.73813 10.905 7.73813 11.812H8.23813ZM8.74616 9.65431C9.09223 9.03741 9.55891 8.57203 10.1476 8.25158L9.90861 7.81242C9.23334 8.17997 8.70002 8.71459 8.31009 9.40969L8.74616 9.65431ZM10.1486 8.25105C10.7483 7.92125 11.4261 7.754 12.1881 7.754V7.254C11.3501 7.254 10.588 7.43875 9.90765 7.81295L10.1486 8.25105ZM12.1881 7.754C12.713 7.754 13.1719 7.8158 13.5679 7.93533L13.7124 7.45667C13.2603 7.3202 12.7512 7.254 12.1881 7.254V7.754ZM13.5691 7.9357C13.9815 8.0579 14.3921 8.23414 14.801 8.46556L15.0473 8.03044C14.6081 7.78186 14.1627 7.5901 13.7111 7.4563L13.5691 7.9357ZM14.8044 8.46747C14.858 8.49669 14.8878 8.52829 14.9058 8.55926C14.924 8.59071 14.9381 8.63584 14.9381 8.704H15.4381C15.4381 8.56416 15.4083 8.42929 15.3385 8.30874C15.2684 8.18771 15.1663 8.09531 15.0438 8.02853L14.8044 8.46747ZM14.9381 8.704C14.9381 8.75588 14.9215 8.8049 14.8718 8.85907L15.2404 9.19693C15.3668 9.0591 15.4381 8.89212 15.4381 8.704H14.9381ZM14.8793 8.85122C14.8456 8.88493 14.7971 8.91 14.7081 8.91V9.41C14.9072 9.41 15.0906 9.34707 15.2329 9.20478L14.8793 8.85122ZM14.7081 8.91C14.6623 8.91 14.6293 8.90108 14.6039 8.88839L14.3803 9.33561C14.483 9.38692 14.5939 9.41 14.7081 9.41V8.91ZM14.6079 8.89044C14.2429 8.69963 13.8831 8.55286 13.5288 8.45162L13.3914 8.93238C13.7091 9.02314 14.0373 9.15637 14.3763 9.33356L14.6079 8.89044ZM13.5288 8.45162C13.1656 8.34784 12.7536 8.298 12.2961 8.298V8.798C12.7186 8.798 13.0827 8.84416 13.3914 8.93238L13.5288 8.45162ZM12.2961 8.298C11.573 8.298 10.939 8.44957 10.4051 8.7647L10.6592 9.1953C11.1012 8.93443 11.6433 8.798 12.2961 8.798V8.298ZM10.4062 8.76405C9.88427 9.06849 9.4863 9.49263 9.21652 10.0322L9.66373 10.2558C9.88995 9.80337 10.22 9.45151 10.6581 9.19594L10.4062 8.76405ZM9.21579 10.0337C8.95658 10.5607 8.83013 11.1554 8.83013 11.812H9.33013C9.33013 11.2206 9.44367 10.7033 9.66446 10.2543L9.21579 10.0337ZM8.83013 11.812C8.83013 12.4687 8.9566 13.0667 9.21509 13.6009L9.66516 13.3831C9.44365 12.9253 9.33013 12.4033 9.33013 11.812H8.83013ZM9.21725 13.6053C9.48705 14.1361 9.88417 14.5588 10.4035 14.8704L10.6607 14.4416C10.2201 14.1772 9.88921 13.8239 9.663 13.3787L9.21725 13.6053ZM10.4077 14.8728C10.9412 15.1789 11.5741 15.326 12.2961 15.326V14.826C11.6421 14.826 11.0991 14.6931 10.6565 14.4392L10.4077 14.8728ZM12.2961 15.326C12.7536 15.326 13.1656 15.2762 13.5288 15.1724L13.3914 14.6916C13.0827 14.7798 12.7186 14.826 12.2961 14.826V15.326ZM13.5288 15.1724C13.8831 15.0711 14.2429 14.9244 14.6079 14.7336L14.3763 14.2904C14.0373 14.4676 13.7091 14.6009 13.3914 14.6916L13.5288 15.1724ZM14.6039 14.7356C14.6293 14.7229 14.6623 14.714 14.7081 14.714V14.214C14.5939 14.214 14.483 14.2371 14.3803 14.2884L14.6039 14.7356ZM14.7081 14.714C14.7971 14.714 14.8456 14.7391 14.8793 14.7728L15.2329 14.4192C15.0906 14.2769 14.9072 14.214 14.7081 14.214V14.714ZM14.8793 14.7728C14.919 14.8124 14.9381 14.8562 14.9381 14.92H15.4381C15.4381 14.7278 15.3693 14.5556 15.2329 14.4192L14.8793 14.7728ZM14.9381 14.92C14.9381 14.9882 14.924 15.0333 14.9058 15.0647C14.8878 15.0957 14.858 15.1273 14.8044 15.1565L15.0438 15.5955C15.1663 15.5287 15.2684 15.4363 15.3385 15.3153C15.4083 15.1947 15.4381 15.0598 15.4381 14.92H14.9381ZM14.801 15.1584C14.3921 15.3899 13.9815 15.5661 13.5691 15.6883L13.7111 16.1677C14.1627 16.0339 14.6081 15.8421 15.0473 15.5936L14.801 15.1584ZM13.5679 15.6887C13.1719 15.8082 12.713 15.87 12.1881 15.87V16.37C12.7512 16.37 13.2603 16.3038 13.7124 16.1673L13.5679 15.6887Z" fill="black"/>
</svg>
