<?xml version="1.0" encoding="utf-8"?>
<svg version="1.1" id="Layer_1" xmlns="http://www.w3.org/2000/svg" x="0px" y="0px"
     viewBox="0 0 16 16" style="enable-background:new 0 0 16 16;" xml:space="preserve">
<path d="M2 8.00008C2 4.68637 4.68629 2.00008 8 2.00008C11.3137 2.00008 14 4.68637 14 8.00008C14 11.3138 11.3137 14.0001 8 14.0001C4.68629 14.0001 2 11.3138 2 8.00008ZM8 0.666748C3.94991 0.666748 0.666667 3.94999 0.666667 8.00008C0.666667 12.0502 3.94991 15.3334 8 15.3334C12.0501 15.3334 15.3333 12.0502 15.3333 8.00008C15.3333 3.94999 12.0501 0.666748 8 0.666748ZM8.66667 4.00008C8.66667 3.63189 8.36819 3.33341 8 3.33341C7.63181 3.33341 7.33333 3.63189 7.33333 4.00008V8.00008C7.33333 8.2526 7.476 8.48344 7.70186 8.59637L10.3685 9.9297C10.6978 10.0944 11.0983 9.96088 11.263 9.63156C11.4276 9.30224 11.2941 8.90179 10.9648 8.73713L8.66667 7.58806V4.00008Z"/>
</svg>
