<?xml version="1.0" encoding="utf-8"?>
<!-- Generator: Adobe Illustrator 26.0.0, SVG Export Plug-In . SVG Version: 6.00 Build 0)  -->
<svg version="1.1" id="Layer_1" xmlns="http://www.w3.org/2000/svg" x="0px" y="0px"
	 viewBox="0 0 24 24" style="enable-background:new 0 0 24 24;" xml:space="preserve">
<path d="M4,11h16c0.6,0,1,0.4,1,1l0,0c0,0.6-0.4,1-1,1H4c-0.6,0-1-0.4-1-1l0,0C3,11.4,3.4,11,4,11z"/>
<path d="M15.7,2.3l-3.5,3.5c-0.1,0.1-0.2,0.1-0.3,0L8.3,2.3C8.2,2.2,8.3,2,8.5,2h7C15.7,2,15.8,2.2,15.7,2.3z"/>
<path d="M8.3,21.7l3.5-3.5c0.1-0.1,0.2-0.1,0.3,0l3.5,3.5c0.1,0.1,0,0.3-0.1,0.3h-7C8.3,22,8.2,21.8,8.3,21.7z"/>
</svg>
