<svg xmlns="http://www.w3.org/2000/svg" width="14" height="14" viewBox="0 0 14 14" fill="none">
    <path fill-rule="evenodd" clip-rule="evenodd" d="M3.96898 6.30004C3.71124 6.49334 3.34561 6.44111 3.15231 6.18338L1.40231 3.85004C1.24676 3.64264 1.24676 3.35745 1.40231 3.15004L3.15231 0.816711C3.34561 0.558978 3.71125 0.506745 3.96898 0.700045C4.22671 0.893344 4.27894 1.25898 4.08564 1.51671L3.03562 2.91674H3.03568L12.369 2.91675C12.6912 2.91675 12.9523 3.17791 12.9523 3.50008C12.9523 3.82225 12.6912 4.08341 12.369 4.08341L3.03568 4.08341H3.03567L4.08564 5.48338C4.27894 5.74111 4.22671 6.10675 3.96898 6.30004ZM1.86901 9.91667C1.54685 9.91667 1.28568 10.1778 1.28568 10.5C1.28568 10.8222 1.54685 11.0833 1.86901 11.0833L11.2023 11.0833C11.2024 11.0833 11.2024 11.0833 11.2024 11.0833L10.1524 12.4834C9.95908 12.7411 10.0113 13.1067 10.269 13.3C10.5268 13.4933 10.8924 13.4411 11.0857 13.1834L12.8357 10.85C12.9913 10.6426 12.9913 10.3574 12.8357 10.15L11.0857 7.8167C10.8924 7.55897 10.5268 7.50673 10.269 7.70003C10.0113 7.89333 9.95908 8.25897 10.1524 8.5167L11.2023 9.91667L1.86901 9.91667Z" fill="#000000"/>
</svg>