<?xml version="1.0" encoding="utf-8"?>
<!-- Generator: Adobe Illustrator 27.3.1, SVG Export Plug-In . SVG Version: 6.00 Build 0)  -->
<svg version="1.1" id="Layer_1" xmlns="http://www.w3.org/2000/svg" x="0px" y="0px"
     viewBox="0 0 24 24" style="enable-background:new 0 0 24 24;" xml:space="preserve">
<g>
	<path style="fill-rule:evenodd;clip-rule:evenodd;" d="M20,8h-9c-1.6568604,0-3,1.3431396-3,3v9c0,1.6569214,1.3431396,3,3,3h9
		c1.6569214,0,3-1.3430786,3-3v-9C23,9.3431396,21.6569214,8,20,8z M21,20c0,0.5523071-0.4476929,1-1,1h-9
		c-0.5523071,0-1-0.4476929-1-1v-9c0-0.5523071,0.4476929-1,1-1h9c0.5523071,0,1,0.4476929,1,1V20z"/>
    <path style="fill-rule:evenodd;clip-rule:evenodd;" d="M5,14H4c-0.2651978,0-0.5195923-0.1054077-0.7070923-0.2929077
		C3.1053467,13.5195923,3,13.2651978,3,13V4c0-0.2651978,0.1053467-0.5195923,0.2929077-0.7070923
		C3.4804077,3.1053467,3.7348022,3,4,3h9c0.2651978,0,0.5195923,0.1053467,0.7070923,0.2929077
		C13.8945923,3.4804077,14,3.7348022,14,4v1c0,0.5523071,0.4476929,1,1,1s1-0.4476929,1-1V4
		c0-0.7956543-0.3161011-1.5587158-0.8787231-2.1213379C14.5587158,1.31604,13.7955933,1,13,1H4
		C3.2043457,1,2.4412842,1.31604,1.8786621,1.8786621S1,3.2043457,1,4v9c0,0.7955933,0.31604,1.5587158,0.8786621,2.1212769
		C2.4412842,15.6838989,3.2043457,16,4,16h1c0.5523071,0,1-0.4476929,1-1S5.5523071,14,5,14z"/>
</g>
</svg>
