<?xml version="1.0" encoding="utf-8"?>
<!-- Generator: Adobe Illustrator 26.0.3, SVG Export Plug-In . SVG Version: 6.00 Build 0)  -->
<svg version="1.1" id="Layer_1" xmlns="http://www.w3.org/2000/svg" x="0px" y="0px"
	 viewBox="0 0 24 24" style="enable-background:new 0 0 24 24;" xml:space="preserve">
<path style="fill:#000000;" d="M18.2,21H5.8C4.2,21,3,19.8,3,18.2V5.8C3,4.2,4.2,3,5.8,3h12.4C19.8,3,21,4.2,21,5.8v12.4
	C21,19.8,19.8,21,18.2,21z M5.8,5C5.3,5,5,5.3,5,5.8v12.4C5,18.7,5.3,19,5.8,19h12.4c0.4,0,0.8-0.3,0.8-0.8V5.8
	C19,5.3,18.7,5,18.2,5H5.8z"/>
	<path style="fill:#000000;" d="M15.1,17H8.9c-1,0-1.9-0.8-1.9-1.9V8.9C7,7.8,7.8,7,8.9,7h6.2c1,0,1.9,0.8,1.9,1.9v6.2
	C17,16.2,16.2,17,15.1,17z M9,15h6V9H9V15z M15.1,9L15.1,9L15.1,9z"/>
	<path style="fill:#000000;" d="M7,4C6.4,4,6,3.6,6,3V1c0-0.6,0.4-1,1-1s1,0.4,1,1v2C8,3.6,7.6,4,7,4z"/>
	<path style="fill:#000000;" d="M7,24c-0.6,0-1-0.4-1-1v-2c0-0.6,0.4-1,1-1s1,0.4,1,1v2C8,23.6,7.6,24,7,24z"/>
	<path style="fill:#000000;" d="M12,4c-0.6,0-1-0.4-1-1V1c0-0.6,0.4-1,1-1s1,0.4,1,1v2C13,3.6,12.6,4,12,4z"/>
	<path style="fill:#000000;" d="M12,24c-0.6,0-1-0.4-1-1v-2c0-0.6,0.4-1,1-1s1,0.4,1,1v2C13,23.6,12.6,24,12,24z"/>
	<path style="fill:#000000;" d="M17,4c-0.6,0-1-0.4-1-1V1c0-0.6,0.4-1,1-1s1,0.4,1,1v2C18,3.6,17.6,4,17,4z"/>
	<path style="fill:#000000;" d="M17,24c-0.6,0-1-0.4-1-1v-2c0-0.6,0.4-1,1-1s1,0.4,1,1v2C18,23.6,17.6,24,17,24z"/>
	<path style="fill:#000000;" d="M23,8h-2c-0.6,0-1-0.4-1-1s0.4-1,1-1h2c0.6,0,1,0.4,1,1S23.6,8,23,8z"/>
	<path style="fill:#000000;" d="M3,8H1C0.4,8,0,7.6,0,7s0.4-1,1-1h2c0.6,0,1,0.4,1,1S3.6,8,3,8z"/>
	<path style="fill:#000000;" d="M23,13h-2c-0.6,0-1-0.4-1-1s0.4-1,1-1h2c0.6,0,1,0.4,1,1S23.6,13,23,13z"/>
	<path style="fill:#000000;" d="M3,13H1c-0.6,0-1-0.4-1-1s0.4-1,1-1h2c0.6,0,1,0.4,1,1S3.6,13,3,13z"/>
	<path style="fill:#000000;" d="M23,18h-2c-0.6,0-1-0.4-1-1s0.4-1,1-1h2c0.6,0,1,0.4,1,1S23.6,18,23,18z"/>
	<path style="fill:#000000;" d="M3,18H1c-0.6,0-1-0.4-1-1s0.4-1,1-1h2c0.6,0,1,0.4,1,1S3.6,18,3,18z"/>
</svg>
