<svg width="24" height="24" viewBox="0 0 24 24" fill="none" xmlns="http://www.w3.org/2000/svg">
    <path d="M8.8984 12.0009C8.89455 11.9079 8.91004 11.8151 8.9439 11.7284C8.97776 11.6416 9.02925 11.5629 9.09512 11.4971C9.16098 11.4313 9.23979 11.3799 9.32655 11.3461C9.4133 11.3123 9.50613 11.2969 9.59914 11.3009C9.73756 11.301 9.87283 11.3422 9.98786 11.4192C10.1029 11.4962 10.1925 11.6056 10.2454 11.7335C10.2982 11.8615 10.312 12.0022 10.2849 12.1379C10.2578 12.2737 10.1911 12.3983 10.0932 12.4962C9.99523 12.594 9.8705 12.6606 9.73473 12.6875C9.59896 12.7145 9.45824 12.7006 9.33037 12.6476C9.2025 12.5946 9.09322 12.5049 9.01633 12.3898C8.93944 12.2747 8.8984 12.1393 8.8984 12.0009Z" fill="black"/>
    <path d="M11.3163 12.0009C11.3124 11.9079 11.3279 11.8151 11.3617 11.7284C11.3956 11.6416 11.4471 11.5629 11.513 11.4971C11.5788 11.4313 11.6576 11.3799 11.7444 11.3461C11.8312 11.3123 11.924 11.2969 12.017 11.3009C12.1554 11.301 12.2907 11.3422 12.4057 11.4192C12.5207 11.4962 12.6103 11.6056 12.6632 11.7335C12.7161 11.8615 12.7298 12.0022 12.7028 12.1379C12.6757 12.2737 12.6089 12.3983 12.511 12.4962C12.4131 12.594 12.2883 12.6606 12.1526 12.6875C12.0168 12.7145 11.8761 12.7006 11.7482 12.6476C11.6203 12.5946 11.5111 12.5049 11.4342 12.3898C11.3573 12.2747 11.3163 12.1393 11.3163 12.0009Z" fill="black"/>
    <path d="M13.7325 12.0009C13.7287 11.9079 13.7441 11.8151 13.778 11.7284C13.8119 11.6416 13.8634 11.5629 13.9292 11.4971C13.9951 11.4313 14.0739 11.3799 14.1607 11.3461C14.2474 11.3123 14.3402 11.2969 14.4332 11.3009C14.5717 11.301 14.7069 11.3422 14.822 11.4192C14.937 11.4962 15.0266 11.6056 15.0795 11.7335C15.1323 11.8615 15.1461 12.0022 15.119 12.1379C15.0919 12.2737 15.0252 12.3983 14.9273 12.4962C14.8293 12.594 14.7046 12.6606 14.5688 12.6875C14.4331 12.7145 14.2923 12.7006 14.1645 12.6476C14.0366 12.5946 13.9273 12.5049 13.8504 12.3898C13.7735 12.2747 13.7325 12.1393 13.7325 12.0009Z" fill="black"/>
    <path d="M6 12.6516V11.3979C6.21469 11.3976 6.42798 11.3632 6.63188 11.296C6.76447 11.2223 6.87359 11.1126 6.94675 10.9797C7.0433 10.8079 7.1052 10.6188 7.12893 10.4231C7.16157 10.1336 7.17475 9.84226 7.16837 9.55099C7.15355 9.07828 7.18308 8.60523 7.25659 8.13804C7.30154 7.89745 7.41227 7.67401 7.57648 7.49253C7.72763 7.307 7.92948 7.16944 8.15744 7.09661C8.4662 7.02178 8.78386 6.99016 9.10132 7.00266H9.36167V8.03332C9.12612 8.01866 8.88973 8.04068 8.66094 8.09859C8.56408 8.13651 8.48327 8.20668 8.43214 8.29726C8.37663 8.51775 8.35248 8.74495 8.36042 8.97218C8.36042 9.19165 8.34559 9.60789 8.31595 10.2209C8.30933 10.5047 8.26643 10.7864 8.18828 11.0593C8.13133 11.2497 8.04231 11.4289 7.92506 11.5894C7.78529 11.7573 7.62027 11.9025 7.4359 12.0197C7.61809 12.1281 7.77899 12.2689 7.91071 12.435C8.04026 12.6067 8.13615 12.8014 8.1933 13.0088C8.26924 13.306 8.31205 13.6108 8.32097 13.9175C8.34392 14.4956 8.3554 14.8647 8.3554 15.0249C8.34687 15.2505 8.37348 15.476 8.43429 15.6934C8.48937 15.7863 8.57321 15.8588 8.67313 15.8999C8.89778 15.962 9.13121 15.9863 9.36383 15.9717V17.0375H9.10347C8.78899 17.0448 8.47557 16.9982 8.1768 16.8998C7.94876 16.8313 7.74256 16.7045 7.57863 16.5318C7.41268 16.3506 7.29957 16.1273 7.25157 15.8863C7.18453 15.4869 7.15643 15.0819 7.16766 14.6771C7.18469 14.2592 7.15825 13.8407 7.08876 13.4284C7.04494 13.1997 6.93056 12.9905 6.7617 12.8302C6.52789 12.7048 6.26518 12.6432 6 12.6516Z" fill="black"/>
    <path d="M17.2361 12.8331C17.0673 12.9934 16.9529 13.2026 16.9091 13.4313C16.8396 13.8436 16.8131 14.2621 16.8302 14.68C16.8408 15.0839 16.8122 15.4879 16.7448 15.8863C16.6968 16.1274 16.5837 16.3506 16.4178 16.5319C16.2547 16.7065 16.0487 16.8354 15.8203 16.9055C15.5216 17.004 15.2081 17.0506 14.8937 17.0432H14.6333V15.9796C14.8659 15.9942 15.0993 15.9699 15.324 15.9079C15.4239 15.8668 15.5078 15.7942 15.5628 15.7013C15.6236 15.4839 15.6503 15.2584 15.6417 15.0328C15.6417 14.8727 15.6532 14.5035 15.6762 13.9254C15.6856 13.6189 15.7289 13.3144 15.8053 13.0174C15.8624 12.81 15.9583 12.6153 16.0879 12.4436C16.2196 12.2775 16.3805 12.1368 16.5627 12.0283C16.3783 11.9111 16.2133 11.7659 16.0735 11.598C15.9563 11.4376 15.8672 11.2583 15.8103 11.068C15.7321 10.7951 15.6892 10.5133 15.6826 10.2295C15.653 9.61653 15.6381 9.20029 15.6381 8.98082C15.6461 8.75359 15.6219 8.52638 15.5664 8.3059C15.5153 8.21532 15.4345 8.14514 15.3376 8.10723C15.1088 8.04931 14.8724 8.02729 14.6369 8.04196V7.00412H14.8972C15.2147 6.99163 15.5324 7.02325 15.8411 7.09808C16.0691 7.17091 16.2709 7.30847 16.4221 7.49399C16.5863 7.67548 16.697 7.89891 16.742 8.1395C16.8155 8.60669 16.845 9.07975 16.8302 9.55245C16.8238 9.84373 16.837 10.1351 16.8696 10.4246C16.8934 10.6203 16.9553 10.8094 17.0518 10.9812C17.125 11.1141 17.2341 11.2237 17.3667 11.2975C17.571 11.3653 17.7847 11.4002 18 11.4008V12.6516C17.7338 12.6437 17.4703 12.7063 17.2361 12.8331Z" fill="black"/>
    <path fill-rule="evenodd" clip-rule="evenodd" d="M12 3C7.02944 3 3 7.02944 3 12C3 16.9706 7.02944 21 12 21C16.9706 21 21 16.9706 21 12C21 7.02944 16.9706 3 12 3ZM1 12C1 5.92487 5.92487 1 12 1C18.0751 1 23 5.92487 23 12C23 18.0751 18.0751 23 12 23C5.92487 23 1 18.0751 1 12Z" fill="black"/>
</svg>
