<svg width="24" height="24" viewBox="0 0 24 24" fill="none" xmlns="http://www.w3.org/2000/svg">
    <g clip-path="url(#clip0_7409_1811)">
        <path fill-rule="evenodd" clip-rule="evenodd" d="M17.3753 6.21819C17.8066 5.87318 18.4359 5.9431 18.7809 6.37437L22.7809 11.3744C23.0731 11.7396 23.0731 12.2585 22.7809 12.6238L18.7809 17.6238C18.4359 18.055 17.8066 18.1249 17.3753 17.7799C16.9441 17.4349 16.8742 16.8056 17.2192 16.3744L20.7194 11.9991L17.2192 7.62376C16.8742 7.19249 16.9441 6.5632 17.3753 6.21819Z" fill="black"/>
        <path fill-rule="evenodd" clip-rule="evenodd" d="M-8.74228e-08 12C-3.91405e-08 11.4477 0.447715 11 1 11L11 11C11.5523 11 12 11.4477 12 12C12 12.5523 11.5523 13 11 13L1 13C0.447715 13 -1.35705e-07 12.5523 -8.74228e-08 12Z" fill="black"/>
        <path fill-rule="evenodd" clip-rule="evenodd" d="M10 12C10 11.4477 10.4477 11 11 11L21 11C21.5523 11 22 11.4477 22 12C22 12.5523 21.5523 13 21 13L11 13C10.4477 13 10 12.5523 10 12Z" fill="black"/>
        <path fill-rule="evenodd" clip-rule="evenodd" d="M7.37534 6.21819C7.8066 5.87318 8.4359 5.9431 8.78091 6.37437L12.7809 11.3744C13.0731 11.7396 13.0731 12.2585 12.7809 12.6238L8.78091 17.6238C8.4359 18.055 7.8066 18.1249 7.37534 17.7799C6.94408 17.4349 6.87416 16.8056 7.21917 16.3744L10.7194 11.9991L7.21917 7.62376C6.87416 7.19249 6.94408 6.5632 7.37534 6.21819Z" fill="black"/>
    </g>
    <defs>
        <clipPath id="clip0_7409_1811">
            <rect width="24" height="24" fill="white"/>
        </clipPath>
    </defs>
</svg>
