<svg width="24" height="24" viewBox="0 0 24 24" fill="none" xmlns="http://www.w3.org/2000/svg">
    <path fill-rule="evenodd" clip-rule="evenodd" d="M3.87868 1.87868C4.44129 1.31607 5.20435 1 6 1H15C15.2652 1 15.5196 1.10536 15.7071 1.29289L20.7071 6.29289C20.8946 6.48043 21 6.73478 21 7V20C21 20.7957 20.6839 21.5587 20.1213 22.1213C19.5587 22.6839 18.7957 23 18 23H6C5.20435 23 4.44129 22.6839 3.87868 22.1213C3.31607 21.5587 3 20.7957 3 20V4C3 3.20435 3.31607 2.44129 3.87868 1.87868ZM6 3C5.73478 3 5.48043 3.10536 5.29289 3.29289C5.10536 3.48043 5 3.73478 5 4V20C5 20.2652 5.10536 20.5196 5.29289 20.7071C5.48043 20.8946 5.73478 21 6 21H18C18.2652 21 18.5196 20.8946 18.7071 20.7071C18.8946 20.5196 19 20.2652 19 20V7.41421L14.5858 3H6Z" fill="black"/>
    <path fill-rule="evenodd" clip-rule="evenodd" d="M13.3753 9.21917C13.8066 8.87416 14.4359 8.94408 14.7809 9.37534L16.7809 11.8753C17.0731 12.2406 17.0731 12.7595 16.7809 13.1247L14.7809 15.6247C14.4359 16.056 13.8066 16.1259 13.3753 15.7809C12.9441 15.4359 12.8742 14.8066 13.2192 14.3753L14.7194 12.5L13.2192 10.6247C12.8742 10.1935 12.9441 9.56418 13.3753 9.21917Z" fill="black"/>
    <path fill-rule="evenodd" clip-rule="evenodd" d="M10.6247 9.21917C11.056 9.56418 11.1259 10.1935 10.7809 10.6247L9.28062 12.5L10.7809 14.3753C11.1259 14.8066 11.056 15.4359 10.6247 15.7809C10.1934 16.1259 9.56414 16.056 9.21913 15.6247L7.21913 13.1247C6.92696 12.7595 6.92696 12.2406 7.21913 11.8753L9.21913 9.37534C9.56414 8.94408 10.1934 8.87416 10.6247 9.21917Z" fill="black"/>
</svg>
