<svg width="24" height="24" viewBox="0 0 24 24" fill="none" xmlns="http://www.w3.org/2000/svg">
    <path fill-rule="evenodd" clip-rule="evenodd" d="M12.4166 1.875C8.97003 1.875 5.63329 3.91652 3.79167 6.70402V3.66667C3.79167 3.1374 3.36261 2.70834 2.83334 2.70834C2.30406 2.70834 1.875 3.1374 1.875 3.66667V8.66669C1.875 9.65621 2.67716 10.4584 3.66667 10.4584H8.66669C9.19597 10.4584 9.62503 10.0293 9.62503 9.50003C9.62503 8.97075 9.19597 8.54169 8.66669 8.54169H4.93614C6.27865 5.88196 9.34206 3.79167 12.4166 3.79167C16.7199 3.79167 20.2083 7.28014 20.2083 11.5834C20.2083 15.8866 16.7199 19.3751 12.4166 19.3751C9.51509 19.3751 6.9827 17.7895 5.64066 15.4331C5.37873 14.9732 4.79355 14.8127 4.33363 15.0746C3.87372 15.3365 3.71322 15.9217 3.97515 16.3816C5.64414 19.3122 8.79859 21.2917 12.4166 21.2917C17.7784 21.2917 22.125 16.9452 22.125 11.5834C22.125 6.22159 17.7784 1.875 12.4166 1.875Z" fill="black"/>
</svg>
