<svg width="24" height="24" viewBox="0 0 24 24" fill="none" xmlns="http://www.w3.org/2000/svg">
    <path d="M13.8473 4.25883C13.8834 4.11248 13.9025 3.95947 13.9025 3.80198C13.9025 2.75154 13.051 1.9 12.0005 1.9C10.9501 1.9 10.0986 2.75154 10.0986 3.80198C10.0986 3.95946 10.1177 4.11247 10.1538 4.25881L6.12094 6.58718C5.77899 6.25797 5.31412 6.05555 4.80198 6.05555C3.75154 6.05555 2.9 6.90709 2.9 7.95752C2.9 8.82521 3.48102 9.55719 4.27522 9.78561V14.4403C3.48102 14.6687 2.9 15.4007 2.9 16.2684C2.9 17.3188 3.75154 18.1704 4.80198 18.1704C5.31409 18.1704 5.77893 17.968 6.12087 17.6388L10.1538 19.9672C10.1177 20.1135 10.0986 20.2665 10.0986 20.4239C10.0986 21.4744 10.9501 22.3259 12.0005 22.3259C13.051 22.3259 13.9025 21.4744 13.9025 20.4239C13.9025 20.2665 13.8834 20.1135 13.8473 19.9672L17.8795 17.6392C18.2214 17.9681 18.6861 18.1704 19.198 18.1704C20.2484 18.1704 21.1 17.3188 21.1 16.2684C21.1 15.4011 20.5195 14.6694 19.7258 14.4406V9.78531C20.5195 9.55653 21.1 8.82482 21.1 7.95752C21.1 6.90709 20.2484 6.05555 19.198 6.05555C18.6861 6.05555 18.2214 6.25781 17.8794 6.58679L13.8473 4.25883ZM6.64887 7.50125L10.5586 5.24398L5.3308 14.2988V9.78502C6.12394 9.55591 6.70395 8.82445 6.70395 7.95752C6.70395 7.80024 6.68486 7.64742 6.64887 7.50125ZM10.6819 19.0533L6.77273 16.7963H17.2283L13.3192 19.0532C12.9772 18.7242 12.5125 18.5219 12.0005 18.5219C11.4886 18.5219 11.0238 18.7242 10.6819 19.0533ZM11.5438 5.64875C11.6901 5.68482 11.8431 5.70395 12.0005 5.70395C12.158 5.70395 12.311 5.68482 12.4573 5.64876L17.8273 14.9498C17.6159 15.1695 17.4569 15.4398 17.3702 15.7407H6.62981C6.54317 15.4401 6.38438 15.17 6.17339 14.9505L11.5438 5.64875ZM18.6703 9.78533V14.2988L13.4425 5.24398L17.3512 7.50071C17.3152 7.64705 17.296 7.80005 17.296 7.95752C17.296 8.82484 17.8766 9.55657 18.6703 9.78533Z" fill="black" stroke="black" stroke-width="0.2"/>
</svg>
