<svg width="24" height="24" viewBox="0 0 24 24" fill="none" xmlns="http://www.w3.org/2000/svg">
    <path fill-rule="evenodd" clip-rule="evenodd" d="M12 3C7.02944 3 3 7.02944 3 12C3 16.9706 7.02944 21 12 21C16.9706 21 21 16.9706 21 12C21 7.02944 16.9706 3 12 3ZM1 12C1 5.92487 5.92487 1 12 1C18.0751 1 23 5.92487 23 12C23 18.0751 18.0751 23 12 23C5.92487 23 1 18.0751 1 12Z" fill="black"/>
    <path fill-rule="evenodd" clip-rule="evenodd" d="M16.6448 8.28264C17.1289 8.70154 17.1817 9.43353 16.7628 9.91759L11.4132 16.0994C11.2062 16.3385 10.9105 16.4827 10.5947 16.4985C10.2788 16.5144 9.97021 16.4004 9.7404 16.1832L7.36278 13.9352C6.89762 13.4954 6.87706 12.7618 7.31684 12.2967C7.75663 11.8315 8.49024 11.8109 8.9554 12.2507L10.4529 13.6665L15.0099 8.40063C15.4288 7.91657 16.1608 7.86374 16.6448 8.28264Z" fill="black"/>
</svg>
