<svg width="24" height="24" viewBox="0 0 24 24" fill="none" xmlns="http://www.w3.org/2000/svg">
    <g clip-path="url(#clip0_7395_1654)">
        <path d="M20.0225 7.16204L19.9059 6.96019C19.2115 5.75736 17.6843 5.33439 16.5017 6.01717C16.2346 6.17138 16.008 6.3693 15.8245 6.59675C15.0509 5.72015 13.7529 5.47135 12.7184 6.0686C12.4375 6.23079 12.2016 6.44135 12.0135 6.68374C11.225 5.91764 9.96215 5.72098 8.97144 6.29297C8.70472 6.44696 8.47782 6.64789 8.2937 6.88023L6.78153 4.26108C6.08707 3.05824 4.55993 2.63528 3.37733 3.31805C2.19473 4.00083 1.79746 5.53485 2.49191 6.73769L6.20063 13.1614C5.54375 12.8906 4.84706 12.7262 4.19671 12.8097C3.47103 12.9029 2.87265 13.2873 2.46609 13.9216C1.71843 15.0882 2.04598 16.6704 3.1963 17.4488L9.02663 21.3942C9.18881 21.5012 13.0349 23.9931 16.3038 22.1058L20.1168 19.9044C23.1233 18.1685 24.1255 14.2557 22.3505 11.1813L20.0251 7.1605L20.0225 7.16204ZM19.2773 18.4501L15.4643 20.6515C13.1096 22.011 10.0341 20.0719 9.92194 19.9998L4.10629 16.0644C3.70498 15.7929 3.598 15.2567 3.86272 14.8436C4.00858 14.6159 4.18328 14.5005 4.4289 14.4687C5.40832 14.342 7.09899 15.4808 7.93398 16.2279L8.57003 16.799L9.54291 15.648L3.92188 5.9121C3.69038 5.51112 3.82276 4.99985 4.21702 4.77222C4.61128 4.54459 5.12025 4.68558 5.35175 5.08656L10.1934 13.4726L10.2064 13.4651L11.6233 12.647L11.6363 12.6395L9.50928 8.95552C9.27492 8.5496 9.41877 7.97366 9.81113 7.74713C10.2174 7.51257 10.7699 7.64665 10.9935 8.03396L11.8331 9.48818L13.2884 12.0088L14.7183 11.1833L13.263 8.66264C13.0315 8.26167 13.1639 7.75039 13.5581 7.52276C13.9524 7.29514 14.4614 7.43613 14.6929 7.83711L15.6164 9.43675L16.54 11.0364L17.9698 10.2109L17.0463 8.61121C16.8148 8.21024 16.9472 7.69896 17.3414 7.47133C17.7357 7.24371 18.2447 7.3847 18.4762 7.78568L19.0766 8.82564L19.0799 8.82371L20.9211 12.0073C22.2328 14.2793 21.4953 17.1695 19.2773 18.4501Z" fill="black"/>
    </g>
    <defs>
        <clipPath id="clip0_7395_1654">
            <rect width="24" height="24" fill="white"/>
        </clipPath>
    </defs>
</svg>
