<svg version="1.1" id="Layer_1" xmlns="http://www.w3.org/2000/svg" x="0px" y="0px"
     viewBox="0 0 24 24" style="enable-background:new 0 0 24 24;" xml:space="preserve">
<g>
	<path d="M13.3,7.2c0.7-0.7,0.7-1.9,0-2.7c-0.7-0.7-1.9-0.7-2.7,0c-0.7,0.7-0.7,1.9,0,2.7C11.4,8,12.6,8,13.3,7.2z"/>
    <path d="M22.7,13.9c-0.4-0.4-1-0.4-1.4,0c-2.5,2.5-5.8,3.8-9.3,3.8s-6.8-1.4-9.3-3.8c-0.4-0.4-1-0.4-1.4,0s-0.4,1,0,1.4
		C4.1,18.2,8,19.8,12,19.8s7.9-1.6,10.7-4.4C23.1,15,23.1,14.3,22.7,13.9z"/>
    <path d="M12,13.6c2.4,0,4.7-0.9,6.3-2.6c0.4-0.4,0.4-1,0-1.4s-1-0.4-1.4,0c-1.3,1.3-3.1,2-4.9,2s-3.6-0.7-4.9-2
		c-0.4-0.4-1-0.4-1.4,0s-0.4,1,0,1.4C7.3,12.6,9.6,13.6,12,13.6z"/>
</g>
</svg>