<?xml version="1.0" encoding="utf-8"?>
<!-- Generator: Adobe Illustrator 26.0.1, SVG Export Plug-In . SVG Version: 6.00 Build 0)  -->
<svg version="1.1" id="Layer_1" xmlns="http://www.w3.org/2000/svg" x="0px" y="0px"
     viewBox="0 0 24 24" style="enable-background:new 0 0 24 24;" xml:space="preserve">
<g>
	<path style="fill-rule:evenodd;clip-rule:evenodd;" d="M10,18c0.6,0,1-0.4,1-1v-6c0-0.6-0.4-1-1-1s-1,0.4-1,1v6
		C9,17.6,9.4,18,10,18z"/>
	<path style="fill-rule:evenodd;clip-rule:evenodd;" d="M14,18c0.6,0,1-0.4,1-1v-6c0-0.6-0.4-1-1-1s-1,0.4-1,1v6
		C13,17.6,13.4,18,14,18z"/>
	<path style="fill-rule:evenodd;clip-rule:evenodd;" d="M21,5h-4V4c0-0.8-0.3-1.6-0.9-2.1C15.6,1.3,14.8,1,14,1h-4
		C9.2,1,8.4,1.3,7.9,1.9S7,3.2,7,4v1H3C2.4,5,2,5.4,2,6s0.4,1,1,1h1v13c0,0.8,0.3,1.6,0.9,2.1C5.4,22.7,6.2,23,7,23h10
		c0.8,0,1.6-0.3,2.1-0.9c0.6-0.6,0.9-1.3,0.9-2.1V7h1c0.6,0,1-0.4,1-1S21.6,5,21,5z M9,4c0-0.3,0.1-0.5,0.3-0.7C9.5,3.1,9.7,3,10,3
		h4c0.3,0,0.5,0.1,0.7,0.3C14.9,3.5,15,3.7,15,4v1H9V4z M18,20c0,0.3-0.1,0.5-0.3,0.7S17.3,21,17,21H7c-0.3,0-0.5-0.1-0.7-0.3
		C6.1,20.5,6,20.3,6,20V7h12V20z"/>
</g>
</svg>
