<?xml version="1.0" encoding="utf-8"?>
<!-- Generator: Adobe Illustrator 26.0.1, SVG Export Plug-In . SVG Version: 6.00 Build 0)  -->
<svg version="1.1" id="Layer_1" xmlns="http://www.w3.org/2000/svg" x="0px" y="0px"
	 viewBox="0 0 25 25" style="enable-background:new 0 0 25 25;" xml:space="preserve">
<g>
	<path style="fill-rule:evenodd;clip-rule:evenodd;" d="M10.5,13.2c-0.1-0.1-0.3-0.1-0.4-0.1h-6c-0.6,0-1,0.4-1,1s0.4,1,1,1h3.6
		l-5.3,5.3c-0.4,0.4-0.4,1,0,1.4c0.4,0.4,1,0.4,1.4,0l5.3-5.3v3.6c0,0.6,0.4,1,1,1c0.6,0,1-0.4,1-1v-6c0-0.1,0-0.3-0.1-0.4
		C10.9,13.5,10.7,13.3,10.5,13.2z"/>
	<path style="fill-rule:evenodd;clip-rule:evenodd;" d="M21.8,2.4c-0.4-0.4-1-0.4-1.4,0l-5.3,5.3V4.1c0-0.6-0.4-1-1-1
		c-0.6,0-1,0.4-1,1v6c0,0.1,0,0.3,0.1,0.4c0,0.1,0.1,0.2,0.2,0.3c0,0,0,0,0,0c0,0,0,0,0,0c0.1,0.1,0.2,0.2,0.3,0.2
		c0.1,0,0.2,0.1,0.4,0.1c0,0,0,0,0,0h6c0.6,0,1-0.4,1-1s-0.4-1-1-1h-3.6l5.3-5.3C22.2,3.4,22.2,2.8,21.8,2.4z"/>
</g>
</svg>
