<?xml version="1.0" encoding="utf-8"?>
<!-- Generator: Adobe Illustrator 26.0.1, SVG Export Plug-In . SVG Version: 6.00 Build 0)  -->
<svg version="1.1" id="Layer_1" xmlns="http://www.w3.org/2000/svg" x="0px" y="0px"
	 viewBox="0 0 24 24" style="enable-background:new 0 0 24 24;" xml:space="preserve">
<path style="fill-rule:evenodd;clip-rule:evenodd;" d="M21.6,4l-2.1-2.1c-1.2-1.2-3.1-1.2-4.2,0L3.1,14c-0.1,0.1-0.2,0.3-0.3,0.4
	L1,21.2c-0.1,0.3,0,0.7,0.3,1c0.3,0.3,0.6,0.4,1,0.3l6.8-1.9c0.2,0,0.3-0.1,0.4-0.3L21.6,8.2C22.8,7.1,22.8,5.2,21.6,4z M8.3,18.7
	L3.4,20l1.3-4.9l7.7-7.7L16,11L8.3,18.7z M20.2,6.8l-2.8,2.8l-3.5-3.5l2.8-2.8c0.4-0.4,1-0.4,1.4,0l2.1,2.1
	C20.6,5.8,20.6,6.4,20.2,6.8z"/>
</svg>
