<svg width="24" height="24" viewBox="0 0 24 24" fill="none" xmlns="http://www.w3.org/2000/svg">
    <circle cx="12" cy="12" r="9.25" stroke="black" stroke-width="1.5"/>
    <path d="M9.37783 15.5C9.22583 15.5 9.09783 15.448 8.99383 15.344C8.88983 15.24 8.83783 15.112 8.83783 14.96V7.676C8.83783 7.524 8.88983 7.396 8.99383 7.292C9.09783 7.18 9.22583 7.124 9.37783 7.124H14.1898C14.3338 7.124 14.4538 7.176 14.5498 7.28C14.6538 7.376 14.7058 7.496 14.7058 7.64C14.7058 7.784 14.6538 7.904 14.5498 8C14.4538 8.096 14.3338 8.144 14.1898 8.144H9.92983V10.796H13.7578C13.9018 10.796 14.0218 10.848 14.1178 10.952C14.2218 11.048 14.2738 11.168 14.2738 11.312C14.2738 11.456 14.2218 11.576 14.1178 11.672C14.0218 11.768 13.9018 11.816 13.7578 11.816H9.92983V14.48H14.1898C14.3338 14.48 14.4538 14.532 14.5498 14.636C14.6538 14.732 14.7058 14.852 14.7058 14.996C14.7058 15.14 14.6538 15.26 14.5498 15.356C14.4538 15.452 14.3338 15.5 14.1898 15.5H9.37783Z" fill="black"/>
    <path d="M8.99383 15.344L9.1706 15.1672H9.1706L8.99383 15.344ZM8.99383 7.292L9.17073 7.4689L9.17703 7.46211L8.99383 7.292ZM14.5498 7.28L14.3661 7.44957L14.3729 7.45692L14.3803 7.4637L14.5498 7.28ZM14.5498 8L14.3801 7.81615L14.3731 7.82322L14.5498 8ZM9.92983 8.144V7.894H9.67983V8.144H9.92983ZM9.92983 10.796H9.67983V11.046H9.92983V10.796ZM14.1178 10.952L13.9341 11.1216L13.9409 11.1289L13.9483 11.1357L14.1178 10.952ZM14.1178 11.672L13.9481 11.4882L13.9411 11.4952L14.1178 11.672ZM9.92983 11.816V11.566H9.67983V11.816H9.92983ZM9.92983 14.48H9.67983V14.73H9.92983V14.48ZM14.5498 14.636L14.3661 14.8056L14.3729 14.8129L14.3803 14.8197L14.5498 14.636ZM14.5498 15.356L14.3801 15.1722L14.3731 15.1792L14.5498 15.356ZM9.37783 15.25C9.28965 15.25 9.226 15.2226 9.1706 15.1672L8.81705 15.5208C8.96966 15.6734 9.162 15.75 9.37783 15.75V15.25ZM9.1706 15.1672C9.11521 15.1118 9.08783 15.0482 9.08783 14.96H8.58783C8.58783 15.1758 8.66444 15.3682 8.81705 15.5208L9.1706 15.1672ZM9.08783 14.96V7.676H8.58783V14.96H9.08783ZM9.08783 7.676C9.08783 7.58782 9.11521 7.52417 9.1706 7.46878L8.81705 7.11522C8.66444 7.26783 8.58783 7.46018 8.58783 7.676H9.08783ZM9.17703 7.46211C9.23402 7.40073 9.29578 7.374 9.37783 7.374V6.874C9.15587 6.874 8.96164 6.95927 8.81063 7.12189L9.17703 7.46211ZM9.37783 7.374H14.1898V6.874H9.37783V7.374ZM14.1898 7.374C14.2654 7.374 14.3184 7.39785 14.3661 7.44957L14.7335 7.11043C14.5893 6.95415 14.4022 6.874 14.1898 6.874V7.374ZM14.3803 7.4637C14.432 7.51144 14.4558 7.56439 14.4558 7.64H14.9558C14.9558 7.42761 14.8757 7.24055 14.7194 7.0963L14.3803 7.4637ZM14.4558 7.64C14.4558 7.71561 14.432 7.76855 14.3803 7.8163L14.7194 8.1837C14.8757 8.03944 14.9558 7.85239 14.9558 7.64H14.4558ZM14.3731 7.82322C14.327 7.86927 14.272 7.894 14.1898 7.894V8.394C14.3957 8.394 14.5807 8.32273 14.7266 8.17678L14.3731 7.82322ZM14.1898 7.894H9.92983V8.394H14.1898V7.894ZM9.67983 8.144V10.796H10.1798V8.144H9.67983ZM9.92983 11.046H13.7578V10.546H9.92983V11.046ZM13.7578 11.046C13.8334 11.046 13.8864 11.0698 13.9341 11.1216L14.3015 10.7824C14.1573 10.6262 13.9702 10.546 13.7578 10.546V11.046ZM13.9483 11.1357C14 11.1834 14.0238 11.2364 14.0238 11.312H14.5238C14.5238 11.0996 14.4437 10.9126 14.2874 10.7683L13.9483 11.1357ZM14.0238 11.312C14.0238 11.3876 14 11.4406 13.9483 11.4883L14.2874 11.8557C14.4437 11.7114 14.5238 11.5244 14.5238 11.312H14.0238ZM13.9411 11.4952C13.895 11.5413 13.84 11.566 13.7578 11.566V12.066C13.9637 12.066 14.1487 11.9947 14.2946 11.8488L13.9411 11.4952ZM13.7578 11.566H9.92983V12.066H13.7578V11.566ZM9.67983 11.816V14.48H10.1798V11.816H9.67983ZM9.92983 14.73H14.1898V14.23H9.92983V14.73ZM14.1898 14.73C14.2654 14.73 14.3184 14.7538 14.3661 14.8056L14.7335 14.4664C14.5893 14.3102 14.4022 14.23 14.1898 14.23V14.73ZM14.3803 14.8197C14.432 14.8674 14.4558 14.9204 14.4558 14.996H14.9558C14.9558 14.7836 14.8757 14.5966 14.7194 14.4523L14.3803 14.8197ZM14.4558 14.996C14.4558 15.0716 14.432 15.1246 14.3803 15.1723L14.7194 15.5397C14.8757 15.3954 14.9558 15.2084 14.9558 14.996H14.4558ZM14.3731 15.1792C14.327 15.2253 14.272 15.25 14.1898 15.25V15.75C14.3957 15.75 14.5807 15.6787 14.7266 15.5328L14.3731 15.1792ZM14.1898 15.25H9.37783V15.75H14.1898V15.25Z" fill="black"/>
</svg>
