<svg width="24" height="24" viewBox="0 0 24 24" fill="none" xmlns="http://www.w3.org/2000/svg">
    <circle cx="12" cy="12" r="9.25" stroke="black" stroke-width="1.5"/>
    <path fill-rule="evenodd" clip-rule="evenodd" d="M12.1135 6.36745C12.3663 5.98835 12.8785 5.88591 13.2576 6.13864C13.6367 6.39137 13.7391 6.90358 13.4864 7.28268L11.5302 10.217C11.4535 10.332 11.4463 10.48 11.5116 10.6019C11.5768 10.7239 11.7039 10.8 11.8422 10.8H14.3999C14.7042 10.8 14.9837 10.9674 15.1273 11.2357C15.2708 11.5039 15.2551 11.8294 15.0863 12.0826L11.8864 16.8825C11.6337 17.2616 11.1215 17.364 10.7424 17.1113C10.3633 16.8585 10.2608 16.3463 10.5136 15.9672L12.4698 13.0329C12.5465 12.9179 12.5536 12.7699 12.4884 12.648C12.4231 12.5261 12.296 12.4499 12.1577 12.4499H9.60002C9.29578 12.4499 9.01622 12.2825 8.87266 12.0142L8.54315 12.1906L8.87266 12.0142C8.7291 11.746 8.74484 11.4205 8.9136 11.1673L12.1135 6.36745Z" fill="black"/>
</svg>
