<?xml version="1.0" encoding="utf-8"?>
<!-- Generator: Adobe Illustrator 26.0.0, SVG Export Plug-In . SVG Version: 6.00 Build 0)  -->
<svg version="1.1" id="Layer_1" xmlns="http://www.w3.org/2000/svg" x="0px" y="0px"
     viewBox="0 0 24 24" style="enable-background:new 0 0 24 24;" xml:space="preserve">
<path d="M4,2h16c0.6,0,1,0.4,1,1l0,0c0,0.6-0.4,1-1,1H4C3.4,4,3,3.6,3,3l0,0C3,2.4,3.4,2,4,2z"/>
<path d="M4,20h16c0.6,0,1,0.4,1,1l0,0c0,0.6-0.4,1-1,1H4c-0.6,0-1-0.4-1-1l0,0C3,20.4,3.4,20,4,20z"/>
<path d="M15.7,14.3l-3.5,3.5c-0.1,0.1-0.2,0.1-0.3,0l-3.5-3.5c-0.1-0.1,0-0.3,0.1-0.3h7C15.7,14,15.8,14.2,15.7,14.3z"/>
<path d="M8.3,9.7l3.5-3.5c0.1-0.1,0.2-0.1,0.3,0l3.5,3.5c0.1,0.1,0,0.3-0.1,0.3h-7C8.3,10,8.2,9.8,8.3,9.7z"/>
</svg>
