<?xml version="1.0" encoding="utf-8"?>
<!-- Generator: Adobe Illustrator 27.2.0, SVG Export Plug-In . SVG Version: 6.00 Build 0)  -->
<svg version="1.1" id="Layer_1" xmlns="http://www.w3.org/2000/svg" x="0px" y="0px"
     viewBox="0 0 24 24" style="enable-background:new 0 0 24 24;" xml:space="preserve">
<g>
	<g>
		<path d="M23.894104,11.552124l-0.0015869-0.0032349l-0.00354-0.006897l-0.0112915-0.0222168
			c-0.0095825-0.0184937-0.0230713-0.0444946-0.0404663-0.0773926c-0.034729-0.0656738-0.0852051-0.1591797-0.1512451-0.2763672
			c-0.1317749-0.234436-0.3258667-0.5645142-0.5802612-0.9584961c-0.5078125-0.7861938-1.2625122-1.8369141-2.2512207-2.8914795
			C18.8955078,5.2264404,15.8994751,3,12,3C8.1004639,3,5.1044922,5.2264404,3.1454468,7.31604
			c-0.9885864,1.0545654-1.7433472,2.1052856-2.2510986,2.8914795c-0.2545166,0.3939819-0.4485474,0.7240601-0.5803833,0.9584961
			c-0.065918,0.1171875-0.1164551,0.2106934-0.1511841,0.2763672c-0.017395,0.0328979-0.0308838,0.0588989-0.0404663,0.0773926
			l-0.0113525,0.0222168l-0.003418,0.006897l-0.0011597,0.0023193l-0.0007935,0.8959961l0.0019531,0.0039062l0.003418,0.006897
			l0.0113525,0.0222168c0.0095825,0.0184937,0.0230713,0.0444946,0.0404663,0.0773926
			c0.034729,0.0656738,0.0852661,0.1591797,0.1511841,0.2763672c0.1318359,0.234436,0.3258667,0.5645142,0.5803833,0.9584961
			c0.5077515,0.7861938,1.2625122,1.8369141,2.2510986,2.8914185C5.1044922,18.7736206,8.1004639,21,12,21
			c3.8994751,0,6.8955078-2.2263794,8.8544922-4.3161011c0.9887085-1.0545044,1.7434082-2.1052246,2.2512207-2.8914185
			c0.2543945-0.3939819,0.4484863-0.7240601,0.5802612-0.9584961c0.06604-0.1171875,0.1165161-0.2106934,0.1512451-0.2763672
			c0.017395-0.0328979,0.0308838-0.0588989,0.0404663-0.0773926l0.0112915-0.0222168l0.00354-0.006897l0.0010986-0.0023193
			C23.8937988,12.4484253,23.8944092,12.4472046,23,12L23.894104,11.552124z M21.4255981,12.7075195
			c-0.4609985,0.7138062-1.1437988,1.6630859-2.0300903,2.6085815C17.6044922,17.2263794,15.1005249,19,12,19
			c-3.1004639,0-5.6044922-1.7736206-7.3954468-3.6838989c-0.8864136-0.9454956-1.5691528-1.8947754-2.0301514-2.6085815
			C2.3948975,12.4296265,2.25,12.1889038,2.1407471,12C2.25,11.8110962,2.3948975,11.5703735,2.5744019,11.2924805
			C3.0354004,10.5786743,3.7181396,9.6293945,4.6045532,8.68396C6.3955078,6.7735596,8.8995361,5,12,5
			c3.1005249,0,5.6044922,1.7735596,7.3955078,3.68396c0.8862915,0.9454346,1.5690918,1.8947144,2.0300903,2.6085205
			C21.6051025,11.5703735,21.75,11.8110962,21.859314,12C21.75,12.1889038,21.6051025,12.4296265,21.4255981,12.7075195z"/>
		<path d="M0.1055908,12.4472046v-0.8944092C-0.0351562,11.8342896-0.0351562,12.1657104,0.1055908,12.4472046z"/>
	</g>
	<path d="M23.894104,11.552124C23.8942871,11.5524292,23.8944092,11.5527954,23,12l0.8944092,0.4472046
		C24.0352173,12.1657104,24.03479,11.8336182,23.894104,11.552124z"/>
	<path d="M12,8c-2.2091675,0-4,1.7908325-4,4c0,2.2091064,1.7908325,4,4,4c2.2091064,0,4-1.7908936,4-4
		C16,9.7908325,14.2091064,8,12,8z M12,14c-1.1046143,0-2-0.8953857-2-2s0.8953857-2,2-2s2,0.8953857,2,2S13.1046143,14,12,14z"/>
</g>
</svg>

