<svg width="16" height="16" viewBox="0 0 16 16" fill="none" xmlns="http://www.w3.org/2000/svg">
<path fill-rule="evenodd" clip-rule="evenodd" d="M7.01801 1.52207C7.31753 1.35343 7.65546 1.26484 7.9992 1.26484C8.34294 1.26484 8.68087 1.35343 8.9804 1.52207C9.27992 1.6907 9.53093 1.93369 9.7092 2.22758L9.71112 2.23075L15.3578 11.6574L15.3632 11.6666C15.5378 11.9691 15.6302 12.3119 15.6312 12.6611C15.6322 13.0104 15.5417 13.3538 15.3688 13.6572C15.1958 13.9605 14.9465 14.2134 14.6455 14.3905C14.3445 14.5676 14.0024 14.6628 13.6532 14.6666L13.6459 14.6667L2.34521 14.6667C1.996 14.6628 1.65389 14.5676 1.35291 14.3905C1.05193 14.2134 0.802568 13.9605 0.629633 13.6572C0.456697 13.3538 0.366218 13.0104 0.367195 12.6611C0.368173 12.3119 0.460575 11.9691 0.635206 11.6666L0.640622 11.6574L6.28729 2.23075L6.85919 2.57333L6.2892 2.22758C6.46747 1.93369 6.71848 1.6907 7.01801 1.52207ZM7.43001 2.91776L1.78766 12.3372C1.73087 12.4371 1.70085 12.55 1.70052 12.6649C1.7002 12.7813 1.73036 12.8958 1.788 12.9969C1.84565 13.098 1.92877 13.1823 2.0291 13.2413C2.12855 13.2998 2.24146 13.3315 2.3568 13.3333H13.6416C13.7569 13.3315 13.8699 13.2998 13.9693 13.2413C14.0696 13.1823 14.1528 13.098 14.2104 12.9969C14.268 12.8958 14.2982 12.7813 14.2979 12.6649C14.2976 12.55 14.2675 12.4371 14.2108 12.3373L8.5692 2.91909L8.56839 2.91776C8.50902 2.82039 8.42566 2.73987 8.32627 2.68392C8.22642 2.6277 8.11378 2.59817 7.9992 2.59817C7.88462 2.59817 7.77198 2.6277 7.67214 2.68392C7.57274 2.73987 7.48938 2.82039 7.43001 2.91776ZM7.99919 4.66665C8.55147 4.66665 8.99919 5.06462 8.99919 5.55554V9.1111C8.99919 9.60202 8.55147 9.99999 7.99919 9.99999C7.4469 9.99999 6.99919 9.60202 6.99919 9.1111V5.55554C6.99919 5.06462 7.4469 4.66665 7.99919 4.66665ZM7.99421 10.6667C7.44467 10.6667 6.99919 11.1144 6.99919 11.6667C6.99919 12.2189 7.44467 12.6667 7.99421 12.6667H8.00416C8.5537 12.6667 8.99919 12.2189 8.99919 11.6667C8.99919 11.1144 8.5537 10.6667 8.00416 10.6667H7.99421Z" fill="#000000"/>
</svg>
