<svg version="1.1" id="Layer_1" xmlns="http://www.w3.org/2000/svg" x="0px" y="0px"
     viewBox="0 0 24 24" style="enable-background:new 0 0 24 24;" xml:space="preserve">
<g>
	<path d="M22.6,11.2l-9-7c-0.3-0.2-0.7-0.3-1.1-0.1C12.2,4.3,12,4.6,12,5v7v7c0,0.4,0.2,0.7,0.6,0.9c0.3,0.2,0.8,0.1,1.1-0.1l9-7
		c0.2-0.2,0.4-0.5,0.4-0.8S22.9,11.4,22.6,11.2z M14,17V7l6.4,5L14,17z"/>
    <path d="M2.6,4.2C2.3,4,1.9,3.9,1.6,4.1C1.2,4.3,1,4.6,1,5v14c0,0.4,0.2,0.7,0.6,0.9c0.3,0.2,0.8,0.1,1.1-0.1l9-7
		c0.2-0.2,0.4-0.5,0.4-0.8s-0.1-0.6-0.4-0.8L2.6,4.2z M3,17V7l6.4,5L3,17z"/>
</g>
</svg>