<svg width="24" height="24" viewBox="0 0 24 24" fill="none" xmlns="http://www.w3.org/2000/svg">
    <circle cx="12" cy="12" r="9.25" stroke="black" stroke-width="1.5"/>
    <path d="M11.153 16.06C11.001 16.06 10.873 16.008 10.769 15.904C10.665 15.8 10.613 15.672 10.613 15.52V10.816H9.90498C9.77698 10.816 9.66498 10.772 9.56898 10.684C9.48098 10.588 9.43698 10.476 9.43698 10.348C9.43698 10.212 9.48098 10.1 9.56898 10.012C9.66498 9.924 9.77698 9.88 9.90498 9.88H10.613V9.184C10.613 8.704 10.697 8.312 10.865 8.008C11.041 7.696 11.265 7.472 11.537 7.336C11.817 7.192 12.109 7.12 12.413 7.12C12.789 7.12 13.137 7.2 13.457 7.36C13.537 7.4 13.601 7.46 13.649 7.54C13.705 7.612 13.733 7.692 13.733 7.78C13.733 7.9 13.689 8.008 13.601 8.104C13.513 8.192 13.409 8.236 13.289 8.236C13.201 8.236 13.109 8.224 13.013 8.2C12.821 8.176 12.713 8.164 12.689 8.164C12.361 8.164 12.113 8.24 11.945 8.392C11.785 8.544 11.705 8.82 11.705 9.22V9.88H13.205C13.341 9.88 13.453 9.924 13.541 10.012C13.629 10.1 13.673 10.212 13.673 10.348C13.673 10.476 13.629 10.588 13.541 10.684C13.453 10.772 13.341 10.816 13.205 10.816H11.705V15.52C11.705 15.672 11.649 15.8 11.537 15.904C11.433 16.008 11.305 16.06 11.153 16.06Z" fill="black"/>
    <path d="M10.769 15.904L10.9458 15.7272L10.769 15.904ZM10.613 10.816H10.863V10.566H10.613V10.816ZM9.56898 10.684L9.3847 10.8529L9.39204 10.8609L9.40005 10.8683L9.56898 10.684ZM9.56898 10.012L9.39989 9.82754L9.39221 9.83522L9.56898 10.012ZM10.613 9.88V10.13H10.863V9.88H10.613ZM10.865 8.008L10.6472 7.88516L10.6462 7.88708L10.865 8.008ZM11.537 7.336L11.6488 7.55962L11.6513 7.55832L11.537 7.336ZM13.457 7.36L13.3452 7.58361H13.3452L13.457 7.36ZM13.649 7.54L13.4346 7.66862L13.4424 7.68157L13.4516 7.69348L13.649 7.54ZM13.601 8.104L13.7779 8.28094L13.7853 8.27293L13.601 8.104ZM13.013 8.2L13.0736 7.95746L13.059 7.9538L13.044 7.95193L13.013 8.2ZM11.945 8.392L11.7772 8.20656L11.7728 8.21075L11.945 8.392ZM11.705 9.88H11.455V10.13H11.705V9.88ZM13.541 10.012L13.3642 10.1888H13.3642L13.541 10.012ZM13.541 10.684L13.7179 10.8609L13.7253 10.8529L13.541 10.684ZM11.705 10.816V10.566H11.455V10.816H11.705ZM11.537 15.904L11.3668 15.7207L11.3602 15.7272L11.537 15.904ZM11.153 15.81C11.0648 15.81 11.0012 15.7826 10.9458 15.7272L10.5922 16.0808C10.7448 16.2334 10.9372 16.31 11.153 16.31V15.81ZM10.9458 15.7272C10.8904 15.6718 10.863 15.6082 10.863 15.52H10.363C10.363 15.7358 10.4396 15.9282 10.5922 16.0808L10.9458 15.7272ZM10.863 15.52V10.816H10.363V15.52H10.863ZM10.613 10.566H9.90498V11.066H10.613V10.566ZM9.90498 10.566C9.84073 10.566 9.7887 10.5463 9.73792 10.4997L9.40005 10.8683C9.54127 10.9977 9.71324 11.066 9.90498 11.066V10.566ZM9.75327 10.5151C9.70672 10.4643 9.68698 10.4123 9.68698 10.348H9.18698C9.18698 10.5397 9.25525 10.7117 9.3847 10.8529L9.75327 10.5151ZM9.68698 10.348C9.68698 10.2715 9.70923 10.2253 9.74576 10.1888L9.39221 9.83522C9.25274 9.97469 9.18698 10.1525 9.18698 10.348H9.68698ZM9.73792 10.1963C9.7887 10.1497 9.84073 10.13 9.90498 10.13V9.63C9.71324 9.63 9.54127 9.69826 9.40005 9.82771L9.73792 10.1963ZM9.90498 10.13H10.613V9.63H9.90498V10.13ZM10.863 9.88V9.184H10.363V9.88H10.863ZM10.863 9.184C10.863 8.73093 10.9426 8.38445 11.0838 8.12892L10.6462 7.88708C10.4514 8.23955 10.363 8.67707 10.363 9.184H10.863ZM11.0827 8.13083C11.2387 7.85434 11.4288 7.66959 11.6488 7.55961L11.4252 7.11239C11.1011 7.27441 10.8433 7.53766 10.6472 7.88517L11.0827 8.13083ZM11.6513 7.55832C11.8973 7.43184 12.1502 7.37 12.413 7.37V6.87C12.0678 6.87 11.7367 6.95216 11.4226 7.11368L11.6513 7.55832ZM12.413 7.37C12.7522 7.37 13.0617 7.44185 13.3452 7.58361L13.5688 7.13639C13.2123 6.95815 12.8258 6.87 12.413 6.87V7.37ZM13.3452 7.58361C13.3808 7.6014 13.41 7.62755 13.4346 7.66862L13.8634 7.41138C13.792 7.29245 13.6932 7.1986 13.5688 7.13639L13.3452 7.58361ZM13.4516 7.69348C13.4749 7.72333 13.483 7.74974 13.483 7.78H13.983C13.983 7.63426 13.9351 7.50067 13.8463 7.38651L13.4516 7.69348ZM13.483 7.78C13.483 7.83188 13.4664 7.8809 13.4167 7.93507L13.7853 8.27293C13.9116 8.1351 13.983 7.96812 13.983 7.78H13.483ZM13.4242 7.92722C13.3812 7.97028 13.34 7.986 13.289 7.986V8.486C13.478 8.486 13.6448 8.41372 13.7778 8.28078L13.4242 7.92722ZM13.289 7.986C13.2238 7.986 13.1522 7.97711 13.0736 7.95746L12.9524 8.44254C13.0658 8.47089 13.1782 8.486 13.289 8.486V7.986ZM13.044 7.95193C12.9476 7.93988 12.8713 7.93072 12.8156 7.92453C12.7679 7.91923 12.7182 7.914 12.689 7.914V8.414C12.682 8.414 12.6824 8.41361 12.7001 8.41522C12.7142 8.41651 12.7341 8.41855 12.7604 8.42147C12.8127 8.42728 12.8864 8.43612 12.982 8.44807L13.044 7.95193ZM12.689 7.914C12.3264 7.914 12.0081 7.99772 11.7773 8.20662L12.1127 8.57738C12.2178 8.48228 12.3956 8.414 12.689 8.414V7.914ZM11.7728 8.21075C11.5354 8.43627 11.455 8.80254 11.455 9.22H11.955C11.955 8.83746 12.0346 8.65173 12.1172 8.57325L11.7728 8.21075ZM11.455 9.22V9.88H11.955V9.22H11.455ZM11.705 10.13H13.205V9.63H11.705V10.13ZM13.205 10.13C13.2815 10.13 13.3277 10.1522 13.3642 10.1888L13.7178 9.83522C13.5783 9.69576 13.4005 9.63 13.205 9.63V10.13ZM13.3642 10.1888C13.4007 10.2253 13.423 10.2715 13.423 10.348H13.923C13.923 10.1525 13.8572 9.97469 13.7178 9.83522L13.3642 10.1888ZM13.423 10.348C13.423 10.4123 13.4032 10.4643 13.3567 10.5151L13.7253 10.8529C13.8547 10.7117 13.923 10.5397 13.923 10.348H13.423ZM13.3642 10.5072C13.3277 10.5438 13.2815 10.566 13.205 10.566V11.066C13.4005 11.066 13.5783 11.0002 13.7178 10.8608L13.3642 10.5072ZM13.205 10.566H11.705V11.066H13.205V10.566ZM11.455 10.816V15.52H11.955V10.816H11.455ZM11.455 15.52C11.455 15.602 11.4283 15.6638 11.3669 15.7208L11.7071 16.0872C11.8697 15.9362 11.955 15.742 11.955 15.52H11.455ZM11.3602 15.7272C11.3048 15.7826 11.2412 15.81 11.153 15.81V16.31C11.3688 16.31 11.5612 16.2334 11.7138 16.0808L11.3602 15.7272Z" fill="black"/>
</svg>
