<svg width="30" height="32" viewBox="0 0 31 28" fill="none" xmlns="http://www.w3.org/2000/svg">
<path d="M15.3257 2H6.32568C5.79525 2 5.28654 2.21071 4.91147 2.58579C4.5364 2.96086 4.32568 3.46957 4.32568 4V20C4.32568 20.5304 4.5364 21.0391 4.91147 21.4142C5.28654 21.7893 5.79525 22 6.32568 22H18.3257C18.8561 22 19.3648 21.7893 19.7399 21.4142C20.115 21.0391 20.3257 20.5304 20.3257 20V7L15.3257 2Z" stroke="#C5C7C8" stroke-width="2" stroke-linecap="round" stroke-linejoin="round"/>
<rect x="7.32568" y="8" width="10" height="2" rx="1" fill="#C5C7C8"/>
<rect x="7.32568" y="12" width="10" height="2" rx="1" fill="#C5C7C8"/>
<rect x="7.32568" y="16" width="7" height="2" rx="1" fill="#C5C7C8"/>
<circle cx="19.5" cy="20.5" r="8.75" fill="#F32A4C"/>
<path fill-rule="evenodd" clip-rule="evenodd" d="M16.8984 19.8261C16.8427 19.5901 16.8874 19.3415 17.022 19.1397L18.772 16.5147C19.04 16.1126 19.5833 16.004 19.9854 16.272C20.3875 16.5401 20.4961 17.0833 20.228 17.4854L18.998 19.3304L21.2466 20.6153C21.6498 20.8457 21.8028 21.351 21.5951 21.7664L20.2826 24.3914C20.0665 24.8236 19.5409 24.9988 19.1087 24.7827C18.6765 24.5666 18.5013 24.041 18.7174 23.6087L19.6597 21.7241L17.3159 20.3848C17.1053 20.2644 16.9541 20.0621 16.8984 19.8261Z" fill="white"/>
</svg>
