<?xml version="1.0" encoding="utf-8"?>
<!-- Generator: Adobe Illustrator 26.0.3, SVG Export Plug-In . SVG Version: 6.00 Build 0)  -->
<svg version="1.1" id="Layer_1" xmlns="http://www.w3.org/2000/svg" x="0px" y="0px"
	 viewBox="0 0 24 24" style="enable-background:new 0 0 24 24;" xml:space="preserve">
<path style="fill:#000000;" d="M12,23C5.9,23,1,18.1,1,12S5.9,1,12,1s11,4.9,11,11S18.1,23,12,23z M12,3c-5,0-9,4-9,9c0,5,4,9,9,9
	c5,0,9-4,9-9C21,7,17,3,12,3z"/>
	<path style="fill:#000000;" d="M12,20c-4.4,0-8-3.6-8-8c0-3.1,1.8-5.9,4.6-7.2c0.5-0.2,1.1,0,1.3,0.5c0.2,0.5,0,1.1-0.5,1.3
	C7.3,7.6,6,9.7,6,12c0,3.3,2.7,6,6,6c2.3,0,4.4-1.3,5.4-3.4c0.2-0.5,0.8-0.7,1.3-0.5c0.5,0.2,0.7,0.8,0.5,1.3
	C17.9,18.2,15.1,20,12,20z"/>
	<path style="fill:#000000;" d="M15,14.5c-0.2,0-0.3,0-0.4-0.1l-3-1.5C11.2,12.7,11,12.4,11,12V5.5c0-0.6,0.4-1,1-1s1,0.4,1,1v5.9
	l2.4,1.2c0.5,0.2,0.7,0.8,0.4,1.3C15.7,14.3,15.4,14.5,15,14.5z"/>
	<path style="fill:#000000;" d="M19.7,5.5c-0.3,0-0.5-0.1-0.7-0.3c-0.4-0.4-0.4-1,0-1.4l1.1-1.1c-0.4-0.4-0.4-1,0-1.4s1-0.4,1.4,0
	l1.4,1.4c0.4,0.4,0.4,1,0,1.4s-1,0.4-1.4,0l-1.1,1.1C20.2,5.4,20,5.5,19.7,5.5z"/>
	<path style="fill:#000000;" d="M4.5,5.5C4.2,5.5,4,5.4,3.8,5.2L2.7,4.1c-0.4,0.4-1,0.4-1.4,0s-0.4-1,0-1.4l1.4-1.4
	c0.4-0.4,1-0.4,1.4,0s0.4,1,0,1.4l1.1,1.1c0.4,0.4,0.4,1,0,1.4C5,5.4,4.7,5.5,4.5,5.5z"/>
</svg>
