<svg width="24" height="24" viewBox="0 0 24 24" fill="none" xmlns="http://www.w3.org/2000/svg">
<g clip-path="url(#clip0_1855_1287)">
<path d="M9.25 19.5134C4.25 21.0134 4.25 17.0134 2.25 16.5134M16.25 22.5134V18.6434C16.2875 18.1666 16.2231 17.6872 16.061 17.2372C15.8989 16.7872 15.6429 16.3768 15.31 16.0334C18.45 15.6834 21.75 14.4934 21.75 9.03343C21.7497 7.63725 21.2127 6.29463 20.25 5.28343C20.7059 4.06193 20.6736 2.71178 20.16 1.51343C20.16 1.51343 18.98 1.16343 16.25 2.99343C13.958 2.37225 11.542 2.37225 9.25 2.99343C6.52 1.16343 5.34 1.51343 5.34 1.51343C4.82638 2.71178 4.79414 4.06193 5.25 5.28343C4.28013 6.30213 3.74252 7.65689 3.75 9.06343C3.75 14.4834 7.05 15.6734 10.19 16.0634C9.861 16.4034 9.60726 16.8088 9.44531 17.2533C9.28335 17.6979 9.21681 18.1715 9.25 18.6434V22.5134" stroke="black" stroke-width="2" stroke-linecap="round" stroke-linejoin="round"/>
</g>
<defs>
<clipPath id="clip0_1855_1287">
<rect width="24" height="24" fill="white"/>
</clipPath>
</defs>
</svg>
