<svg width="24" height="24" viewBox="0 0 24 24" fill="none" xmlns="http://www.w3.org/2000/svg">
<path fill-rule="evenodd" clip-rule="evenodd" d="M12.0001 22.9C18.02 22.9 22.9001 18.0199 22.9001 12C22.9001 5.9801 18.02 1.10001 12.0001 1.10001C5.98019 1.10001 1.1001 5.9801 1.1001 12C1.1001 18.0199 5.98019 22.9 12.0001 22.9ZM9.95412 3.13092C6.19746 3.99401 3.32865 7.18249 2.94404 11.1H7.14267C7.35879 8.23417 8.33304 5.48506 9.95412 3.13092ZM14.0461 3.13092C15.6672 5.48506 16.6414 8.23417 16.8575 11.1H21.0562C20.6716 7.18249 17.8027 3.99401 14.0461 3.13092ZM15.0518 11.1C14.8128 8.28546 13.7509 5.60332 12.0001 3.38864C10.2493 5.60332 9.1874 8.28546 8.94842 11.1H15.0518ZM8.94842 12.9H15.0518C14.8128 15.7145 13.7509 18.3967 12.0001 20.6114C10.2493 18.3967 9.1874 15.7145 8.94842 12.9ZM7.14267 12.9H2.94404C3.32865 16.8175 6.19746 20.006 9.95413 20.8691C8.33305 18.5149 7.35879 15.7658 7.14267 12.9ZM14.0461 20.8691C15.6671 18.5149 16.6414 15.7658 16.8575 12.9H21.0562C20.6715 16.8175 17.8027 20.006 14.0461 20.8691Z" fill="black"/>
</svg>
