<svg width="14" height="14" viewBox="0 0 14 14" fill="none" xmlns="http://www.w3.org/2000/svg">
    <path d="M12.2498 8.39996C11.8998 8.39996 11.6665 8.63329 11.6665 8.98329V10.85C11.6665 11.0833 11.6082 11.2583 11.4332 11.4333C11.2582 11.6083 11.0832 11.6666 10.8498 11.6666H3.14984C2.9165 11.6666 2.7415 11.6083 2.5665 11.4333C2.3915 11.2583 2.33317 11.0833 2.33317 10.85V3.14996C2.33317 2.91663 2.3915 2.74163 2.5665 2.56663C2.7415 2.39163 2.9165 2.33329 3.14984 2.33329H5.0165C5.3665 2.33329 5.59984 2.09996 5.59984 1.74996C5.59984 1.39996 5.3665 1.16663 5.0165 1.16663H3.14984C2.62484 1.16663 2.09984 1.39996 1.74984 1.74996C1.39984 2.09996 1.1665 2.62496 1.1665 3.14996V10.85C1.1665 11.375 1.39984 11.9 1.74984 12.25C2.09984 12.6 2.62484 12.8333 3.14984 12.8333H10.8498C11.3748 12.8333 11.8998 12.6 12.2498 12.25C12.5998 11.9 12.8332 11.375 12.8332 10.85V8.98329C12.8332 8.63329 12.5998 8.39996 12.2498 8.39996Z" fill="#000000"/>
    <path d="M12.775 1.51663C12.7167 1.39996 12.6 1.28329 12.4833 1.22496C12.425 1.16663 12.3083 1.16663 12.25 1.16663H9.33333C8.98333 1.16663 8.75 1.39996 8.75 1.74996C8.75 2.09996 8.98333 2.33329 9.33333 2.33329H10.85L5.425 7.75829C5.19167 7.99163 5.19167 8.34163 5.425 8.57496C5.54167 8.69163 5.65833 8.74996 5.83333 8.74996C6.00833 8.74996 6.125 8.69163 6.24167 8.57496L11.6667 3.14996V4.66663C11.6667 5.01663 11.9 5.24996 12.25 5.24996C12.6 5.24996 12.8333 5.01663 12.8333 4.66663V1.74996C12.8333 1.69163 12.8333 1.57496 12.775 1.51663Z" fill="#000000"/>
</svg>
