<?xml version="1.0" encoding="utf-8"?>
<!-- Generator: Adobe Illustrator 26.0.1, SVG Export Plug-In . SVG Version: 6.00 Build 0)  -->
<svg version="1.1" id="Layer_1" xmlns="http://www.w3.org/2000/svg" x="0px" y="0px"
	 viewBox="0 0 24 24" style="enable-background:new 0 0 24 24;" xml:space="preserve">
<g>
	<path style="fill-rule:evenodd;clip-rule:evenodd;" d="M11.6,12.2c-0.4,0.2-0.6,0.7-0.6,1.1c0,0.4,0.3,0.7,0.7,0.7
		c0.2,0,0.4,0,0.5-0.1c0.6-0.2,1.2-0.6,1.8-1c0.6-0.4,1.2-0.9,1.5-1.6c0.3-0.6,0.4-1.3,0.3-2c-0.1-0.8-0.4-1.5-0.9-2.1
		c-0.8-1-2.2-1.4-3.4-1.2S9,7,8.4,8.1C8.2,8.5,8.1,8.9,8.1,9.2c0.1,0.5,0.7,0.8,1.2,0.7c0.3-0.1,0.6-0.4,0.7-0.6
		c0.2-0.3,0.3-0.6,0.6-0.8c0.4-0.4,1-0.6,1.6-0.5c0.6,0.1,1.1,0.5,1.4,1c0.3,0.5,0.4,1.1,0.2,1.6c-0.3,0.6-0.9,0.9-1.5,1.2
		C12,11.9,11.6,12.2,11.6,12.2z"/>
	<path style="fill-rule:evenodd;clip-rule:evenodd;" d="M12,16L12,16c-0.6,0-1,0.4-1,1s0.4,1,1,1l0,0c0.6,0,1-0.4,1-1S12.6,16,12,16
		z"/>
	<path style="fill-rule:evenodd;clip-rule:evenodd;" d="M12,1C5.9,1,1,5.9,1,12s4.9,11,11,11s11-4.9,11-11S18.1,1,12,1z M12,21
		c-5,0-9-4-9-9s4-9,9-9s9,4,9,9S17,21,12,21z"/>
</g>
</svg>
