<?xml version="1.0" encoding="utf-8"?>
<!-- Generator: Adobe Illustrator 26.0.1, SVG Export Plug-In . SVG Version: 6.00 Build 0)  -->
<svg version="1.1" id="Layer_1" xmlns="http://www.w3.org/2000/svg" x="0px" y="0px"
	 viewBox="0 0 24 24" style="enable-background:new 0 0 24 24;" xml:space="preserve">
<g>
	<path d="M9,9v5c0,0.1,0,0.3,0.1,0.4c0.1,0.2,0.3,0.4,0.5,0.5C9.7,15,9.9,15,10,15h5c0.6,0,1-0.4,1-1s-0.4-1-1-1h-2.6l9.3-9.3
		c0.4-0.4,0.4-1,0-1.4s-1-0.4-1.4,0L11,11.6V9c0-0.6-0.4-1-1-1S9,8.4,9,9z"/>
</g>
<path d="M21,9.4c-0.6,0-1,0.4-1,1v8.2c0,0.4-0.1,0.7-0.4,1S19,20,18.6,20H5.4c-0.4,0-0.7-0.1-1-0.4C4.1,19.3,4,19,4,18.6V5.4
	c0-0.4,0.1-0.7,0.4-1C4.7,4.1,5,4,5.4,4h8.2c0.6,0,1-0.4,1-1s-0.4-1-1-1H5.4C4.5,2,3.6,2.4,3,3S2,4.5,2,5.4v13.2
	c0,0.9,0.4,1.8,1,2.4s1.5,1,2.4,1h13.2c0.9,0,1.8-0.4,2.4-1s1-1.5,1-2.4v-8.2C22,9.8,21.6,9.4,21,9.4z"/>
</svg>
