<svg width="25" height="24" viewBox="0 0 25 24" fill="none" xmlns="http://www.w3.org/2000/svg">
<g clip-path="url(#clip0_2818_24438)">
<path d="M18.2657 17.94C16.5563 19.243 14.4748 19.9649 12.3257 20C5.32568 20 1.32568 12 1.32568 12C2.56957 9.68192 4.29482 7.65663 6.38568 6.06003M10.2257 4.24002C10.914 4.0789 11.6187 3.99836 12.3257 4.00003C19.3257 4.00003 23.3257 12 23.3257 12C22.7187 13.1356 21.9947 14.2048 21.1657 15.19M14.4457 14.12C14.171 14.4148 13.8398 14.6512 13.4718 14.8151C13.1038 14.9791 12.7066 15.0673 12.3038 15.0744C11.901 15.0815 11.5008 15.0074 11.1273 14.8565C10.7537 14.7056 10.4144 14.4811 10.1295 14.1962C9.84465 13.9113 9.62008 13.572 9.46919 13.1984C9.31831 12.8249 9.24421 12.4247 9.25132 12.0219C9.25842 11.6191 9.34659 11.2219 9.51056 10.8539C9.67453 10.4859 9.91094 10.1547 10.2057 9.88003" stroke="#C5C7C8" stroke-width="2" stroke-linecap="round" stroke-linejoin="round"/>
<path d="M1.32568 1L23.3257 23" stroke="#C5C7C8" stroke-width="2" stroke-linecap="round" stroke-linejoin="round"/>
</g>
<defs>
<clipPath id="clip0_2818_24438">
<rect width="24" height="24" fill="white" transform="translate(0.325684)"/>
</clipPath>
</defs>
</svg>
