<?xml version="1.0" encoding="utf-8"?>
<!-- Generator: Adobe Illustrator 26.0.3, SVG Export Plug-In . SVG Version: 6.00 Build 0)  -->
<svg version="1.1" id="Layer_1" xmlns="http://www.w3.org/2000/svg" x="0px" y="0px"
	 viewBox="0 0 24 24" style="enable-background:new 0 0 24 24;" xml:space="preserve">
<g>
	<path d="M18.5,8.7H4.5c-0.6,0-1-0.4-1-1v0c0-0.6,0.4-1,1-1h13.9c0.6,0,1,0.4,1,1v0C19.5,8.3,19,8.7,18.5,8.7z"/>
	<path d="M18.5,13H8.1c-0.6,0-1-0.4-1-1v0c0-0.6,0.4-1,1-1h10.3c0.6,0,1,0.4,1,1v0C19.5,12.6,19,13,18.5,13z"/>
	<path d="M18.5,17.3h-7.2c-0.6,0-1-0.4-1-1v0c0-0.6,0.4-1,1-1h7.2c0.6,0,1,0.4,1,1v0C19.5,16.8,19,17.3,18.5,17.3z"/>
</g>
</svg>
