<?xml version="1.0" encoding="utf-8"?>
<!-- Generator: Adobe Illustrator 26.0.3, SVG Export Plug-In . SVG Version: 6.00 Build 0)  -->
<svg version="1.1" id="Layer_1" xmlns="http://www.w3.org/2000/svg" x="0px" y="0px"
	 viewBox="0 0 24 24" style="enable-background:new 0 0 24 24;" xml:space="preserve">
<path style="fill-rule:evenodd;clip-rule:evenodd;" d="M16.2,5.1c-0.1,0-0.2,0-0.4,0H8.1C7.7,5,7.4,5.2,7.2,5.5
	C6.9,5.8,6.7,6.3,6.6,6.9C6.4,7.8,6.4,8.9,6.4,9.7h11.1c-0.1-2.6-0.5-3.7-0.9-4.2C16.5,5.2,16.3,5.1,16.2,5.1z M5.6,11.5L5.6,11.5
	H2.7c-0.5,0-0.9-0.4-0.9-0.9c0-0.5,0.4-0.9,0.9-0.9h1.9c0-0.9,0-2.1,0.2-3.1c0.2-0.8,0.4-1.6,1-2.3c0.5-0.7,1.3-1.1,2.4-1.1h7.7l0,0
	c0.2,0,0.6,0,1,0.2c0.5,0.2,0.9,0.5,1.3,1c0.7,1,1.2,2.6,1.2,5.3h1.9c0.5,0,0.9,0.4,0.9,0.9c0,0.5-0.4,0.9-0.9,0.9H5.6z M9.2,17.1
	c0,1-0.8,1.9-1.9,1.9s-1.9-0.8-1.9-1.9c0-1,0.8-1.9,1.9-1.9S9.2,16.1,9.2,17.1z M11,18.1c-0.4,1.6-1.9,2.8-3.6,2.8
	c-2.1,0-3.7-1.7-3.7-3.7c0-2.1,1.7-3.7,3.7-3.7c1.7,0,3.2,1.2,3.6,2.8H13c0.4-1.6,1.9-2.8,3.6-2.8c2.1,0,3.7,1.7,3.7,3.7
	c0,2.1-1.7,3.7-3.7,3.7c-1.7,0-3.2-1.2-3.6-2.8H11z M16.7,19c1,0,1.9-0.8,1.9-1.9c0-1-0.8-1.9-1.9-1.9c-1,0-1.9,0.8-1.9,1.9
	C14.8,18.1,15.6,19,16.7,19z"/>
<circle style="fill-rule:evenodd;clip-rule:evenodd;" cx="21.9" cy="2.1" r="2.1"/>
</svg>
