<?xml version="1.0" encoding="utf-8"?>
<!-- Generator: Adobe Illustrator 26.0.3, SVG Export Plug-In . SVG Version: 6.00 Build 0)  -->
<svg version="1.1" id="Layer_1" xmlns="http://www.w3.org/2000/svg" x="0px" y="0px"
	 viewBox="0 0 24 24" style="enable-background:new 0 0 24 24;" xml:space="preserve">
<g>
	<path d="M16.7,13.4c-1.7,0-3.2,1.2-3.6,2.8H11c-0.4-1.6-1.9-2.8-3.6-2.8c-2.1,0-3.7,1.7-3.7,3.7c0,2.1,1.7,3.7,3.7,3.7
		c1.7,0,3.2-1.2,3.6-2.8H13c0.4,1.6,1.9,2.8,3.6,2.8c2.1,0,3.7-1.7,3.7-3.7C20.4,15.1,18.7,13.4,16.7,13.4z M7.3,19
		c-1,0-1.9-0.8-1.9-1.9c0-1,0.8-1.9,1.9-1.9s1.9,0.8,1.9,1.9C9.2,18.1,8.4,19,7.3,19z M16.7,19c-1,0-1.9-0.8-1.9-1.9
		c0-1,0.8-1.9,1.9-1.9s1.9,0.8,1.9,1.9C18.5,18.1,17.7,19,16.7,19z"/>
	<path d="M21.3,9.7h-1.9c-0.1-2.7-0.5-4.4-1.2-5.3c-0.4-0.6-0.9-0.9-1.3-1c-0.4-0.2-0.8-0.2-1-0.2l0,0H8.1c-1,0-1.8,0.5-2.4,1.1
		c-0.5,0.6-0.8,1.5-1,2.3C4.6,7.6,4.5,8.8,4.6,9.7H2.7c-0.5,0-0.9,0.4-0.9,0.9c0,0.5,0.4,0.9,0.9,0.9h2.9h0h15.7
		c0.5,0,0.9-0.4,0.9-0.9C22.2,10.1,21.8,9.7,21.3,9.7z M6.4,9.7c0-0.8,0-1.8,0.2-2.7c0.1-0.6,0.3-1.1,0.6-1.5C7.4,5.2,7.7,5,8.1,5
		h7.7c0.2,0,0.3,0,0.4,0c0.1,0,0.3,0.1,0.4,0.4c0.4,0.5,0.8,1.7,0.9,4.2H6.4z"/>
</g>
</svg>
