<svg width="24" height="24" viewBox="0 0 24 24" fill="none" xmlns="http://www.w3.org/2000/svg">
    <circle cx="12" cy="12" r="9.25" stroke="black" stroke-width="1.5"/>
    <path d="M11.9931 16.06C11.8411 16.06 11.7131 16.008 11.6091 15.904C11.5051 15.8 11.4531 15.672 11.4531 15.52V8.116C11.4531 7.964 11.5051 7.836 11.6091 7.732C11.7131 7.62 11.8411 7.564 11.9931 7.564C12.1451 7.564 12.2731 7.62 12.3771 7.732C12.4891 7.836 12.5451 7.964 12.5451 8.116V15.52C12.5451 15.672 12.4891 15.8 12.3771 15.904C12.2731 16.008 12.1451 16.06 11.9931 16.06Z" fill="black"/>
    <path d="M11.6091 15.904L11.7858 15.7272H11.7858L11.6091 15.904ZM11.6091 7.732L11.786 7.9089L11.7923 7.90211L11.6091 7.732ZM12.3771 7.732L12.1939 7.90211L12.2002 7.9089L12.207 7.9152L12.3771 7.732ZM12.3771 15.904L12.2068 15.7207L12.2003 15.7272L12.3771 15.904ZM11.9931 15.81C11.9049 15.81 11.8412 15.7826 11.7858 15.7272L11.4323 16.0808C11.5849 16.2334 11.7772 16.31 11.9931 16.31V15.81ZM11.7858 15.7272C11.7304 15.6718 11.7031 15.6082 11.7031 15.52H11.2031C11.2031 15.7358 11.2797 15.9282 11.4323 16.0808L11.7858 15.7272ZM11.7031 15.52V8.116H11.2031V15.52H11.7031ZM11.7031 8.116C11.7031 8.02782 11.7304 7.96417 11.7858 7.90878L11.4323 7.55522C11.2797 7.70783 11.2031 7.90018 11.2031 8.116H11.7031ZM11.7923 7.90211C11.8493 7.84073 11.911 7.814 11.9931 7.814V7.314C11.7711 7.314 11.5769 7.39927 11.4259 7.56189L11.7923 7.90211ZM11.9931 7.814C12.0751 7.814 12.1369 7.84073 12.1939 7.90211L12.5603 7.56189C12.4093 7.39927 12.215 7.314 11.9931 7.314V7.814ZM12.207 7.9152C12.2683 7.97219 12.2951 8.03395 12.2951 8.116H12.7951C12.7951 7.89405 12.7098 7.69981 12.5472 7.5488L12.207 7.9152ZM12.2951 8.116V15.52H12.7951V8.116H12.2951ZM12.2951 15.52C12.2951 15.602 12.2683 15.6638 12.2069 15.7208L12.5472 16.0872C12.7098 15.9362 12.7951 15.742 12.7951 15.52H12.2951ZM12.2003 15.7272C12.1449 15.7826 12.0812 15.81 11.9931 15.81V16.31C12.2089 16.31 12.4012 16.2334 12.5538 16.0808L12.2003 15.7272Z" fill="black"/>
    <rect x="14.5" y="8.5" width="5" height="1.5" rx="0.75" transform="rotate(-180 14.5 8.5)" fill="black"/>
    <rect x="14.5" y="16.5" width="5" height="1.5" rx="0.75" transform="rotate(-180 14.5 16.5)" fill="black"/>
</svg>
