<svg width="24" height="24" viewBox="0 0 24 24" fill="none" xmlns="http://www.w3.org/2000/svg">
    <circle cx="12" cy="12" r="9.25" stroke="black" stroke-width="1.5"/>
    <path d="M14.625 15.9361C14.2954 15.9361 14.0057 15.8395 13.7557 15.6463C13.5085 15.4531 13.3153 15.1562 13.1761 14.7557L11.6079 10.2727L11.3011 9.55682L11.0454 8.89205C10.929 8.59091 10.804 8.36506 10.6704 8.21449C10.5398 8.06392 10.3807 7.97443 10.1932 7.94602C10.0057 7.91761 9.77271 7.9375 9.4943 8.00568L9.23861 7.11932C9.28975 7.09659 9.38208 7.07102 9.5156 7.04261C9.64913 7.0142 9.80111 7 9.97157 7C10.4403 7 10.8324 7.12216 11.1477 7.36648C11.463 7.6108 11.713 7.98295 11.8977 8.48295L14.1307 14.517C14.1704 14.6278 14.223 14.7386 14.2883 14.8494C14.3537 14.9574 14.4716 15.0114 14.642 15.0114C14.6761 15.0114 14.7173 15.0085 14.7656 15.0028C14.8167 14.9972 14.8551 14.9943 14.8807 14.9943L15.1023 15.8807C15.0199 15.9006 14.9375 15.9148 14.8551 15.9233C14.7755 15.9347 14.6988 15.9389 14.625 15.9361ZM8.89771 15.8466L11.4545 8.90909L11.8636 10.8182H11.7273L9.98861 15.8466H8.89771Z" fill="black"/>
    <path fill-rule="evenodd" clip-rule="evenodd" d="M14.8552 15.9233C14.7757 15.9346 14.6988 15.9389 14.625 15.9361C14.2954 15.9361 14.0057 15.8395 13.7557 15.6463C13.5085 15.4531 13.3153 15.1562 13.1761 14.7557L11.7987 10.8182H11.7272L9.98861 15.8466H8.8977L11.2575 9.44355L11.0454 8.89205C10.9289 8.59091 10.8039 8.36506 10.6704 8.21449C10.5397 8.06392 10.3807 7.97443 10.1932 7.94602C10.0057 7.91761 9.7727 7.9375 9.49429 8.00568L9.23861 7.11932C9.28372 7.09927 9.36089 7.07701 9.47012 7.05254C9.47304 7.05188 9.47599 7.05122 9.47897 7.05056C9.49081 7.04794 9.50302 7.04529 9.5156 7.04261C9.64912 7.0142 9.80111 7 9.97156 7C10.4403 7 10.8324 7.12216 11.1477 7.36648C11.463 7.6108 11.713 7.98295 11.8977 8.48295L14.1307 14.517C14.1704 14.6278 14.223 14.7386 14.2883 14.8494C14.3537 14.9574 14.4716 15.0114 14.642 15.0114C14.6761 15.0114 14.7173 15.0085 14.7656 15.0028C14.8167 14.9972 14.8551 14.9943 14.8807 14.9943L15.1022 15.8807C15.0199 15.9006 14.9375 15.9148 14.8552 15.9233ZM14.5031 14.7215C14.5091 14.7313 14.531 14.7614 14.642 14.7614C14.6632 14.7614 14.6941 14.7595 14.7364 14.7546L14.738 14.7544C14.7911 14.7485 14.8407 14.7443 14.8807 14.7443C14.9954 14.7443 15.0954 14.8224 15.1232 14.9337L15.3448 15.82C15.3785 15.9548 15.2959 16.0911 15.1609 16.1237C15.0695 16.1458 14.9777 16.1617 14.8856 16.1715C14.7958 16.184 14.7072 16.1891 14.6202 16.1861C14.2398 16.1851 13.8973 16.0717 13.6028 15.8441L13.6017 15.8433C13.3056 15.6118 13.0896 15.2683 12.94 14.838L11.7642 11.4765L10.2831 15.76C10.2134 15.9614 10.0237 16.0966 9.81053 16.0966H9.25628C8.90837 16.0966 8.66681 15.7501 8.78712 15.4237L10.9904 9.44543L10.8123 8.98223C10.7009 8.69428 10.5888 8.49926 10.4834 8.38036L10.4816 8.37837C10.3877 8.27017 10.2813 8.21223 10.1557 8.1932C10.0126 8.17152 9.81509 8.18451 9.55376 8.24851C9.42349 8.28041 9.29126 8.20384 9.25408 8.07497L8.9984 7.18861C8.9638 7.06866 9.02299 6.94157 9.13707 6.89087C9.21471 6.85636 9.33038 6.82643 9.46357 6.79809C9.6178 6.76527 9.78774 6.75 9.97156 6.75C10.4857 6.75 10.9343 6.88488 11.3008 7.16885C11.6636 7.44994 11.9366 7.86681 12.1322 8.39634L14.366 14.4326C14.3999 14.527 14.4453 14.6233 14.5031 14.7215Z" fill="black"/>
</svg>
