<svg width="24" height="24" viewBox="0 0 24 24" fill="none" xmlns="http://www.w3.org/2000/svg">
    <path d="M8.37234 18.6757V18.6385L8.36762 18.6015C8.36512 18.582 8.36172 18.5567 8.35726 18.5263C8.34502 18.4427 8.32479 18.3196 8.29314 18.1645L7.71985 18.2815L8.29314 18.1645C8.22978 17.8542 8.12091 17.4172 7.93938 16.9137C7.87252 16.7282 7.79378 16.4689 7.69578 16.1461C7.67754 16.0861 7.65864 16.0238 7.63902 15.9594C7.51702 15.559 7.37269 15.0947 7.20455 14.6273C6.88083 13.7274 6.42748 12.6893 5.78324 12.1004C4.56123 10.9833 3.58511 9.74838 3.58511 8.27564C3.58511 4.07987 7.30256 0.595461 11.9958 0.593346L12.2226 0.593244L12.2285 0.587865C16.8153 0.698781 20.4149 4.13868 20.4149 8.2674C20.4149 9.74014 19.4388 10.9751 18.2168 12.0921C17.5725 12.681 17.1192 13.7191 16.7954 14.619C16.6273 15.0864 16.483 15.5507 16.361 15.9512C16.3414 16.0156 16.3225 16.0778 16.3042 16.1379C16.2062 16.4607 16.1275 16.72 16.0606 16.9054C15.8791 17.4089 15.7702 17.8459 15.7069 18.1563C15.6752 18.3113 15.655 18.4344 15.6427 18.518C15.6366 18.5598 15.6325 18.5917 15.63 18.6127L15.6297 18.6152L15.6277 18.632L15.6276 18.632L15.6267 18.6416L15.6265 18.6434L15.6264 18.6445C15.6153 18.7579 15.4919 18.9149 15.2578 18.9149H8.68459C8.46438 18.9149 8.37234 18.762 8.37234 18.6757ZM16.2087 18.7016L16.2089 18.6998L7.78723 18.6757C7.78723 19.1309 8.18899 19.5 8.68459 19.5H15.2578C15.7519 19.5 16.1644 19.1537 16.2087 18.7016ZM12.0048 1.17391L11.7777 1.17378L11.7694 1.18133C7.68652 1.29595 4.32979 4.38663 4.32979 8.27564C4.32979 9.53917 5.16213 10.6365 6.34441 11.7172L6.73918 11.2854L6.34441 11.7173C6.90255 12.2274 7.37944 13.1539 7.77684 14.1738C7.9707 14.6714 8.13758 15.1689 8.28249 15.6168C8.32114 15.7362 8.35873 15.8538 8.3951 15.9675C8.492 16.2706 8.58016 16.5463 8.65632 16.7575C8.98059 17.6569 9.85384 18.3261 10.8886 18.3261H13.1003C14.1406 18.3261 15.0179 17.6529 15.3437 16.7493C15.4198 16.5381 15.508 16.2623 15.6049 15.9593C15.6413 15.8455 15.6789 15.728 15.7175 15.6085C15.8624 15.1606 16.0293 14.6631 16.2232 14.1656C16.6206 13.1457 17.0975 12.2192 17.6556 11.709C18.8379 10.6283 19.6702 9.53093 19.6702 8.2674C19.6702 4.30553 16.191 1.17631 12.0048 1.17391Z" fill="#000000" stroke="#000000" stroke-width="1.17021"/>
    <rect width="8" height="3" rx="1.5" transform="matrix(1 0 0 -1 8 24)" fill="#000000"/>
</svg>