<svg version="1.1" id="Layer_1" xmlns="http://www.w3.org/2000/svg" x="0px" y="0px"
     viewBox="0 0 24 24" style="enable-background:new 0 0 24 24;" xml:space="preserve">
<g>
	<path d="M6,12c0-0.6-0.4-1-1-1H1c-0.6,0-1,0.4-1,1s0.4,1,1,1h4C5.6,13,6,12.6,6,12z"/>
    <path d="M6,16H3c-0.6,0-1,0.4-1,1s0.4,1,1,1h3c0.6,0,1-0.4,1-1S6.6,16,6,16z"/>
    <path d="M3,8h3c0.6,0,1-0.4,1-1S6.6,6,6,6H3C2.4,6,2,6.4,2,7S2.4,8,3,8z"/>
    <path d="M18.4,12.1l-2.4-1V8c0-0.6-0.4-1-1-1s-1,0.4-1,1v3.8c0,0.4,0.2,0.8,0.6,0.9l3,1.2c0.5,0.2,1.1,0,1.3-0.5
		C19.1,12.9,18.9,12.3,18.4,12.1z"/>
    <path d="M15.5,3C10.8,3,7,6.8,7,11.5s3.8,8.5,8.5,8.5s8.5-3.8,8.5-8.5S20.2,3,15.5,3z M15.5,18C11.9,18,9,15.1,9,11.5
		C9,7.9,11.9,5,15.5,5S22,7.9,22,11.5C22,15.1,19.1,18,15.5,18z"/>
</g>
</svg>