<?xml version="1.0" encoding="utf-8"?>
<!-- Generator: Adobe Illustrator 26.0.0, SVG Export Plug-In . SVG Version: 6.00 Build 0)  -->
<svg version="1.1" id="Layer_1" xmlns="http://www.w3.org/2000/svg" x="0px" y="0px"
	 viewBox="0 0 24 24" style="enable-background:new 0 0 24 24;" xml:space="preserve">
<g>
	<path d="M4.1,6.1H19c0.6,0,1.1-0.5,1.1-1.1S19.6,4,19,4H4.1C3.5,4,3,4.5,3,5.1S3.5,6.1,4.1,6.1z"/>
	<path d="M8.3,16.8H4.1c-0.6,0-1.1,0.5-1.1,1.1s0.5,1.1,1.1,1.1h4.3c0.6,0,1.1-0.5,1.1-1.1S8.9,16.8,8.3,16.8z"/>
	<path d="M16.9,10.4H4.1c-0.6,0-1.1,0.5-1.1,1.1s0.5,1.1,1.1,1.1h13.1c1.2,0,2.1,1,2.1,2.1s-1,2.1-2.1,2.1h-2.4v-2.1l-3.2,3.2
		l3.2,3.2v-2.1h2.1c2.4,0,4.3-1.9,4.3-4.2S19.2,10.4,16.9,10.4z"/>
</g>
</svg>
