<?xml version="1.0" encoding="utf-8"?>
<!-- Generator: Adobe Illustrator 27.7.0, SVG Export Plug-In . SVG Version: 6.00 Build 0)  -->
<svg version="1.1" id="Layer_1" xmlns="http://www.w3.org/2000/svg" x="0px" y="0px"
	 viewBox="0 0 24 24" style="enable-background:new 0 0 24 24;" xml:space="preserve">
<g>
	<path d="M3,11L3,11c-0.6,0-1,0.4-1,1s0.4,1,1,1h0c0.6,0,1-0.4,1-1S3.6,11,3,11z"/>
	<path d="M3,17L3,17c-0.6,0-1,0.4-1,1s0.4,1,1,1h0c0.6,0,1-0.4,1-1S3.6,17,3,17z"/>
	<path d="M8,7h13c0.6,0,1-0.4,1-1s-0.4-1-1-1H8C7.4,5,7,5.4,7,6S7.4,7,8,7z"/>
	<path d="M21,11H8c-0.6,0-1,0.4-1,1s0.4,1,1,1h13c0.6,0,1-0.4,1-1S21.6,11,21,11z"/>
	<path d="M21,17H8c-0.6,0-1,0.4-1,1s0.4,1,1,1h13c0.6,0,1-0.4,1-1S21.6,17,21,17z"/>
	<path d="M3,5L3,5C2.4,5,2,5.4,2,6s0.4,1,1,1h0c0.6,0,1-0.4,1-1S3.6,5,3,5z"/>
</g>
</svg>
