<?xml version="1.0" encoding="utf-8"?>
<svg version="1.1" id="Layer_1" xmlns="http://www.w3.org/2000/svg" x="0px" y="0px"
	 viewBox="0 0 24 24" style="enable-background:new 0 0 24 24;" xml:space="preserve">
<g>
	<path d="M12,13.5c-1.1,0-2,0.9-2,2c0,0.8,0.4,1.4,1,1.8c0,0.1,0,0.2,0,0.2v1c0,0.6,0.4,1,1,1s1-0.4,1-1v-1c0-0.1,0-0.2,0-0.2
		c0.6-0.3,1-1,1-1.8C14,14.4,13.1,13.5,12,13.5z"/>
	<path d="M19,9.5h-1v-3c0-1.6-0.6-3.1-1.8-4.2c-1.1-1.2-2.6-1.8-4.2-1.8S8.9,1.1,7.8,2.3C6.6,3.4,6,4.9,6,6.5v3H5c-1.7,0-3,1.3-3,3
		v8c0,1.7,1.3,3,3,3h14c1.7,0,3-1.3,3-3v-8C22,10.8,20.7,9.5,19,9.5z M8,6.5c0-1.1,0.4-2.1,1.2-2.8s1.7-1.2,2.8-1.2s2.1,0.4,2.8,1.2
		C15.6,4.4,16,5.4,16,6.5v3H8V6.5z M20,20.5c0,0.6-0.4,1-1,1H5c-0.6,0-1-0.4-1-1v-8c0-0.6,0.4-1,1-1h2h10h2c0.6,0,1,0.4,1,1V20.5z"
		/>
</g>
</svg>
