<?xml version="1.0" encoding="utf-8"?>
<!-- Generator: Adobe Illustrator 26.0.0, SVG Export Plug-In . SVG Version: 6.00 Build 0)  -->
<svg version="1.1" id="Layer_1" xmlns="http://www.w3.org/2000/svg" x="0px" y="0px"
     viewBox="0 0 24 24" style="enable-background:new 0 0 24 24;" xml:space="preserve">
<path d="M14,3c0-0.6,0.4-1,1-1h4c0.8,0,1.6,0.3,2.1,0.9C21.7,3.4,22,4.2,22,5v14c0,0.8-0.3,1.6-0.9,2.1C20.6,21.7,19.8,22,19,22h-4
	c-0.6,0-1-0.4-1-1s0.4-1,1-1h4c0.3,0,0.5-0.1,0.7-0.3S20,19.3,20,19V5c0-0.3-0.1-0.5-0.3-0.7C19.5,4.1,19.3,4,19,4h-4
	C14.4,4,14,3.6,14,3z"/>
<path d="M9.3,6.3c0.4-0.4,1-0.4,1.4,0l5,5c0.4,0.4,0.4,1,0,1.4l-5,5c-0.4,0.4-1,0.4-1.4,0c-0.4-0.4-0.4-1,0-1.4l3.3-3.3H3
	c-0.6,0-1-0.4-1-1s0.4-1,1-1h9.6L9.3,7.7C8.9,7.3,8.9,6.7,9.3,6.3z"/>
</svg>
