<?xml version="1.0" encoding="utf-8"?>
<!-- Generator: Adobe Illustrator 26.0.3, SVG Export Plug-In . SVG Version: 6.00 Build 0)  -->
<svg version="1.1" id="Layer_1" xmlns="http://www.w3.org/2000/svg" xmlns:xlink="http://www.w3.org/1999/xlink" x="0px" y="0px"
	 viewBox="0 0 24 24" style="enable-background:new 0 0 24 24;" xml:space="preserve">
<g>
	<defs>
		<rect id="SVGID_1_" width="24" height="24"/>
	</defs>
	<clipPath id="SVGID_00000090989287919626969760000004772965532394972338_">
		<use xlink:href="#SVGID_1_" style="overflow:visible;"/>
	</clipPath>
	<g style="clip-path:url(#SVGID_00000090989287919626969760000004772965532394972338_);">
		<path style="fill:#000000;" d="M20.5,20h-17C2.7,20,2,19.3,2,18.5v-2H1.5C0.7,16.5,0,15.8,0,15V4.5C0,3.7,0.7,3,1.5,3h21
			C23.3,3,24,3.7,24,4.5V15c0,0.8-0.7,1.5-1.5,1.5H22v2C22,19.3,21.3,20,20.5,20z M4,18h16v-2c0-0.8,0.7-1.5,1.5-1.5H22V5H2v9.5h0.5
			C3.3,14.5,4,15.2,4,16V18z"/>
		<path style="fill:#000000;" d="M4,11.5v-4C4,7.2,4.2,7,4.5,7h3C7.8,7,8,7.2,8,7.5v4C8,11.8,7.8,12,7.5,12h-3C4.2,12,4,11.8,4,11.5
			z"/>
		<path style="fill:#000000;" d="M10,11.5v-4C10,7.2,10.2,7,10.5,7h3C13.8,7,14,7.2,14,7.5v4c0,0.3-0.2,0.5-0.5,0.5h-3
			C10.2,12,10,11.8,10,11.5z"/>
		<path style="fill:#000000;" d="M16,11.5v-4C16,7.2,16.2,7,16.5,7h3C19.8,7,20,7.2,20,7.5v4c0,0.3-0.2,0.5-0.5,0.5h-3
			C16.2,12,16,11.8,16,11.5z"/>
		<path style="fill:#000000;" d="M6,19c-0.6,0-1-0.4-1-1v-2c0-0.6,0.4-1,1-1s1,0.4,1,1v2C7,18.6,6.6,19,6,19z"/>
		<path style="fill:#000000;" d="M9,19c-0.6,0-1-0.4-1-1v-2c0-0.6,0.4-1,1-1s1,0.4,1,1v2C10,18.6,9.6,19,9,19z"/>
		<path style="fill:#000000;" d="M12,19c-0.6,0-1-0.4-1-1v-2c0-0.6,0.4-1,1-1s1,0.4,1,1v2C13,18.6,12.6,19,12,19z"/>
		<path style="fill:#000000;" d="M15,19c-0.6,0-1-0.4-1-1v-2c0-0.6,0.4-1,1-1s1,0.4,1,1v2C16,18.6,15.6,19,15,19z"/>
		<path style="fill:#000000;" d="M18,19c-0.6,0-1-0.4-1-1v-2c0-0.6,0.4-1,1-1s1,0.4,1,1v2C19,18.6,18.6,19,18,19z"/>
	</g>
</g>
</svg>
