<?xml version="1.0" encoding="utf-8"?>
<!-- Generator: Adobe Illustrator 26.0.1, SVG Export Plug-In . SVG Version: 6.00 Build 0)  -->
<svg version="1.1" id="Layer_1" xmlns="http://www.w3.org/2000/svg" x="0px" y="0px"
	 viewBox="0 0 24 24" style="enable-background:new 0 0 24 24;" xml:space="preserve">
<g>
	<path d="M5,7h14c0.6,0,1-0.4,1-1s-0.4-1-1-1H5C4.4,5,4,5.4,4,6S4.4,7,5,7z"/>
	<path d="M19,17H5c-0.6,0-1,0.4-1,1s0.4,1,1,1h14c0.6,0,1-0.4,1-1S19.6,17,19,17z"/>
	<path d="M19,11H5c-0.6,0-1,0.4-1,1s0.4,1,1,1h14c0.6,0,1-0.4,1-1S19.6,11,19,11z"/>
</g>
</svg>
