<?xml version="1.0" encoding="utf-8"?>
<svg version="1.1" id="Layer_1" xmlns="http://www.w3.org/2000/svg" x="0px" y="0px"
	 viewBox="0 0 24 24" style="enable-background:new 0 0 24 24;" xml:space="preserve">
<g>
	<path style="fill:#000000;" d="M7,13c0,0.5523071,0.4476929,1,1,1h8
		c0.5523071,0,1-0.4476929,1-1s-0.4476929-1-1-1H8C7.4476929,12,7,12.4476929,7,13z"/>
	<path style="fill:#000000;" d="M16,16H8c-0.5523071,0-1,0.4476929-1,1s0.4476929,1,1,1h8
		c0.5523071,0,1-0.4476929,1-1S16.5523071,16,16,16z"/>
	<path style="fill:#000000;" d="M8,10h2c0.5523071,0,1-0.4476929,1-1s-0.4476929-1-1-1H8
		C7.4476929,8,7,8.4476929,7,9S7.4476929,10,8,10z"/>
	<path style="fill:#000000;" d="M20.1212769,6.7070923l-4.8283691-4.8284302
		C14.7302856,1.31604,13.9672241,1,13.1716309,1H6C4.3431396,1,3,2.3431396,3,4v16c0,1.6569214,1.3431396,3,3,3h12
		c1.6569214,0,3-1.3430786,3-3V8.8284302C21,8.0327759,20.6838989,7.2697144,20.1212769,6.7070923z M15,4.4141846L17.5858154,7H15
		V4.4141846z M19,20c0,0.5523071-0.4476929,1-1,1H6c-0.5523071,0-1-0.4476929-1-1V4c0-0.5523071,0.4476929-1,1-1h7v5
		c0,0.5523071,0.4476929,1,1,1h5V20z"/>
</g>
</svg>

