<svg width="16" height="16" viewBox="0 0 16 16" fill="none" xmlns="http://www.w3.org/2000/svg">
<path fill-rule="evenodd" clip-rule="evenodd" d="M2.66667 2C2.29848 2 2 2.29848 2 2.66667V11.5556C2 11.9237 2.29848 12.2222 2.66667 12.2222H6.4C6.62351 12.2222 6.85407 12.3203 7.03584 12.5222C7.2197 12.7265 7.33333 13.0173 7.33333 13.3333C7.33333 13.7015 7.63181 14 8 14C8.36819 14 8.66667 13.7015 8.66667 13.3333C8.66667 13.0173 8.7803 12.7265 8.96416 12.5222C9.14593 12.3203 9.37649 12.2222 9.6 12.2222H13.3333C13.7015 12.2222 14 11.9237 14 11.5556V2.66667C14 2.29848 13.7015 2 13.3333 2H10.1333C9.3667 2 8.64767 2.339 8.12931 2.91496C8.08441 2.96485 8.0413 3.01618 8 3.06885C7.95871 3.01618 7.91559 2.96485 7.87069 2.91496C7.35233 2.339 6.6333 2 5.86667 2H2.66667ZM8.66667 11.1053C8.95429 10.9653 9.27137 10.8889 9.6 10.8889H12.6667V3.33333H10.1333C9.76837 3.33333 9.40216 3.4938 9.12037 3.80691C8.83649 4.12233 8.66667 4.56384 8.66667 5.03704V11.1053ZM7.33333 11.1053V5.03704C7.33333 4.56384 7.16351 4.12233 6.87963 3.80691C6.59784 3.4938 6.23163 3.33333 5.86667 3.33333H3.33333V10.8889H6.4C6.72863 10.8889 7.04571 10.9653 7.33333 11.1053Z" fill="#000000"/>
</svg>
