<?xml version="1.0" encoding="utf-8"?>
<svg width="24" height="24" viewBox="0 0 24 24" fill="none" xmlns="http://www.w3.org/2000/svg">
	<g clip-path="url(#clip0_1326_17096)">
		<path fill-rule="evenodd" clip-rule="evenodd" d="M0 12C0 11.4477 0.311454 11 0.695652 11H7.65217C8.03637 11 8.34783 11.4477 8.34783 12C8.34783 12.5523 8.03637 13 7.65217 13H0.695652C0.311454 13 0 12.5523 0 12Z" fill="#000000"/>
		<path fill-rule="evenodd" clip-rule="evenodd" d="M0 6C0 5.44772 0.307804 5 0.6875 5H10.3125C10.6922 5 11 5.44772 11 6C11 6.55228 10.6922 7 10.3125 7H0.6875C0.307804 7 0 6.55228 0 6Z" fill="#000000"/>
		<path fill-rule="evenodd" clip-rule="evenodd" d="M0 18C0 17.4477 0.25184 17 0.5625 17H8.4375C8.74816 17 9 17.4477 9 18C9 18.5523 8.74816 19 8.4375 19H0.5625C0.25184 19 0 18.5523 0 18Z" fill="#000000"/>
		<path fill-rule="evenodd" clip-rule="evenodd" d="M18.7829 4.875C18.7829 4.39175 18.3157 4 17.7394 4C17.1631 4 16.6959 4.39175 16.6959 4.875V16.5858L13.2598 13.2929C12.8523 12.9024 12.1916 12.9024 11.7841 13.2929C11.3766 13.6834 11.3766 14.3166 11.7841 14.7071L17.0015 19.7071C17.409 20.0976 18.0697 20.0976 18.4772 19.7071L23.6946 14.7071C24.1021 14.3166 24.1021 13.6834 23.6946 13.2929C23.2871 12.9024 22.6264 12.9024 22.2189 13.2929L18.7829 16.5858V4.875Z" fill="#000000"/>
	</g>
	<defs>
		<clipPath id="clip0_1326_17096">
			<rect width="24" height="24" fill="white"/>
		</clipPath>
	</defs>
</svg>
