<svg width="24" height="24" viewBox="0 0 24 24" fill="none" xmlns="http://www.w3.org/2000/svg">
    <path d="M10.376 6.41603C10.5151 6.62467 10.7492 6.75 11 6.75H20C20.3315 6.75 20.6495 6.8817 20.8839 7.11612C21.1183 7.35054 21.25 7.66848 21.25 8V19C21.25 19.3315 21.1183 19.6495 20.8839 19.8839C20.6495 20.1183 20.3315 20.25 20 20.25H4C3.66848 20.25 3.35054 20.1183 3.11612 19.8839C2.8817 19.6495 2.75 19.3315 2.75 19V5C2.75 4.66848 2.8817 4.35054 3.11612 4.11612C3.35054 3.8817 3.66848 3.75 4 3.75H8.59861L10.376 6.41603Z" stroke="black" stroke-width="1.5" stroke-linecap="round" stroke-linejoin="round"/>
    <circle cx="9.5" cy="13" r="2.375" stroke="black" stroke-width="1.25"/>
</svg>
