<svg width="24" height="24" viewBox="0 0 24 24" fill="none" xmlns="http://www.w3.org/2000/svg">
    <circle cx="12" cy="12" r="9.25" stroke="black" stroke-width="1.5"/>
    <path d="M9.70284 16.82C9.55084 16.82 9.42284 16.764 9.31884 16.652C9.21484 16.548 9.16284 16.42 9.16284 16.268V8.36C9.16284 8.208 9.21484 8.08 9.31884 7.976C9.42284 7.872 9.55084 7.82 9.70284 7.82C9.85484 7.82 9.98284 7.872 10.0868 7.976C10.1988 8.08 10.2548 8.208 10.2548 8.36V8.672C10.8388 8.064 11.5228 7.76 12.3068 7.76C12.8028 7.76 13.2708 7.888 13.7108 8.144C14.1588 8.392 14.5188 8.76 14.7908 9.248C15.0708 9.728 15.2108 10.292 15.2108 10.94C15.2108 11.588 15.0708 12.156 14.7908 12.644C14.5188 13.124 14.1588 13.492 13.7108 13.748C13.2708 13.996 12.8028 14.12 12.3068 14.12C11.5228 14.12 10.8388 13.816 10.2548 13.208V16.268C10.2548 16.428 10.2028 16.56 10.0988 16.664C9.99484 16.768 9.86284 16.82 9.70284 16.82ZM12.1508 13.1C12.7428 13.1 13.2188 12.912 13.5788 12.536C13.9388 12.16 14.1188 11.628 14.1188 10.94C14.1188 10.252 13.9388 9.72 13.5788 9.344C13.2188 8.968 12.7428 8.78 12.1508 8.78C11.7828 8.78 11.4348 8.864 11.1068 9.032C10.7868 9.192 10.5028 9.408 10.2548 9.68V12.2C10.5028 12.472 10.7868 12.692 11.1068 12.86C11.4348 13.02 11.7828 13.1 12.1508 13.1Z" fill="black"/>
    <path d="M9.31884 16.652L9.50217 16.4818L9.49562 16.4752L9.31884 16.652ZM9.31884 7.976L9.49562 8.15278L9.31884 7.976ZM10.0868 7.976L9.90995 8.1529L9.91673 8.1592L10.0868 7.976ZM10.2548 8.672H10.0048V9.29316L10.4351 8.84518L10.2548 8.672ZM13.7108 8.144L13.5851 8.36014L13.5898 8.36272L13.7108 8.144ZM14.7908 9.248L14.5724 9.36974L14.5749 9.37397L14.7908 9.248ZM14.7908 12.644L14.574 12.5196L14.5733 12.5207L14.7908 12.644ZM13.7108 13.748L13.8336 13.9658L13.8349 13.9651L13.7108 13.748ZM10.2548 13.208L10.4351 13.0348L10.0048 12.5868V13.208H10.2548ZM10.0988 16.664L10.2756 16.8408H10.2756L10.0988 16.664ZM13.5788 12.536L13.7594 12.7089L13.5788 12.536ZM13.5788 9.344L13.7594 9.17111L13.5788 9.344ZM11.1068 9.032L11.2187 9.25562L11.2208 9.25451L11.1068 9.032ZM10.2548 9.68L10.0701 9.51156L10.0048 9.58314V9.68H10.2548ZM10.2548 12.2H10.0048V12.2969L10.0701 12.3684L10.2548 12.2ZM11.1068 12.86L10.9906 13.0814L10.9972 13.0847L11.1068 12.86ZM9.70284 16.57C9.6208 16.57 9.55904 16.5433 9.50204 16.4819L9.13565 16.8221C9.28665 16.9847 9.48089 17.07 9.70284 17.07V16.57ZM9.49562 16.4752C9.44023 16.4198 9.41284 16.3562 9.41284 16.268H8.91284C8.91284 16.4838 8.98946 16.6762 9.14207 16.8288L9.49562 16.4752ZM9.41284 16.268V8.36H8.91284V16.268H9.41284ZM9.41284 8.36C9.41284 8.27182 9.44023 8.20817 9.49562 8.15278L9.14207 7.79922C8.98946 7.95183 8.91284 8.14418 8.91284 8.36H9.41284ZM9.49562 8.15278C9.55101 8.09738 9.61467 8.07 9.70284 8.07V7.57C9.48702 7.57 9.29468 7.64661 9.14207 7.79922L9.49562 8.15278ZM9.70284 8.07C9.79102 8.07 9.85468 8.09738 9.91007 8.15278L10.2636 7.79922C10.111 7.64661 9.91867 7.57 9.70284 7.57V8.07ZM9.91673 8.1592C9.97811 8.21619 10.0048 8.27795 10.0048 8.36H10.5048C10.5048 8.13805 10.4196 7.94381 10.257 7.7928L9.91673 8.1592ZM10.0048 8.36V8.672H10.5048V8.36H10.0048ZM10.4351 8.84518C10.976 8.28215 11.5964 8.01 12.3068 8.01V7.51C11.4493 7.51 10.7017 7.84585 10.0745 8.49882L10.4351 8.84518ZM12.3068 8.01C12.7575 8.01 13.1822 8.12569 13.5851 8.36009L13.8366 7.92791C13.3594 7.65031 12.8482 7.51 12.3068 7.51V8.01ZM13.5898 8.36272C13.9932 8.58606 14.3211 8.91865 14.5725 9.36971L15.0092 9.12629C14.7166 8.60135 14.3245 8.19794 13.8319 7.92528L13.5898 8.36272ZM14.5749 9.37397C14.8291 9.80979 14.9608 10.3288 14.9608 10.94H15.4608C15.4608 10.2552 15.3126 9.64621 15.0068 9.12203L14.5749 9.37397ZM14.9608 10.94C14.9608 11.5511 14.8292 12.0749 14.574 12.5196L15.0077 12.7684C15.3125 12.2371 15.4608 11.6249 15.4608 10.94H14.9608ZM14.5733 12.5207C14.3219 12.9645 13.9931 13.2988 13.5868 13.5309L13.8349 13.9651C14.3246 13.6852 14.7158 13.2835 15.0083 12.7673L14.5733 12.5207ZM13.5881 13.5302C13.1848 13.7575 12.759 13.87 12.3068 13.87V14.37C12.8467 14.37 13.3568 14.2345 13.8336 13.9658L13.5881 13.5302ZM12.3068 13.87C11.5964 13.87 10.976 13.5979 10.4351 13.0348L10.0745 13.3812C10.7017 14.0341 11.4493 14.37 12.3068 14.37V13.87ZM10.0048 13.208V16.268H10.5048V13.208H10.0048ZM10.0048 16.268C10.0048 16.3681 9.97483 16.4345 9.92207 16.4872L10.2756 16.8408C10.4309 16.6855 10.5048 16.4879 10.5048 16.268H10.0048ZM9.92207 16.4872C9.8693 16.54 9.80296 16.57 9.70284 16.57V17.07C9.92273 17.07 10.1204 16.996 10.2756 16.8408L9.92207 16.4872ZM12.1508 13.35C12.8008 13.35 13.3456 13.1411 13.7594 12.7089L13.3983 12.3631C13.0921 12.6829 12.6849 12.85 12.1508 12.85V13.35ZM13.7594 12.7089C14.1768 12.2729 14.3688 11.6711 14.3688 10.94H13.8688C13.8688 11.5849 13.7009 12.0471 13.3983 12.3631L13.7594 12.7089ZM14.3688 10.94C14.3688 10.2089 14.1768 9.60705 13.7594 9.17111L13.3983 9.51689C13.7009 9.83294 13.8688 10.2951 13.8688 10.94H14.3688ZM13.7594 9.17111C13.3456 8.73891 12.8008 8.53 12.1508 8.53V9.03C12.6849 9.03 13.0921 9.19709 13.3983 9.51689L13.7594 9.17111ZM12.1508 8.53C11.7432 8.53 11.3561 8.62345 10.9929 8.80949L11.2208 9.25451C11.5136 9.10455 11.8225 9.03 12.1508 9.03V8.53ZM10.995 8.80839C10.6467 8.98254 10.3382 9.21751 10.0701 9.51156L10.4396 9.84844C10.6675 9.59849 10.9269 9.40146 11.2186 9.25561L10.995 8.80839ZM10.0048 9.68V12.2H10.5048V9.68H10.0048ZM10.0701 12.3684C10.3373 12.6615 10.6444 12.8996 10.9906 13.0813L11.2231 12.6387C10.9293 12.4844 10.6684 12.2825 10.4396 12.0316L10.0701 12.3684ZM10.9972 13.0847C11.3597 13.2615 11.7452 13.35 12.1508 13.35V12.85C11.8205 12.85 11.51 12.7785 11.2164 12.6353L10.9972 13.0847Z" fill="black"/>
</svg>
