<svg width="25" height="24" viewBox="0 0 25 24" fill="none" xmlns="http://www.w3.org/2000/svg">
<path fill-rule="evenodd" clip-rule="evenodd" d="M9 1.2C9 0.537258 9.33579 0 9.75 0H14.25C14.6642 0 15 0.537258 15 1.2V4.8C15 5.46274 14.6642 6 14.25 6H13V9H21V10V11V15H22.25C22.6642 15 23 15.5373 23 16.2V19.8C23 20.4627 22.6642 21 22.25 21H17.75C17.3358 21 17 20.4627 17 19.8V16.2C17 15.5373 17.3358 15 17.75 15H19V11H13V15H14.25C14.6642 15 15 15.5373 15 16.2V19.8C15 20.4627 14.6642 21 14.25 21H9.75C9.33579 21 9 20.4627 9 19.8V16.2C9 15.5373 9.33579 15 9.75 15H11V11H5V15H6.25C6.66421 15 7 15.5373 7 16.2V19.8C7 20.4627 6.66421 21 6.25 21H1.75C1.33579 21 1 20.4627 1 19.8V16.2C1 15.5373 1.33579 15 1.75 15H3V11V10V9H11V6H9.75C9.33579 6 9 5.46274 9 4.8V1.2Z" fill="#000000"/>
</svg>
