<?xml version="1.0" encoding="utf-8"?>
<!-- Generator: Adobe Illustrator 26.0.1, SVG Export Plug-In . SVG Version: 6.00 Build 0)  -->
<svg version="1.1" id="Layer_1" xmlns="http://www.w3.org/2000/svg" x="0px" y="0px"
	 viewBox="0 0 24 24" style="enable-background:new 0 0 24 24;" xml:space="preserve">
<g>
	<path style="fill-rule:evenodd;clip-rule:evenodd;" d="M12,1C5.9,1,1,5.9,1,12c0,6.1,4.9,11,11,11c6.1,0,11-4.9,11-11
		C23,5.9,18.1,1,12,1z M12,21c-5,0-9-4-9-9s4-9,9-9s9,4,9,9S17,21,12,21z"/>
	<path style="fill-rule:evenodd;clip-rule:evenodd;" d="M10,8C9.4,8,9,8.4,9,9v6c0,0.6,0.4,1,1,1s1-0.4,1-1V9C11,8.4,10.6,8,10,8z"
		/>
	<path style="fill-rule:evenodd;clip-rule:evenodd;" d="M14,8c-0.6,0-1,0.4-1,1v6c0,0.6,0.4,1,1,1s1-0.4,1-1V9C15,8.4,14.6,8,14,8z"
		/>
</g>
</svg>
