<svg width="16" height="16" viewBox="0 0 16 16" fill="none" xmlns="http://www.w3.org/2000/svg">
<g clip-path="url(#clip0_1256_142789)">
<path fill-rule="evenodd" clip-rule="evenodd" d="M7.99935 2C4.68564 2 1.99935 4.68629 1.99935 8C1.99935 11.3137 4.68564 14 7.99935 14C11.3131 14 13.9993 11.3137 13.9993 8C13.9993 4.68629 11.3131 2 7.99935 2ZM0.666016 8C0.666016 3.94991 3.94926 0.666667 7.99935 0.666667C12.0494 0.666667 15.3327 3.94991 15.3327 8C15.3327 12.0501 12.0494 15.3333 7.99935 15.3333C3.94926 15.3333 0.666016 12.0501 0.666016 8Z" fill="#000000"/>
<path fill-rule="evenodd" clip-rule="evenodd" d="M6.66667 5.33333C7.03486 5.33333 7.33333 5.63181 7.33333 6V10C7.33333 10.3682 7.03486 10.6667 6.66667 10.6667C6.29848 10.6667 6 10.3682 6 10V6C6 5.63181 6.29848 5.33333 6.66667 5.33333Z" fill="#000000"/>
<path fill-rule="evenodd" clip-rule="evenodd" d="M9.33268 5.33333C9.70087 5.33333 9.99935 5.63181 9.99935 6V10C9.99935 10.3682 9.70087 10.6667 9.33268 10.6667C8.96449 10.6667 8.66602 10.3682 8.66602 10V6C8.66602 5.63181 8.96449 5.33333 9.33268 5.33333Z" fill="#000000"/>
</g>
<defs>
<clipPath id="clip0_1256_142789">
<rect width="16" height="16" fill="white"/>
</clipPath>
</defs>
</svg>
