<svg width="19" height="18" viewBox="0 0 19 18" fill="none" xmlns="http://www.w3.org/2000/svg">
    <path d="M16.0187 3.70404L15.9154 3.52525C15.3003 2.45982 13.9476 2.08517 12.9001 2.68995C12.6635 2.82654 12.4628 3.00185 12.3003 3.20333C11.615 2.42686 10.4653 2.20648 9.54898 2.7355C9.30015 2.87917 9.09114 3.06567 8.92453 3.28037C8.22618 2.60178 7.10755 2.42759 6.23001 2.93424C5.99376 3.07064 5.79277 3.24862 5.62968 3.45442L4.29025 1.13446C3.67512 0.0690237 2.32243 -0.305626 1.27492 0.299154C0.227408 0.903934 -0.124484 2.26273 0.490645 3.32816L3.77571 9.01806C3.19387 8.77818 2.57676 8.63262 2.0007 8.70655C1.35792 8.78913 0.827893 9.1296 0.467773 9.69143C-0.194481 10.7248 0.0956537 12.1263 1.11457 12.8157L6.27889 16.3104C6.42255 16.4052 9.8293 18.6124 12.7248 16.9407L16.1022 14.9908C18.7653 13.4532 19.653 9.98737 18.0807 7.26415L16.021 3.70267L16.0187 3.70404ZM15.3586 13.7026L11.9812 15.6526C9.89544 16.8568 7.17125 15.1392 7.07193 15.0754L1.92061 11.5895C1.56514 11.349 1.47038 10.874 1.70486 10.5082C1.83406 10.3065 1.98881 10.2042 2.20637 10.176C3.0739 10.0639 4.57145 11.0726 5.31106 11.7343L5.87445 12.2402L6.7362 11.2206L1.75726 2.59688C1.55221 2.2417 1.66946 1.78883 2.01869 1.58721C2.36792 1.38558 2.81874 1.51047 3.0238 1.86564L7.3124 9.29371L7.32388 9.28708L8.57893 8.56248L8.59042 8.55585L6.70641 5.29265C6.49882 4.9331 6.62624 4.42295 6.97378 4.2223C7.33364 4.01453 7.82304 4.13329 8.02111 4.47636L8.76479 5.76446L10.0539 7.99718L11.3204 7.26594L10.0313 5.03323C9.82627 4.67805 9.94353 4.22518 10.2928 4.02356C10.642 3.82193 11.0928 3.94682 11.2979 4.30199L12.1159 5.71891L12.934 7.13582L14.2005 6.40459L13.3825 4.98767C13.1774 4.6325 13.2947 4.17963 13.6439 3.978C13.9931 3.77638 14.4439 3.90126 14.649 4.25644L15.1808 5.1776L15.1838 5.1759L16.8147 7.9958C17.9765 10.0083 17.3232 12.5683 15.3586 13.7026Z" fill="#C5C7C8"/>
</svg>
