<svg width="16" height="16" viewBox="0 0 16 16" fill="none" xmlns="http://www.w3.org/2000/svg">
<path fill-rule="evenodd" clip-rule="evenodd" d="M10.3333 3.33333C7.9401 3.33333 6 5.27343 6 7.66667C6 10.0599 7.9401 12 10.3333 12C12.7266 12 14.6667 10.0599 14.6667 7.66667C14.6667 5.27343 12.7266 3.33333 10.3333 3.33333ZM4.66667 7.66667C4.66667 4.53705 7.20372 2 10.3333 2C13.4629 2 16 4.53705 16 7.66667C16 10.7963 13.4629 13.3333 10.3333 13.3333C7.20372 13.3333 4.66667 10.7963 4.66667 7.66667ZM10 4.66667C10.3682 4.66667 10.6667 4.96514 10.6667 5.33333V7.38889L12.2564 8.05128C12.5963 8.19289 12.757 8.58321 12.6154 8.92308C12.4738 9.26294 12.0835 9.42366 11.7436 9.28205L9.74359 8.44872C9.49516 8.34521 9.33333 8.10247 9.33333 7.83333V5.33333C9.33333 4.96514 9.63181 4.66667 10 4.66667ZM2 4C1.63181 4 1.33333 4.29848 1.33333 4.66667C1.33333 5.03486 1.63181 5.33333 2 5.33333H4C4.36819 5.33333 4.66667 5.03486 4.66667 4.66667C4.66667 4.29848 4.36819 4 4 4H2ZM1.33333 11.3333C1.33333 10.9651 1.63181 10.6667 2 10.6667H4C4.36819 10.6667 4.66667 10.9651 4.66667 11.3333C4.66667 11.7015 4.36819 12 4 12H2C1.63181 12 1.33333 11.7015 1.33333 11.3333ZM0.666667 7.33333C0.298477 7.33333 0 7.63181 0 8C0 8.36819 0.298477 8.66667 0.666667 8.66667H3.33333C3.70152 8.66667 4 8.36819 4 8C4 7.63181 3.70152 7.33333 3.33333 7.33333H0.666667Z" fill="#000000"/>
</svg>
