<svg width="24" height="24" viewBox="0 0 24 24" fill="none" xmlns="http://www.w3.org/2000/svg">
    <circle cx="12" cy="12" r="9.25" stroke="black" stroke-width="1.5"/>
    <path d="M9.43252 15.56C9.28052 15.56 9.15252 15.508 9.04852 15.404C8.94452 15.3 8.89252 15.172 8.89252 15.02V7.676C8.89252 7.524 8.94452 7.396 9.04852 7.292C9.15252 7.18 9.28052 7.124 9.43252 7.124H12.2285C13.3165 7.124 14.1325 7.348 14.6765 7.796C15.2205 8.244 15.4925 8.832 15.4925 9.56C15.4925 10.04 15.3565 10.48 15.0845 10.88C14.8205 11.272 14.4325 11.556 13.9205 11.732C14.4965 11.884 14.8885 12.244 15.0965 12.812C15.3125 13.372 15.4205 13.924 15.4205 14.468V15.02C15.4205 15.172 15.3685 15.3 15.2645 15.404C15.1605 15.508 15.0325 15.56 14.8805 15.56C14.7125 15.56 14.5765 15.512 14.4725 15.416C14.3765 15.312 14.3285 15.18 14.3285 15.02V14.66C14.3285 14.26 14.2925 13.892 14.2205 13.556C14.1485 13.212 13.9765 12.908 13.7045 12.644C13.4325 12.372 13.0205 12.236 12.4685 12.236H9.98452V15.02C9.98452 15.172 9.92852 15.3 9.81652 15.404C9.71252 15.508 9.58452 15.56 9.43252 15.56ZM12.1565 11.204C12.8445 11.204 13.3885 11.068 13.7885 10.796C14.1965 10.524 14.4005 10.14 14.4005 9.644C14.4005 9.164 14.2245 8.796 13.8725 8.54C13.5285 8.284 12.9365 8.156 12.0965 8.156H9.98452V11.204H12.1565Z" fill="black"/>
    <path d="M9.04852 15.404L9.22529 15.2272H9.22529L9.04852 15.404ZM9.04852 7.292L9.22541 7.4689L9.23171 7.46211L9.04852 7.292ZM14.6765 7.796L14.8354 7.60302V7.60302L14.6765 7.796ZM15.0845 10.88L14.8778 10.7394L14.8772 10.7403L15.0845 10.88ZM13.9205 11.732L13.8392 11.4956L13.0599 11.7635L13.8567 11.9737L13.9205 11.732ZM15.0965 12.812L14.8617 12.898L14.8633 12.902L15.0965 12.812ZM15.2645 15.404L15.4413 15.5808L15.2645 15.404ZM14.4725 15.416L14.2888 15.5856L14.2956 15.5929L14.3029 15.5997L14.4725 15.416ZM14.2205 13.556L13.9758 13.6072L13.9761 13.6084L14.2205 13.556ZM13.7045 12.644L13.5277 12.8208L13.5304 12.8234L13.7045 12.644ZM9.98452 12.236V11.986H9.73452V12.236H9.98452ZM9.81652 15.404L9.64629 15.2207L9.63974 15.2272L9.81652 15.404ZM13.7885 10.796L13.6498 10.588L13.6479 10.5893L13.7885 10.796ZM13.8725 8.54L13.7233 8.74057L13.7255 8.74218L13.8725 8.54ZM9.98452 8.156V7.906H9.73452V8.156H9.98452ZM9.98452 11.204H9.73452V11.454H9.98452V11.204ZM9.43252 15.31C9.34434 15.31 9.28068 15.2826 9.22529 15.2272L8.87174 15.5808C9.02435 15.7334 9.21669 15.81 9.43252 15.81V15.31ZM9.22529 15.2272C9.1699 15.1718 9.14252 15.1082 9.14252 15.02H8.64252C8.64252 15.2358 8.71913 15.4282 8.87174 15.5808L9.22529 15.2272ZM9.14252 15.02V7.676H8.64252V15.02H9.14252ZM9.14252 7.676C9.14252 7.58782 9.1699 7.52417 9.22529 7.46878L8.87174 7.11522C8.71913 7.26783 8.64252 7.46018 8.64252 7.676H9.14252ZM9.23171 7.46211C9.28871 7.40073 9.35047 7.374 9.43252 7.374V6.874C9.21056 6.874 9.01632 6.95927 8.86532 7.12189L9.23171 7.46211ZM9.43252 7.374H12.2285V6.874H9.43252V7.374ZM12.2285 7.374C13.2885 7.374 14.037 7.59322 14.5176 7.98898L14.8354 7.60302C14.228 7.10278 13.3445 6.874 12.2285 6.874V7.374ZM14.5176 7.98898C15.0018 8.38771 15.2425 8.90385 15.2425 9.56H15.7425C15.7425 8.76014 15.4393 8.10029 14.8354 7.60302L14.5176 7.98898ZM15.2425 9.56C15.2425 9.98945 15.1218 10.3805 14.8778 10.7394L15.2912 11.0206C15.5912 10.5795 15.7425 10.0906 15.7425 9.56H15.2425ZM14.8772 10.7403C14.6479 11.0808 14.3076 11.3346 13.8392 11.4956L14.0018 11.9684C14.5574 11.7774 14.9932 11.4632 15.2919 11.0196L14.8772 10.7403ZM13.8567 11.9737C14.3523 12.1045 14.6813 12.4053 14.8618 12.898L15.3313 12.726C15.0957 12.0827 14.6408 11.6635 13.9843 11.4903L13.8567 11.9737ZM14.8633 12.902C15.0693 13.4362 15.1705 13.9578 15.1705 14.468H15.6705C15.6705 13.8902 15.5557 13.3078 15.3298 12.722L14.8633 12.902ZM15.1705 14.468V15.02H15.6705V14.468H15.1705ZM15.1705 15.02C15.1705 15.1082 15.1431 15.1718 15.0877 15.2272L15.4413 15.5808C15.5939 15.4282 15.6705 15.2358 15.6705 15.02H15.1705ZM15.0877 15.2272C15.0323 15.2826 14.9687 15.31 14.8805 15.31V15.81C15.0963 15.81 15.2887 15.7334 15.4413 15.5808L15.0877 15.2272ZM14.8805 15.31C14.7629 15.31 14.6915 15.2779 14.6421 15.2323L14.3029 15.5997C14.4615 15.7461 14.6621 15.81 14.8805 15.81V15.31ZM14.6562 15.2464C14.6085 15.1947 14.5785 15.126 14.5785 15.02H14.0785C14.0785 15.234 14.1446 15.4293 14.2888 15.5856L14.6562 15.2464ZM14.5785 15.02V14.66H14.0785V15.02H14.5785ZM14.5785 14.66C14.5785 14.2452 14.5412 13.8594 14.465 13.5036L13.9761 13.6084C14.0438 13.9246 14.0785 14.2748 14.0785 14.66H14.5785ZM14.4652 13.5048C14.3822 13.1081 14.1835 12.7605 13.8786 12.4646L13.5304 12.8234C13.7696 13.0555 13.9148 13.3159 13.9758 13.6072L14.4652 13.5048ZM13.8813 12.4672C13.5453 12.1312 13.0578 11.986 12.4685 11.986V12.486C12.9832 12.486 13.3198 12.6128 13.5277 12.8208L13.8813 12.4672ZM12.4685 11.986H9.98452V12.486H12.4685V11.986ZM9.73452 12.236V15.02H10.2345V12.236H9.73452ZM9.73452 15.02C9.73452 15.102 9.70778 15.1638 9.6464 15.2208L9.98663 15.5872C10.1492 15.4362 10.2345 15.242 10.2345 15.02H9.73452ZM9.63974 15.2272C9.58435 15.2826 9.52069 15.31 9.43252 15.31V15.81C9.64834 15.81 9.84068 15.7334 9.99329 15.5808L9.63974 15.2272ZM12.1565 11.454C12.8743 11.454 13.4735 11.3125 13.9291 11.0027L13.6479 10.5893C13.3035 10.8235 12.8147 10.954 12.1565 10.954V11.454ZM13.9272 11.004C14.4057 10.685 14.6505 10.2224 14.6505 9.644H14.1505C14.1505 10.0576 13.9873 10.363 13.6498 10.588L13.9272 11.004ZM14.6505 9.644C14.6505 9.09355 14.4436 8.6462 14.0196 8.33782L13.7255 8.74218C14.0054 8.9458 14.1505 9.23445 14.1505 9.644H14.6505ZM14.0218 8.33944C13.6094 8.03258 12.9468 7.906 12.0965 7.906V8.406C12.9263 8.406 13.4476 8.53542 13.7233 8.74056L14.0218 8.33944ZM12.0965 7.906H9.98452V8.406H12.0965V7.906ZM9.73452 8.156V11.204H10.2345V8.156H9.73452ZM9.98452 11.454H12.1565V10.954H9.98452V11.454Z" fill="black"/>
</svg>
