<?xml version="1.0" encoding="utf-8"?>
<!-- Generator: Adobe Illustrator 26.0.1, SVG Export Plug-In . SVG Version: 6.00 Build 0)  -->
<svg version="1.1" id="Layer_1" xmlns="http://www.w3.org/2000/svg" x="0px" y="0px"
	 viewBox="0 0 25 25" style="enable-background:new 0 0 25 25;" xml:space="preserve">
<g>
	<path style="fill-rule:evenodd;clip-rule:evenodd;" d="M12.1,1.1c-6.1,0-11,4.9-11,11c0,6.1,4.9,11,11,11c6.1,0,11-4.9,11-11
		C23.1,6,18.1,1.1,12.1,1.1z M12.1,21.1c-5,0-9-4-9-9s4-9,9-9s9,4,9,9S17,21.1,12.1,21.1z"/>
	<path style="fill-rule:evenodd;clip-rule:evenodd;" d="M16.6,11.3l-6-4c-0.3-0.2-0.7-0.2-1,0S9.1,7.8,9.1,8.1v8
		c0,0.4,0.2,0.7,0.5,0.9c0.3,0.2,0.7,0.2,1,0l6-4c0.3-0.2,0.4-0.5,0.4-0.8C17.1,11.8,16.9,11.5,16.6,11.3z M11.1,14.3V10l3.2,2.1
		L11.1,14.3z"/>
</g>
</svg>
