<svg width="16" height="16" viewBox="0 0 16 16" fill="none" xmlns="http://www.w3.org/2000/svg">
<g clip-path="url(#clip0_1256_142777)">
<path fill-rule="evenodd" clip-rule="evenodd" d="M7.99935 2C4.68564 2 1.99935 4.68629 1.99935 8C1.99935 11.3137 4.68564 14 7.99935 14C11.3131 14 13.9993 11.3137 13.9993 8C13.9993 4.68629 11.3131 2 7.99935 2ZM0.666016 8C0.666016 3.94991 3.94926 0.666664 7.99935 0.666664C12.0494 0.666664 15.3327 3.94991 15.3327 8C15.3327 12.0501 12.0494 15.3333 7.99935 15.3333C3.94926 15.3333 0.666016 12.0501 0.666016 8Z" fill="#000000"/>
<path fill-rule="evenodd" clip-rule="evenodd" d="M11.0959 5.52176C11.4186 5.80103 11.4538 6.28902 11.1746 6.61173L7.60813 10.7329C7.47016 10.8924 7.27304 10.9885 7.06247 10.999C6.85189 11.0096 6.64615 10.9336 6.49295 10.7888L4.90787 9.29015C4.59776 8.99696 4.58405 8.50789 4.87724 8.19778C5.17044 7.88768 5.65951 7.87397 5.96961 8.16716L6.96792 9.11101L10.0059 5.60042C10.2852 5.27771 10.7732 5.2425 11.0959 5.52176Z" fill="#000000"/>
</g>
<defs>
<clipPath id="clip0_1256_142777">
<rect width="16" height="16" fill="white"/>
</clipPath>
</defs>
</svg>
