<?xml version="1.0" encoding="utf-8"?>
<!-- Generator: Adobe Illustrator 26.0.0, SVG Export Plug-In . SVG Version: 6.00 Build 0)  -->
<svg version="1.1" id="Layer_1" xmlns="http://www.w3.org/2000/svg" x="0px" y="0px"
     viewBox="0 0 24 24" style="enable-background:new 0 0 24 24;" xml:space="preserve">
<g>
	<g>
		<g>
			<path style="fill-rule:evenodd;clip-rule:evenodd;" d="M5.1,11.6l11.7-9.2c2,2.6,3.1,5.9,3.1,9.2s-1.1,6.6-3.1,9.2L5.1,11.6z
				 M22,11.6c0-4.1-1.5-8.1-4.2-11.2c-0.4-0.4-0.9-0.5-1.4-0.1L2.9,10.8c-0.2,0.2-0.4,0.5-0.4,0.8s0.1,0.6,0.4,0.8L16.4,23
				c0.4,0.3,1,0.3,1.4-0.1C20.5,19.7,22,15.7,22,11.6z M15.6,9.2C15.3,9,15,9,14.8,9c-0.3,0.1-0.5,0.2-0.6,0.5l-1.5,2.7l-2.2-1.1
				c-0.5-0.2-1.1,0-1.3,0.4c-0.2,0.5,0,1.1,0.4,1.3l3,1.5c0.5,0.2,1.1,0.1,1.3-0.4l1.5-2.6l2.1,1.4c0.5,0.3,1.1,0.2,1.4-0.3
				s0.2-1.1-0.3-1.4L15.6,9.2z"/>
		</g>
	</g>
</g>
</svg>
