<?xml version="1.0" encoding="utf-8"?>
<!-- Generator: Adobe Illustrator 26.0.3, SVG Export Plug-In . SVG Version: 6.00 Build 0)  -->
<svg version="1.1" id="Layer_1" xmlns="http://www.w3.org/2000/svg" xmlns:xlink="http://www.w3.org/1999/xlink" x="0px" y="0px"
	 viewBox="0 0 24 24" style="enable-background:new 0 0 24 24;" xml:space="preserve">
<g>
	<defs>
		<rect id="SVGID_1_" width="24" height="24"/>
	</defs>
	<clipPath id="SVGID_00000179640683926625493440000010221204079481759370_">
		<use xlink:href="#SVGID_1_" style="overflow:visible;"/>
	</clipPath>
	<g style="clip-path:url(#SVGID_00000179640683926625493440000010221204079481759370_);">
		<path style="fill:#000000;" d="M19.1,22.8c-0.3,0-0.6-0.1-0.9-0.3L5.9,12.9c-0.4-0.3-0.6-0.7-0.6-1.2s0.2-0.9,0.6-1.2l12.3-9.1
			c0.6-0.5,1.5-0.4,2,0.2C20.8,2.3,24,6.2,24,11.7c0,5.5-3.1,9.7-3.8,10.5C20,22.6,19.5,22.8,19.1,22.8z M19.4,20.9L19.4,20.9
			C19.4,20.9,19.4,20.9,19.4,20.9z M7.7,11.8L19,20.6c1.5-2,3-5.4,3-8.9c0-3.5-1.5-6.6-3-8.4L7.7,11.8z"/>
		<path style="fill:#000000;" d="M15.1,14.2c-0.2,0-0.4,0-0.7-0.2l-2.8-1.4c-0.5-0.2-0.7-0.8-0.5-1.3c0.2-0.5,0.8-0.7,1.3-0.5
			l2.4,1.2l0.9-1.8c0.2-0.4,0.6-0.7,1-0.8c0.4-0.1,0.9,0,1.3,0.3l2.3,1.8c0.4,0.3,0.5,1,0.2,1.4s-1,0.5-1.4,0.2l-1.8-1.4l-0.9,1.7
			C16.2,13.9,15.6,14.2,15.1,14.2z"/>
		<path style="fill:#000000;" d="M13,22.5H9.5c-0.6,0-1-0.4-1-1s0.4-1,1-1H13c0.6,0,1,0.4,1,1S13.6,22.5,13,22.5z M7.5,18h-6
			c-0.6,0-1-0.4-1-1s0.4-1,1-1h6c0.6,0,1,0.4,1,1S8.1,18,7.5,18z M5,8H2.5c-0.6,0-1-0.4-1-1s0.4-1,1-1H5c0.6,0,1,0.4,1,1S5.6,8,5,8z
			 M12.5,3h-6c-0.6,0-1-0.4-1-1s0.4-1,1-1h6c0.6,0,1,0.4,1,1S13.1,3,12.5,3z"/>
	</g>
</g>
</svg>
