<svg width="16" height="16" viewBox="0 0 16 16" fill="none" xmlns="http://www.w3.org/2000/svg">
<g clip-path="url(#clip0_1256_142777)">
<path fill-rule="evenodd" clip-rule="evenodd" d="M3.41359 7.72L11.2348 1.59167C12.591 3.34032 13.3327 5.49524 13.3327 7.72C13.3327 9.94475 12.591 12.0997 11.2348 13.8483L3.41359 7.72ZM14.666 7.72C14.666 4.96054 13.6592 2.29588 11.8346 0.225829C11.601 -0.0391417 11.2013 -0.0759536 10.9233 0.141899L1.9215 7.19523C1.76023 7.3216 1.66602 7.51511 1.66602 7.72C1.66602 7.92488 1.76023 8.11839 1.9215 8.24476L10.9233 15.2981C11.2013 15.5159 11.601 15.4791 11.8346 15.2142C13.6592 13.1441 14.666 10.4795 14.666 7.72ZM10.3691 6.11197C10.2154 6.00947 10.026 5.97538 9.84616 6.01784C9.66633 6.06029 9.51218 6.17548 9.4205 6.33591L8.40006 8.12168L6.96414 7.40372C6.63482 7.23906 6.23437 7.37254 6.06971 7.70186C5.90506 8.03118 6.03854 8.43163 6.36786 8.59629L8.36786 9.59629C8.68433 9.75452 9.06928 9.63797 9.24483 9.33076L10.2238 7.61755L11.6295 8.5547C11.9359 8.75894 12.3498 8.67616 12.554 8.3698C12.7583 8.06345 12.6755 7.64954 12.3691 7.4453L10.3691 6.11197Z" fill="#000000"/>
</g>
<defs>
<clipPath id="clip0_1256_142777">
<rect width="16" height="16" fill="white"/>
</clipPath>
</defs>
</svg>
