<svg width="24" height="24" viewBox="0 0 24 24" fill="none" xmlns="http://www.w3.org/2000/svg">
	<path fill-rule="evenodd" clip-rule="evenodd" d="M14.5 2C18.6421 2 22 5.35786 22 9.5C22 13.6421 18.6421 17 14.5 17C12.7684 17 11.1738 16.4131 9.90432 15.4275C9.85651 15.5286 9.79077 15.6234 9.70711 15.7071L3.70711 21.7071C3.31658 22.0976 2.68342 22.0976 2.29289 21.7071C1.90237 21.3166 1.90237 20.6834 2.29289 20.2929L8.29289 14.2929C8.37656 14.2092 8.47136 14.1435 8.57252 14.0957C7.58685 12.8262 7 11.2316 7 9.5C7 5.35786 10.3579 2 14.5 2ZM20 9.5C20 6.46243 17.5376 4 14.5 4C11.4624 4 9 6.46243 9 9.5C9 12.5376 11.4624 15 14.5 15C17.5376 15 20 12.5376 20 9.5Z" fill="black"/>
</svg>