<?xml version="1.0" encoding="utf-8"?>
<!-- Generator: Adobe Illustrator 26.3.0, SVG Export Plug-In . SVG Version: 6.00 Build 0)  -->
<svg version="1.1" id="Layer_1" xmlns="http://www.w3.org/2000/svg" x="0px" y="0px"
	 viewBox="0 0 24 24" style="enable-background:new 0 0 24 24;" xml:space="preserve">
<path style="fill-rule:evenodd;clip-rule:evenodd;" d="M21.7,20.3l-6-6c-0.1-0.1-0.2-0.1-0.3-0.2c1-1.3,1.6-2.9,1.6-4.6
	C17,5.4,13.6,2,9.5,2C5.4,2,2,5.4,2,9.5C2,13.6,5.4,17,9.5,17c1.7,0,3.3-0.6,4.6-1.6c0,0.1,0.1,0.2,0.2,0.3l6,6c0.4,0.4,1,0.4,1.4,0
	S22.1,20.7,21.7,20.3z M9.5,15C6.5,15,4,12.5,4,9.5S6.5,4,9.5,4S15,6.5,15,9.5S12.5,15,9.5,15z"/>
</svg>
