<?xml version="1.0" encoding="utf-8"?>
<!-- Generator: Adobe Illustrator 26.0.0, SVG Export Plug-In . SVG Version: 6.00 Build 0)  -->
<svg version="1.1" id="Layer_1" xmlns="http://www.w3.org/2000/svg" x="0px" y="0px"
	 viewBox="0 0 24 24" style="enable-background:new 0 0 24 24;" xml:space="preserve">
<path style="fill-rule:evenodd;clip-rule:evenodd;" d="M7.3,12c0-2.6,2.1-4.7,4.7-4.7c2.6,0,4.7,2.1,4.7,4.7c0,2.6-2.1,4.8-4.7,4.8
	C9.4,16.8,7.3,14.6,7.3,12z M9.3,12c0-1.5,1.2-2.7,2.7-2.7s2.8,1.2,2.8,2.7s-1.2,2.8-2.8,2.8S9.3,13.5,9.3,12z"/>
<path style="fill-rule:evenodd;clip-rule:evenodd;" d="M15.3,3.4l0.3,0.1l1.4-0.8c0,0,0,0,0,0c0,0,0.1,0,0.1,0
	c0.7-0.3,1.5-0.2,2,0.4l1.6,1.6c0.5,0.5,0.7,1.4,0.4,2c0,0,0,0.1,0,0.1c0,0,0,0,0,0c0,0,0,0,0,0l-0.8,1.4l0.1,0.3l1.5,0.5
	c0,0,0.1,0,0.1,0c0.7,0.3,1.2,1,1.2,1.7v2.3c0,0.8-0.5,1.4-1.2,1.7c0,0,0,0-0.1,0l0,0l-1.6,0.5l-0.1,0.3l0.8,1.4l0,0l0,0
	c0,0,0,0.1,0,0.1c0.3,0.7,0.2,1.5-0.4,2l-1.6,1.6c-0.5,0.5-1.4,0.7-2,0.4c0,0-0.1,0-0.1,0c0,0,0,0,0,0c0,0,0,0,0,0l-1.4-0.8
	l-0.3,0.1l-0.5,1.6l0,0c0,0,0,0,0,0.1c-0.2,0.6-0.9,1.2-1.7,1.2h-2.3c-0.8,0-1.4-0.5-1.7-1.2c0,0,0,0,0-0.1l0,0l-0.5-1.6l-0.3-0.1
	l-1.4,0.8c0,0,0,0,0,0c0,0-0.1,0-0.1,0c-0.7,0.3-1.5,0.2-2-0.4l-1.6-1.6c-0.5-0.5-0.7-1.4-0.4-2c0,0,0-0.1,0-0.1c0,0,0,0,0,0
	l0.8-1.4l-0.1-0.3l-1.5-0.5c0,0-0.1,0-0.1,0c-0.7-0.3-1.2-0.9-1.2-1.7v-2.3c0-0.8,0.6-1.5,1.2-1.7l0,0l1.5-0.5c0-0.1,0-0.1,0.1-0.2
	l0,0c0-0.1,0.1-0.1,0.1-0.2L2.8,6.9c0,0,0-0.1,0-0.1l0,0c-0.3-0.7-0.2-1.5,0.4-2l1.6-1.6c0.6-0.6,1.4-0.7,2.1-0.4c0,0,0,0,0,0
	c0,0,0,0,0,0l1.4,0.8l0.4-0.2L9.2,2l0,0c0,0,0-0.1,0-0.1c0.2-0.7,0.9-1.2,1.6-1.2h2.3c0.8,0,1.4,0.5,1.7,1.1c0,0,0,0.1,0,0.1l0,0
	L15.3,3.4z M11.1,2.6L10.6,4c-0.2,0.6-0.6,1-1.2,1.3L9,5.5C8.5,5.7,7.9,5.6,7.4,5.3L6.1,4.6L4.6,6.1l0.7,1.3
	c0.3,0.5,0.3,1.1,0.1,1.6c0,0.1-0.1,0.1-0.1,0.2l0,0c0,0.1,0,0.1-0.1,0.2C5,9.9,4.6,10.4,4,10.6L2.6,11v2L4,13.4
	c0.6,0.2,1,0.6,1.2,1.2l0.1,0.3c0.2,0.6,0.2,1.2-0.1,1.7l-0.7,1.3l1.4,1.4l1.3-0.7c0.5-0.3,1.1-0.3,1.7-0.1l0.3,0.1
	c0.6,0.2,1,0.7,1.2,1.3l0.4,1.4h2l0.4-1.4c0.2-0.6,0.6-1,1.2-1.3l0.3-0.1c0.6-0.2,1.2-0.2,1.7,0.1l1.3,0.7l1.4-1.4l-0.7-1.3
	c-0.3-0.5-0.3-1.1-0.1-1.7l0.1-0.3c0.2-0.6,0.7-1,1.3-1.2l1.4-0.4v-2L20,10.5c-0.6-0.2-1-0.6-1.2-1.2L18.6,9
	c-0.2-0.6-0.2-1.2,0.1-1.7L19.4,6l-1.4-1.4l-1.3,0.7c-0.5,0.3-1.1,0.3-1.7,0.1l-0.3-0.1C14,5,13.6,4.5,13.4,4L13,2.6H11.1z"/>
</svg>
