<?xml version="1.0" encoding="utf-8"?>
<!-- Generator: Adobe Illustrator 26.0.1, SVG Export Plug-In . SVG Version: 6.00 Build 0)  -->
<svg version="1.1" id="Layer_1" xmlns="http://www.w3.org/2000/svg" x="0px" y="0px"
	 viewBox="0 0 24 24" style="enable-background:new 0 0 24 24;" xml:space="preserve">
<g>
	<path d="M21,13.4c-0.6,0-1,0.4-1,1v4.2c0,0.4-0.1,0.7-0.4,1S19,20,18.6,20H5.4c-0.4,0-0.7-0.1-1-0.4C4.1,19.3,4,19,4,18.6V5.4
		c0-0.4,0.1-0.7,0.4-1C4.7,4.1,5,4,5.4,4h4.2c0.6,0,1-0.4,1-1s-0.4-1-1-1H5.4C4.5,2,3.6,2.4,3,3S2,4.5,2,5.4v13.2
		c0,0.9,0.4,1.8,1,2.4s1.5,1,2.4,1h13.2c0.9,0,1.8-0.4,2.4-1s1-1.5,1-2.4v-4.2C22,13.8,21.6,13.4,21,13.4z"/>
	<path d="M21.9,2.6c-0.1-0.2-0.3-0.4-0.5-0.5C21.3,2,21.1,2,21,2h-5c-0.6,0-1,0.4-1,1s0.4,1,1,1h2.6l-9.3,9.3c-0.4,0.4-0.4,1,0,1.4
		C9.5,14.9,9.7,15,10,15s0.5-0.1,0.7-0.3L20,5.4V8c0,0.6,0.4,1,1,1s1-0.4,1-1V3C22,2.9,22,2.7,21.9,2.6z"/>
</g>
</svg>
