<svg width="16" height="16" viewBox="0 0 16 16" fill="none" xmlns="http://www.w3.org/2000/svg">
<g clip-path="url(#clip0_1256_142819)">
<path fill-rule="evenodd" clip-rule="evenodd" d="M4.2542 3.31209C5.28065 2.49099 6.58266 2 7.99935 2C11.3131 2 13.9993 4.68629 13.9993 8C13.9993 9.41669 13.5084 10.7187 12.6873 11.7451L4.2542 3.31209ZM3.3114 4.2549C2.49032 5.28134 1.99935 6.58334 1.99935 8C1.99935 11.3137 4.68564 14 7.99935 14C9.41601 14 10.718 13.509 11.7445 12.688L3.3114 4.2549ZM7.99935 0.666668C3.94926 0.666668 0.666016 3.94991 0.666016 8C0.666016 12.0501 3.94926 15.3333 7.99935 15.3333C12.0494 15.3333 15.3327 12.0501 15.3327 8C15.3327 3.94991 12.0494 0.666668 7.99935 0.666668Z" fill="#000000"/>
</g>
<defs>
<clipPath id="clip0_1256_142819">
<rect width="16" height="16" fill="white"/>
</clipPath>
</defs>
</svg>
