<?xml version="1.0" encoding="utf-8"?>
<!-- Generator: Adobe Illustrator 26.0.0, SVG Export Plug-In . SVG Version: 6.00 Build 0)  -->
<svg version="1.1" id="Layer_1" xmlns="http://www.w3.org/2000/svg" x="0px" y="0px"
	 viewBox="0 0 24 24" style="enable-background:new 0 0 24 24;" xml:space="preserve">
<path d="M10,10c0.6,0,1,0.4,1,1v6c0,0.6-0.4,1-1,1s-1-0.4-1-1v-6C9,10.4,9.4,10,10,10z"/>
<path d="M15,17v-6c0-0.6-0.4-1-1-1s-1,0.4-1,1v6c0,0.6,0.4,1,1,1S15,17.6,15,17z"/>
<path style="fill-rule:evenodd;clip-rule:evenodd;" d="M7,5V4c0-0.8,0.3-1.6,0.9-2.1S9.2,1,10,1h4c0.8,0,1.6,0.3,2.1,0.9
	C16.7,2.4,17,3.2,17,4v1h4c0.6,0,1,0.4,1,1s-0.4,1-1,1h-1v13c0,0.8-0.3,1.6-0.9,2.1C18.6,22.7,17.8,23,17,23H7
	c-0.8,0-1.6-0.3-2.1-0.9C4.3,21.6,4,20.8,4,20V7H3C2.4,7,2,6.6,2,6s0.4-1,1-1H7z M9.3,3.3C9.5,3.1,9.7,3,10,3h4
	c0.3,0,0.5,0.1,0.7,0.3S15,3.7,15,4v1H9V4C9,3.7,9.1,3.5,9.3,3.3z M6,7v13c0,0.3,0.1,0.5,0.3,0.7S6.7,21,7,21h10
	c0.3,0,0.5-0.1,0.7-0.3S18,20.3,18,20V7H6z"/>
</svg>
