<?xml version="1.0" encoding="utf-8"?>
<!-- Generator: Adobe Illustrator 26.0.1, SVG Export Plug-In . SVG Version: 6.00 Build 0)  -->
<svg version="1.1" id="Layer_1" xmlns="http://www.w3.org/2000/svg" x="0px" y="0px"
	 viewBox="0 0 24 24" style="enable-background:new 0 0 24 24;" xml:space="preserve">
<g>
	<path style="fill-rule:evenodd;clip-rule:evenodd;" d="M21.9,2.6c-0.1-0.2-0.3-0.4-0.5-0.5C21.3,2,21.1,2,21,2h-6c-0.6,0-1,0.4-1,1
		s0.4,1,1,1h3.6l-5.3,5.3c-0.4,0.4-0.4,1,0,1.4s1,0.4,1.4,0L20,5.4V9c0,0.6,0.4,1,1,1s1-0.4,1-1V3C22,2.9,22,2.7,21.9,2.6z"/>
	<path style="fill-rule:evenodd;clip-rule:evenodd;" d="M9.3,13.3L4,18.6V15c0-0.6-0.4-1-1-1s-1,0.4-1,1v6c0,0.1,0,0.3,0.1,0.4
		c0.1,0.2,0.3,0.4,0.5,0.5C2.7,22,2.9,22,3,22c0,0,0,0,0,0h6c0.6,0,1-0.4,1-1s-0.4-1-1-1H5.4l5.3-5.3c0.4-0.4,0.4-1,0-1.4
		S9.7,12.9,9.3,13.3z"/>
</g>
</svg>
