<svg width="21" height="21" viewBox="0 0 21 21" fill="none" xmlns="http://www.w3.org/2000/svg">
    <path fill-rule="evenodd" clip-rule="evenodd" d="M1.5 12.5C2.05228 12.5 2.5 12.9477 2.5 13.5V17.5C2.5 17.7652 2.60536 18.0196 2.79289 18.2071C2.98043 18.3946 3.23478 18.5 3.5 18.5H17.5C17.7652 18.5 18.0196 18.3946 18.2071 18.2071C18.3946 18.0196 18.5 17.7652 18.5 17.5V13.5C18.5 12.9477 18.9477 12.5 19.5 12.5C20.0523 12.5 20.5 12.9477 20.5 13.5V17.5C20.5 18.2957 20.1839 19.0587 19.6213 19.6213C19.0587 20.1839 18.2957 20.5 17.5 20.5H3.5C2.70435 20.5 1.94129 20.1839 1.37868 19.6213C0.81607 19.0587 0.5 18.2957 0.5 17.5V13.5C0.5 12.9477 0.947715 12.5 1.5 12.5Z" fill="black"/>
    <path fill-rule="evenodd" clip-rule="evenodd" d="M9.79289 0.792893C10.1834 0.402369 10.8166 0.402369 11.2071 0.792893L16.2071 5.79289C16.5976 6.18342 16.5976 6.81658 16.2071 7.20711C15.8166 7.59763 15.1834 7.59763 14.7929 7.20711L10.5 2.91421L6.20711 7.20711C5.81658 7.59763 5.18342 7.59763 4.79289 7.20711C4.40237 6.81658 4.40237 6.18342 4.79289 5.79289L9.79289 0.792893Z" fill="black"/>
    <path fill-rule="evenodd" clip-rule="evenodd" d="M10.5 0.5C11.0523 0.5 11.5 0.947715 11.5 1.5V13.5C11.5 14.0523 11.0523 14.5 10.5 14.5C9.94771 14.5 9.5 14.0523 9.5 13.5V1.5C9.5 0.947715 9.94771 0.5 10.5 0.5Z" fill="black"/>
</svg>
