<svg width="24" height="24" viewBox="0 0 24 24" fill="none" xmlns="http://www.w3.org/2000/svg">
    <circle cx="12" cy="12" r="9.25" stroke="black" stroke-width="1.5"/>
    <path d="M11.9384 15.06C11.7944 15.06 11.6624 15.02 11.5424 14.94C11.4224 14.852 11.3344 14.744 11.2784 14.616L9.19036 9.624C9.15036 9.528 9.13036 9.444 9.13036 9.372C9.13036 9.22 9.18236 9.092 9.28636 8.988C9.39036 8.876 9.51836 8.82 9.67036 8.82C9.77436 8.82 9.87036 8.852 9.95836 8.916C10.0544 8.972 10.1224 9.044 10.1624 9.132L11.9984 13.788L13.8344 9.132C13.8744 9.044 13.9384 8.972 14.0264 8.916C14.1224 8.852 14.2224 8.82 14.3264 8.82C14.4784 8.82 14.6064 8.876 14.7104 8.988C14.8144 9.092 14.8664 9.22 14.8664 9.372C14.8664 9.444 14.8464 9.528 14.8064 9.624L12.7184 14.616C12.6624 14.744 12.5744 14.852 12.4544 14.94C12.3344 15.02 12.2024 15.06 12.0584 15.06H11.9384Z" fill="black"/>
    <path d="M11.5424 14.94L11.3944 15.1418L11.4037 15.148L11.5424 14.94ZM11.2784 14.616L11.0477 14.7125L11.0493 14.7162L11.2784 14.616ZM9.19036 9.624L8.95959 9.72015L8.95972 9.72047L9.19036 9.624ZM9.28636 8.988L9.46326 9.1649L9.46956 9.15811L9.28636 8.988ZM9.95836 8.916L9.81132 9.11818L9.82151 9.1256L9.83239 9.13194L9.95836 8.916ZM10.1624 9.132L10.3952 9.04017L10.39 9.02855L10.1624 9.132ZM11.9984 13.788L11.7658 13.8797L11.9984 14.4695L12.2309 13.8797L11.9984 13.788ZM13.8344 9.132L13.6065 9.02841L13.6018 9.04029L13.8344 9.132ZM14.0264 8.916L14.1606 9.12696L14.165 9.12401L14.0264 8.916ZM14.7104 8.988L14.527 9.15823L14.5336 9.16478L14.7104 8.988ZM14.8064 9.624L15.037 9.72047L15.0371 9.72015L14.8064 9.624ZM12.7184 14.616L12.9474 14.7162L12.949 14.7125L12.7184 14.616ZM12.4544 14.94L12.5932 15.1482L12.6022 15.1416L12.4544 14.94ZM11.9384 14.81C11.8438 14.81 11.76 14.7847 11.681 14.732L11.4037 15.148C11.5647 15.2553 11.7449 15.31 11.9384 15.31V14.81ZM11.6902 14.7384C11.6033 14.6747 11.5446 14.6008 11.5074 14.5158L11.0493 14.7162C11.1241 14.8872 11.2414 15.0293 11.3945 15.1416L11.6902 14.7384ZM11.509 14.5195L9.421 9.52753L8.95972 9.72047L11.0477 14.7125L11.509 14.5195ZM9.42113 9.52785C9.38864 9.44987 9.38036 9.39976 9.38036 9.372H8.88036C8.88036 9.48824 8.91208 9.60613 8.95959 9.72015L9.42113 9.52785ZM9.38036 9.372C9.38036 9.28382 9.40774 9.22017 9.46314 9.16478L9.10958 8.81122C8.95697 8.96383 8.88036 9.15618 8.88036 9.372H9.38036ZM9.46956 9.15811C9.52655 9.09673 9.58831 9.07 9.67036 9.07V8.57C9.44841 8.57 9.25417 8.65527 9.10316 8.81789L9.46956 9.15811ZM9.67036 9.07C9.71898 9.07 9.76394 9.08373 9.81132 9.11818L10.1054 8.71382C9.97678 8.62027 9.82974 8.57 9.67036 8.57V9.07ZM9.83239 9.13194C9.89062 9.16591 9.91928 9.20137 9.93477 9.23545L10.39 9.02855C10.3254 8.88663 10.2181 8.77809 10.0843 8.70006L9.83239 9.13194ZM9.92979 9.22371L11.7658 13.8797L12.2309 13.6963L10.3949 9.04029L9.92979 9.22371ZM12.2309 13.8797L14.0669 9.22371L13.6018 9.04029L11.7658 13.6963L12.2309 13.8797ZM14.062 9.23545C14.0803 9.19507 14.1101 9.15905 14.1606 9.12691L13.8921 8.70508C13.7666 8.78495 13.6684 8.89293 13.6068 9.02855L14.062 9.23545ZM14.165 9.12401C14.2246 9.08428 14.277 9.07 14.3264 9.07V8.57C14.1677 8.57 14.0201 8.61972 13.8877 8.70799L14.165 9.12401ZM14.3264 9.07C14.4084 9.07 14.4702 9.09673 14.5272 9.15811L14.8936 8.81789C14.7426 8.65527 14.5483 8.57 14.3264 8.57V9.07ZM14.5336 9.16478C14.589 9.22017 14.6164 9.28382 14.6164 9.372H15.1164C15.1164 9.15618 15.0397 8.96383 14.8871 8.81122L14.5336 9.16478ZM14.6164 9.372C14.6164 9.39976 14.6081 9.44987 14.5756 9.52785L15.0371 9.72015C15.0846 9.60613 15.1164 9.48824 15.1164 9.372H14.6164ZM14.5757 9.52753L12.4877 14.5195L12.949 14.7125L15.037 9.72047L14.5757 9.52753ZM12.4893 14.5158C12.4521 14.6008 12.3934 14.6747 12.3065 14.7384L12.6022 15.1416C12.7553 15.0293 12.8726 14.8872 12.9474 14.7162L12.4893 14.5158ZM12.3157 14.732C12.2367 14.7847 12.1529 14.81 12.0584 14.81V15.31C12.2518 15.31 12.432 15.2553 12.593 15.148L12.3157 14.732ZM12.0584 14.81H11.9384V15.31H12.0584V14.81Z" fill="black"/>
</svg>
