<?xml version="1.0" encoding="utf-8"?>
<!-- Generator: Adobe Illustrator 27.0.0, SVG Export Plug-In . SVG Version: 6.00 Build 0)  -->
<svg version="1.1" id="Layer_1" xmlns="http://www.w3.org/2000/svg" x="0px" y="0px"
     viewBox="0 0 24 24" style="enable-background:new 0 0 24 24;" xml:space="preserve">
<path style="fill-rule:evenodd;clip-rule:evenodd;" d="M10.5,2.3C11,2,11.5,1.9,12,1.9s1,0.1,1.5,0.4s0.8,0.6,1.1,1.1l0,0L23,17.5
	l0,0c0.3,0.5,0.4,1,0.4,1.5c0,0.5-0.1,1-0.4,1.5c-0.3,0.5-0.6,0.8-1.1,1.1c-0.5,0.3-1,0.4-1.5,0.4l0,0l-17,0c-0.5,0-1-0.1-1.5-0.4
	c-0.5-0.3-0.8-0.6-1.1-1.1c-0.3-0.5-0.4-1-0.4-1.5c0-0.5,0.1-1,0.4-1.5l0,0L9.4,3.3l0.9,0.5L9.4,3.3C9.7,2.9,10.1,2.5,10.5,2.3z
	 M11.1,4.4L2.7,18.5c-0.1,0.1-0.1,0.3-0.1,0.5c0,0.2,0,0.3,0.1,0.5c0.1,0.2,0.2,0.3,0.4,0.4C3.2,19.9,3.4,20,3.5,20h16.9
	c0.2,0,0.3-0.1,0.5-0.1c0.2-0.1,0.3-0.2,0.4-0.4c0.1-0.2,0.1-0.3,0.1-0.5c0-0.2,0-0.3-0.1-0.5L12.9,4.4l0,0
	c-0.1-0.1-0.2-0.3-0.4-0.4c-0.1-0.1-0.3-0.1-0.5-0.1c-0.2,0-0.3,0-0.5,0.1C11.4,4.1,11.2,4.2,11.1,4.4z M12,7c0.8,0,1.5,0.6,1.5,1.3
	v5.3c0,0.7-0.7,1.3-1.5,1.3s-1.5-0.6-1.5-1.3V8.3C10.5,7.6,11.2,7,12,7z M12,16c-0.8,0-1.5,0.7-1.5,1.5S11.2,19,12,19h0
	c0.8,0,1.5-0.7,1.5-1.5S12.8,16,12,16L12,16z"/>
</svg>
