<svg width="22" height="22" viewBox="0 0 22 22" fill="none" xmlns="http://www.w3.org/2000/svg">
<path fill-rule="evenodd" clip-rule="evenodd" d="M14.7232 3.00672C14.2402 2.95215 13.7491 2.96796 13.2655 3.05609C12.2656 3.23827 11.3449 3.72087 10.6262 4.43957C9.90752 5.15826 9.42492 6.07892 9.24273 7.07885C9.06054 8.07877 9.18741 9.11048 9.60644 10.0365C9.77804 10.4157 9.69681 10.8615 9.40249 11.1558L2.49249 18.0658C2.2822 18.2761 2.16406 18.5613 2.16406 18.8587C2.16406 19.1561 2.2822 19.4413 2.49249 19.6516C2.70278 19.8619 2.98799 19.9801 3.28538 19.9801C3.58277 19.9801 3.86799 19.8619 4.07828 19.6516L10.9883 12.7416C11.2826 12.4473 11.7284 12.3661 12.1077 12.5377C13.0336 12.9567 14.0654 13.0836 15.0653 12.9014C16.0652 12.7192 16.9859 12.2366 17.7046 11.5179C18.4233 10.7992 18.9058 9.87856 19.088 8.87863C19.1762 8.39498 19.192 7.9039 19.1374 7.42094L16.5654 9.99292C16.1916 10.3594 15.6889 10.5646 15.1654 10.5646C14.6419 10.5646 14.1392 10.3593 13.7654 9.99288L13.7582 9.98588L12.1512 8.37878C11.7848 8.00492 11.5795 7.50225 11.5795 6.97874C11.5795 6.45523 11.7848 5.9526 12.1512 5.57874L12.1582 5.5716L14.7232 3.00672ZM12.907 1.08848C14.3069 0.833415 15.7513 1.01104 17.0477 1.59768C17.3467 1.73302 17.5603 2.00653 17.6192 2.32949C17.678 2.65245 17.5746 2.98372 17.3425 3.21585L13.5796 6.97874L15.1654 8.56453L18.9283 4.80163C19.1604 4.56951 19.4917 4.46609 19.8146 4.52494C20.1376 4.58378 20.4111 4.79739 20.5464 5.09647C21.1331 6.39285 21.3107 7.83724 21.0556 9.23714C20.8006 10.637 20.1249 11.926 19.1188 12.9321C18.1126 13.9383 16.8237 14.6139 15.4238 14.869C14.2563 15.0817 13.0579 14.9935 11.9402 14.6181L5.49249 21.0658C4.90713 21.6512 4.11321 21.9801 3.28538 21.9801C2.45756 21.9801 1.66364 21.6512 1.07828 21.0658C0.492915 20.4805 0.164062 19.6866 0.164062 18.8587C0.164062 18.0309 0.492915 17.237 1.07828 16.6516L7.52603 10.2039C7.15062 9.08619 7.06241 7.88779 7.27512 6.72034C7.53019 5.32045 8.20582 4.03153 9.212 3.02535C10.2182 2.01918 11.5071 1.34354 12.907 1.08848Z" fill="black"/>
</svg>
