<?xml version="1.0" encoding="utf-8"?>
<!-- Generator: Adobe Illustrator 24.1.0, SVG Export Plug-In . SVG Version: 6.00 Build 0)  -->
<svg version="1.1" id="Layer_1" xmlns="http://www.w3.org/2000/svg" xmlns:xlink="http://www.w3.org/1999/xlink" x="0px" y="0px"
	 viewBox="0 0 75 44" style="enable-background:new 0 0 75 44;" xml:space="preserve">
<style type="text/css">
	.st0{fill:#FF6524;}
	.st1{fill:#8C8D8E;}
</style>
<desc>Created with Sketch.</desc>
<g id="Page-1">
	<g id="_x32_" transform="translate(-1649.000000, -122.000000)">
		<g id="video-camera" transform="translate(1649.500000, 122.000000)">
			<path id="Combined-Shape" class="st0" d="M49.6,0c2.5,0,4.5,2,4.5,4.5l0,0l0,4.9L65.7,2c1.5-1,3.3-1.1,5-0.3l0.2,0.1
				c1.7,0.9,2.8,2.7,2.8,4.7l0,0v31.1c0,2-1.1,3.7-2.8,4.7c-0.8,0.4-1.6,0.6-2.4,0.6c-1,0-2-0.3-2.8-0.8l0,0l-11.5-7.3l0,4.8
				c0,2.4-1.9,4.4-4.3,4.5l-0.2,0H4.5C2,44,0,41.9,0,39.5l0,0V4.5C0,2.1,2,0,4.5,0l0,0H49.6z M48.7,5.4H5.4v33.1h43.3V5.4z
				 M68.2,6.8l-14.1,9.1v12.4l14.1,8.9V6.8z"/>
			<path id="Path" class="st1" d="M31.2,11.9H13.6c-1.5,0-2.7,1.2-2.7,2.7c0,1.5,1.2,2.7,2.7,2.7h17.6c1.5,0,2.7-1.2,2.7-2.7
				S32.7,11.9,31.2,11.9z"/>
		</g>
	</g>
</g>
</svg>
