<svg width="270" height="189" viewBox="0 0 270 189" fill="none" xmlns="http://www.w3.org/2000/svg">
<path fill-rule="evenodd" clip-rule="evenodd" d="M31.7107 18.9955C34.2011 21.3391 37.3548 23.9428 41.7982 27.2073C46.2363 30.468 50.7863 32.8606 54.9838 33.5033C58.9707 34.1137 62.7258 33.1788 66.123 29.4728C74.0675 20.8061 84.8012 22.6755 93.575 25.7014C96.5863 26.7399 99.6364 28.0145 102.424 29.1794L102.424 29.1794C103.718 29.7201 104.956 30.2372 106.107 30.6962C110.008 32.252 112.814 33.0928 114.692 33.0034L114.977 38.9966C111.605 39.1571 107.623 37.7604 103.884 36.2694C102.547 35.7362 101.211 35.1773 99.866 34.6149C97.1774 33.4904 94.4541 32.3514 91.6188 31.3735C83.0677 28.4244 75.8014 27.7938 70.5459 33.5271C65.693 38.8212 59.8857 40.3237 54.0757 39.4342C48.4764 38.5768 42.9951 35.532 38.2457 32.0426C33.398 28.481 29.8849 25.1404 27.2626 22.3725C26.6858 22.5786 26.0323 22.793 25.3434 22.9847C24.1994 23.303 22.9397 23.5636 21.7613 23.6123C20.5942 23.6605 19.4358 23.5042 18.5563 22.9154L19.1125 22.0844C19.733 22.4998 20.6371 22.6579 21.72 22.6132C22.7916 22.5689 23.9694 22.329 25.0754 22.0213C25.58 21.8809 26.066 21.7274 26.5156 21.5741C25.483 20.4571 24.6007 19.4478 23.8355 18.5724C23.6626 18.3747 23.4957 18.1837 23.3344 17.9999C23.1342 17.7718 22.884 17.5138 22.5471 17.1664C22.0458 16.6493 21.3523 15.9341 20.3455 14.8244C19.9893 14.4318 20.0061 13.8283 20.3809 13.4535L23.2487 10.5858C23.6392 10.1952 24.2427 10.2203 24.5736 10.6625C24.8553 11.039 25.2028 11.5127 25.5683 12.0109C26.435 13.1922 27.4028 14.5114 27.8344 14.9999C28.7832 16.0739 29.8027 17.1531 30.9683 18.2857C31.0902 18.0726 31.2076 17.8457 31.3167 17.6055C32.1891 15.6862 32.5675 12.8602 30.4057 9.25717L31.2632 8.74268C33.6013 12.6396 33.2297 15.8136 32.2271 18.0193C32.0672 18.371 31.892 18.6967 31.7107 18.9955Z" fill="url(#paint0_linear_1134_19267)"/>
<g clip-path="url(#clip0_1134_19267)">
<path d="M107.43 167.993C107.191 167.801 106.955 167.616 106.723 167.434C110.276 164.719 114.942 160.779 120.016 156.324C134.942 143.221 153.413 125.666 157.576 121.695C158.028 121.263 157.968 120.536 157.461 120.171L123.849 95.9673L120.158 91.3047C112.529 104.256 104.146 125.957 98.5254 141.67C95.8988 149.016 93.8722 155.051 92.8103 158.272C92.7914 158.3 92.7945 158.325 92.7945 158.325L87.8344 169.5L95.3343 172.5C95.3343 172.5 99.8343 174 107.433 167.993H107.43Z" fill="#26649D"/>
<path d="M103.078 132.926C103.078 132.926 113.764 139.728 127.315 150.112L131.013 146.612C131.013 146.612 120.167 138.098 104.957 127.883L103.078 132.929V132.926Z" fill="#FF8D64"/>
<path d="M148.325 101.466L108.624 71.3599L101.9 84.0093C97.033 98.5973 88.2482 106.251 79.9189 110.248L82.9163 135.735C124.679 138.795 148.322 101.466 148.322 101.466H148.325Z" fill="#5384B2"/>
<path d="M65.3811 114.32C65.3152 114.32 65.2775 114.329 65.2775 114.329L52.6926 114.061C52.1487 114.049 51.6953 114.475 51.6722 115.018L50.3674 145.754C50.348 146.211 50.6364 146.618 51.0864 146.699C53.8939 147.203 63.7171 147.816 65.9781 132.408C71.9132 134.29 77.5624 135.345 82.9163 135.735L79.9189 110.248C74.4676 112.865 69.2112 113.917 65.3811 114.32Z" fill="#79A0C3"/>
<path d="M119.988 97.6104L93.7685 77.7283C88.8828 74.0239 87.9245 67.0583 91.6289 62.1694L133.558 6.88077C137.341 1.89451 144.451 0.91423 149.437 4.69712L172.05 28.956L119.988 97.6136V97.6104Z" fill="#26649D"/>
<path d="M150.822 43.6973L122.135 21.9468L120.283 24.3903L148.969 46.1409L150.822 43.6973Z" fill="#79A0C3"/>
<path d="M129.73 71.5147L101.043 49.7642L99.1905 52.2077L127.877 73.9583L129.73 71.5147Z" fill="#79A0C3"/>
<path d="M89.5332 103.8C89.5332 103.8 99.8576 119.912 100.367 134.673L105.852 133.322C105.852 133.322 103.766 113.389 92.6689 100.639L89.5332 103.8Z" fill="#FF8D64"/>
<path d="M202.875 7.69764C181.705 -8.35451 164.079 5.68366 164.079 5.68366L162.388 4.40175C161.615 3.81421 160.51 3.96502 159.925 4.74108L147.967 20.5105L145.315 24.0043C144.344 25.2831 143.926 26.898 144.156 28.4878L144.454 39.0793C144.687 40.688 145.5 42.1553 146.745 43.1984L156.727 51.5842C180.099 71.8308 188.985 69.5969 188.985 69.5969C209.775 65.481 227.574 26.4299 202.869 7.69764H202.875Z" fill="#5384B2"/>
<path d="M209.348 35.9501C207.761 39.8681 205.031 44.1411 201.308 49.0488C195.476 56.7372 170.523 55.8386 155.825 27.0898L155.014 28.1581C153.051 30.7471 152.689 34.2252 154.109 37.1503C168.71 67.2029 194.339 68.2492 200.258 60.4415C207.852 50.425 211.33 43.0509 209.345 35.9501H209.348Z" fill="#525255"/>
<path d="M201.311 49.0487C205.031 44.141 207.764 39.868 209.351 35.95C207.94 30.9009 203.771 25.99 196.353 20.3628C178.5 6.82736 161.949 19.0149 161.949 19.0149L155.828 27.0866C170.526 55.8353 195.482 56.7339 201.311 49.0456V49.0487Z" fill="#6A6A6C"/>
<path d="M168.597 15.7034C168.597 15.7034 180.834 9.00003 204.834 34.5C208.404 39.5994 209.709 42.3659 209.709 42.3659C209.709 42.3659 213.885 29.1603 198.137 17.265C181.209 6.05139 170.859 14.0382 168.597 15.7034Z" fill="#EBF1F6"/>
<path d="M165.889 19.5705C167.962 17.3415 168.791 14.7433 167.742 13.7673C166.692 12.7912 164.161 13.8069 162.088 16.0359C160.015 18.2648 159.185 20.863 160.235 21.8391C161.284 22.8152 163.815 21.7995 165.889 19.5705Z" fill="#FF8D64"/>
<path d="M188.991 69.5972C188.991 69.5972 200.912 95.5244 229.849 73.5309L239.432 82.2937C239.432 82.2937 214.516 122.837 176.411 91.8955L156.812 119.645L157.637 120.272C158.077 120.606 158.163 121.233 157.829 121.673L153.57 127.291C153.236 127.731 152.609 127.817 152.169 127.483L102.283 89.6553L146.98 39.9185L172.908 62.0817L188.991 69.5972Z" fill="#5384B2"/>
<path d="M146.079 34.706C146.079 34.706 107.813 33.8137 92.0185 86.7365L105.874 97.2431C105.874 97.2431 118.986 66.4144 137.039 59.1943C138.836 58.4748 140.429 57.3311 141.727 55.8952L152.168 44.3518L146.079 34.706Z" fill="#26649D"/>
<path d="M146.079 34.7057C146.079 34.7057 105.752 32.2487 89.9573 85.1746L103.813 95.6813C103.813 95.6813 117.311 63.9477 135.77 57.3308C136.939 56.9129 138.029 56.3002 138.975 55.5022L152.168 44.3515L146.079 34.7057Z" fill="#5384B2"/>
<path d="M188.991 69.597C188.991 69.597 169.21 67.6898 154.867 46.6577L153.311 48.7094C153.311 48.7094 164.842 70.0683 190.543 72.076L188.994 69.6001L188.991 69.597Z" fill="#EBF1F6"/>
<path d="M135.1 53.391C132.816 56.4047 128.521 56.9953 125.507 54.711C122.493 52.4267 121.903 48.132 124.187 45.1183C126.471 42.1046 130.766 41.5139 133.78 43.7982C136.794 46.0826 137.384 50.3772 135.1 53.391Z" fill="#FF8D64"/>
<path d="M122.659 54.2179L120.82 53.1563L123.188 51.789L128.314 51.6915L125.836 50.2605L129.054 48.4023L124.569 45.8125L133.851 45.6331L135.658 44.5898L137.496 45.6514L135.128 47.0187L130.006 47.1185L132.481 48.5472L129.262 50.4054L133.748 52.9953L124.466 53.1747L122.659 54.2179Z" fill="#5384B2"/>
<path d="M205.603 82.1931L203.771 103.521C203.771 103.521 198.605 103.747 193.424 101.645C193.424 101.645 194.647 97.5792 197.779 92.5112C200.321 88.3984 203.375 83.739 204.827 82.0737C205.109 82.1963 205.603 82.1963 205.603 82.1963V82.1931Z" fill="#EBF1F6"/>
<path d="M235.137 87.9208L225.84 76.3459L228.35 74.6367L237.864 84.5527L235.137 87.9208Z" fill="#FF8D64"/>
<path opacity="0.2" d="M176.411 91.8921L178.745 88.813C178.745 88.813 207.849 117.665 237.804 80.8042L239.429 82.2903C239.429 82.2903 214.523 123.17 176.408 91.8921H176.411Z" fill="#2B2B2B"/>
<path d="M119.137 70.392L103.345 57.5509C103.345 57.5509 106.434 52.9511 109.346 50.4658L120.469 68.8179L119.137 70.392Z" fill="#EBF1F6"/>
<path d="M91.3807 80.663L105.742 91.5561L107.794 87.6444L92.9391 76.3774L91.3807 80.663Z" fill="#FF8D64"/>
<path d="M158.513 117.406L113.334 82.5L111.834 85.5L156.701 119.797L158.513 117.406Z" fill="#EBF1F6"/>
<path d="M251.72 74.7119L251.261 73.5934C250.997 72.9556 250.315 72.5974 249.643 72.742L246.31 73.4206L250.202 69.2795C250.837 68.7234 250.856 67.7431 250.24 67.165L249.543 66.5115C249.36 66.3387 249.144 66.2256 248.911 66.169C248.534 66.0748 248.122 66.1345 247.777 66.3638L242.451 69.8828L247.384 63.3759C247.862 62.7475 247.736 61.852 247.111 61.3776L246.181 60.6738C245.615 60.2433 244.82 60.2968 244.314 60.7963L239.385 66.4769L240.591 60.435C240.839 59.8349 240.651 59.1437 240.136 58.7509C239.451 58.2325 238.467 58.4304 238.037 59.1751L234.414 67.5138L233.993 64.4975C233.896 63.8 233.305 63.2784 232.598 63.269L231.483 63.2533C230.697 63.2439 230.053 63.866 230.037 64.6515L229.852 73.5337L237.811 80.8105L239.435 82.2966L250.994 76.5594C251.695 76.2421 252.015 75.4283 251.723 74.7182L251.72 74.7119Z" fill="#79A0C3"/>
<path d="M89.9574 85.1714C89.9574 85.1714 81.7161 91.6658 83.7175 95.367C85.7189 99.065 89.5144 105.717 95.836 106.7C98.4846 107.112 101.385 100.052 101.385 100.052C101.385 100.052 102.283 102.82 104.206 104.196C106.129 105.572 110.103 103.605 105.874 97.2396L89.9574 85.1714Z" fill="#79A0C3"/>
<path d="M123.097 91.838L143.343 65.1353C143.844 64.4751 143.714 63.5342 143.054 63.0337C142.394 62.5332 141.453 62.6626 140.953 63.3227L120.706 90.0255L123.097 91.838Z" fill="#EBF1F6"/>
<path d="M167.954 103.89L132.09 76.6973L130.277 79.0878L166.142 106.281L167.954 103.89Z" fill="#EBF1F6"/>
<path d="M148.246 88.9473L145.856 87.1348L135.056 101.378L137.447 103.191L148.246 88.9473Z" fill="#EBF1F6"/>
<path d="M173.217 85.9034L163.525 78.5544C163.084 78.2207 162.457 78.307 162.123 78.747L155.401 87.6136C155.067 88.0536 155.153 88.6809 155.593 89.0146L165.286 96.3636C165.726 96.6973 166.353 96.6111 166.687 96.171L173.41 87.3045C173.743 86.8644 173.657 86.2371 173.217 85.9034Z" fill="#EBF1F6"/>
<path d="M155.464 77.0149L145.69 69.6042C145.25 69.2705 144.623 69.3568 144.289 69.7968L140.939 74.2156C140.605 74.6557 140.691 75.283 141.131 75.6166L150.905 83.0274C151.345 83.3611 151.973 83.2748 152.306 82.8347L155.657 78.4159C155.99 77.9759 155.904 77.3486 155.464 77.0149Z" fill="#EBF1F6"/>
<path d="M92.7883 158.325L85.2686 170.303C84.9793 170.764 85.1115 171.371 85.566 171.67L111.264 188.573C111.646 188.824 112.143 188.786 112.443 188.442C114.339 186.269 120.021 177.997 107.427 167.993C107.188 167.801 106.952 167.616 106.72 167.434C110.273 164.719 112.648 162.778 117.723 158.322L97.6331 144.155C95.0065 151.501 93.8628 155.052 92.8008 158.272C92.782 158.3 92.7851 158.325 92.7851 158.325H92.7883Z" fill="#79A0C3"/>
<path d="M94.95 8.65825C94.8475 8.78801 97.7439 9.92871 98.6355 10.86C99.061 11.3038 99.0567 11.77 98.9535 12.1675C98.5096 13.8813 97.8945 15.6709 98.0945 15.7874C98.3761 15.9518 99.2555 13.5718 100.225 12.5022C100.794 11.874 101.178 11.7107 101.741 11.793C103.269 12.0167 105.661 12.9885 105.855 12.6674C105.958 12.495 103.672 11.5365 102.146 10.3493C101.665 9.97508 101.56 9.45975 101.648 8.96844C101.926 7.40099 102.884 5.28704 102.647 5.08537C102.411 4.8837 101.38 7.36071 100.358 8.59117C99.9838 9.04227 99.56 9.39611 99.0713 9.4293C98.2392 9.48595 95.1642 8.38775 94.95 8.65825Z" fill="#9FBBD4"/>
<path d="M77.574 10.5036C78.5086 11.1215 79.7673 10.8647 80.3852 9.93002C81.0031 8.99534 80.7463 7.73672 79.8116 7.11881C78.8769 6.50091 77.6183 6.75771 77.0004 7.69239C76.3825 8.62707 76.6393 9.88569 77.574 10.5036Z" fill="#FF8D64"/>
<path d="M54.6179 89.8557C54.6457 89.9626 56.4802 88.9556 57.3604 88.8832C57.7807 88.8495 58.0302 89.0431 58.202 89.258C58.945 90.1877 59.6599 91.2341 59.8077 91.1805C60.016 91.105 59.0928 89.6811 58.9193 88.7475C58.8173 88.1991 58.8896 87.9384 59.1691 87.6845C59.9309 86.997 61.4627 86.1801 61.3694 85.9498C61.3185 85.8262 59.839 86.596 58.5559 86.8853C58.1495 86.9766 57.8255 86.8192 57.5982 86.5729C56.8636 85.7872 56.1193 84.4317 55.9106 84.4684C55.7019 84.5052 56.6141 86.0465 56.8526 87.0731C56.9398 87.4475 56.9556 87.8096 56.7689 88.0726C56.4507 88.5195 54.5649 89.6347 54.6213 89.8542L54.6179 89.8557Z" fill="#FF8D64"/>
</g>
<path d="M57.7737 57.8489C56.218 57.2787 55.188 56.186 55.4731 55.4081C55.7582 54.6302 57.2503 54.4619 58.8061 55.0321C60.3619 55.6023 61.3918 56.695 61.1067 57.4728C60.8216 58.2507 59.3295 58.4191 57.7737 57.8489Z" fill="#9FBBD4"/>
<path d="M40.6925 78.3109C40.6015 78.402 42.732 79.5773 43.3294 80.3877C43.6141 80.7757 43.5658 81.1385 43.4462 81.4371C42.935 82.7302 42.2831 84.0652 42.4265 84.1731C42.6297 84.3306 43.5433 82.5589 44.3968 81.8201C44.8985 81.3848 45.2123 81.2957 45.6398 81.4143C46.8012 81.7397 48.5561 82.7288 48.7389 82.4983C48.8351 82.3744 47.1612 81.4046 46.0963 80.326C45.7594 79.988 45.7277 79.5752 45.8451 79.1996C46.2145 78.0067 47.1607 76.451 46.9997 76.271C46.8387 76.0909 45.796 77.9191 44.8848 78.7785C44.5498 79.0916 44.1894 79.3262 43.8068 79.307C43.1566 79.2693 40.8842 78.1113 40.6917 78.3037L40.6925 78.3109Z" fill="#9189FE"/>
<path d="M248.314 23.3502C247.82 22.3673 241.694 22.046 241.413 21.6574C241.133 21.2688 248.647 20.3259 248.898 19.5928C249.149 18.8597 249.934 13.1894 250.18 13.9791C250.545 15.1492 250.385 19.2479 251.471 20.1731C252.556 21.0983 255.532 21.8545 256.31 22.4092C256.924 22.8482 252.002 22.9054 251.517 23.3947C251.033 23.8841 249.517 29.254 249.046 28.7678C248.576 28.2816 248.736 24.1808 248.318 23.3537L248.314 23.3502Z" fill="#9189FE"/>
<path d="M212.5 112.5C212.5 113.051 212.051 113.5 211.5 113.5C210.949 113.5 210.5 113.051 210.5 112.5C210.5 111.949 210.949 111.5 211.5 111.5C212.051 111.5 212.5 111.949 212.5 112.5Z" fill="#9189FE" stroke="#9FBBD4"/>
<path d="M192 160.5C192 161.328 191.328 162 190.5 162C189.672 162 189 161.328 189 160.5C189 159.672 189.672 159 190.5 159C191.328 159 192 159.672 192 160.5Z" fill="#FF8D64"/>
<path d="M227.243 110.103C227.201 110.102 227.157 110.103 227.113 110.105M227.243 110.103C227.244 110.103 227.245 110.103 227.245 110.103L227.242 110.603V110.103C227.242 110.103 227.243 110.103 227.243 110.103ZM227.243 110.103C227.578 110.103 227.975 110.184 228.278 110.49M227.113 110.105L226.015 110.822C226.421 110.711 226.877 110.6 227.242 110.603C227.556 110.603 227.85 110.69 228.033 110.982M227.113 110.105C227.169 110.062 227.224 110.017 227.277 109.971M227.113 110.105L227.277 109.971M228.278 110.49C228.271 110.594 228.269 110.709 228.271 110.832L228.033 110.982M228.278 110.49C228.342 110.555 228.402 110.629 228.456 110.715L229.207 109.636C229.473 109.448 229.747 109.266 229.998 109.099C230.102 109.03 230.203 108.963 230.297 108.9C230.106 108.958 229.885 109.024 229.665 109.073C229.464 109.118 229.239 109.156 229.018 109.158M228.278 110.49C228.278 110.487 228.279 110.485 228.279 110.482L228.279 110.482C228.326 109.837 228.594 109.461 228.915 109.23L228.917 109.229L228.917 109.229C228.951 109.205 228.984 109.181 229.018 109.158M228.033 110.982C228.118 111.116 228.224 111.397 228.337 111.736C228.302 111.42 228.276 111.107 228.271 110.832L228.033 110.982ZM229.018 109.158C229.258 108.99 229.51 108.823 229.737 108.672C229.861 108.59 229.978 108.512 230.08 108.443L227.247 107.148C227.366 107.54 227.493 107.933 227.622 108.252L227.622 108.252C227.662 108.352 227.71 108.452 227.768 108.546L227.849 108.544C227.849 108.544 227.849 108.544 227.849 108.545C227.85 108.585 227.85 108.625 227.849 108.664M229.018 109.158C228.968 109.158 228.918 109.157 228.868 109.153M228.868 109.153C228.869 109.153 228.869 109.153 228.869 109.153L228.905 108.654L228.867 109.153C228.868 109.153 228.868 109.153 228.868 109.153ZM228.868 109.153C228.592 109.133 228.322 109.071 228.088 108.9C227.994 108.83 227.916 108.751 227.849 108.664M227.849 108.664C227.82 108.626 227.793 108.587 227.768 108.547L227.278 109.971C227.278 109.971 227.277 109.971 227.277 109.971M227.849 108.664C227.836 109.238 227.615 109.684 227.277 109.971M230.665 108.644C230.877 108.487 231.008 108.365 231 108.294C230.988 108.191 230.787 108.231 230.5 108.315C230.501 108.327 230.501 108.338 230.503 108.351C230.514 108.45 230.563 108.557 230.656 108.636C230.659 108.639 230.662 108.641 230.665 108.644ZM227.021 105.001L227.021 105.001L227.021 105.001Z" stroke="#FF8D64"/>
<path d="M163.765 153.631C163.547 153.483 163.342 153.327 163.189 153.171M163.765 153.631L160.574 152.036C160.791 152.113 161.008 152.184 161.211 152.233C161.489 152.3 161.792 152.264 162.033 152.005M163.765 153.631C163.545 153.554 163.314 153.474 163.091 153.401M163.765 153.631L162.984 153.371L163.189 153.171M163.189 153.171C162.851 152.827 162.775 152.602 162.848 152.288C162.908 152.031 163.012 151.731 163.122 151.436C162.941 151.692 162.736 151.964 162.52 152.211C162.52 152.212 162.519 152.212 162.519 152.212C162.48 152.257 162.439 152.302 162.399 152.345C162.375 152.372 162.35 152.396 162.325 152.42M163.189 153.171L162.986 153.371C163.022 153.38 163.058 153.39 163.091 153.401M162.325 152.42C162.327 152.376 162.332 152.333 162.339 152.29L162.033 152.005M162.325 152.42C162.316 152.573 162.335 152.731 162.397 152.894C162.456 153.051 162.546 153.193 162.656 153.327C162.408 153.324 162.131 153.394 161.856 153.612C161.83 153.264 161.646 152.978 161.453 152.762C161.746 152.761 162.057 152.669 162.325 152.42ZM162.033 152.005L162.339 152.289C162.345 152.251 162.352 152.213 162.361 152.175L162.361 152.174C162.431 151.873 162.555 151.524 162.677 151.199C162.479 151.476 162.26 151.76 162.033 152.005ZM163.091 153.401L163.001 153.679C163.001 153.679 163.001 153.679 163.001 153.679M163.091 153.401C163.091 153.401 163.091 153.401 163.091 153.401L163.001 153.679M163.001 153.679C162.941 153.627 162.884 153.574 162.832 153.521L163.001 153.679ZM164.505 154.416C164.778 154.503 164.963 154.545 164.994 154.501C165.034 154.444 164.871 154.325 164.621 154.168C164.609 154.182 164.597 154.196 164.585 154.212C164.585 154.214 164.584 154.215 164.583 154.216C164.537 154.282 164.514 154.351 164.505 154.416ZM160.933 152.946C161.176 153.174 161.363 153.426 161.359 153.703C161.358 153.844 161.288 154.092 161.194 154.374L160.933 152.946ZM163.258 150.411C163.247 150.404 163.238 150.396 163.228 150.388C163.397 150.137 163.511 149.978 163.546 150.003C163.608 150.045 163.566 150.234 163.476 150.497C163.409 150.489 163.336 150.465 163.262 150.414L163.263 150.415C163.261 150.413 163.26 150.412 163.258 150.411Z" stroke="#FF8D64"/>
<path d="M34.7179 167.998C34.7874 168.062 35.5838 166.47 36.1653 166.005C36.4434 165.783 36.7121 165.804 36.9365 165.877C37.9099 166.193 38.918 166.61 38.9939 166.501C39.1013 166.349 37.7645 165.761 37.1893 165.171C36.8511 164.827 36.7753 164.602 36.848 164.288C37.0471 163.436 37.7234 162.124 37.5464 162.003C37.4516 161.936 36.7911 163.19 36.0326 164.005C35.7924 164.264 35.489 164.3 35.2109 164.233C34.3165 164.014 33.1345 163.393 33.0081 163.518C32.8817 163.643 34.2659 164.322 34.9328 164.946C35.1761 165.174 35.3626 165.426 35.3594 165.703C35.3531 166.175 34.5757 167.867 34.721 167.998H34.7179Z" fill="#9189FE"/>
<path d="M232.013 181.197C231.962 181.196 231.912 181.192 231.862 181.187L231.86 181.187C231.587 181.157 231.321 181.086 231.094 180.91C231.005 180.84 230.93 180.761 230.867 180.676C230.839 181.239 230.612 181.668 230.274 181.942C230.221 181.985 230.166 182.027 230.11 182.068C230.158 182.068 230.205 182.068 230.252 182.07L232.013 181.197ZM232.013 181.197C231.983 181.217 231.953 181.237 231.923 181.257L232.013 181.197ZM231.263 182.481C231.322 181.846 231.594 181.477 231.922 181.257L231.263 182.481ZM231.263 182.481C230.968 182.172 230.577 182.084 230.252 182.07L231.263 182.481Z" fill="#9FBBD4" stroke="#9FBBD4"/>
<path d="M247.273 161.663C247.506 162.356 247.731 163.109 247.874 163.828L247.874 163.829C248.055 164.752 247.655 165.459 247.102 165.913C246.728 166.221 246.289 166.524 245.849 166.807C246.427 166.618 247.021 166.45 247.548 166.367C248.238 166.257 249.059 166.243 249.683 166.727C249.941 166.927 250.241 167.307 250.523 167.695C250.601 167.803 250.681 167.916 250.763 168.033C250.728 167.932 250.695 167.833 250.664 167.734C250.496 167.207 250.36 166.67 250.337 166.226L250.337 166.225C250.314 165.773 250.414 165.394 250.597 165.08C250.776 164.772 251.021 164.553 251.251 164.393L251.251 164.393C251.644 164.119 252.056 163.844 252.449 163.584C251.87 163.783 251.264 163.957 250.733 164.017L247.273 161.663ZM247.273 161.663C247.65 162.243 248.054 162.835 248.439 163.292L248.439 163.292C248.701 163.601 249 163.834 249.403 163.956C249.789 164.073 250.224 164.076 250.733 164.017L247.273 161.663Z" stroke="#FF8D64"/>
<path d="M206.998 152.819C207.078 152.71 204.685 151.845 203.93 151.099C203.57 150.745 203.557 150.357 203.628 150.025C203.93 148.594 204.367 147.095 204.2 147.006C203.965 146.877 203.332 148.872 202.581 149.783C202.14 150.32 201.835 150.466 201.373 150.413C200.123 150.271 198.147 149.531 198.002 149.803C197.922 149.949 199.814 150.678 201.093 151.619C201.498 151.918 201.601 152.342 201.546 152.75C201.373 154.055 200.669 155.832 200.868 155.991C201.067 156.153 201.819 154.072 202.609 153.025C202.899 152.64 203.23 152.335 203.625 152.296C204.299 152.226 206.834 153.051 206.998 152.819Z" fill="#9189FE"/>
<path d="M197.999 131.986C198.059 131.446 196 131.077 194.333 130.064C193.143 129.341 192.81 128.491 192.661 127.523C192.403 125.842 192.78 123.299 192.233 123.019C191.687 122.739 190.798 125.69 190.125 126.697C189.451 127.703 188.371 128.481 186.971 128.379C184.809 128.225 183.234 127.963 183.012 128.379C182.789 128.795 185.669 130.003 186.683 130.543C187.696 131.083 188.526 131.406 188.533 132.934C188.539 134.462 187.81 137.702 188.354 137.982C188.901 138.262 189.942 135.236 190.962 133.567C191.56 132.589 192.072 132.209 193.552 132.039C195.322 131.836 197.956 132.37 197.999 131.98V131.986Z" fill="#9FBBD4"/>
<path d="M13.4081 90.3328C12.6306 90.0479 12.2309 89.1857 12.5159 88.4083C12.8008 87.6308 13.663 87.2311 14.4404 87.516C15.2179 87.801 15.6176 88.6632 15.3326 89.4406C15.0477 90.218 14.1855 90.6178 13.4081 90.3328Z" fill="#9FBBD4"/>
<path d="M226.408 9.33282C225.631 9.04789 225.231 8.18569 225.516 7.40826C225.801 6.63083 226.663 6.23112 227.44 6.51605C228.218 6.80098 228.618 7.66318 228.333 8.44062C228.048 9.21805 227.186 9.61776 226.408 9.33282Z" fill="#9FBBD4"/>
<path d="M46.4083 96.3328C45.6309 96.0479 45.2312 95.1857 45.5161 94.4083C45.801 93.6308 46.6632 93.2311 47.4407 93.516C48.2181 93.801 48.6178 94.6632 48.3329 95.4406C48.0479 96.218 47.1857 96.6178 46.4083 96.3328Z" fill="#9FBBD4"/>
<path d="M256.408 42.3328C255.631 42.0479 255.231 41.1857 255.516 40.4083C255.801 39.6308 256.663 39.2311 257.441 39.516C258.218 39.801 258.618 40.6632 258.333 41.4406C258.048 42.218 257.186 42.6178 256.408 42.3328Z" fill="#FF8D64"/>
<path d="M43.5151 175.741C42.9449 177.296 43.7438 179.02 45.2995 179.59C46.8551 180.16 48.5785 179.361 49.1486 177.806C49.7188 176.25 48.9199 174.527 47.3642 173.956C45.8085 173.386 44.0852 174.185 43.5151 175.741Z" fill="#9FBBD4"/>
<path d="M22.4083 133.793C21.6309 133.508 21.2312 132.646 21.5161 131.869C21.801 131.091 22.6632 130.692 23.4407 130.976C24.2181 131.261 24.6178 132.124 24.3329 132.901C24.0479 133.678 23.1857 134.078 22.4083 133.793Z" fill="#9189FE"/>
<path d="M9.04135 169.636C9.76272 170.113 10.7341 169.915 11.211 169.193C11.6879 168.472 11.4897 167.501 10.7683 167.024C10.0469 166.547 9.07557 166.745 8.59868 167.466C8.1218 168.188 8.31999 169.159 9.04135 169.636Z" fill="#FF8D64"/>
<path d="M15.5773 49.2468C15.3981 49.3632 18.4184 52.0091 19.1028 53.5404C19.4294 54.271 19.2255 54.8468 18.9338 55.2935C17.6719 57.2275 16.1709 59.1812 16.3633 59.4088C16.6347 59.7315 18.7049 57.1597 20.3299 56.2487C21.2842 55.7129 21.8164 55.673 22.4646 56.0149C24.2183 56.941 26.7004 59.162 27.07 58.8482C27.2699 58.6791 24.9087 56.52 23.5658 54.3993C23.1414 53.7298 23.2338 53.0471 23.5464 52.4773C24.5467 50.6559 26.5986 48.4446 26.3999 48.0943C26.2013 47.7439 23.9043 50.372 22.146 51.4604C21.5023 51.8588 20.8415 52.1174 20.2343 51.9507C19.2036 51.6669 15.9494 48.9999 15.5753 49.2446L15.5773 49.2468Z" fill="#FF8D64"/>
<path d="M254.817 132.849C253.261 132.279 252.231 131.186 252.516 130.408C252.801 129.63 254.293 129.462 255.849 130.032C257.405 130.602 258.435 131.695 258.15 132.473C257.864 133.251 256.372 133.419 254.817 132.849Z" fill="#9FBBD4"/>
<defs>
<linearGradient id="paint0_linear_1134_19267" x1="108.87" y1="39.011" x2="13.6214" y2="7.42007" gradientUnits="userSpaceOnUse">
<stop stop-color="#5384B2"/>
<stop offset="1" stop-color="#5384B2" stop-opacity="0"/>
</linearGradient>
<clipPath id="clip0_1134_19267">
<rect width="201.492" height="189" fill="white" transform="translate(50.3344)"/>
</clipPath>
</defs>
</svg>
