<svg width="390" height="126" viewBox="0 0 390 126" fill="none" xmlns="http://www.w3.org/2000/svg">
    <path fill-rule="evenodd" clip-rule="evenodd" d="M234.857 51.2262C240.386 56.7461 246.464 58.7474 255.028 58.7474C267.036 58.7474 275.525 52.4643 275.534 41.9738C275.534 37.0125 273.924 33.0751 270.88 30.2826C268.404 28.0486 265.518 26.8478 260.315 26.0473L253.511 25.0048C250.392 24.5207 248.708 23.7202 247.265 22.445C245.839 21.1086 245.076 19.2113 245.18 17.2602C245.18 12.1034 248.782 8.38012 255.503 8.38012C260.389 8.38012 264.55 9.41334 268.069 12.7829L273.514 7.33759C268.637 2.7486 263.433 0.821777 255.828 0.821777C243.988 0.821777 236.784 7.55168 236.784 17.4743C236.784 22.1936 238.226 25.8797 241.019 28.4395C243.504 30.8411 247.097 32.2838 251.751 33.0006L258.472 33.9314C261.357 34.3317 263.275 35.0577 264.718 36.333C266.319 37.7013 266.961 39.7026 266.961 42.2624C266.961 47.866 262.717 51.068 255.195 51.068C249.424 51.068 244.705 49.709 240.544 45.5389L234.857 51.2262ZM98.7321 58.2261H75.6754V1.23134H97.8478C108.413 1.23134 115.059 7.2352 115.059 16.8414C115.179 22.0588 112.145 26.8349 107.37 28.9422C111.773 30.7014 115.934 34.946 115.934 42.1507C115.934 52.6225 108.813 58.2261 98.7321 58.2261ZM97.1311 8.99447H84.3228V25.3212H97.1311C102.651 25.3212 106.439 22.445 106.439 17.1579C106.439 11.8707 102.651 8.99447 97.1311 8.99447ZM84.3228 33.0844H97.9502C103.935 33.0844 107.314 36.7239 107.314 41.7318C107.314 46.7396 103.954 50.463 97.9502 50.463H84.3228V33.0844ZM145.916 58.2261V54.1397C143.125 57.1313 139.2 58.8047 135.109 58.7474C131.414 58.8667 127.821 57.5295 125.103 55.024C121.984 51.9802 121.025 48.1359 121.025 43.5748V17.6419H129.189V42.3741C129.189 48.6944 132.791 51.4217 137.352 51.4217C141.913 51.4217 145.73 48.6292 145.73 42.3741V17.6419H153.893V58.2261H145.916ZM176.913 24.4463C179.714 24.4463 181.139 25.3026 183 27.1643L189.172 21.0022C186.656 18.3822 183.128 16.9801 179.5 17.1579C174.93 17.1579 170.769 19.1591 168.693 22.0447V17.6419H160.67V58.2261H168.833V33.5684C168.833 27.9648 172.51 24.4463 176.913 24.4463ZM210.283 58.7008C214.444 58.7008 217.888 57.3418 220.131 55.0985C224.05 51.0959 224.692 44.5243 224.692 37.8875C224.692 31.2506 224.05 24.7627 220.131 20.7602C217.888 18.5169 214.369 17.1579 210.199 17.1579C205.88 17.1579 202.52 18.2842 199.476 21.9609V17.6419H191.471V74.618H199.634V54.0467C202.594 57.6676 205.964 58.7008 210.283 58.7008ZM199.634 37.8875C199.634 30.6828 200.677 24.4463 208.123 24.4463C215.486 24.4463 216.501 30.6828 216.501 37.8875C216.501 45.0921 215.57 51.4217 208.123 51.4217C200.677 51.4217 199.634 45.0921 199.634 37.8875ZM304.688 58.2261V54.1397C301.897 57.1313 297.972 58.8047 293.881 58.7474C290.186 58.8667 286.592 57.5295 283.874 55.024C280.756 51.9802 279.797 48.1359 279.797 43.5748V17.6419H287.961V42.3741C287.961 48.6944 291.563 51.4217 296.124 51.4217C300.685 51.4217 304.501 48.6292 304.501 42.3741V17.6419H312.665V58.2261H304.688ZM319.218 9.63674V1.03587H327.865V9.68328L319.218 9.63674ZM319.46 58.2261V17.6419H327.623V58.2261H319.46ZM346.808 58.2261C339.203 58.2261 335.638 52.7807 335.638 46.9351V23.8784H330.984V17.6419H335.638V6.03443H343.801V17.6419H351.648V23.8784H343.801V46.5349C343.801 49.4949 345.244 51.2635 348.288 51.2635H351.648V58.2261H346.808ZM361.375 40.289C361.375 47.3354 364.978 51.6637 371.698 51.6637C376.259 51.6637 378.661 50.3792 381.546 47.4936L386.75 52.3805C382.598 56.5413 378.67 58.7474 371.549 58.7474C361.385 58.7474 353.296 53.3858 353.296 37.934C353.296 24.7348 360.1 17.2044 370.507 17.2044C381.397 17.2044 387.718 25.0513 387.718 36.9008V40.3355L361.375 40.289ZM378.503 29.119C377.041 25.998 373.906 24.0041 370.46 24.0041C367.014 24.0041 363.879 25.998 362.418 29.119C361.658 30.8467 361.301 32.7249 361.375 34.6109H379.62C379.634 32.7113 379.257 30.8291 378.512 29.0818L378.503 29.119Z" fill="#000023"/>
    <rect x="0.83667" y="1.36572" width="57.5626" height="57.5626" fill="#14A6BB"/>
    <path d="M31.8519 50.9322H27.3839V44.2954L33.4064 36.8767H27.3839V27.8662H16.4839L27.3839 14.4157V9.36133H31.8519V15.9888L25.8387 23.4076H31.8519V32.4273H42.7519L31.8519 45.8778V50.9322Z" fill="white"/>
    <path fill-rule="evenodd" clip-rule="evenodd" d="M78.4864 112.889C80.5133 114.859 83.2468 115.932 86.0727 115.867C91.5925 115.867 95.623 112.367 96.6376 106.754H94.3198C93.3983 111.092 90.2428 113.764 86.0355 113.764C83.8146 113.808 81.6734 112.936 80.1154 111.353C77.8814 109.119 77.7045 106.587 77.7045 100.006C77.7045 93.4249 77.8814 90.8838 80.1154 88.6498C81.6849 87.0608 83.8398 86.1887 86.0727 86.2389C90.28 86.2389 93.3332 88.9197 94.264 93.2574H96.6748C95.623 87.6445 91.6577 84.1353 86.0727 84.1353C83.2475 84.0746 80.5156 85.1472 78.4864 87.1139C75.5915 90.0088 75.3774 92.429 75.3774 100.006C75.3774 107.583 75.5915 109.994 78.4864 112.889ZM114.724 113.549C111.418 116.64 106.282 116.64 102.977 113.549C100.743 111.316 100.342 108.067 100.342 105.042C100.342 102.017 100.743 98.7772 102.977 96.5432C106.277 93.439 111.423 93.439 114.724 96.5432C116.958 98.7772 117.349 102.017 117.349 105.042C117.349 108.067 116.958 111.316 114.724 113.549ZM113.234 97.986C110.803 95.5896 106.897 95.5896 104.466 97.986C102.716 99.7453 102.604 102.64 102.604 105.042C102.604 107.443 102.744 110.347 104.466 112.107C106.897 114.503 110.803 114.503 113.234 112.107C114.984 110.347 115.096 107.453 115.096 105.042C115.096 102.631 114.984 99.7453 113.234 97.986ZM149.667 115.607V102.501C149.667 98.4235 147.647 96.1895 143.84 96.1895C140.033 96.1895 137.873 98.47 137.873 102.11V115.607H135.639V102.501C135.639 98.4235 133.62 96.1895 129.812 96.1895C126.005 96.1895 123.846 98.47 123.846 102.501V115.607H121.612V94.514H123.864V97.0086C125.418 95.167 127.73 94.1381 130.138 94.2161C132.97 94.037 135.639 95.5541 136.933 98.0791C138.452 95.5849 141.201 94.1071 144.119 94.2161C146.246 94.0712 148.33 94.8596 149.828 96.3756C151.326 97.8917 152.09 99.985 151.92 102.11V115.607H149.667ZM185.057 102.501V115.607H187.291V102.11C187.461 99.985 186.698 97.8917 185.2 96.3756C183.701 94.8596 181.617 94.0712 179.491 94.2161C176.573 94.1071 173.824 95.5849 172.305 98.0791C171.01 95.5541 168.342 94.037 165.51 94.2161C163.101 94.1381 160.79 95.167 159.236 97.0086V94.514H157.002V115.607H159.236V102.501C159.236 98.47 161.395 96.1895 165.203 96.1895C169.01 96.1895 171.03 98.4235 171.03 102.501V115.607H173.264V102.11C173.264 98.47 175.423 96.1895 179.23 96.1895C183.037 96.1895 185.057 98.4235 185.057 102.501ZM206.141 115.607V113.131C203.027 116.495 197.82 116.823 194.31 113.875C192.797 112.306 192.005 110.178 192.122 108.002V94.514H194.356V107.546C194.356 111.623 196.367 113.866 200.183 113.866C204 113.866 206.141 111.585 206.141 107.546V94.514H208.384V115.635L206.141 115.607ZM227.633 102.501V115.607L229.877 115.635V102.138C230.061 98.7094 227.984 95.5632 224.76 94.3843C221.536 93.2054 217.92 94.2704 215.849 97.0086V94.514H213.615V115.607H215.849V102.501C215.849 98.47 217.99 96.1895 221.806 96.1895C225.623 96.1895 227.633 98.4235 227.633 102.501ZM234.633 84.368V87.1605H237.426V84.368H234.633ZM234.903 94.514V115.607L237.137 115.635V94.514H234.903ZM243.253 110.087C243.253 113.289 245.003 115.607 248.335 115.607H250.262V113.633H248.726C246.492 113.633 245.487 112.367 245.487 110.133V96.1709H250.262V94.514H245.487V87.7283H243.253V94.514H240.358V96.1243H243.253V110.087ZM259.859 121.35C259.237 123.789 256.928 125.41 254.423 125.166H253.371V123.193H254.181C256.592 123.193 257.29 122.402 258.044 120.298L259.747 115.644L252.049 94.514H254.506L260.864 113.01L267.212 94.514H269.66L259.859 121.35ZM280.812 84.3959V115.607H299.791V113.503H283.176V100.927H297.334V98.8238H283.223V86.5089H299.791V84.3959H280.812ZM316.137 112.889V115.607H318.408V84.3959H316.137V97.1483C314.715 95.1207 312.333 93.9895 309.863 94.1696C307.964 94.0909 306.109 94.7592 304.697 96.0313C302.547 98.1815 301.979 101.681 301.979 105.014C301.979 108.346 302.547 111.855 304.697 114.006C306.111 115.274 307.964 115.942 309.863 115.867C312.333 116.051 314.718 114.919 316.137 112.889ZM304.213 105.042C304.213 100.657 304.995 96.1895 310.17 96.1895C315.346 96.1895 316.137 100.657 316.137 105.042C316.137 109.426 315.346 113.903 310.17 113.903C304.995 113.903 304.213 109.426 304.213 105.042ZM323.36 87.1605V84.368H326.152V87.1605H323.36ZM323.621 115.607V94.514H325.855V115.635L323.621 115.607ZM337.025 115.607C333.702 115.607 331.942 113.289 331.942 110.087V96.1243H329.047V94.514H331.942V87.7283H334.232V94.514H339.017V96.1709H334.232V110.133C334.232 112.367 335.247 113.633 337.481 113.633H339.017V115.607H337.025ZM342.228 87.1605V84.368H345.02V87.1605H342.228ZM342.489 115.607V94.514H344.732V115.635L342.489 115.607ZM351.518 113.549C354.824 116.64 359.959 116.64 363.265 113.549C365.499 111.316 365.89 108.067 365.89 105.042C365.89 102.017 365.499 98.7772 363.265 96.5432C359.964 93.439 354.818 93.439 351.518 96.5432C349.284 98.7772 348.883 102.017 348.883 105.042C348.883 108.067 349.284 111.316 351.518 113.549ZM353.007 97.986C355.439 95.5896 359.344 95.5896 361.775 97.986C363.525 99.7453 363.637 102.631 363.637 105.042C363.637 107.453 363.525 110.347 361.775 112.107C359.344 114.503 355.439 114.503 353.007 112.107C351.276 110.347 351.145 107.443 351.145 105.042C351.145 102.64 351.248 99.7453 353.007 97.986ZM384.18 102.501V115.607L386.424 115.635V102.138C386.622 98.703 384.546 95.5444 381.315 94.363C378.084 93.1816 374.46 94.2565 372.396 97.0086V94.514H370.153V115.607H372.387V102.501C372.387 98.47 374.546 96.1895 378.353 96.1895C382.161 96.1895 384.18 98.4235 384.18 102.501Z" fill="#00A2B9"/>
</svg>
