<svg width="180" height="126" viewBox="0 0 180 126" fill="none" xmlns="http://www.w3.org/2000/svg">
    <path d="M106.069 36.9075C102.251 54.8651 119.503 60.7668 119.503 60.7668C118.076 68.8444 122.899 68.0532 124.989 67.7674C130.094 67.0531 130.345 57.4258 130.345 57.4258C125.924 52.6342 120.84 57.7116 120.84 57.7116C113.163 50.5241 118.8 44.7543 118.8 44.7543L106.059 36.8965L106.069 36.9075Z" fill="#B0B0B0"/>
    <path d="M66.9931 30.6895C59.1975 42.7087 69.8365 53.4606 69.8365 53.4606C69.1335 60.5974 76.9292 65.9474 76.9292 65.9474C75.0196 74.3827 77.6322 74.0295 77.6322 74.0295C88.2398 75.3903 89.866 63.4853 81.85 62.7166C73.813 61.9375 85.239 44.6513 85.239 44.6513L66.9826 30.6895H66.9931Z" fill="#B0B0B0"/>
    <path d="M125.599 46.64C125.599 46.64 74.6181 47.1373 55.8621 55.5174L59.2673 32.8423L88.0759 24.4829C88.0759 24.4829 131.833 26.4511 125.599 46.6504V46.64Z" fill="#B0B0B0"/>
    <path d="M61.2303 46.9931C61.2303 46.9931 42.907 76.1663 49.2493 96.5545C55.5915 116.943 73.5793 110.944 76.166 105.499C78.7527 100.043 79.1315 86.5571 68.9904 88.3864C57.3232 90.4922 58.9575 97.2777 62.1936 101.149C65.4296 105.02 71.5013 104.382 71.9342 100.064C72.3671 95.7462 71.5987 93.97 68.9363 94.002C63.3191 94.0658 63.1352 98.1179 68.525 100.075C68.525 100.075 62.2044 101.149 62.7563 95.5015C63.1568 91.4601 73.2005 88.6949 74.2612 95.1719C75.3218 101.638 72.3888 106.031 66.6418 105.478C60.8948 104.925 55.7431 99.4048 57.4315 93.7892C59.9424 85.4723 70.1268 83.5898 75.3651 85.9509C82.8221 89.3011 83.6879 97.4904 82.0753 103.659C80.138 111.029 69.8021 120.601 52.6261 112.316C42.8854 107.615 37.9501 89.9392 37.3982 80.0376C36.5864 65.4776 38.1558 48.078 61.1113 26.5518L61.2195 47.0144L61.2303 46.9931Z" fill="#C9C9C9"/>
    <path d="M7.93376 82.5602C8.61716 82.3277 69.8741 65.398 69.8741 65.398L127.443 56.5316L180 55.5171L175.129 60.3255L121.813 64.9859L76.1333 73.2816C76.1333 73.2816 22.0575 90.8771 4.78792 92.7476C2.076 93.0435 -5.98384 87.2312 7.9446 82.5496L7.93376 82.5602Z" fill="#AD5B28"/>
    <path d="M146.113 20.5439C146.113 20.5439 133.944 10.3239 129.859 12.3297C126.138 14.1551 127.774 25.8714 127.774 25.8714C98.7295 -1.02102 64.6487 18.7822 56.7033 31.061C48.7578 43.3399 59.6012 54.324 59.6012 54.324C59.1521 65.7114 69.1614 66.38 69.1614 66.38C75.984 65.4991 76.1979 74.1378 76.1979 74.1378C80.8496 73.7876 81.9083 70.7948 81.641 67.8551C81.2881 63.9921 77.4811 63.1325 73.1502 62.7186C64.9588 61.9226 75.2996 45.3245 75.2996 45.3245C80.3898 40.8247 100.066 37.6727 100.066 37.6727C96.0026 55.0138 114.364 60.7128 114.364 60.7128C113.423 70.3279 120.352 65.9767 120.352 65.9767C114.93 59.4287 125.902 57.4866 125.902 57.4866C121.197 52.8594 115.786 57.7625 115.786 57.7625C107.616 50.8324 116.898 42.5758 116.898 42.5758C135.238 57.8898 164.581 51.2888 167.094 44.1571C171.393 31.9313 146.103 20.5545 146.103 20.5545L146.113 20.5439Z" fill="#C9C9C9"/>
    <path d="M124.138 23.9138C124.138 23.9138 120.249 15.9444 119.035 16.9261C118.154 17.6333 118.724 20.1033 118.724 20.1033C118.724 20.1033 113.449 13.0628 113.32 14.3822C113.191 15.7122 112.987 17.7494 112.987 17.7494C112.987 17.7494 109.646 10.635 108.959 12.2289C108.271 13.8122 108.497 16.9261 108.497 16.9261C108.497 16.9261 103.835 8.85115 103.577 11.4584C103.319 14.0656 104.168 15.7228 104.168 15.7228C104.168 15.7228 98.4314 8.22838 98.2166 10.3923C98.0018 12.5561 99.409 15.0578 99.409 15.0578C99.409 15.0578 94.5535 8.91449 93.9089 10.2973C93.2751 11.68 94.1238 14.5617 94.1238 14.5617C94.1238 14.5617 88.7526 9.8117 88.6237 11.1628C88.484 12.5245 89.6979 15.6278 89.6979 15.6278C89.6979 15.6278 84.2408 10.0334 84.0474 11.965C83.8541 13.8967 85.5299 16.2189 85.5299 16.2189C85.5299 16.2189 80.1909 12.3978 80.062 13.6961C79.9331 15.005 81.7378 17.3166 81.7378 17.3166C81.7378 17.3166 76.0981 12.7672 75.9047 14.6778C75.7114 16.5883 78.5903 19.5649 78.5903 19.5649C78.5903 19.5649 71.1029 15.6911 70.9418 17.3272C70.7806 18.9527 73.0258 20.6416 73.0258 20.6416C73.0258 20.6416 66.1399 18.3616 65.9788 19.9661C65.8176 21.5705 68.8148 23.3544 68.8148 23.3544C68.8148 23.3544 62.6594 21.391 62.5305 22.7527C62.3908 24.1144 65.4954 26.1516 65.4954 26.1516C65.4954 26.1516 58.588 23.8716 58.4269 25.476C58.2658 27.0804 61.7893 28.9171 61.7893 28.9171C61.7893 28.9171 52.626 27.9671 54.5489 29.4765C56.4718 30.986 57.2775 32.1048 57.2775 32.1048C57.2775 32.1048 51.6055 31.5348 52.1104 32.9704C52.6153 34.4059 54.3341 35.3876 54.3341 35.3876C54.3341 35.3876 48.3721 35.9787 48.7695 37.2665C49.167 38.5648 50.9717 39.3459 50.9717 39.3459C50.9717 39.3459 46.1806 39.0081 46.0195 40.6231C45.8584 42.2275 48.9736 42.9031 48.9736 42.9031C48.9736 42.9031 43.1191 43.0297 43.4628 44.7503C43.7958 46.4708 47.2763 47.2414 47.2763 47.2414C47.2763 47.2414 77.5161 20.0611 96.1326 21.8449C114.749 23.6288 124.116 23.9032 124.116 23.9032L124.138 23.9138Z" fill="#C9C9C9"/>
    <path fill-rule="evenodd" clip-rule="evenodd" d="M106.902 27.5421L104.134 26.8644L100.104 21.1294L99.0069 25.6095L94.6976 24.5546L93.6613 28.7882L89.8579 23.3699L87.0362 22.6792L87.5101 20.7432L91.0303 21.6049L92.7979 24.123L93.2795 22.1554L97.5889 23.2103L99.2395 16.4671L105.306 25.0992L107.376 25.606L106.902 27.5421Z" fill="#B0AFAF"/>
    <path fill-rule="evenodd" clip-rule="evenodd" d="M60.0721 37.4349L62.3078 35.6673L69.3088 36.012L66.4483 32.3938L69.9286 29.6423L67.2255 26.2232L73.8372 26.5522L76.116 24.7505L77.3522 26.3141L74.5093 28.5617L71.4365 28.4088L72.6928 29.9978L69.2124 32.7494L73.518 38.1953L62.9803 37.6765L61.3082 38.9984L60.0721 37.4349Z" fill="#B0AFAF"/>
    <path d="M143.862 22.4184C142.155 22.4785 138.472 24.0425 138.625 28.4438C138.779 32.845 141.119 35.0507 145.684 34.8101C150.249 34.5594 151.697 29.9877 150.767 27.1605C149.837 24.3333 146.844 22.3081 143.862 22.4184Z" fill="#B0B0B0"/>
    <path d="M150.345 29.059C150.064 31.9057 147.476 33.9905 144.575 33.7153C141.674 33.4402 139.539 30.9004 139.83 28.0537C140.11 25.207 142.699 23.1223 145.6 23.3974C148.501 23.6726 150.625 26.2124 150.345 29.059Z" fill="#DFDFDF"/>
    <path d="M147.987 29.287C147.821 30.9381 146.355 32.1424 144.713 31.987C143.062 31.8219 141.858 30.3553 142.013 28.714C142.179 27.0629 143.645 25.8586 145.287 26.014C146.938 26.1791 148.142 27.6456 147.987 29.287Z" fill="#B0B0B0"/>
    <path d="M167.411 40.0116C167 38.1066 165.549 38.8976 165.517 41.6261C165.58 43.5473 167.663 43.6281 167.584 41.6745C167.568 41.1095 167.521 40.5767 167.411 40.0116Z" fill="#B0B0B0"/>
    <path d="M161.379 61.7469C161.379 61.7469 172.054 60.6236 175.862 74.1379C175.862 74.1379 161.938 74.1833 161.379 61.7469Z" fill="#5FB441"/>
    <path d="M169.9 55.5173C169.9 55.5173 167.248 46.6956 179.398 43.1035C179.398 43.1035 183.581 55.1475 169.9 55.5173Z" fill="#5FB441"/>
    <path d="M151.551 61.7241C151.551 61.7241 159.399 67.3699 151.989 76.2069C151.989 76.2069 140.829 68.7758 151.551 61.7241Z" fill="#5FB441"/>
    <path d="M95.9351 70C95.9351 70 100.522 79.113 92.5034 88.6207C92.5034 88.6207 87.5103 76.0904 95.9351 70Z" fill="#5FB441"/>
    <path d="M15.912 61.7241C15.912 61.7241 24.4465 67.7383 18.7021 80.3448C18.7021 80.3448 6.6534 72.563 15.912 61.7241Z" fill="#5FB441"/>
    <path d="M32.9156 76.2039C32.9156 76.2039 22.7696 76.6179 22.7585 67.9679C22.7585 67.9679 34.7332 66.9058 32.9156 76.2039Z" fill="#5FB441"/>
    <path d="M18.157 100.273C18.157 100.273 8.01102 100.687 8 92.0367C8 92.0367 19.9747 90.9746 18.157 100.273Z" fill="#5FB441"/>
</svg>
