<svg width="14" height="14" viewBox="0 0 14 14" fill="none" xmlns="http://www.w3.org/2000/svg">
<g clip-path="url(#clip0_1537_37395)">
<path fill-rule="evenodd" clip-rule="evenodd" d="M6.99967 1.75004C4.10018 1.75004 1.74967 4.10055 1.74967 7.00004C1.74967 9.89954 4.10018 12.25 6.99967 12.25C9.89917 12.25 12.2497 9.89954 12.2497 7.00004C12.2497 4.10055 9.89917 1.75004 6.99967 1.75004ZM0.583008 7.00004C0.583008 3.45621 3.45585 0.583374 6.99967 0.583374C10.5435 0.583374 13.4163 3.45621 13.4163 7.00004C13.4163 10.5439 10.5435 13.4167 6.99967 13.4167C3.45585 13.4167 0.583008 10.5439 0.583008 7.00004Z" fill="#5FB441"/>
<path fill-rule="evenodd" clip-rule="evenodd" d="M9.70915 4.8315C9.99152 5.07586 10.0223 5.50285 9.77798 5.78522L6.65736 9.39127C6.53664 9.53077 6.36415 9.61488 6.1799 9.62411C5.99565 9.63334 5.81563 9.56687 5.68157 9.44013L4.29463 8.12884C4.02329 7.8723 4.01129 7.44436 4.26783 7.17302C4.52438 6.90168 4.95231 6.88968 5.22366 7.14622L6.09717 7.97209L8.75544 4.90032C8.99979 4.61796 9.42679 4.58714 9.70915 4.8315Z" fill="#5FB441"/>
</g>
<defs>
<clipPath id="clip0_1537_37395">
<rect width="14" height="14" fill="white"/>
</clipPath>
</defs>
</svg>
