<svg width="91" height="64" viewBox="0 0 91 64" fill="none" xmlns="http://www.w3.org/2000/svg">
<rect x="3.5" y="2.5" width="84" height="59" rx="5" fill="url(#paint0_linear_837_27024)"/>
<g clip-path="url(#clip0_837_27024)">
<path fill-rule="evenodd" clip-rule="evenodd" d="M43.6935 16.6047C44.3394 16.2411 45.0681 16.05 45.8094 16.05C46.5506 16.05 47.2793 16.2411 47.9252 16.6047C48.5711 16.9684 49.1124 17.4924 49.4968 18.1261L49.501 18.133L61.6775 38.4608L61.6892 38.4806C62.0658 39.1328 62.265 39.8722 62.2671 40.6252C62.2692 41.3783 62.0741 42.1188 61.7012 42.773C61.3283 43.4273 60.7905 43.9725 60.1415 44.3544C59.4925 44.7363 58.7547 44.9416 58.0017 44.9499L57.9859 44.95L33.617 44.95C32.864 44.9417 32.1262 44.7363 31.4772 44.3544C30.8282 43.9725 30.2904 43.4273 29.9175 42.773C29.5446 42.1188 29.3495 41.3783 29.3516 40.6252C29.3537 39.8722 29.5529 39.1328 29.9295 38.4806L29.9412 38.4608L42.1178 18.133L43.351 18.8717L42.1219 18.1261C42.5063 17.4924 43.0476 16.9684 43.6935 16.6047ZM44.5819 19.6144L32.4147 39.9267C32.2922 40.1421 32.2275 40.3854 32.2268 40.6333C32.2261 40.8843 32.2911 41.1311 32.4154 41.3492C32.5397 41.5673 32.719 41.749 32.9353 41.8763C33.1498 42.0025 33.3933 42.0709 33.642 42.0747H57.9767C58.2254 42.0709 58.4689 42.0025 58.6834 41.8763C58.8997 41.749 59.079 41.5673 59.2033 41.3492C59.3276 41.1311 59.3926 40.8843 59.3919 40.6333C59.3912 40.3855 59.3265 40.1421 59.2041 39.9268L47.0385 19.6173L47.0368 19.6144C46.9087 19.4045 46.729 19.2308 46.5146 19.1102C46.2993 18.9889 46.0564 18.9253 45.8094 18.9253C45.5623 18.9253 45.3194 18.9889 45.1041 19.1102C44.8897 19.2308 44.71 19.4045 44.5819 19.6144ZM45.8093 23.3858C47.0003 23.3858 47.9657 24.244 47.9657 25.3026V32.9698C47.9657 34.0285 47.0003 34.8867 45.8093 34.8867C44.6184 34.8867 43.6529 34.0285 43.6529 32.9698V25.3026C43.6529 24.244 44.6184 23.3858 45.8093 23.3858ZM45.7986 36.3243C44.6136 36.3243 43.6529 37.2897 43.6529 38.4807C43.6529 39.6716 44.6136 40.6371 45.7986 40.6371H45.8201C47.0051 40.6371 47.9657 39.6716 47.9657 38.4807C47.9657 37.2897 47.0051 36.3243 45.8201 36.3243H45.7986Z" fill="url(#paint1_linear_837_27024)"/>
</g>
<path d="M3.5 7.5C3.5 4.73858 5.73858 2.5 8.5 2.5H82.5C85.2614 2.5 87.5 4.73858 87.5 7.5V10.5H3.5V7.5Z" fill="#26649D"/>
<circle cx="8.5" cy="6.5" r="2" fill="#DF4C63"/>
<circle cx="14.5" cy="6.5" r="2" fill="#FF7B4E"/>
<circle cx="20.5" cy="6.5" r="2" fill="#7DC164"/>
<defs>
<linearGradient id="paint0_linear_837_27024" x1="45.5" y1="28.5" x2="45.5" y2="59.4419" gradientUnits="userSpaceOnUse">
<stop stop-color="#BDD0E1"/>
<stop offset="1" stop-color="#BDD0E1" stop-opacity="0"/>
</linearGradient>
<linearGradient id="paint1_linear_837_27024" x1="45.8094" y1="16.05" x2="45.8094" y2="44.95" gradientUnits="userSpaceOnUse">
<stop stop-color="#5384B2"/>
<stop offset="1" stop-color="#5384B2" stop-opacity="0"/>
</linearGradient>
<clipPath id="clip0_837_27024">
<rect width="34" height="34" fill="white" transform="translate(28.5 13.5)"/>
</clipPath>
</defs>
</svg>
