<svg width="188" height="131" viewBox="0 0 188 131" fill="none" xmlns="http://www.w3.org/2000/svg">
    <path d="M58.3602 45.8972C58.3602 23.3408 76.5791 5.05518 99.0532 5.05518C121.527 5.05518 139.746 23.3408 139.746 45.8972C139.746 57.7589 134.706 68.4416 126.662 75.9009L116.369 92.717V103.25C116.369 105.169 114.819 106.726 112.906 106.726V114.546C112.906 116.466 111.356 118.022 109.443 118.022H108.168L106.267 125.02C105.856 126.532 104.487 127.581 102.925 127.581H95.1809C93.6192 127.581 92.2506 126.532 91.8397 125.02L89.6625 118.022H97.7783C95.8657 118.022 94.3151 116.466 94.3151 114.546V106.726C92.4024 106.726 90.8519 105.169 90.8519 103.25V93.2565H90.272L80.5335 75.8773C72.505 68.4192 58.3602 57.7465 58.3602 45.8972Z" fill="#DFDFDF"/>
    <path d="M69.6915 74.1354C61.6295 66.7757 56.5715 56.1808 56.5715 44.4044C56.5715 22.1773 74.5902 4.15869 96.8173 4.15869C119.044 4.15869 137.063 22.1773 137.063 44.4044C137.063 56.1808 132.005 66.7757 123.943 74.1354L112.916 90.9106H79.8246L69.6915 74.1354Z" fill="#5384B2"/>
    <path fill-rule="evenodd" clip-rule="evenodd" d="M105.314 90.9106H112.916L123.943 74.1354C132.005 66.7757 137.063 56.1808 137.063 44.4044C137.063 22.1773 119.045 4.15869 96.8174 4.15869C95.4591 4.15869 94.1166 4.22598 92.7928 4.35741C113.13 6.37664 129.014 23.5356 129.014 44.4044C129.014 56.1808 123.956 66.7757 115.894 74.1354L105.314 90.9106Z" fill="#26649D"/>
    <path d="M101.641 90.91H96.9065V70.8387L103.288 62.968H96.9065V53.4207H85.3569L96.9065 39.1686V29.0645H101.641V40.8355L95.2692 48.7061H101.641V58.2535H113.19L101.641 72.5055V90.91Z" fill="#26649D"/>
    <path d="M98.7916 90.9102H94.0574V68.9398L100.439 61.0691H94.0574V51.5217H82.5078L94.0574 37.2697V27.1655H98.7916V38.9366L92.4201 46.8072H98.7916V56.3546H110.341L98.7916 70.6066V90.9102Z" fill="#79A0C3"/>
    <path d="M88.7682 114.164H104.866L102.543 122.684C102.331 123.462 101.624 124.002 100.817 124.002H92.8174C92.0108 124.002 91.304 123.462 91.0918 122.684L88.7682 114.164Z" fill="#C9C9C9"/>
    <path fill-rule="evenodd" clip-rule="evenodd" d="M90.2653 119.655L91.0914 122.684C91.3036 123.462 92.0104 124.002 92.817 124.002H100.817C101.623 124.002 102.33 123.462 102.543 122.684L104.866 114.164H103.24L101.648 120.001C101.436 120.78 100.729 121.319 99.9223 121.319H93.2887C92.0386 121.319 90.9082 120.671 90.2653 119.655Z" fill="#B0B0B0"/>
    <path d="M79.8248 90.9121H112.916V100.75C112.916 101.738 112.115 102.539 111.127 102.539H81.6135C80.6257 102.539 79.8248 101.738 79.8248 100.75V90.9121Z" fill="#C9C9C9"/>
    <path fill-rule="evenodd" clip-rule="evenodd" d="M79.8248 90.9121H79.8248V100.75C79.8248 101.738 80.6257 102.539 81.6135 102.539H111.127C112.115 102.539 112.916 101.738 112.916 100.75V90.9121H110.158V98.0677C110.158 99.0556 109.357 99.8564 108.37 99.8564H83.4022C81.4265 99.8564 79.8248 98.2548 79.8248 96.279V90.9121Z" fill="#B0B0B0"/>
    <path d="M84.2963 102.539H109.338V112.376C109.338 113.364 108.537 114.165 107.549 114.165H86.085C85.0971 114.165 84.2963 113.364 84.2963 112.376V102.539Z" fill="#C9C9C9"/>
    <path fill-rule="evenodd" clip-rule="evenodd" d="M84.2963 104.319C84.2963 104.322 84.2963 104.325 84.2963 104.327V112.376C84.2963 113.364 85.0971 114.165 86.085 114.165H107.549C108.537 114.165 109.338 113.364 109.338 112.376V102.539H106.655V109.693C106.655 110.681 105.854 111.482 104.866 111.482H87.8737C85.8979 111.482 84.2963 109.88 84.2963 107.904V104.319Z" fill="#B0B0B0"/>
    <path fill-rule="evenodd" clip-rule="evenodd" d="M75.7872 16.1079C77.6506 18.8214 80.339 20.0739 85.5616 21.5745C85.9423 21.6837 86.2041 22.0315 86.2041 22.4273C86.2041 22.8231 85.9423 23.171 85.5616 23.2802C77.0587 25.7242 75.2731 27.5097 72.829 36.0132C72.7199 36.3939 72.372 36.6557 71.9762 36.6557C71.5804 36.6557 71.2325 36.3939 71.1233 36.0132C69.7415 31.2071 68.5705 28.547 66.2783 26.7011C68.74 22.5857 71.9768 18.9874 75.7872 16.1079Z" fill="#26649D"/>
    <path d="M44.7665 16.8213C47.0046 16.1782 47.4744 15.7082 48.118 13.4699C48.1467 13.3697 48.2383 13.3008 48.3425 13.3008C48.4466 13.3008 48.5382 13.3697 48.5669 13.4699C49.2103 15.7082 49.6803 16.1782 51.9184 16.8213C52.0186 16.85 52.0875 16.9416 52.0875 17.0457C52.0875 17.1499 52.0186 17.2415 51.9184 17.2702C49.6803 17.9135 49.2103 18.3835 48.5669 20.6218C48.5382 20.722 48.4466 20.7909 48.3425 20.7909C48.2383 20.7909 48.1467 20.722 48.118 20.6218C47.4744 18.3835 47.0046 17.9135 44.7665 17.2702C44.6663 17.2415 44.5974 17.1501 44.5974 17.0457C44.5974 16.9413 44.6663 16.85 44.7665 16.8213Z" fill="#DFDFDF"/>
    <path d="M51.4013 10.8111C54.6325 9.88264 55.3107 9.20411 56.2398 5.97268C56.2813 5.828 56.4135 5.72852 56.5639 5.72852C56.7143 5.72852 56.8465 5.828 56.888 5.97268C57.8168 9.20411 58.4953 9.88264 61.7265 10.8111C61.8712 10.8525 61.9707 10.9847 61.9707 11.1352C61.9707 11.2856 61.8712 11.4178 61.7265 11.4592C58.4953 12.388 57.8168 13.0665 56.888 16.298C56.8465 16.4426 56.7143 16.5421 56.5639 16.5421C56.4135 16.5421 56.2813 16.4426 56.2398 16.298C55.3107 13.0665 54.6325 12.388 51.4013 11.4592C51.2566 11.4178 51.1571 11.2859 51.1571 11.1352C51.1571 10.9844 51.2566 10.8525 51.4013 10.8111Z" fill="#DFDFDF"/>
    <path d="M56.7433 19.8698C65.2462 17.4266 67.0309 15.6411 69.4758 7.13763C69.585 6.75691 69.9329 6.49512 70.3287 6.49512C70.7245 6.49512 71.0724 6.75691 71.1816 7.13763C73.6257 15.6411 75.4113 17.4266 83.9141 19.8698C84.2948 19.9789 84.5566 20.3268 84.5566 20.7226C84.5566 21.1184 84.2948 21.4663 83.9141 21.5754C75.4113 24.0195 73.6257 25.805 71.1816 34.3085C71.0724 34.6892 70.7245 34.951 70.3287 34.951C69.9329 34.951 69.585 34.6892 69.4758 34.3085C67.0309 25.805 65.2462 24.0195 56.7433 21.5754C56.3626 21.4663 56.1008 21.1193 56.1008 20.7226C56.1008 20.3259 56.3626 19.9789 56.7433 19.8698Z" fill="#CADAF0"/>
    <path d="M44.2644 15.9965C46.5026 15.3535 46.9723 14.8835 47.6159 12.6452C47.6446 12.545 47.7362 12.4761 47.8404 12.4761C47.9446 12.4761 48.0361 12.545 48.0649 12.6452C48.7082 14.8835 49.1782 15.3535 51.4163 15.9965C51.5165 16.0253 51.5854 16.1168 51.5854 16.221C51.5854 16.3252 51.5165 16.4168 51.4163 16.4455C49.1782 17.0888 48.7082 17.5588 48.0649 19.7971C48.0361 19.8973 47.9446 19.9662 47.8404 19.9662C47.7362 19.9662 47.6446 19.8973 47.6159 19.7971C46.9723 17.5588 46.5026 17.0888 44.2644 16.4455C44.1642 16.4168 44.0953 16.3254 44.0953 16.221C44.0953 16.1166 44.1642 16.0253 44.2644 15.9965Z" fill="#9189FE"/>
    <path d="M50.5775 10.3701C53.8087 9.44172 54.4869 8.7632 55.4161 5.53176C55.4576 5.38708 55.5898 5.2876 55.7402 5.2876C55.8906 5.2876 56.0228 5.38708 56.0643 5.53176C56.9931 8.7632 57.6716 9.44172 60.9028 10.3701C61.0475 10.4116 61.147 10.5438 61.147 10.6942C61.147 10.8446 61.0475 10.9768 60.9028 11.0183C57.6716 11.9471 56.9931 12.6256 56.0643 15.857C56.0228 16.0017 55.8906 16.1012 55.7402 16.1012C55.5898 16.1012 55.4576 16.0017 55.4161 15.857C54.4869 12.6256 53.8087 11.9471 50.5775 11.0183C50.4329 10.9768 50.3334 10.845 50.3334 10.6942C50.3334 10.5435 50.4329 10.4116 50.5775 10.3701Z" fill="#FF8D64"/>
</svg>
