<svg width="14" height="14" viewBox="0 0 14 14" fill="none" xmlns="http://www.w3.org/2000/svg">
<g clip-path="url(#clip0_1537_37396)">
<path fill-rule="evenodd" clip-rule="evenodd" d="M1.74967 7.00004C1.74967 4.10055 4.10018 1.75004 6.99967 1.75004C9.89917 1.75004 12.2497 4.10055 12.2497 7.00004C12.2497 9.89954 9.89917 12.25 6.99967 12.25C4.10018 12.25 1.74967 9.89954 1.74967 7.00004ZM6.99967 0.583374C3.45585 0.583374 0.583008 3.45621 0.583008 7.00004C0.583008 10.5439 3.45585 13.4167 6.99967 13.4167C10.5435 13.4167 13.4163 10.5439 13.4163 7.00004C13.4163 3.45621 10.5435 0.583374 6.99967 0.583374ZM7.58301 3.50004C7.58301 3.17787 7.32184 2.91671 6.99967 2.91671C6.67751 2.91671 6.41634 3.17787 6.41634 3.50004V7.00004C6.41634 7.22099 6.54118 7.42298 6.7388 7.52179L9.07213 8.68846C9.36029 8.83253 9.71068 8.71574 9.85476 8.42758C9.99883 8.13943 9.88204 7.78904 9.59388 7.64496L7.58301 6.63952V3.50004Z" fill="#5B4FFF"/>
</g>
<defs>
<clipPath id="clip0_1537_37396">
<rect width="14" height="14" fill="white"/>
</clipPath>
</defs>
</svg>
