<svg width="90" height="63" viewBox="0 0 90 63" fill="none" xmlns="http://www.w3.org/2000/svg">
	<path d="M74.063 56.1713C74.7099 56.6888 75.6538 56.5839 76.1713 55.937C76.6888 55.2901 76.5839 54.3462 75.937 53.8287L74.063 56.1713ZM15.937 5.8287C15.2901 5.31118 14.3462 5.41606 13.8287 6.06296C13.3112 6.70985 13.4161 7.65379 14.063 8.1713L15.937 5.8287ZM75.937 53.8287L15.937 5.8287L14.063 8.1713L74.063 56.1713L75.937 53.8287Z" fill="#E6E6E6"/>
	<path d="M22.0541 57.1642C22.6971 57.6866 23.6418 57.5888 24.1642 56.9459C24.6866 56.3029 24.5888 55.3582 23.9459 54.8358L22.0541 57.1642ZM7.94589 41.8358C7.30294 41.3134 6.35823 41.4112 5.83583 42.0541C5.31343 42.6971 5.41116 43.6418 6.05411 44.1642L7.94589 41.8358ZM23.9459 54.8358L7.94589 41.8358L6.05411 44.1642L22.0541 57.1642L23.9459 54.8358Z" fill="#E6E6E6"/>
	<path d="M83.0541 20.1642C83.6971 20.6866 84.6418 20.5888 85.1642 19.9459C85.6866 19.3029 85.5888 18.3582 84.9459 17.8358L83.0541 20.1642ZM68.9459 4.83583C68.3029 4.31343 67.3582 4.41116 66.8358 5.05411C66.3134 5.69706 66.4112 6.64177 67.0541 7.16417L68.9459 4.83583ZM84.9459 17.8358L68.9459 4.83583L67.0541 7.16417L83.0541 20.1642L84.9459 17.8358Z" fill="#E6E6E6"/>
	<path d="M43.5566 37.8059H47.9191V56.5647C47.9191 57.7694 46.9426 58.7459 45.7379 58.7459C44.5332 58.7459 43.5566 57.7694 43.5566 56.5647V37.8059Z" fill="#CACACD"/>
	<path d="M31.5 44.7778C31.5 46.2266 34.0193 48.5873 35.2739 49.3072L38 50.5001L36.9345 18.963L37.0138 19.047L55.8 6.50006L51.2937 3.76228C50.4591 3.28041 49.1059 3.28041 48.2713 3.76228L35.483 11.1874C33.0174 12.619 31.5 15.2547 31.5 18.1058V44.7778Z" fill="#26649D"/>
	<rect width="23.5575" height="36.6451" rx="5" transform="matrix(0.866025 -0.5 2.20305e-08 1 36.5771 15.9934)" fill="#BDD0E1"/>
	<circle r="5.67126" transform="matrix(0.866025 -0.5 2.20305e-08 1 46.7777 21.0102)" fill="#F32A4C"/>
	<circle opacity="0.2" r="5.67126" transform="matrix(0.866025 -0.5 2.20305e-08 1 46.7777 35.8427)" fill="#323334"/>
	<path fill-rule="evenodd" clip-rule="evenodd" d="M52.1076 18.8031C51.1775 17.7831 49.5871 17.6448 47.7814 18.631C44.9142 20.1971 42.5898 24.0058 42.5898 27.1379L42.59 27.184C42.0431 26.5844 41.7245 25.6801 41.7245 24.5204C41.7245 21.3883 44.0489 17.5796 46.9162 16.0135C49.7693 14.4552 52.0849 15.7046 52.1076 18.8031Z" fill="#BDD0E1"/>
	<path fill-rule="evenodd" clip-rule="evenodd" d="M52.1076 33.6356C51.1775 32.6157 49.5871 32.4773 47.7814 33.4636C44.9142 35.0296 42.5898 38.8383 42.5898 41.9705L42.59 42.0165C42.0431 41.4169 41.7245 40.5126 41.7245 39.353C41.7245 36.2208 44.0489 32.4121 46.9162 30.8461C49.7693 29.2877 52.0849 30.5371 52.1076 33.6356Z" fill="#BDD0E1"/>
	<path fill-rule="evenodd" clip-rule="evenodd" d="M51.6343 17.7088C50.7466 16.6887 49.2286 16.5503 47.5052 17.5366C44.7686 19.1027 42.5502 22.9113 42.5502 26.0435L42.5504 26.0894C42.0286 25.4897 41.7246 24.5855 41.7246 23.426C41.7246 20.2938 43.943 16.4852 46.6795 14.9191C49.4026 13.3607 51.6127 14.6102 51.6343 17.7088Z" fill="#26649D"/>
	<path fill-rule="evenodd" clip-rule="evenodd" d="M51.6343 32.8905C50.7544 31.8703 49.2497 31.7319 47.5414 32.7182C44.8289 34.2843 42.6299 38.093 42.6299 41.2251L42.6301 41.271C42.1129 40.6714 41.8115 39.7671 41.8115 38.6076C41.8115 35.4755 44.0105 31.6668 46.723 30.1007C49.4222 28.5423 51.6129 29.7918 51.6343 32.8905Z" fill="#26649D"/>
</svg>
