<?xml version="1.0" encoding="utf-8"?>
<!-- Generator: Adobe Illustrator 26.0.1, SVG Export Plug-In . SVG Version: 6.00 Build 0)  -->
<svg version="1.1" id="Layer_1" xmlns="http://www.w3.org/2000/svg" x="0px" y="0px"
	 viewBox="0 0 321 215" style="enable-background:new 0 0 321 215;" xml:space="preserve">
<g>
	<rect style="fill:#FBFCFD;" width="320.3" height="70.5"/>
	<path style="fill:#E6E6E6;" d="M13.5,11.5h292.1c1.8,0,3.2,1.4,3.2,3.2l0,0c0,1.8-1.4,3.2-3.2,3.2H13.5c-1.8,0-3.2-1.4-3.2-3.2l0,0
		C10.3,13,11.7,11.5,13.5,11.5z"/>
	<path style="fill:#E6E6E6;" d="M13.5,24.3h292.1c1.8,0,3.2,1.4,3.2,3.2l0,0c0,1.8-1.4,3.2-3.2,3.2H13.5c-1.8,0-3.2-1.4-3.2-3.2l0,0
		C10.3,25.8,11.7,24.3,13.5,24.3z"/>
	<path style="fill:#E6E6E6;" d="M13.5,37.2h292.1c1.8,0,3.2,1.4,3.2,3.2l0,0c0,1.8-1.4,3.2-3.2,3.2H13.5c-1.8,0-3.2-1.4-3.2-3.2l0,0
		C10.3,38.6,11.7,37.2,13.5,37.2z"/>
	<path style="fill:#E6E6E6;" d="M13.5,50h292.1c1.8,0,3.2,1.4,3.2,3.2l0,0c0,1.8-1.4,3.2-3.2,3.2H13.5c-1.8,0-3.2-1.4-3.2-3.2l0,0
		C10.3,51.4,11.7,50,13.5,50z"/>
	<rect y="76.9" style="fill:#FFFFFF;" width="157.6" height="116.6"/>
	<rect x="164" y="76.9" style="fill:#F5F8FB;" width="156.3" height="116.6"/>
	<g>
		<rect x="47.7" y="123.9" style="fill:#F8F8F8;" width="92.2" height="90.9"/>
	</g>
	<rect x="47.7" y="159.7" style="fill:#26659E;" width="92.2" height="19.2"/>
	<path style="fill:#FFFFFF;" d="M56.2,172.2c-0.4,0-1-0.1-1.7-0.3V171c0.7,0.3,1.4,0.5,1.8,0.5c0.4,0,0.7-0.1,0.9-0.3
		s0.3-0.4,0.3-0.8c0-0.3-0.1-0.5-0.2-0.7c-0.1-0.2-0.4-0.4-0.8-0.6l-0.5-0.3c-0.6-0.3-1-0.6-1.2-0.9c-0.2-0.3-0.3-0.6-0.3-1
		c0-0.5,0.2-0.9,0.6-1.3c0.4-0.3,0.8-0.5,1.4-0.5c0.5,0,1,0.1,1.6,0.3v0.9c-0.7-0.3-1.2-0.4-1.6-0.4c-0.3,0-0.6,0.1-0.8,0.3
		s-0.3,0.4-0.3,0.6c0,0.2,0.1,0.4,0.2,0.6c0.2,0.2,0.4,0.4,0.8,0.6l0.5,0.3c0.6,0.3,1,0.6,1.2,0.9s0.3,0.6,0.3,1
		c0,0.6-0.2,1-0.6,1.4C57.5,172,56.9,172.2,56.2,172.2z M63.4,171.9c-0.6,0.2-1.1,0.3-1.5,0.3c-0.7,0-1.3-0.2-1.7-0.7
		s-0.7-1.1-0.7-1.8s0.2-1.3,0.6-1.8c0.4-0.5,0.9-0.7,1.5-0.7s1,0.2,1.4,0.6c0.3,0.4,0.5,1,0.5,1.8v0.3h-3.1c0.1,1.1,0.7,1.7,1.7,1.7
		c0.4,0,0.8-0.1,1.3-0.3V171.9z M60.4,169.1h2.1c0-0.9-0.3-1.4-1-1.4C60.9,167.7,60.5,168.2,60.4,169.1z M65,172v-4.8h0.9v0.9
		c0.5-0.7,1-1,1.7-1c0.4,0,0.8,0.1,1,0.4c0.2,0.3,0.4,0.6,0.4,1.1v3.5h-0.9v-3.2c0-0.4-0.1-0.6-0.2-0.8s-0.3-0.2-0.5-0.2
		c-0.5,0-1,0.4-1.5,1.1v3.1H65V172z M73.7,172v-0.9c-0.4,0.7-0.9,1-1.6,1c-0.6,0-1-0.2-1.4-0.6c-0.3-0.4-0.5-1-0.5-1.7
		c0-0.8,0.2-1.5,0.6-1.9c0.4-0.5,0.9-0.7,1.5-0.7s1,0.2,1.4,0.7V165h0.9v7H73.7z M73.7,168.4c-0.5-0.4-0.9-0.6-1.3-0.6
		c-0.8,0-1.3,0.6-1.3,1.9c0,1.1,0.4,1.7,1.1,1.7c0.5,0,1-0.3,1.4-0.8v-2.2L73.7,168.4L73.7,168.4z M80.7,172.1c-0.4,0-0.8-0.1-1-0.4
		c-0.2-0.3-0.4-0.6-0.4-1.1v-2.8h-0.6v-0.7h0.6v-0.9l0.9-0.1v1h1.3v0.7h-1.3v2.7c0,0.6,0.3,0.9,0.8,0.9c0.1,0,0.3,0,0.4-0.1v0.6
		C81.2,172.1,80.9,172.1,80.7,172.1z M84.6,172.1c-0.7,0-1.2-0.2-1.7-0.7c-0.4-0.5-0.6-1.1-0.6-1.8c0-0.8,0.2-1.4,0.6-1.8
		c0.4-0.5,1-0.7,1.7-0.7s1.3,0.2,1.7,0.7c0.4,0.5,0.6,1.1,0.6,1.8c0,0.8-0.2,1.4-0.6,1.9C85.9,171.9,85.3,172.1,84.6,172.1z
		 M84.6,171.5c0.9,0,1.4-0.6,1.4-1.9c0-1.2-0.5-1.9-1.4-1.9s-1.4,0.6-1.4,1.9S83.7,171.5,84.6,171.5z M91.1,172v-6.6h1v6.6H91.1z
		 M93.8,172v-4.8h0.9v0.9c0.5-0.7,1-1,1.7-1c0.4,0,0.8,0.1,1,0.4c0.2,0.3,0.4,0.6,0.4,1.1v3.5h-0.9v-3.2c0-0.4-0.1-0.6-0.2-0.8
		s-0.3-0.2-0.5-0.2c-0.5,0-1,0.4-1.5,1.1v3.1h-0.9V172z M100.9,172.1c-0.4,0-0.8-0.1-1-0.4c-0.2-0.3-0.4-0.6-0.4-1.1v-2.8h-0.6v-0.7
		h0.6v-0.9l0.9-0.1v1h1.3v0.7h-1.3v2.7c0,0.6,0.3,0.9,0.8,0.9c0.1,0,0.3,0,0.4-0.1v0.6C101.3,172.1,101.1,172.1,100.9,172.1z
		 M102.9,172v-4.8h0.9v0.9c0.3-0.7,0.9-1,1.5-1c0.1,0,0.2,0,0.3,0v0.8c-0.2-0.1-0.3-0.1-0.4-0.1c-0.6,0-1,0.3-1.4,1v3.2L102.9,172
		L102.9,172z M109.6,172v-0.9c-0.5,0.7-1,1-1.7,1c-0.4,0-0.8-0.1-1-0.4c-0.2-0.3-0.4-0.6-0.4-1.1v-3.5h0.9v3.2
		c0,0.4,0.1,0.6,0.2,0.8s0.3,0.2,0.5,0.2c0.5,0,1-0.4,1.5-1.1v-3.1h0.9v4.8h-0.9V172z M115.4,172v-0.9c-0.4,0.7-0.9,1-1.6,1
		c-0.6,0-1-0.2-1.4-0.6c-0.3-0.4-0.5-1-0.5-1.7c0-0.8,0.2-1.5,0.6-1.9c0.4-0.5,0.9-0.7,1.5-0.7s1,0.2,1.4,0.7V165h0.9v7H115.4z
		 M115.4,168.4c-0.5-0.4-0.9-0.6-1.3-0.6c-0.8,0-1.3,0.6-1.3,1.9c0,1.1,0.4,1.7,1.1,1.7c0.5,0,1-0.3,1.4-0.8v-2.2L115.4,168.4
		L115.4,168.4z M121.6,171.9c-0.6,0.2-1.1,0.3-1.5,0.3c-0.7,0-1.3-0.2-1.7-0.7c-0.4-0.5-0.7-1.1-0.7-1.8s0.2-1.3,0.6-1.8
		s0.9-0.7,1.5-0.7s1,0.2,1.4,0.6c0.3,0.4,0.5,1,0.5,1.8v0.3h-3.1c0.1,1.1,0.7,1.7,1.7,1.7c0.4,0,0.8-0.1,1.3-0.3
		C121.6,171.3,121.6,171.9,121.6,171.9z M118.6,169.1h2.1c0-0.9-0.3-1.4-1-1.4C119,167.7,118.7,168.2,118.6,169.1z M123.1,172v-4.8
		h0.9v0.9c0.3-0.7,0.9-1,1.5-1c0.1,0,0.2,0,0.3,0v0.8c-0.2-0.1-0.3-0.1-0.4-0.1c-0.6,0-1,0.3-1.4,1v3.2L123.1,172L123.1,172z"/>
	<path style="fill:#D5D5D5;" d="M58.6,131.8h70.6c1.6,0,2.9,1.3,2.9,2.9l0,0c0,1.6-1.3,2.9-2.9,2.9H58.6c-1.6,0-2.9-1.3-2.9-2.9l0,0
		C55.7,133.1,57,131.8,58.6,131.8z"/>
	<path style="fill:#D5D5D5;" d="M58.6,141.2H121c1.6,0,2.9,1.3,2.9,2.9l0,0c0,1.6-1.3,2.9-2.9,2.9H58.6c-1.6,0-2.9-1.3-2.9-2.9l0,0
		C55.7,142.5,57,141.2,58.6,141.2z"/>
	<path style="fill:#D5D5D5;" d="M58.6,150.6h48.3c1.6,0,2.9,1.3,2.9,2.9l0,0c0,1.6-1.3,2.9-2.9,2.9H58.6c-1.6,0-2.9-1.3-2.9-2.9l0,0
		C55.7,151.9,57,150.6,58.6,150.6z"/>
	<path style="fill:#D5D5D5;" d="M58.6,183h50c1.6,0,2.9,1.3,2.9,2.9l0,0c0,1.6-1.3,2.9-2.9,2.9h-50c-1.6,0-2.9-1.3-2.9-2.9l0,0
		C55.7,184.3,57,183,58.6,183z"/>
	<path style="fill:#D5D5D5;" d="M58.6,192.4H121c1.6,0,2.9,1.3,2.9,2.9l0,0c0,1.6-1.3,2.9-2.9,2.9H58.6c-1.6,0-2.9-1.3-2.9-2.9l0,0
		C55.7,193.7,57,192.4,58.6,192.4z"/>
	<path style="fill:#D5D5D5;" d="M58.6,201.8h48.3c1.6,0,2.9,1.3,2.9,2.9l0,0c0,1.6-1.3,2.9-2.9,2.9H58.6c-1.6,0-2.9-1.3-2.9-2.9l0,0
		C55.7,203.1,57,201.8,58.6,201.8z"/>
	<path style="fill:#161616;" d="M51.1,111.1v-6.6h2c0.6,0,1.1,0.1,1.5,0.4c0.3,0.3,0.5,0.7,0.5,1.2c0,0.9-0.4,1.5-1.3,1.9l2.2,3.1
		h-1.1l-1.9-2.8h-0.9v2.8H51.1z M52,107.7h0.3c1.2,0,1.8-0.5,1.8-1.4c0-0.7-0.5-1-1.5-1H52V107.7z M56.9,111.1v-4.8h0.9v4.8H56.9z
		 M56.9,105.4v-0.9h0.9v0.9H56.9z M59.5,112.7l0.1-0.8c0.5,0.2,1,0.4,1.5,0.4c1,0,1.5-0.5,1.5-1.6V110c-0.3,0.7-0.9,1-1.6,1
		c-0.6,0-1-0.2-1.4-0.6c-0.3-0.4-0.5-1-0.5-1.7s0.2-1.3,0.6-1.8c0.4-0.5,0.9-0.7,1.5-0.7c0.5,0,1,0.2,1.4,0.7v-0.6h0.9v3.5
		c0,0.8,0,1.3-0.1,1.7c-0.1,0.4-0.2,0.7-0.4,0.9c-0.4,0.4-1,0.6-1.8,0.6C60.6,113,60.1,112.9,59.5,112.7z M62.6,109.5v-2
		c-0.4-0.4-0.8-0.6-1.3-0.6c-0.4,0-0.7,0.2-0.9,0.5s-0.3,0.8-0.3,1.3c0,1.1,0.4,1.6,1.1,1.6C61.7,110.3,62.2,110,62.6,109.5z
		 M65.2,111.1v-7h0.9v3.1c0.5-0.7,1-1,1.7-1c0.4,0,0.8,0.1,1,0.4s0.4,0.6,0.4,1.1v3.5h-0.9V108c0-0.4-0.1-0.6-0.2-0.8
		c-0.1-0.2-0.3-0.2-0.5-0.2c-0.5,0-1,0.4-1.5,1.1v3.1L65.2,111.1L65.2,111.1z M72.3,111.3c-0.4,0-0.8-0.1-1-0.4s-0.4-0.6-0.4-1.1
		V107h-0.6v-0.7h0.6v-0.9l0.9-0.1v1h1.3v0.7h-1.3v2.7c0,0.6,0.3,0.9,0.8,0.9c0.1,0,0.3,0,0.4-0.1v0.6
		C72.8,111.2,72.5,111.3,72.3,111.3z M74.1,108.8v-0.7h4v0.7H74.1z M81.5,111.3c-0.7,0-1.2-0.2-1.6-0.7s-0.6-1.1-0.6-1.8
		c0-0.8,0.2-1.4,0.6-1.8s1-0.7,1.8-0.7c0.4,0,0.8,0.1,1.3,0.2v0.7c-0.5-0.1-0.9-0.2-1.2-0.2c-0.4,0-0.8,0.2-1.1,0.5
		c-0.3,0.3-0.4,0.8-0.4,1.3s0.1,1,0.4,1.3s0.6,0.5,1.1,0.5c0.4,0,0.8-0.1,1.2-0.3v0.8C82.4,111.2,81.9,111.3,81.5,111.3z
		 M84.3,111.1v-7h0.8v7H84.3z M86.9,111.1v-4.8h0.9v4.8H86.9z M86.9,105.4v-0.9h0.9v0.9H86.9z M91.4,111.3c-0.7,0-1.2-0.2-1.6-0.7
		s-0.6-1.1-0.6-1.8c0-0.8,0.2-1.4,0.6-1.8s1-0.7,1.8-0.7c0.4,0,0.8,0.1,1.3,0.2v0.7c-0.5-0.1-0.9-0.2-1.2-0.2
		c-0.4,0-0.8,0.2-1.1,0.5c-0.3,0.3-0.4,0.8-0.4,1.3s0.1,1,0.4,1.3s0.6,0.5,1.1,0.5c0.4,0,0.8-0.1,1.2-0.3v0.8
		C92.3,111.2,91.8,111.3,91.4,111.3z M94.2,111.1v-7h0.9v4.5l2-2.3h1l-2,2.3l2.4,2.6h-1.1l-2.3-2.5v2.5L94.2,111.1L94.2,111.1z"/>
	<path style="opacity:0.5;fill:#2B2B2B;enable-background:new    ;" d="M6.6,90.9v-7.4h2.2c0.7,0,1.3,0.2,1.6,0.5
		c0.4,0.3,0.6,0.8,0.6,1.4c0,1-0.5,1.7-1.5,2.1L12,91h-1.3l-2.1-3.1h-1V91L6.6,90.9L6.6,90.9z M7.7,87H8c1.3,0,2-0.5,2-1.6
		c0-0.8-0.6-1.1-1.7-1.1H7.7V87z M17.1,90.7c-0.7,0.2-1.2,0.3-1.7,0.3c-0.8,0-1.5-0.3-2-0.8s-0.8-1.2-0.8-2.1c0-0.8,0.2-1.5,0.7-2
		c0.4-0.5,1-0.8,1.7-0.8s1.2,0.2,1.5,0.7c0.4,0.5,0.5,1.1,0.5,2v0.3h-3.4c0.1,1.3,0.8,1.9,1.9,1.9c0.4,0,0.9-0.1,1.5-0.3v0.8H17.1z
		 M13.8,87.6h2.4c0-1-0.4-1.5-1.1-1.5C14.3,86.1,13.9,86.6,13.8,87.6z M22.4,92.9v-3c-0.4,0.8-1,1.1-1.8,1.1c-0.7,0-1.2-0.2-1.5-0.7
		c-0.4-0.5-0.6-1.1-0.6-2s0.2-1.6,0.6-2.2s1-0.8,1.7-0.8c0.6,0,1.2,0.2,1.6,0.7v-0.6h1v7.4L22.4,92.9L22.4,92.9z M22.4,86.7
		c-0.5-0.5-1-0.7-1.5-0.7c-0.9,0-1.4,0.7-1.4,2.2c0,1.3,0.4,1.9,1.3,1.9c0.5,0,1.1-0.3,1.6-0.9V86.7z M28.7,90.9v-1
		c-0.5,0.8-1.2,1.1-1.9,1.1c-0.5,0-0.9-0.1-1.1-0.4c-0.3-0.3-0.4-0.7-0.4-1.2v-3.9h1V89c0,0.4,0.1,0.7,0.2,0.9
		c0.1,0.2,0.3,0.3,0.6,0.3c0.6,0,1.2-0.4,1.7-1.2v-3.5h1v5.4C29.8,90.9,28.7,90.9,28.7,90.9z M35.7,90.7C35,90.9,34.5,91,34,91
		c-0.8,0-1.5-0.3-2-0.8c-0.5-0.5-0.8-1.2-0.8-2.1c0-0.8,0.2-1.5,0.7-2c0.4-0.5,1-0.8,1.7-0.8s1.2,0.2,1.5,0.7c0.4,0.5,0.5,1.1,0.5,2
		v0.3h-3.4c0.1,1.3,0.8,1.9,1.9,1.9c0.4,0,0.9-0.1,1.5-0.3L35.7,90.7L35.7,90.7z M32.3,87.6h2.4c0-1-0.4-1.5-1.1-1.5
		C32.8,86.1,32.4,86.6,32.3,87.6z M38.9,91c-0.5,0-1-0.1-1.6-0.3v-0.9c0.6,0.3,1.2,0.5,1.7,0.5c0.3,0,0.5-0.1,0.7-0.2
		c0.2-0.2,0.3-0.3,0.3-0.6c0-0.3-0.3-0.6-0.8-0.8l-0.6-0.2c-0.9-0.4-1.3-0.9-1.3-1.5c0-0.5,0.2-0.8,0.5-1.1c0.3-0.3,0.8-0.4,1.4-0.4
		c0.3,0,0.7,0,1.1,0.1h0.2v0.8c-0.6-0.2-1-0.2-1.3-0.2c-0.6,0-1,0.2-1,0.7c0,0.3,0.2,0.5,0.7,0.8l0.5,0.2c0.5,0.2,0.9,0.5,1.1,0.7
		c0.2,0.3,0.3,0.6,0.3,0.9c0,0.5-0.2,0.9-0.6,1.2C39.9,90.9,39.4,91,38.9,91z M44.3,91c-0.5,0-0.9-0.1-1.2-0.4s-0.4-0.7-0.4-1.2
		v-3.2H42v-0.7h0.7v-1l1-0.1v1.1h1.4v0.7h-1.4v3c0,0.7,0.3,1.1,0.9,1.1c0.1,0,0.3,0,0.5-0.1v0.7C44.8,91,44.5,91,44.3,91z"/>
	<path style="opacity:0.5;fill:#2B2B2B;enable-background:new    ;" d="M171.7,90.9v-7.4h2.2c0.7,0,1.3,0.2,1.6,0.5
		c0.4,0.3,0.6,0.8,0.6,1.4c0,1-0.5,1.7-1.5,2.1l2.5,3.5h-1.3l-2.1-3.1h-1V91L171.7,90.9L171.7,90.9z M172.7,87h0.3
		c1.3,0,2-0.5,2-1.6c0-0.8-0.6-1.1-1.7-1.1h-0.7L172.7,87L172.7,87z M182.2,90.7c-0.7,0.2-1.2,0.3-1.7,0.3c-0.8,0-1.5-0.3-2-0.8
		s-0.8-1.2-0.8-2.1c0-0.8,0.2-1.5,0.7-2c0.4-0.5,1-0.8,1.7-0.8s1.2,0.2,1.5,0.7c0.4,0.5,0.5,1.1,0.5,2v0.3h-3.4
		c0.1,1.3,0.8,1.9,1.9,1.9c0.4,0,0.9-0.1,1.5-0.3v0.8H182.2z M178.8,87.6h2.4c0-1-0.4-1.5-1.1-1.5C179.4,86.1,178.9,86.6,178.8,87.6
		z M185.4,91c-0.5,0-1-0.1-1.6-0.3v-0.9c0.6,0.3,1.2,0.5,1.7,0.5c0.3,0,0.5-0.1,0.7-0.2c0.2-0.2,0.3-0.3,0.3-0.6
		c0-0.3-0.3-0.6-0.8-0.8l-0.6-0.2c-0.9-0.4-1.3-0.9-1.3-1.5c0-0.5,0.2-0.8,0.5-1.1c0.3-0.3,0.8-0.4,1.4-0.4c0.3,0,0.7,0,1.1,0.1h0.2
		v0.8c-0.6-0.2-1-0.2-1.3-0.2c-0.6,0-1,0.2-1,0.7c0,0.3,0.2,0.5,0.7,0.8l0.5,0.2c0.5,0.2,0.9,0.5,1.1,0.7c0.2,0.3,0.3,0.6,0.3,0.9
		c0,0.5-0.2,0.9-0.6,1.2C186.4,90.9,186,91,185.4,91z M189.2,92.9v-7.4h1v1c0.4-0.8,1-1.1,1.8-1.1c0.7,0,1.2,0.2,1.5,0.7
		c0.4,0.5,0.6,1.1,0.6,2s-0.2,1.6-0.6,2.2c-0.4,0.6-1,0.8-1.7,0.8c-0.6,0-1.2-0.2-1.6-0.7V93L189.2,92.9L189.2,92.9z M190.1,89.6
		c0.5,0.5,1,0.7,1.5,0.7c0.9,0,1.4-0.7,1.4-2.2c0-1.3-0.4-1.9-1.3-1.9c-0.6,0-1.1,0.3-1.6,0.9L190.1,89.6L190.1,89.6z M197.7,91
		c-0.8,0-1.4-0.3-1.9-0.8s-0.7-1.2-0.7-2.1s0.2-1.6,0.7-2.1s1.1-0.8,1.9-0.8c0.8,0,1.4,0.3,1.9,0.8s0.7,1.2,0.7,2.1
		s-0.2,1.6-0.7,2.1C199.2,90.8,198.6,91,197.7,91z M197.8,90.3c1,0,1.6-0.7,1.6-2.1s-0.5-2.1-1.5-2.1s-1.5,0.7-1.5,2.1
		C196.2,89.6,196.7,90.3,197.8,90.3z M201.9,90.9v-5.4h1v1c0.5-0.8,1.2-1.1,1.9-1.1c0.5,0,0.8,0.2,1.1,0.5s0.4,0.7,0.4,1.2V91h-1
		v-3.6c0-0.4-0.1-0.7-0.2-0.9c-0.1-0.2-0.3-0.3-0.6-0.3c-0.6,0-1.2,0.4-1.7,1.2v3.5C202.8,90.9,201.9,90.9,201.9,90.9z M209.7,91
		c-0.5,0-1-0.1-1.6-0.3v-0.9c0.6,0.3,1.2,0.5,1.7,0.5c0.3,0,0.5-0.1,0.7-0.2c0.2-0.2,0.3-0.3,0.3-0.6c0-0.3-0.3-0.6-0.8-0.8
		l-0.6-0.2c-0.9-0.4-1.3-0.9-1.3-1.5c0-0.5,0.2-0.8,0.5-1.1c0.3-0.3,0.8-0.4,1.4-0.4c0.3,0,0.7,0,1.1,0.1h0.2v0.8
		c-0.6-0.2-1-0.2-1.3-0.2c-0.6,0-1,0.2-1,0.7c0,0.3,0.2,0.5,0.7,0.8l0.5,0.2c0.5,0.2,0.9,0.5,1.1,0.7c0.2,0.3,0.3,0.6,0.3,0.9
		c0,0.5-0.2,0.9-0.6,1.2C210.8,90.9,210.3,91,209.7,91z M217.5,90.7c-0.7,0.2-1.2,0.3-1.7,0.3c-0.8,0-1.5-0.3-2-0.8S213,89,213,88.1
		c0-0.8,0.2-1.5,0.7-2c0.4-0.5,1-0.8,1.7-0.8s1.2,0.2,1.5,0.7c0.4,0.5,0.5,1.1,0.5,2v0.3h-3.3c0.1,1.3,0.8,1.9,1.9,1.9
		c0.4,0,0.9-0.1,1.5-0.3V90.7z M214.1,87.6h2.4c0-1-0.4-1.5-1.1-1.5C214.6,86.1,214.2,86.6,214.1,87.6z"/>
	<path style="fill:#2B2B2B;" d="M32.9,102.1l4.2,10l1.5-4.3l4.4-1.5L32.9,102.1z"/>
	<path style="fill:none;stroke:#2B2B2B;stroke-width:1.1785;stroke-linecap:round;stroke-linejoin:round;" d="M38.8,108l3.5,3.5"/>
	<path style="fill:#CACACD;" d="M146.6,170.3l2.8,1.9l0.2-3.4L146.6,170.3z M111.4,108.1c0.2,0,0.4,0,0.6,0v-0.6c-0.2,0-0.4,0-0.6,0
		V108.1z M113.2,108.2c0.4,0,0.8,0,1.2,0v-0.6c-0.4,0-0.8,0-1.2,0V108.2z M115.6,108.2c0.4,0,0.8,0,1.2,0v-0.6c-0.4,0-0.8,0-1.2,0
		V108.2z M118,108.2c0.4,0,0.8,0,1.2,0v-0.6c-0.4,0-0.8,0-1.2,0V108.2z M120.4,108.2c0.4,0,0.8,0,1.2,0v-0.6c-0.4,0-0.8,0-1.2,0
		V108.2z M122.8,108.3c0.4,0,0.8,0,1.2,0v-0.6c-0.4,0-0.8,0-1.2,0V108.3z M125.1,108.3c0.4,0,0.8,0,1.2,0v-0.6c-0.4,0-0.8,0-1.2,0
		V108.3z M127.5,108.4c0.4,0,0.8,0,1.2,0v-0.6c-0.4,0-0.8,0-1.2,0V108.4z M129.9,108.5c0.4,0,0.8,0,1.2,0.1V108
		c-0.4,0-0.8,0-1.2-0.1V108.5z M132.3,108.7c0.4,0,0.8,0,1.2,0.1v-0.6c-0.4,0-0.8,0-1.2-0.1V108.7z M134.7,108.8
		c0.4,0,0.8,0.1,1.2,0.1v-0.6c-0.4,0-0.8-0.1-1.2-0.1V108.8z M137,109c0.4,0,0.8,0.1,1.2,0.1v-0.6c-0.4,0-0.8-0.1-1.2-0.1V109z
		 M139.4,109.2c0.4,0,0.8,0.1,1.2,0.1l0.1-0.6c-0.4,0-0.8-0.1-1.2-0.1L139.4,109.2z M141.8,109.4c0.4,0,0.8,0.1,1.2,0.1l0.1-0.6
		c-0.4,0-0.8-0.1-1.2-0.1L141.8,109.4z M144.1,109.6c0.4,0,0.8,0.1,1.2,0.1l0.1-0.6c-0.4,0-0.8-0.1-1.2-0.1L144.1,109.6z
		 M146.5,109.9c0.4,0.1,0.8,0.1,1.2,0.2l0.1-0.6c-0.4-0.1-0.8-0.1-1.2-0.2L146.5,109.9z M148.9,110.2c0.4,0.1,0.8,0.1,1.2,0.2
		l0.1-0.6c-0.4-0.1-0.8-0.1-1.2-0.2L148.9,110.2z M151.2,110.6c0.4,0.1,0.8,0.1,1.2,0.2l0.1-0.6c-0.4-0.1-0.8-0.1-1.2-0.2
		L151.2,110.6z M153.6,111c0.4,0.1,0.8,0.1,1.2,0.2l0.1-0.6c-0.4-0.1-0.8-0.2-1.2-0.2L153.6,111z M155.9,111.5
		c0.4,0.1,0.8,0.2,1.2,0.3l0.1-0.6c-0.4-0.1-0.8-0.2-1.2-0.3L155.9,111.5z M158.2,112c0.4,0.1,0.8,0.2,1.2,0.3l0.1-0.6
		c-0.4-0.1-0.8-0.2-1.2-0.3L158.2,112z M160.5,112.6c0.4,0.1,0.8,0.2,1.1,0.3l0.2-0.6c-0.4-0.1-0.8-0.2-1.1-0.3L160.5,112.6z
		 M162.8,113.2c0.4,0.1,0.8,0.2,1.1,0.4l0.2-0.6c-0.4-0.1-0.8-0.2-1.1-0.4L162.8,113.2z M165.1,113.9c0.4,0.1,0.7,0.3,1.1,0.4
		l0.2-0.6c-0.4-0.1-0.7-0.3-1.1-0.4L165.1,113.9z M167.3,114.8c0.4,0.1,0.7,0.3,1.1,0.5l0.2-0.5c-0.4-0.2-0.7-0.3-1.1-0.5
		L167.3,114.8z M169.5,115.7c0.4,0.2,0.7,0.3,1.1,0.5l0.3-0.5c-0.4-0.2-0.7-0.3-1.1-0.5L169.5,115.7z M171.6,116.8
		c0.4,0.2,0.7,0.4,1,0.6l0.3-0.5c-0.3-0.2-0.7-0.4-1.1-0.6L171.6,116.8z M173.6,117.9c0.3,0.2,0.7,0.4,1,0.6l0.3-0.5
		c-0.3-0.2-0.7-0.4-1-0.7L173.6,117.9z M175.6,119.3c0.3,0.2,0.6,0.5,0.9,0.7l0.4-0.5c-0.3-0.2-0.6-0.5-1-0.7L175.6,119.3z
		 M177.4,120.7c0.3,0.3,0.6,0.5,0.9,0.8l0.4-0.4c-0.3-0.3-0.6-0.5-0.9-0.8L177.4,120.7z M179.1,122.3c0.3,0.3,0.5,0.6,0.8,0.9
		l0.4-0.4c-0.3-0.3-0.5-0.6-0.8-0.9L179.1,122.3z M180.7,124.1c0.2,0.3,0.5,0.6,0.7,0.9l0.5-0.3c-0.2-0.3-0.5-0.7-0.7-1L180.7,124.1
		z M182,126.1c0.2,0.3,0.4,0.7,0.6,1l0.5-0.3c-0.2-0.4-0.4-0.7-0.6-1L182,126.1z M183.1,128.1c0.2,0.4,0.3,0.7,0.5,1.1l0.5-0.2
		c-0.2-0.4-0.3-0.7-0.5-1.1L183.1,128.1z M184.1,130.3c0.1,0.4,0.3,0.7,0.4,1.1l0.6-0.2c-0.1-0.4-0.2-0.8-0.4-1.1L184.1,130.3z
		 M184.7,132.6c0.1,0.4,0.2,0.8,0.3,1.2l0.6-0.1c-0.1-0.4-0.2-0.8-0.3-1.2L184.7,132.6z M185.2,134.9c0.1,0.4,0.1,0.8,0.2,1.2
		l0.6-0.1c0-0.4-0.1-0.8-0.2-1.2L185.2,134.9z M185.5,137.2c0,0.4,0.1,0.8,0.1,1.2h0.6c0-0.4,0-0.8-0.1-1.2H185.5z M185.6,139.6
		c0,0.2,0,0.4,0,0.6h0.6c0-0.2,0-0.4,0-0.6H185.6z M185.6,140.2c0,0.2,0,0.4,0,0.6h0.6c0-0.2,0-0.4,0-0.6H185.6z M185.6,142
		c0,0.4,0,0.8-0.1,1.2h0.6c0-0.4,0-0.8,0.1-1.2H185.6z M185.4,144.3c0,0.4-0.1,0.8-0.1,1.2l0.6,0.1c0.1-0.4,0.1-0.8,0.1-1.2
		L185.4,144.3z M185.1,146.6c-0.1,0.4-0.1,0.8-0.2,1.1l0.6,0.1c0.1-0.4,0.2-0.8,0.2-1.2L185.1,146.6z M184.6,148.9
		c-0.1,0.4-0.2,0.8-0.3,1.1l0.6,0.2c0.1-0.4,0.2-0.8,0.3-1.2L184.6,148.9z M184,151.2c-0.1,0.4-0.3,0.7-0.4,1.1l0.6,0.2
		c0.1-0.4,0.3-0.7,0.4-1.1L184,151.2z M183.2,153.3c-0.2,0.4-0.3,0.7-0.5,1.1l0.5,0.3c0.2-0.4,0.3-0.7,0.5-1.1L183.2,153.3z
		 M182.1,155.4c-0.2,0.3-0.4,0.7-0.6,1l0.5,0.3c0.2-0.3,0.4-0.7,0.6-1L182.1,155.4z M180.9,157.4c-0.2,0.3-0.4,0.6-0.7,0.9l0.5,0.4
		c0.2-0.3,0.5-0.6,0.7-1L180.9,157.4z M179.5,159.3c-0.3,0.3-0.5,0.6-0.8,0.9l0.4,0.4c0.3-0.3,0.5-0.6,0.8-0.9L179.5,159.3z
		 M177.9,161c-0.3,0.3-0.6,0.5-0.9,0.8l0.4,0.4c0.3-0.3,0.6-0.5,0.9-0.8L177.9,161z M176.2,162.6c-0.3,0.2-0.6,0.5-0.9,0.7l0.4,0.5
		c0.3-0.2,0.6-0.5,0.9-0.7L176.2,162.6z M174.3,164c-0.3,0.2-0.7,0.4-1,0.6l0.3,0.5c0.3-0.2,0.7-0.4,1-0.6L174.3,164z M172.3,165.2
		c-0.3,0.2-0.7,0.4-1,0.6l0.3,0.5c0.4-0.2,0.7-0.4,1.1-0.6L172.3,165.2z M170.2,166.2c-0.4,0.2-0.7,0.3-1.1,0.5l0.2,0.5
		c0.4-0.2,0.7-0.3,1.1-0.5L170.2,166.2z M168,167.2c-0.4,0.1-0.7,0.3-1.1,0.4l0.2,0.6c0.4-0.1,0.7-0.3,1.1-0.4L168,167.2z
		 M165.8,167.9c-0.4,0.1-0.8,0.2-1.1,0.3l0.2,0.6c0.4-0.1,0.8-0.2,1.1-0.3L165.8,167.9z M163.6,168.6c-0.4,0.1-0.8,0.2-1.1,0.3
		l0.1,0.6c0.4-0.1,0.8-0.2,1.2-0.3L163.6,168.6z M161.3,169.1c-0.4,0.1-0.8,0.2-1.2,0.2l0.1,0.6c0.4-0.1,0.8-0.1,1.2-0.2
		L161.3,169.1z M159,169.5c-0.4,0.1-0.8,0.1-1.2,0.2l0.1,0.6c0.4-0.1,0.8-0.1,1.2-0.2L159,169.5z M156.6,169.8
		c-0.4,0-0.8,0.1-1.2,0.1l0.1,0.6c0.4,0,0.8-0.1,1.2-0.1L156.6,169.8z M154.3,170c-0.4,0-0.8,0-1.2,0.1v0.6c0.4,0,0.8,0,1.2-0.1V170
		z M151.9,170.1c-0.4,0-0.8,0-1.2,0v0.6c0.4,0,0.8,0,1.2,0V170.1z M149.6,170.1c-0.4,0-0.8,0-1.2,0v0.6c0.4,0,0.8,0,1.2,0V170.1z"/>
</g>
</svg>
