<svg width="90" height="63" viewBox="0 0 90 63" fill="none" xmlns="http://www.w3.org/2000/svg">
	<g clip-path="url(#clip0_1833_21455)">
		<rect x="37.6484" y="18.0642" width="12.9001" height="7.5883" rx="3" transform="rotate(129.889 37.6484 18.0642)" fill="#92B1CE"/>
		<path opacity="0.3" d="M30.3527 14.9611C29.0801 11.5387 24.3206 5.34059 15.463 7.92735C14.4891 17.1034 21.4334 20.6875 25.0273 21.3326L30.3527 14.9611Z" fill="#B86633"/>
		<path d="M29.2876 16.2355C28.5936 14.2402 25.905 10.661 20.7031 12.3072C20.0062 17.7187 24.0056 19.7295 26.0924 20.0584L29.2876 16.2355Z" fill="#FF7648"/>
		<path d="M50.827 17.1528L50.8481 27.1185L41.8015 19.5572C41.348 19.1782 41.0853 18.618 41.0841 18.0269L41.072 12.3512C41.0684 10.6522 43.051 9.72283 44.3546 10.8124L50.1096 15.6224C50.5631 16.0015 50.8257 16.5617 50.827 17.1528Z" fill="#92B1CE"/>
		<path d="M30.8181 41.094L40.6294 39.3463L31.5828 31.7851C31.1293 31.406 30.5313 31.247 29.9494 31.3506L24.3617 32.346C22.689 32.6439 22.1262 34.7599 23.4298 35.8495L29.1848 40.6596C29.6383 41.0386 30.2362 41.1976 30.8181 41.094Z" fill="#92B1CE"/>
		<path d="M68.1149 54.3575C69.6373 54.3323 70.7448 53.0072 70.4995 51.5045C69.7593 46.9705 67.4192 39.9797 61.8161 35.2966L50.6233 48.6881C56.2264 53.3713 63.5215 54.4337 68.1149 54.3575Z" fill="#92B1CE"/>
		<path d="M62.9805 36.27L51.7877 49.6615L29.4233 30.9692C27.3045 29.1983 27.0225 26.045 28.7934 23.9262L33.5731 18.2076C35.3441 16.0888 38.4973 15.8068 40.6161 17.5777L62.9805 36.27Z" fill="#26649D"/>
		<path d="M39.6503 29.0657L40.3953 28.1744L41.7893 29.3395L42.3434 31.8433L43.3475 30.6419L45.2421 32.2253L47.0595 30.0509L48.0653 34.585L49.1289 35.474L48.3839 36.3653L46.9899 35.2002L46.4343 32.6982L45.4317 33.8978L43.5371 32.3143L41.7197 34.4887L40.7139 29.9546L39.6503 29.0657Z" fill="white"/>
		<path d="M11.9824 44.8665C11.3564 44.3239 10.409 44.3916 9.86647 45.0176C9.3239 45.6436 9.39157 46.591 10.0176 47.1335L11.9824 44.8665ZM25.0176 60.1335C25.6436 60.6761 26.591 60.6084 27.1335 59.9824C27.6761 59.3564 27.6084 58.409 26.9824 57.8665L25.0176 60.1335ZM10.0176 47.1335L25.0176 60.1335L26.9824 57.8665L11.9824 44.8665L10.0176 47.1335Z" fill="#E6E6E6"/>
		<path d="M34.0034 47.8851C33.3877 47.3309 32.4392 47.3808 31.8851 47.9966C31.3309 48.6123 31.3808 49.5608 31.9966 50.1149L34.0034 47.8851ZM41.9966 59.1149C42.6123 59.6691 43.5608 59.6192 44.1149 59.0034C44.6691 58.3877 44.6192 57.4392 44.0034 56.8851L41.9966 59.1149ZM31.9966 50.1149L41.9966 59.1149L44.0034 56.8851L34.0034 47.8851L31.9966 50.1149Z" fill="#E6E6E6"/>
		<path d="M55.9209 1.81597C55.267 1.30737 54.3246 1.42517 53.816 2.07909C53.3074 2.73301 53.4252 3.67542 54.0791 4.18403L55.9209 1.81597ZM63.0791 11.184C63.733 11.6926 64.6754 11.5748 65.184 10.9209C65.6926 10.267 65.5748 9.32458 64.9209 8.81597L63.0791 11.184ZM54.0791 4.18403L63.0791 11.184L64.9209 8.81597L55.9209 1.81597L54.0791 4.18403Z" fill="#E6E6E6"/>
		<path d="M65.937 22.8287C65.2901 22.3112 64.3462 22.4161 63.8287 23.063C63.3112 23.7099 63.4161 24.6538 64.063 25.1713L65.937 22.8287ZM79.063 37.1713C79.7099 37.6888 80.6538 37.5839 81.1713 36.937C81.6888 36.2901 81.5839 35.3462 80.937 34.8287L79.063 37.1713ZM64.063 25.1713L79.063 37.1713L80.937 34.8287L65.937 22.8287L64.063 25.1713Z" fill="#E6E6E6"/>
	</g>
	<defs>
		<clipPath id="clip0_1833_21455">
			<rect width="90" height="63" fill="white"/>
		</clipPath>
	</defs>
</svg>
