<svg xmlns="http://www.w3.org/2000/svg" width="90" height="63" viewBox="0 0 90 63" fill="none">
    <path d="M23.9846 32.9538C22.274 32.5897 20.4997 32.401 18.7792 32.7138C15.5465 33.3008 12.871 35.5731 10.6323 38.0079C8.39366 40.4428 6.38821 43.1551 3.70848 45.0788C2.82579 45.7123 1.87978 46.2524 0.994977 46.8827C0.523293 47.219 0.0273385 47.6569 0.00201321 48.2407C-0.0280606 48.9246 0.601379 49.4459 1.2171 49.7271C2.57623 50.3489 4.14006 50.3847 5.60577 50.1056C7.07147 49.826 8.46278 49.2491 9.84248 48.6754C9.09275 49.0716 9.15184 50.2901 9.78075 50.8627C10.4091 51.4353 11.3404 51.5011 12.1814 51.4123C14.5857 51.1584 16.7642 49.9169 18.8636 48.7022C18.2035 49.1245 18.4346 50.2682 19.1137 50.6585C19.7927 51.0488 20.6495 50.8825 21.375 50.5916C24.6393 49.2817 26.7972 45.7877 30.1966 44.8975C30.768 44.7478 31.3854 44.6666 31.8502 44.2976C32.3699 43.8849 32.5936 43.1754 32.5667 42.5071C32.5398 41.8388 32.2955 41.1998 32.0227 40.5909C30.3486 36.8467 28.1063 33.8317 23.9856 32.9549L23.9846 32.9538Z" fill="#CADAF0"/>
    <path d="M10.2071 46.9506C8.82744 47.5243 7.43613 48.1017 5.97042 48.3808C4.50472 48.6604 2.94141 48.6241 1.58176 48.0023C1.19766 47.8264 0.807754 47.5574 0.57666 47.2131C0.26748 47.4938 0.0189754 47.8312 0.00103665 48.2402C-0.0290372 48.924 0.600402 49.4453 1.21612 49.7265C2.57525 50.3484 4.13909 50.3842 5.60479 50.1051C7.06205 49.8271 8.44597 49.255 9.81776 48.6845C9.53021 48.0712 9.62202 47.2596 10.2077 46.9501L10.2071 46.9506Z" fill="#9FBBD4"/>
    <path d="M32.5402 42.2242C32.4484 42.3542 32.3402 42.4723 32.2141 42.5723C31.7493 42.9412 31.132 43.0225 30.5606 43.1722C27.1612 44.0624 25.0033 47.5564 21.739 48.8663C21.0135 49.1577 20.1566 49.3234 19.4776 48.9331C18.7986 48.5428 18.5675 47.3992 19.2275 46.9768C17.1282 48.1916 14.9502 49.433 12.5453 49.687C11.7043 49.7757 10.7736 49.7105 10.1447 49.1374C10.0081 49.0128 9.89831 48.8577 9.81811 48.6877C9.09265 49.0962 9.15649 50.2954 9.77854 50.8622C10.4069 51.4348 11.3382 51.5005 12.1792 51.4118C14.5835 51.1578 16.762 49.9164 18.8614 48.7016C18.2013 49.124 18.4324 50.2676 19.1115 50.6579C19.7905 51.0482 20.6473 50.8819 21.3728 50.5911C24.6371 49.2812 26.795 45.7872 30.1944 44.897C30.7658 44.7473 31.3831 44.666 31.848 44.2971C32.3677 43.8844 32.5914 43.1749 32.5645 42.5065C32.5608 42.4119 32.5523 42.3178 32.5402 42.2248V42.2242Z" fill="#9FBBD4"/>
    <path d="M9.58046 42.1553C10.0711 42.7996 11.0193 42.8814 11.7933 42.6638C12.8859 42.3569 13.7903 41.5971 14.6582 40.8577C14.329 41.3234 14.2746 41.9735 14.5221 42.4884C14.8687 43.2102 15.7203 43.57 16.5117 43.5449C17.3031 43.5197 18.0491 43.1797 18.7556 42.8167C19.9369 42.2093 21.0776 41.5196 22.1661 40.7545C21.9355 40.9812 21.7007 41.2148 21.5604 41.5073C21.42 41.8003 21.39 42.1692 21.5683 42.4403C21.6543 42.5713 21.782 42.6696 21.916 42.7498C22.6299 43.1744 23.5231 43.1123 24.3346 42.9461C26.4466 42.513 28.3951 41.472 30.1747 40.2407C28.4768 40.8219 26.7104 41.1977 24.9255 41.3581C24.4127 41.4041 23.8091 41.3939 23.4973 40.9791C23.158 40.5283 23.3675 39.8851 23.5885 39.3644C22.0695 40.6075 20.2266 41.4399 18.2987 41.7527C17.6561 41.857 16.8958 41.8623 16.4763 41.3581C16.0569 40.8539 16.1898 40.1017 16.346 39.4617C15.0602 40.5508 13.46 41.2539 11.7964 41.4602C11.2092 41.533 10.5291 41.51 10.1408 41.0577C9.66488 40.5032 9.90125 39.6847 10.1751 39.0955C9.42534 39.806 8.87557 41.2287 9.58152 42.1553H9.58046Z" fill="#9FBBD4"/>
    <path d="M15.4356 36.6061C15.6313 36.968 16.0534 37.1621 16.4607 37.168C16.8681 37.1739 17.2617 37.0188 17.6204 36.8242C18.4256 36.3863 19.102 35.7453 19.7683 35.1117C19.39 35.3999 19.0539 35.741 18.6762 36.0302C18.2984 36.3195 17.8652 36.5601 17.3936 36.6013C16.9224 36.643 16.4096 36.4494 16.1684 36.0367C16.0218 35.7859 15.9875 35.4774 16.0413 35.1908C16.0503 35.1427 16.0571 35.0818 16.017 35.055C15.9722 35.0246 15.9147 35.0652 15.8777 35.1048C15.519 35.4908 15.1523 36.0826 15.4351 36.6061H15.4356Z" fill="#9FBBD4"/>
    <path d="M21.0492 38.4875C21.7778 38.695 22.5528 38.4244 23.2308 38.0844C24.257 37.5695 25.2009 36.8852 26.0129 36.0671C25.1418 36.7216 24.1531 37.2145 23.1095 37.5139C22.5829 37.6652 22.0184 37.7668 21.4913 37.6176C20.9637 37.4685 20.4894 37.0065 20.4788 36.4521C20.482 36.6071 20.2836 36.8723 20.2577 37.0541C20.2293 37.2519 20.2303 37.4867 20.2725 37.6834C20.3617 38.0994 20.6434 38.372 21.0486 38.4875H21.0492Z" fill="#9FBBD4"/>
    <path d="M65.5843 32.9538C67.2948 32.5897 69.0691 32.401 70.7897 32.7138C74.0224 33.3008 76.6979 35.5731 78.9365 38.0079C81.1752 40.4428 83.1806 43.1551 85.8604 45.0788C86.743 45.7123 87.6891 46.2524 88.5739 46.8827C89.0455 47.219 89.5415 47.6569 89.5668 48.2407C89.5969 48.9246 88.9675 49.4459 88.3517 49.7271C86.9926 50.3489 85.4288 50.3847 83.9631 50.1056C82.4974 49.826 81.1061 49.2491 79.7264 48.6754C80.4761 49.0716 80.417 50.2901 79.7881 50.8627C79.1597 51.4353 78.2285 51.5011 77.3875 51.4123C74.9831 51.1584 72.8046 49.9169 70.7053 48.7022C71.3653 49.1245 71.1342 50.2682 70.4552 50.6585C69.7761 51.0488 68.9193 50.8825 68.1938 50.5916C64.9295 49.2817 62.7716 45.7877 59.3722 44.8975C58.8008 44.7478 58.1835 44.6666 57.7187 44.2976C57.199 43.8849 56.9753 43.1754 57.0022 42.5071C57.0291 41.8388 57.2734 41.1998 57.5461 40.5909C59.2202 36.8467 61.4626 33.8317 65.5832 32.9549L65.5843 32.9538Z" fill="#CADAF0"/>
    <path d="M79.3619 46.9506C80.7416 47.5243 82.1329 48.1017 83.5986 48.3808C85.0643 48.6604 86.6276 48.6241 87.9872 48.0023C88.3713 47.8264 88.7612 47.5574 88.9923 47.2131C89.3015 47.4938 89.55 47.8312 89.568 48.2402C89.598 48.924 88.9686 49.4453 88.3529 49.7265C86.9937 50.3484 85.4299 50.3842 83.9642 50.1051C82.5069 49.8271 81.123 49.255 79.7512 48.6845C80.0388 48.0712 79.947 47.2596 79.3613 46.9501L79.3619 46.9506Z" fill="#9FBBD4"/>
    <path d="M57.0279 42.2242C57.1197 42.3542 57.2279 42.4723 57.354 42.5723C57.8188 42.9412 58.4361 43.0225 59.0075 43.1722C62.4069 44.0624 64.5648 47.5564 67.8291 48.8663C68.5546 49.1577 69.4114 49.3234 70.0905 48.9331C70.7695 48.5428 71.0006 47.3992 70.3406 46.9768C72.4399 48.1916 74.6179 49.433 77.0228 49.687C77.8638 49.7757 78.7945 49.7105 79.4234 49.1374C79.56 49.0128 79.6698 48.8577 79.75 48.6877C80.4754 49.0962 80.4116 50.2954 79.7895 50.8622C79.1612 51.4348 78.2299 51.5005 77.3889 51.4118C74.9846 51.1578 72.8061 49.9164 70.7067 48.7016C71.3668 49.124 71.1357 50.2676 70.4566 50.6579C69.7776 51.0482 68.9208 50.8819 68.1953 50.5911C64.931 49.2812 62.7731 45.7872 59.3737 44.897C58.8023 44.7473 58.1849 44.666 57.7201 44.2971C57.2004 43.8844 56.9767 43.1749 57.0036 42.5065C57.0073 42.4119 57.0158 42.3178 57.0279 42.2248V42.2242Z" fill="#9FBBD4"/>
    <path d="M79.9888 42.1552C79.4981 42.7995 78.55 42.8813 77.776 42.6637C76.6833 42.3568 75.779 41.5971 74.911 40.8576C75.2403 41.3233 75.2946 41.9735 75.0472 42.4883C74.7005 43.2101 73.849 43.5699 73.0575 43.5448C72.2661 43.5197 71.5201 43.1796 70.8136 42.8166C69.6323 42.2092 68.4916 41.5195 67.4031 40.7544C67.6337 40.9811 67.8685 41.2148 68.0088 41.5072C68.1492 41.8002 68.1793 42.1691 68.0009 42.4402C67.9149 42.5712 67.7872 42.6696 67.6532 42.7498C66.9394 43.1743 66.0461 43.1123 65.2347 42.946C63.1226 42.5129 61.1742 41.4719 59.3945 40.2406C61.0924 40.8218 62.8588 41.1977 64.6437 41.3581C65.1566 41.404 65.7602 41.3939 66.072 40.979C66.4112 40.5283 66.2018 39.8851 65.9807 39.3643C67.4997 40.6074 69.3426 41.4399 71.2705 41.7526C71.9132 41.8569 72.6734 41.8622 73.0929 41.3581C73.5123 40.8539 73.3794 40.1016 73.2232 39.4616C74.509 40.5507 76.1092 41.2538 77.7728 41.4602C78.36 41.5329 79.0401 41.5099 79.4284 41.0576C79.9043 40.5032 79.668 39.6846 79.3941 39.0954C80.1439 39.806 80.6937 41.2287 79.9877 42.1552H79.9888Z" fill="#9FBBD4"/>
    <path d="M74.133 36.6061C73.9373 36.968 73.5152 37.1621 73.1079 37.168C72.7006 37.1739 72.307 37.0188 71.9482 36.8242C71.1431 36.3863 70.4667 35.7453 69.8003 35.1117C70.1786 35.3999 70.5147 35.741 70.8924 36.0302C71.2702 36.3195 71.7034 36.5601 72.1745 36.6013C72.6457 36.643 73.1585 36.4494 73.3997 36.0367C73.5463 35.7859 73.5806 35.4774 73.5268 35.1908C73.5178 35.1427 73.511 35.0818 73.5511 35.055C73.5959 35.0246 73.6534 35.0652 73.6904 35.1048C74.0491 35.4908 74.4158 36.0826 74.133 36.6061Z" fill="#9FBBD4"/>
    <path d="M68.5194 38.4875C67.7908 38.695 67.0157 38.4244 66.3378 38.0844C65.3116 37.5695 64.3677 36.8852 63.5557 36.0671C64.4267 36.7216 65.4155 37.2145 66.4591 37.5139C66.9857 37.6652 67.5502 37.7668 68.0773 37.6176C68.6049 37.4685 69.0792 37.0065 69.0898 36.4521C69.0866 36.6071 69.285 36.8723 69.3108 37.0541C69.3393 37.2519 69.3378 37.4867 69.2961 37.6834C69.2069 38.0994 68.9252 38.372 68.52 38.4875H68.5194Z" fill="#9FBBD4"/>
    <path d="M63.1686 29.0099H56.9888V18.3024C56.9888 11.6433 51.6104 6.2253 45.0001 6.2253C38.3897 6.2253 33.0113 11.6433 33.0113 18.3024V29.0099H26.8315V18.3024C26.8315 8.2107 34.9822 0 45.0001 0C55.018 0 63.1686 8.2107 63.1686 18.3024V29.0099Z" fill="#818181"/>
    <path d="M63.1687 18.3024V29.0099H56.9889V26.1462C59.4608 25.1502 60.4496 23.1581 60.4496 20.419V18.3024C60.4496 8.66989 53.0259 0.753725 43.6406 0.0508694C43.7403 0.0428368 43.8413 0.0374817 43.9423 0.0307878C43.9622 0.0307878 43.9822 0.0281102 44.0021 0.0267715C44.0725 0.0227552 44.1443 0.0187388 44.2147 0.0174001C44.2427 0.0174001 44.2719 0.0147225 44.2998 0.0133837C44.3397 0.0133837 44.3795 0.00936741 44.4207 0.00936741C44.5005 0.00535109 44.5789 0.00401232 44.6586 0.00267355C44.7729 -3.99991e-06 44.8872 -0.00134277 45.0015 -0.00134277C55.0207 -0.00134277 63.17 8.20802 63.17 18.301L63.1687 18.3024Z" fill="#6A6A6C"/>
    <path d="M64.342 26.7688H25.658C24.19 26.7688 23 27.9676 23 29.4463V60.3225C23 61.8012 24.19 63 25.658 63H64.342C65.81 63 67 61.8012 67 60.3225V29.4463C67 27.9676 65.81 26.7688 64.342 26.7688Z" fill="#5384B2"/>
    <path d="M49.4429 50.5936C49.6409 51.8453 48.6814 52.9766 47.4241 52.9766H42.5747C41.3175 52.9766 40.3593 51.8453 40.556 50.5936L41.2457 46.2332C40.2078 45.2345 39.5605 43.8274 39.5605 42.2691C39.5605 39.2435 41.9952 36.7908 44.9987 36.7908C48.0023 36.7908 50.437 39.2435 50.437 42.2691C50.437 43.8274 49.7911 45.2345 48.7518 46.2332L49.4415 50.5936H49.4429Z" fill="#26649D"/>
    <path d="M67.0001 29.2589V60.5099C67.0001 61.8862 65.8943 63 64.5282 63H32.8877C45.7416 63 59.4607 60.8834 59.4607 45.9427V33.2431C59.4607 29.6672 56.5835 26.7688 53.0338 26.7688H64.5282C65.8943 26.7688 67.0001 27.8827 67.0001 29.2589Z" fill="#26649D"/>
</svg>