<svg width="90" height="63" viewBox="0 0 90 63" fill="none" xmlns="http://www.w3.org/2000/svg">
	<path d="M38.9854 17.3812C45.0897 13.857 54.9865 13.857 61.0907 17.3812L79.6006 28.0679C82.7632 29.8938 82.8027 32.8471 79.6895 34.701L46.4659 54.4852C43.24 56.4061 37.8982 56.3998 34.686 54.4712L10.8664 40.1701C7.77537 38.3143 7.82522 35.3716 10.9785 33.5511L38.9854 17.3812Z" fill="#E6E6E6"/>
	<path d="M38.9854 11.0277C45.0897 7.50346 54.9865 7.50346 61.0907 11.0277L79.5118 21.6631C82.7092 23.5092 82.7092 26.5022 79.5118 28.3483L46.3539 47.492C43.1564 49.338 37.9724 49.338 34.7749 47.492L11.0907 33.8179C7.89325 31.9719 7.89324 28.9788 11.0907 27.1328L38.9854 11.0277Z" fill="#41506D"/>
	<path d="M44.2444 4.345C47.4442 2.49761 52.632 2.49761 55.8318 4.345L79.5118 18.0167C82.7092 19.8627 82.7092 22.8557 79.5118 24.7018L46.3539 43.8455C43.1564 45.6916 37.9724 45.6916 34.7749 43.8455L11.0907 30.1714C7.89325 28.3254 7.89324 25.3323 11.0907 23.4863L44.2444 4.345Z" fill="#92B1CE"/>
	<path d="M33.7529 10.4023L69.0161 30.7616L46.3539 43.8456C43.1565 45.6916 37.9724 45.6916 34.775 43.8456L11.0908 30.1715C7.89332 28.3254 7.89331 25.3324 11.0908 23.4864L33.7529 10.4023Z" fill="#26649D"/>
	<path d="M50.6476 21.2709L46.6941 23.5535L34.1749 24.3143L39.7756 27.5479L34.1749 30.7815L40.1051 34.2053L27.9152 34.7759L23.6323 37.2486" stroke="url(#paint0_linear_1833_21490)" stroke-width="2" stroke-linecap="square" stroke-linejoin="round"/>
	<rect x="54" y="13" width="9.8" height="3" fill="#6792BA"/>
	<circle r="4" transform="matrix(0.866025 -0.5 0.866025 0.5 58.9282 16)" fill="#6792BA"/>
	<circle r="4" transform="matrix(0.866025 -0.5 0.866025 0.5 58.9282 13)" fill="#BDD0E1"/>
	<rect x="64" y="19" width="9.8" height="3" fill="#6792BA"/>
	<circle r="4" transform="matrix(0.866025 -0.5 0.866025 0.5 68.9282 22)" fill="#6792BA"/>
	<circle r="4" transform="matrix(0.866025 -0.5 0.866025 0.5 68.9282 19)" fill="#BDD0E1"/>
	<defs>
		<linearGradient id="paint0_linear_1833_21490" x1="50.8123" y1="21.366" x2="37.14" y2="45.0473" gradientUnits="userSpaceOnUse">
			<stop stop-color="#BBBBBB" stop-opacity="0.43"/>
			<stop offset="0.333333" stop-color="#F2F1F1"/>
			<stop offset="1" stop-color="#BBBBBB" stop-opacity="0"/>
		</linearGradient>
	</defs>
</svg>
