<svg width="152" height="82" viewBox="0 0 152 82" fill="none" xmlns="http://www.w3.org/2000/svg">
<path d="M1 11C1 5.47715 5.47715 1 11 1H141C146.523 1 151 5.47715 151 11V71C151 76.5229 146.523 81 141 81H11C5.47715 81 1 76.5229 1 71V11Z" fill="#EBF1F6"/>
<path d="M11 61H151V71C151 76.5228 146.523 81 141 81H11V61Z" fill="white"/>
<path d="M47.5889 77.624C46.8398 78.3138 46.1183 78.6587 45.4243 78.6587C44.853 78.6587 44.3791 78.481 44.0024 78.1255C43.6258 77.7658 43.4375 77.313 43.4375 76.7671C43.4375 76.0138 43.7528 75.4362 44.3833 75.0342C45.0181 74.6279 45.9258 74.4248 47.1064 74.4248H47.4048V73.5933C47.4048 72.7935 46.9943 72.3936 46.1733 72.3936C45.5132 72.3936 44.8001 72.5967 44.0342 73.0029V71.9683C44.8763 71.6255 45.6655 71.4541 46.4019 71.4541C47.172 71.4541 47.7391 71.6276 48.103 71.9746C48.4712 72.3216 48.6553 72.8612 48.6553 73.5933V76.7163C48.6553 77.4315 48.8753 77.7891 49.3154 77.7891C49.3704 77.7891 49.4508 77.7806 49.5566 77.7637L49.6455 78.4556C49.362 78.591 49.0488 78.6587 48.7061 78.6587C48.1221 78.6587 47.7497 78.3138 47.5889 77.624ZM47.4048 76.9448V75.1611L46.9858 75.1484C46.3003 75.1484 45.7459 75.2796 45.3228 75.542C44.8996 75.8001 44.688 76.1408 44.688 76.564C44.688 76.8644 44.7938 77.1183 45.0054 77.3257C45.217 77.533 45.4751 77.6367 45.7798 77.6367C46.3003 77.6367 46.842 77.4061 47.4048 76.9448Z" fill="#4B4B4B"/>
<path d="M41.2412 78.6587C40.6064 78.6587 40.1113 78.4767 39.7559 78.1128C39.4004 77.7489 39.2227 77.2432 39.2227 76.5957V72.5459H38.3594V71.6064H39.2227V70.356L40.4731 70.2354V71.6064H42.2759V72.5459H40.4731V76.3672C40.4731 77.2686 40.8625 77.7192 41.6411 77.7192C41.8062 77.7192 42.0072 77.6917 42.2441 77.6367V78.5C41.859 78.6058 41.5247 78.6587 41.2412 78.6587Z" fill="#4B4B4B"/>
<path d="M35.542 77.624C34.793 78.3138 34.0715 78.6587 33.3774 78.6587C32.8062 78.6587 32.3322 78.481 31.9556 78.1255C31.5789 77.7658 31.3906 77.313 31.3906 76.7671C31.3906 76.0138 31.7059 75.4362 32.3364 75.0342C32.9712 74.6279 33.8789 74.4248 35.0596 74.4248H35.3579V73.5933C35.3579 72.7935 34.9474 72.3936 34.1265 72.3936C33.4663 72.3936 32.7533 72.5967 31.9873 73.0029V71.9683C32.8294 71.6255 33.6187 71.4541 34.355 71.4541C35.1252 71.4541 35.6922 71.6276 36.0562 71.9746C36.4243 72.3216 36.6084 72.8612 36.6084 73.5933V76.7163C36.6084 77.4315 36.8285 77.7891 37.2686 77.7891C37.3236 77.7891 37.404 77.7806 37.5098 77.7637L37.5986 78.4556C37.3151 78.591 37.002 78.6587 36.6592 78.6587C36.0752 78.6587 35.7028 78.3138 35.542 77.624ZM35.3579 76.9448V75.1611L34.939 75.1484C34.2534 75.1484 33.6991 75.2796 33.2759 75.542C32.8527 75.8001 32.6411 76.1408 32.6411 76.564C32.6411 76.8644 32.7469 77.1183 32.9585 77.3257C33.1701 77.533 33.4282 77.6367 33.7329 77.6367C34.2534 77.6367 34.7951 77.4061 35.3579 76.9448Z" fill="#4B4B4B"/>
<path d="M22.2109 78.5V69.1055H25.334C26.265 69.1055 27.0161 69.2091 27.5874 69.4165C28.1629 69.6239 28.6602 69.9751 29.0791 70.4702C29.7435 71.2573 30.0757 72.2941 30.0757 73.5806C30.0757 75.1421 29.6631 76.3524 28.8379 77.2114C28.0127 78.0705 26.8511 78.5 25.353 78.5H22.2109ZM23.5439 77.5034H25.2515C26.4702 77.5034 27.3335 77.1755 27.8413 76.5195C28.3872 75.8213 28.6602 74.884 28.6602 73.7075C28.6602 72.603 28.3914 71.7355 27.854 71.105C27.5282 70.7199 27.1388 70.4575 26.686 70.3179C26.2332 70.174 25.5519 70.1021 24.6421 70.1021H23.5439V77.5034Z" fill="#4B4B4B"/>
<rect width="140" height="25" transform="translate(11 36)" fill="white"/>
<path d="M47.5889 52.624C46.8398 53.3138 46.1183 53.6587 45.4243 53.6587C44.853 53.6587 44.3791 53.481 44.0024 53.1255C43.6258 52.7658 43.4375 52.313 43.4375 51.7671C43.4375 51.0138 43.7528 50.4362 44.3833 50.0342C45.0181 49.6279 45.9258 49.4248 47.1064 49.4248H47.4048V48.5933C47.4048 47.7935 46.9943 47.3936 46.1733 47.3936C45.5132 47.3936 44.8001 47.5967 44.0342 48.0029V46.9683C44.8763 46.6255 45.6655 46.4541 46.4019 46.4541C47.172 46.4541 47.7391 46.6276 48.103 46.9746C48.4712 47.3216 48.6553 47.8612 48.6553 48.5933V51.7163C48.6553 52.4315 48.8753 52.7891 49.3154 52.7891C49.3704 52.7891 49.4508 52.7806 49.5566 52.7637L49.6455 53.4556C49.362 53.591 49.0488 53.6587 48.7061 53.6587C48.1221 53.6587 47.7497 53.3138 47.5889 52.624ZM47.4048 51.9448V50.1611L46.9858 50.1484C46.3003 50.1484 45.7459 50.2796 45.3228 50.542C44.8996 50.8001 44.688 51.1408 44.688 51.564C44.688 51.8644 44.7938 52.1183 45.0054 52.3257C45.217 52.533 45.4751 52.6367 45.7798 52.6367C46.3003 52.6367 46.842 52.4061 47.4048 51.9448Z" fill="#4B4B4B"/>
<path d="M41.2412 53.6587C40.6064 53.6587 40.1113 53.4767 39.7559 53.1128C39.4004 52.7489 39.2227 52.2432 39.2227 51.5957V47.5459H38.3594V46.6064H39.2227V45.356L40.4731 45.2354V46.6064H42.2759V47.5459H40.4731V51.3672C40.4731 52.2686 40.8625 52.7192 41.6411 52.7192C41.8062 52.7192 42.0072 52.6917 42.2441 52.6367V53.5C41.859 53.6058 41.5247 53.6587 41.2412 53.6587Z" fill="#4B4B4B"/>
<path d="M35.542 52.624C34.793 53.3138 34.0715 53.6587 33.3774 53.6587C32.8062 53.6587 32.3322 53.481 31.9556 53.1255C31.5789 52.7658 31.3906 52.313 31.3906 51.7671C31.3906 51.0138 31.7059 50.4362 32.3364 50.0342C32.9712 49.6279 33.8789 49.4248 35.0596 49.4248H35.3579V48.5933C35.3579 47.7935 34.9474 47.3936 34.1265 47.3936C33.4663 47.3936 32.7533 47.5967 31.9873 48.0029V46.9683C32.8294 46.6255 33.6187 46.4541 34.355 46.4541C35.1252 46.4541 35.6922 46.6276 36.0562 46.9746C36.4243 47.3216 36.6084 47.8612 36.6084 48.5933V51.7163C36.6084 52.4315 36.8285 52.7891 37.2686 52.7891C37.3236 52.7891 37.404 52.7806 37.5098 52.7637L37.5986 53.4556C37.3151 53.591 37.002 53.6587 36.6592 53.6587C36.0752 53.6587 35.7028 53.3138 35.542 52.624ZM35.3579 51.9448V50.1611L34.939 50.1484C34.2534 50.1484 33.6991 50.2796 33.2759 50.542C32.8527 50.8001 32.6411 51.1408 32.6411 51.564C32.6411 51.8644 32.7469 52.1183 32.9585 52.3257C33.1701 52.533 33.4282 52.6367 33.7329 52.6367C34.2534 52.6367 34.7951 52.4061 35.3579 51.9448Z" fill="#4B4B4B"/>
<path d="M22.2109 53.5V44.1055H25.334C26.265 44.1055 27.0161 44.2091 27.5874 44.4165C28.1629 44.6239 28.6602 44.9751 29.0791 45.4702C29.7435 46.2573 30.0757 47.2941 30.0757 48.5806C30.0757 50.1421 29.6631 51.3524 28.8379 52.2114C28.0127 53.0705 26.8511 53.5 25.353 53.5H22.2109ZM23.5439 52.5034H25.2515C26.4702 52.5034 27.3335 52.1755 27.8413 51.5195C28.3872 50.8213 28.6602 49.884 28.6602 48.7075C28.6602 47.603 28.3914 46.7355 27.854 46.105C27.5282 45.7199 27.1388 45.4575 26.686 45.3179C26.2332 45.174 25.5519 45.1021 24.6421 45.1021H23.5439V52.5034Z" fill="#4B4B4B"/>
<rect width="140" height="25" transform="translate(11 11)" fill="white"/>
<path d="M47.5889 27.624C46.8398 28.3138 46.1183 28.6587 45.4243 28.6587C44.853 28.6587 44.3791 28.481 44.0024 28.1255C43.6258 27.7658 43.4375 27.313 43.4375 26.7671C43.4375 26.0138 43.7528 25.4362 44.3833 25.0342C45.0181 24.6279 45.9258 24.4248 47.1064 24.4248H47.4048V23.5933C47.4048 22.7935 46.9943 22.3936 46.1733 22.3936C45.5132 22.3936 44.8001 22.5967 44.0342 23.0029V21.9683C44.8763 21.6255 45.6655 21.4541 46.4019 21.4541C47.172 21.4541 47.7391 21.6276 48.103 21.9746C48.4712 22.3216 48.6553 22.8612 48.6553 23.5933V26.7163C48.6553 27.4315 48.8753 27.7891 49.3154 27.7891C49.3704 27.7891 49.4508 27.7806 49.5566 27.7637L49.6455 28.4556C49.362 28.591 49.0488 28.6587 48.7061 28.6587C48.1221 28.6587 47.7497 28.3138 47.5889 27.624ZM47.4048 26.9448V25.1611L46.9858 25.1484C46.3003 25.1484 45.7459 25.2796 45.3228 25.542C44.8996 25.8001 44.688 26.1408 44.688 26.564C44.688 26.8644 44.7938 27.1183 45.0054 27.3257C45.217 27.533 45.4751 27.6367 45.7798 27.6367C46.3003 27.6367 46.842 27.4061 47.4048 26.9448Z" fill="#4B4B4B"/>
<path d="M41.2412 28.6587C40.6064 28.6587 40.1113 28.4767 39.7559 28.1128C39.4004 27.7489 39.2227 27.2432 39.2227 26.5957V22.5459H38.3594V21.6064H39.2227V20.356L40.4731 20.2354V21.6064H42.2759V22.5459H40.4731V26.3672C40.4731 27.2686 40.8625 27.7192 41.6411 27.7192C41.8062 27.7192 42.0072 27.6917 42.2441 27.6367V28.5C41.859 28.6058 41.5247 28.6587 41.2412 28.6587Z" fill="#4B4B4B"/>
<path d="M35.542 27.624C34.793 28.3138 34.0715 28.6587 33.3774 28.6587C32.8062 28.6587 32.3322 28.481 31.9556 28.1255C31.5789 27.7658 31.3906 27.313 31.3906 26.7671C31.3906 26.0138 31.7059 25.4362 32.3364 25.0342C32.9712 24.6279 33.8789 24.4248 35.0596 24.4248H35.3579V23.5933C35.3579 22.7935 34.9474 22.3936 34.1265 22.3936C33.4663 22.3936 32.7533 22.5967 31.9873 23.0029V21.9683C32.8294 21.6255 33.6187 21.4541 34.355 21.4541C35.1252 21.4541 35.6922 21.6276 36.0562 21.9746C36.4243 22.3216 36.6084 22.8612 36.6084 23.5933V26.7163C36.6084 27.4315 36.8285 27.7891 37.2686 27.7891C37.3236 27.7891 37.404 27.7806 37.5098 27.7637L37.5986 28.4556C37.3151 28.591 37.002 28.6587 36.6592 28.6587C36.0752 28.6587 35.7028 28.3138 35.542 27.624ZM35.3579 26.9448V25.1611L34.939 25.1484C34.2534 25.1484 33.6991 25.2796 33.2759 25.542C32.8527 25.8001 32.6411 26.1408 32.6411 26.564C32.6411 26.8644 32.7469 27.1183 32.9585 27.3257C33.1701 27.533 33.4282 27.6367 33.7329 27.6367C34.2534 27.6367 34.7951 27.4061 35.3579 26.9448Z" fill="#4B4B4B"/>
<path d="M22.2109 28.5V19.1055H25.334C26.265 19.1055 27.0161 19.2091 27.5874 19.4165C28.1629 19.6239 28.6602 19.9751 29.0791 20.4702C29.7435 21.2573 30.0757 22.2941 30.0757 23.5806C30.0757 25.1421 29.6631 26.3524 28.8379 27.2114C28.0127 28.0705 26.8511 28.5 25.353 28.5H22.2109ZM23.5439 27.5034H25.2515C26.4702 27.5034 27.3335 27.1755 27.8413 26.5195C28.3872 25.8213 28.6602 24.884 28.6602 23.7075C28.6602 22.603 28.3914 21.7355 27.854 21.105C27.5282 20.7199 27.1388 20.4575 26.686 20.3179C26.2332 20.174 25.5519 20.1021 24.6421 20.1021H23.5439V27.5034Z" fill="#4B4B4B"/>
<line x1="12" y1="11.5" x2="151" y2="11.5" stroke="#DFDFDF"/>
<line x1="11.5" y1="11" x2="11.5" y2="82" stroke="#DFDFDF"/>
<path fill-rule="evenodd" clip-rule="evenodd" d="M0 11.3614C0 5.08669 5.11508 0 11.4248 0H140.575C146.885 0 152 5.08669 152 11.3614V70.6386C152 76.9133 146.885 82 140.575 82H11.4248C5.11507 82 0 76.9133 0 70.6386V11.3614ZM11.4248 2.96386C6.7611 2.96386 2.98039 6.72359 2.98039 11.3614V70.6386C2.98039 75.2764 6.7611 79.0361 11.4248 79.0361H140.575C145.239 79.0361 149.02 75.2764 149.02 70.6386V11.3614C149.02 6.72359 145.239 2.96386 140.575 2.96386H11.4248Z" fill="#26649D"/>
</svg>
