<?xml version="1.0" encoding="utf-8"?>
<!-- Generator: Adobe Illustrator 27.4.1, SVG Export Plug-In . SVG Version: 6.00 Build 0)  -->
<svg version="1.1" id="Layer_1" xmlns="http://www.w3.org/2000/svg" xmlns:xlink="http://www.w3.org/1999/xlink" x="0px" y="0px"
	 viewBox="0 0 90 63" style="enable-background:new 0 0 90 63;" xml:space="preserve">
<path style="fill-rule:evenodd;clip-rule:evenodd;fill:#DFDFDF;" d="M85.8766022,26.8195992
	c0-1.1068993-0.6095047-2.1238995-1.585701-2.6456985L55.5844994,8.8278904c-0.8836975-0.4724207-1.9449005-0.4724207-2.828598,0
	L6.58566,33.5097008c-2.1142101,1.1301994-2.1142201,4.1611977,0,5.2914009l36.1960411,21.3498001
	c0.8837013,0.4723969,1.9449997,0.4723969,2.828701,0l38.6805-22.6780014c0.9761963-0.521801,1.585701-1.5387993,1.585701-2.6456985
	V26.8195992z"/>
<path style="fill-rule:evenodd;clip-rule:evenodd;fill:#2C5175;" d="M82.876503,24.2176991
	c0-1.0717983-0.5718002-2.0621986-1.5-2.5980988l-26.3578033-15.21768c-0.9281998-0.5358896-2.0718002-0.5358896-3,0
	L9.3764601,31.0214005c-2,1.1547012-2,4.0415001,0,5.1962013l33.4069405,19.2874985c0.9281998,0.5359001,2.0718002,0.5359001,3,0
	L81.376503,34.9553986c0.9281998-0.5359001,1.5-1.5262985,1.5-2.5980988V24.2176991z"/>
<path style="fill-rule:evenodd;clip-rule:evenodd;fill:#5384B2;" d="M82.876503,21.2176991
	c0-1.0717983-0.5718002-2.0621986-1.5-2.5980988l-26.3578033-15.21768c-0.9281998-0.5358901-2.0718002-0.5358901-3,0
	L9.3764601,28.0214005c-2,1.1546993-2,4.0415001,0,5.1962013l33.4069405,19.2874985c0.9281998,0.5359001,2.0718002,0.5359001,3,0
	L81.376503,31.9554005c0.9281998-0.5359001,1.5-1.5263004,1.5-2.5981007V21.2176991z"/>
<path style="fill:#9FBBD4;" d="M58.8586006,5.698l22.5018959,12.9913998l-16.7013931,9.642601
	c-0.956604,0.5521984-2.5075035,0.5521984-3.4641037,0L42.157299,17.3404999c-0.9566002-0.5522995-0.9566002-1.4476995,0-2
	L58.8586006,5.698z"/>
<path style="fill:#FFFFFF;" d="M55.4746246,12.0359001l5.1961517,3c0.4782906,0.2761421,0.4782906,0.7238579,0,1l0,0
	c-0.4782944,0.2761421-1.2537575,0.2761421-1.7320518,0l-5.1961479-3c-0.4782944-0.2761421-0.4782944-0.7238579,0-1l0,0
	C54.2208672,11.759758,54.9963341,11.759758,55.4746246,12.0359001z"/>
<path style="fill:#FFFFFF;" d="M51.4746246,15.0359001l5.1961517,3c0.4782906,0.2761421,0.4782906,0.7238579,0,1l0,0
	c-0.4782944,0.2761421-1.2537575,0.2761421-1.7320518,0l-5.1961479-3c-0.4782944-0.2761421-0.4782944-0.7238579,0-1l0,0
	C50.2208672,14.759758,50.9963341,14.759758,51.4746246,15.0359001z"/>
<polygon style="fill:#5384B2;" points="65.6876984,17.9150009 70.5939789,20.7476463 62.7828522,25.2574062 57.8765678,22.4247608 
	"/>
<ellipse style="fill:#5B4FFF;" cx="38.732399" cy="32.4224014" rx="13.3331785" ry="7.6979184"/>
<g>
	<defs>
		<polygon id="SVGID_1_" points="38.2881012,23.5359001 53.6996231,32.4337502 38.2881012,41.3316002 22.8765812,32.4337502 		"/>
	</defs>
	<clipPath id="SVGID_00000128477284732757517560000002338427193290869162_">
		<use xlink:href="#SVGID_1_"  style="overflow:visible;"/>
	</clipPath>
	<g style="clip-path:url(#SVGID_00000128477284732757517560000002338427193290869162_);">
		<path style="fill-rule:evenodd;clip-rule:evenodd;fill:#FFFFFF;" d="M45.9939003,32.9580994
			c0.5014992,0,0.9081001-0.2347984,0.9081001-0.5242996c0-0.2896004-0.406601-0.5242996-0.9081001-0.5242996h-6.797699v-3.9246998
			c0-0.2895012-0.406601-0.5242996-0.9081001-0.5242996c-0.5016022,0-0.9081001,0.2347984-0.9081001,0.5242996v3.9246998h-6.7977009
			c-0.5015011,0-0.9081001,0.2346992-0.9081001,0.5242996c0,0.2895012,0.406599,0.5242996,0.9081001,0.5242996h6.7977009v3.9246025
			c0,0.2895966,0.406498,0.5242996,0.9081001,0.5242996c0.5014992,0,0.9081001-0.2347031,0.9081001-0.5242996v-3.9246025H45.9939003
			z"/>
	</g>
</g>
</svg>
