<svg width="90" height="63" viewBox="0 0 90 63" fill="none" xmlns="http://www.w3.org/2000/svg">
    <rect width="46" height="57" rx="2" transform="matrix(0.866025 0.5 -0.866025 0.5 49.3635 9)" fill="#DFDFDF"/>
    <path d="M88.1718 27.0169L88.1719 23.3035C88.1719 22.8133 87.6803 22.3674 86.9111 22.1598C86.5246 22.0556 86.0936 22.0189 85.6714 22.0542L44.8038 25.4791C44.6377 25.493 44.4695 25.497 44.302 25.4911L16.9024 24.5207C16.5186 24.5071 16.1347 24.5459 15.7816 24.6338L2.55046 27.9315C1.65298 28.1551 1.07177 28.6655 1.07177 29.2299L1.07181 32.6645C1.07181 33.041 1.33191 33.402 1.79446 33.6675L38.1112 54.5095C39.0663 55.0576 40.6085 55.0578 41.564 54.51L63.8205 41.75L87.4599 28.0136C87.9159 27.7487 88.1718 27.3904 88.1718 27.0169Z"
          fill="#2C5175"/>
    <path d="M66.684 5C67.1623 4.72386 67.9378 4.72386 68.4161 5L80.5404 12C81.0187 12.2761 81.0187 12.7239 80.5404 13L77.9424 14.5L64.0859 6.5L66.684 5Z" fill="#5384B2"/>
    <rect width="46" height="57" rx="2" transform="matrix(0.866025 0.5 -0.866025 0.5 49.3635 0)" fill="#5384B2"/>
    <rect width="38" height="49" rx="1" transform="matrix(0.866025 0.5 -0.866025 0.5 49.3635 4)" fill="#C5D6E5"/>
    <path d="M59.7558 5C60.2341 4.72386 61.0096 4.72386 61.4879 5L80.5404 16C81.0187 16.2761 81.0187 16.7239 80.5404 17L76.2103 19.5C74.2971 20.6046 71.1952 20.6046 69.2821 19.5L55.4257 11.5C53.5125 10.3954 53.5125 8.60457 55.4257 7.5L59.7558 5Z"
          fill="#79A0C3"/>
    <g clip-path="url(#clip0_2395_24486)">
        <path fill-rule="evenodd" clip-rule="evenodd"
              d="M68.3115 25.9561C68.3536 26.1989 68.0467 26.4155 67.626 26.4398L60.4091 26.8564C60.1939 26.8689 59.9797 26.8282 59.8193 26.7444C59.659 26.6606 59.5675 26.5416 59.5675 26.4167L59.5675 24.75C59.5675 24.506 59.9102 24.3081 60.333 24.3081C60.7557 24.3081 61.0984 24.506 61.0984 24.75L61.0984 25.9284L67.4737 25.5603C67.8943 25.536 68.2694 25.7132 68.3115 25.9561Z"
              fill="#79A0C3" stroke="#79A0C3" stroke-width="0.5" stroke-linecap="round" stroke-linejoin="round"/>
    </g>
    <g clip-path="url(#clip1_2395_24486)">
        <path fill-rule="evenodd" clip-rule="evenodd"
              d="M57.9194 31.9561C57.9615 32.1989 57.6546 32.4155 57.2339 32.4398L50.017 32.8564C49.8018 32.8689 49.5876 32.8282 49.4272 32.7444C49.2669 32.6606 49.1754 32.5416 49.1754 32.4167L49.1754 30.75C49.1754 30.506 49.5181 30.3081 49.9409 30.3081C50.3636 30.3081 50.7063 30.506 50.7063 30.75L50.7063 31.9284L57.0816 31.5603C57.5022 31.536 57.8774 31.7132 57.9194 31.9561Z"
              fill="#79A0C3" stroke="#79A0C3" stroke-width="0.5" stroke-linecap="round" stroke-linejoin="round"/>
    </g>
    <g clip-path="url(#clip2_2395_24486)">
        <path fill-rule="evenodd" clip-rule="evenodd"
              d="M47.5271 37.9561C47.5691 38.1989 47.2622 38.4155 46.8416 38.4398L39.6247 38.8564C39.4095 38.8689 39.1953 38.8282 39.0349 38.7444C38.8746 38.6606 38.7831 38.5416 38.7831 38.4167L38.7831 36.75C38.7831 36.506 39.1258 36.3081 39.5485 36.3081C39.9713 36.3081 40.314 36.506 40.314 36.75L40.314 37.9284L46.6893 37.5603C47.1099 37.536 47.485 37.7132 47.5271 37.9561Z"
              fill="#79A0C3" stroke="#79A0C3" stroke-width="0.5" stroke-linecap="round" stroke-linejoin="round"/>
    </g>
    <rect width="8" height="2" rx="1" transform="matrix(0.866025 0.5 -0.866025 0.5 42.4353 11)" fill="#79A0C3"/>
    <rect width="15" height="2" rx="1" transform="matrix(0.866025 0.5 -0.866025 0.5 38.9712 13)" fill="#79A0C3"/>
    <rect width="10" height="2" rx="1" transform="matrix(0.866025 0.5 -0.866025 0.5 51.0955 16)" fill="#79A0C3"/>
    <rect width="8" height="2" rx="1" transform="matrix(0.866025 0.5 -0.866025 0.5 21.6506 23)" fill="#79A0C3"/>
    <rect width="15" height="2" rx="1" transform="matrix(0.866025 0.5 -0.866025 0.5 18.1865 25)" fill="#79A0C3"/>
    <rect width="10" height="2" rx="1" transform="matrix(0.866025 0.5 -0.866025 0.5 30.3108 28)" fill="#79A0C3"/>
    <rect width="5" height="2" rx="1" transform="matrix(0.866025 0.5 -0.866025 0.5 32.043 17)" fill="#79A0C3"/>
    <rect width="20" height="2" rx="1" transform="matrix(0.866025 0.5 -0.866025 0.5 28.5789 19)" fill="#79A0C3"/>
    <rect width="10" height="2" rx="1" transform="matrix(0.866025 0.5 -0.866025 0.5 38.105 20.5)" fill="#79A0C3"/>
    <circle cx="1.5" cy="1.5" r="1.5" transform="matrix(0.866025 0.5 -0.866025 0.5 64.0859 8.5)" fill="#C5D6E5"/>
    <circle cx="1.5" cy="1.5" r="1.5" transform="matrix(0.866025 0.5 -0.866025 0.5 72.7461 13.5)" fill="#C5D6E5"/>
    <defs>
        <clipPath id="clip0_2395_24486">
            <rect width="10" height="10" fill="white" transform="matrix(0.866025 0.5 -0.866025 0.5 63.2197 21)"/>
        </clipPath>
        <clipPath id="clip1_2395_24486">
            <rect width="10" height="10" fill="white" transform="matrix(0.866025 0.5 -0.866025 0.5 52.8276 27)"/>
        </clipPath>
        <clipPath id="clip2_2395_24486">
            <rect width="10" height="10" fill="white" transform="matrix(0.866025 0.5 -0.866025 0.5 42.4353 33)"/>
        </clipPath>
    </defs>
</svg>
