<?xml version="1.0" encoding="utf-8"?>
<!-- Generator: Adobe Illustrator 26.0.1, SVG Export Plug-In . SVG Version: 6.00 Build 0)  -->
<svg version="1.1" id="Layer_1" xmlns="http://www.w3.org/2000/svg" x="0px" y="0px"
	 viewBox="0 0 321 215" style="enable-background:new 0 0 321 215;" xml:space="preserve">
<g>
	<rect x="0.7" style="fill:#FBFCFD;" width="320.3" height="70.5"/>
	<path style="fill:#E6E6E6;" d="M14.1,11.5h292.1c1.8,0,3.2,1.4,3.2,3.2l0,0c0,1.8-1.4,3.2-3.2,3.2H14.1c-1.8,0-3.2-1.4-3.2-3.2l0,0
		C10.9,13,12.3,11.5,14.1,11.5z"/>
	<path style="fill:#E6E6E6;" d="M14.1,24.3h292.1c1.8,0,3.2,1.4,3.2,3.2l0,0c0,1.8-1.4,3.2-3.2,3.2H14.1c-1.8,0-3.2-1.4-3.2-3.2l0,0
		C10.9,25.8,12.3,24.3,14.1,24.3z"/>
	<path style="fill:#E6E6E6;" d="M14.1,37.2h292.1c1.8,0,3.2,1.4,3.2,3.2l0,0c0,1.8-1.4,3.2-3.2,3.2H14.1c-1.8,0-3.2-1.4-3.2-3.2l0,0
		C10.9,38.6,12.3,37.2,14.1,37.2z"/>
	<path style="fill:#E6E6E6;" d="M14.1,50h292.1c1.8,0,3.2,1.4,3.2,3.2l0,0c0,1.8-1.4,3.2-3.2,3.2H14.1c-1.8,0-3.2-1.4-3.2-3.2l0,0
		C10.9,51.4,12.3,50,14.1,50z"/>
	<rect x="0.7" y="76.9" style="fill:#FFFFFF;" width="157.6" height="116.6"/>
	<rect x="164.7" y="76.9" style="fill:#F5F8FB;" width="156.3" height="116.6"/>
	<g>
		<rect x="48.3" y="123.9" style="fill:#F8F8F8;" width="92.2" height="90.9"/>
	</g>
	<rect x="48.3" y="159.7" style="fill:#26659E;" width="92.2" height="19.2"/>
	<path style="fill:#FFFFFF;" d="M56.9,172.2c-0.4,0-1-0.1-1.7-0.3V171c0.7,0.3,1.4,0.5,1.8,0.5c0.4,0,0.7-0.1,0.9-0.3
		s0.3-0.4,0.3-0.8c0-0.3-0.1-0.5-0.2-0.7c-0.1-0.2-0.4-0.4-0.8-0.6l-0.5-0.3c-0.6-0.3-1-0.6-1.2-0.9c-0.2-0.3-0.3-0.6-0.3-1
		c0-0.5,0.2-0.9,0.6-1.3c0.4-0.3,0.8-0.5,1.4-0.5c0.5,0,1,0.1,1.6,0.3v0.9c-0.7-0.3-1.2-0.4-1.6-0.4c-0.3,0-0.6,0.1-0.8,0.3
		s-0.3,0.4-0.3,0.6c0,0.2,0.1,0.4,0.2,0.6c0.2,0.2,0.4,0.4,0.8,0.6l0.5,0.3c0.6,0.3,1,0.6,1.2,0.9s0.3,0.6,0.3,1
		c0,0.6-0.2,1-0.6,1.4C58.1,172,57.6,172.2,56.9,172.2z M64.1,171.9c-0.6,0.2-1.1,0.3-1.5,0.3c-0.7,0-1.3-0.2-1.7-0.7
		s-0.7-1.1-0.7-1.8s0.2-1.3,0.6-1.8c0.4-0.5,0.9-0.7,1.5-0.7s1,0.2,1.4,0.6c0.3,0.4,0.5,1,0.5,1.8v0.3H61c0.1,1.1,0.7,1.7,1.7,1.7
		c0.4,0,0.8-0.1,1.3-0.3L64.1,171.9L64.1,171.9z M61.1,169.1h2.1c0-0.9-0.3-1.4-1-1.4C61.5,167.7,61.1,168.2,61.1,169.1z M65.6,172
		v-4.8h0.9v0.9c0.5-0.7,1-1,1.7-1c0.4,0,0.8,0.1,1,0.4c0.2,0.3,0.4,0.6,0.4,1.1v3.5h-0.9v-3.2c0-0.4-0.1-0.6-0.2-0.8
		s-0.3-0.2-0.5-0.2c-0.5,0-1,0.4-1.5,1.1v3.1h-0.9V172z M74.4,172v-0.9c-0.4,0.7-0.9,1-1.6,1c-0.6,0-1-0.2-1.4-0.6
		c-0.3-0.4-0.5-1-0.5-1.7c0-0.8,0.2-1.5,0.6-1.9c0.4-0.5,0.9-0.7,1.5-0.7s1,0.2,1.4,0.7V165h0.9v7H74.4z M74.4,168.4
		c-0.5-0.4-0.9-0.6-1.3-0.6c-0.8,0-1.3,0.6-1.3,1.9c0,1.1,0.4,1.7,1.1,1.7c0.5,0,1-0.3,1.4-0.8v-2.2L74.4,168.4L74.4,168.4z
		 M81.4,172.1c-0.4,0-0.8-0.1-1-0.4c-0.2-0.3-0.4-0.6-0.4-1.1v-2.8h-0.6v-0.7H80v-0.9l0.9-0.1v1h1.3v0.7h-1.3v2.7
		c0,0.6,0.3,0.9,0.8,0.9c0.1,0,0.3,0,0.4-0.1v0.6C81.8,172.1,81.6,172.1,81.4,172.1z M85.2,172.1c-0.7,0-1.2-0.2-1.7-0.7
		c-0.4-0.5-0.6-1.1-0.6-1.8c0-0.8,0.2-1.4,0.6-1.8c0.4-0.5,1-0.7,1.7-0.7s1.3,0.2,1.7,0.7c0.4,0.5,0.6,1.1,0.6,1.8
		c0,0.8-0.2,1.4-0.6,1.9C86.5,171.9,85.9,172.1,85.2,172.1z M85.2,171.5c0.9,0,1.4-0.6,1.4-1.9c0-1.2-0.5-1.9-1.4-1.9
		s-1.4,0.6-1.4,1.9C83.9,170.9,84.3,171.5,85.2,171.5z M91.8,172v-6.6h2c0.6,0,1.1,0.1,1.5,0.4c0.3,0.3,0.5,0.7,0.5,1.2
		c0,0.9-0.4,1.5-1.3,1.9l2.2,3.1h-1.1l-1.9-2.8h-0.9v2.8L91.8,172L91.8,172z M92.7,168.6H93c1.2,0,1.8-0.5,1.8-1.4
		c0-0.7-0.5-1-1.5-1h-0.6C92.7,166.2,92.7,168.6,92.7,168.6z M101.1,171.9c-0.6,0.2-1.1,0.3-1.5,0.3c-0.7,0-1.3-0.2-1.7-0.7
		c-0.4-0.5-0.7-1.1-0.7-1.8s0.2-1.3,0.6-1.8s0.9-0.7,1.5-0.7s1,0.2,1.4,0.6c0.3,0.4,0.5,1,0.5,1.8v0.3h-3.1c0.1,1.1,0.7,1.7,1.7,1.7
		c0.4,0,0.8-0.1,1.3-0.3C101.1,171.3,101.1,171.9,101.1,171.9z M98.1,169.1h2.1c0-0.9-0.3-1.4-1-1.4
		C98.6,167.7,98.2,168.2,98.1,169.1z M102.7,173.8v-6.6h0.9v0.9c0.4-0.7,0.9-1,1.6-1c0.6,0,1,0.2,1.4,0.6c0.3,0.4,0.5,1,0.5,1.7
		c0,0.8-0.2,1.4-0.6,1.9s-0.9,0.7-1.5,0.7s-1.1-0.2-1.4-0.7v2.3h-0.9V173.8z M103.5,170.9c0.5,0.4,0.9,0.6,1.3,0.6
		c0.8,0,1.3-0.6,1.3-1.9c0-1.1-0.4-1.7-1.1-1.7c-0.5,0-1,0.3-1.4,0.8v2.2L103.5,170.9L103.5,170.9z M112,171.9
		c-0.6,0.2-1.1,0.3-1.5,0.3c-0.7,0-1.3-0.2-1.7-0.7c-0.4-0.5-0.7-1.1-0.7-1.8s0.2-1.3,0.6-1.8s0.9-0.7,1.5-0.7s1,0.2,1.4,0.6
		c0.3,0.4,0.5,1,0.5,1.8v0.3H109c0.1,1.1,0.7,1.7,1.7,1.7c0.4,0,0.8-0.1,1.3-0.3V171.9z M109,169.1h2.1c0-0.9-0.3-1.4-1-1.4
		C109.4,167.7,109,168.2,109,169.1z M116,171.4c-0.5,0.5-1,0.7-1.5,0.7c-0.4,0-0.7-0.1-1-0.4c-0.3-0.3-0.4-0.6-0.4-1
		c0-0.5,0.2-0.9,0.7-1.2c0.4-0.3,1.1-0.4,1.9-0.4h0.2v-0.6c0-0.6-0.3-0.8-0.9-0.8c-0.5,0-1,0.1-1.5,0.4v-0.7
		c0.6-0.2,1.1-0.4,1.7-0.4c0.5,0,0.9,0.1,1.2,0.4c0.3,0.2,0.4,0.6,0.4,1.1v2.2c0,0.5,0.2,0.8,0.5,0.8c0,0,0.1,0,0.2,0l0.1,0.5
		c-0.2,0.1-0.4,0.1-0.7,0.1C116.4,172.1,116.1,171.9,116,171.4z M115.9,170.9v-1.3h-0.3c-0.5,0-0.9,0.1-1.2,0.3
		c-0.3,0.2-0.4,0.4-0.4,0.7c0,0.2,0.1,0.4,0.2,0.5s0.3,0.2,0.5,0.2C115.1,171.4,115.5,171.3,115.9,170.9z M120,172.1
		c-0.4,0-0.8-0.1-1-0.4c-0.2-0.3-0.4-0.6-0.4-1.1v-2.8H118v-0.7h0.6v-0.9l0.9-0.1v1h1.3v0.7h-1.3v2.7c0,0.6,0.3,0.9,0.8,0.9
		c0.1,0,0.3,0,0.4-0.1v0.6C120.4,172.1,120.2,172.1,120,172.1z M125.5,171.9c-0.6,0.2-1.1,0.3-1.5,0.3c-0.7,0-1.3-0.2-1.7-0.7
		c-0.4-0.5-0.7-1.1-0.7-1.8s0.2-1.3,0.6-1.8s0.9-0.7,1.5-0.7s1,0.2,1.4,0.6c0.3,0.4,0.5,1,0.5,1.8v0.3h-3.1c0.1,1.1,0.7,1.7,1.7,1.7
		c0.4,0,0.8-0.1,1.3-0.3C125.5,171.3,125.5,171.9,125.5,171.9z M122.5,169.1h2.1c0-0.9-0.3-1.4-1-1.4
		C123,167.7,122.6,168.2,122.5,169.1z M127,172v-4.8h0.9v0.9c0.3-0.7,0.9-1,1.5-1c0.1,0,0.2,0,0.3,0v0.8c-0.2-0.1-0.3-0.1-0.4-0.1
		c-0.6,0-1,0.3-1.4,1v3.2L127,172L127,172z"/>
	<path style="fill:#D5D5D5;" d="M59.3,131.8h70.6c1.6,0,2.9,1.3,2.9,2.9l0,0c0,1.6-1.3,2.9-2.9,2.9H59.3c-1.6,0-2.9-1.3-2.9-2.9l0,0
		C56.3,133.1,57.6,131.8,59.3,131.8z"/>
	<path style="fill:#D5D5D5;" d="M59.3,141.2h62.4c1.6,0,2.9,1.3,2.9,2.9l0,0c0,1.6-1.3,2.9-2.9,2.9H59.3c-1.6,0-2.9-1.3-2.9-2.9l0,0
		C56.3,142.5,57.6,141.2,59.3,141.2z"/>
	<path style="fill:#D5D5D5;" d="M59.3,150.6h48.3c1.6,0,2.9,1.3,2.9,2.9l0,0c0,1.6-1.3,2.9-2.9,2.9H59.3c-1.6,0-2.9-1.3-2.9-2.9l0,0
		C56.3,151.9,57.6,150.6,59.3,150.6z"/>
	<path style="fill:#D5D5D5;" d="M59.3,183h50c1.6,0,2.9,1.3,2.9,2.9l0,0c0,1.6-1.3,2.9-2.9,2.9h-50c-1.6,0-2.9-1.3-2.9-2.9l0,0
		C56.3,184.3,57.6,183,59.3,183z"/>
	<path style="fill:#D5D5D5;" d="M59.3,192.4h62.4c1.6,0,2.9,1.3,2.9,2.9l0,0c0,1.6-1.3,2.9-2.9,2.9H59.3c-1.6,0-2.9-1.3-2.9-2.9l0,0
		C56.3,193.7,57.6,192.4,59.3,192.4z"/>
	<path style="fill:#D5D5D5;" d="M59.3,201.8h48.3c1.6,0,2.9,1.3,2.9,2.9l0,0c0,1.6-1.3,2.9-2.9,2.9H59.3c-1.6,0-2.9-1.3-2.9-2.9l0,0
		C56.3,203.1,57.6,201.8,59.3,201.8z"/>
	<path style="fill:#161616;" d="M51.7,111.1v-6.6h2c0.6,0,1.1,0.1,1.5,0.4c0.3,0.3,0.5,0.7,0.5,1.2c0,0.9-0.4,1.5-1.3,1.9l2.2,3.1
		h-1.1l-1.9-2.8h-0.9v2.8H51.7z M52.7,107.7H53c1.2,0,1.8-0.5,1.8-1.4c0-0.7-0.5-1-1.5-1h-0.6V107.7z M57.5,111.1v-4.8h0.9v4.8H57.5
		z M57.5,105.4v-0.9h0.9v0.9H57.5z M60.2,112.7l0.1-0.8c0.5,0.2,1,0.4,1.5,0.4c1,0,1.5-0.5,1.5-1.6V110c-0.3,0.7-0.9,1-1.6,1
		c-0.6,0-1-0.2-1.4-0.6c-0.3-0.4-0.5-1-0.5-1.7s0.2-1.3,0.6-1.8c0.4-0.5,0.9-0.7,1.5-0.7c0.5,0,1,0.2,1.4,0.7v-0.6h0.9v3.5
		c0,0.8,0,1.3-0.1,1.7c-0.1,0.4-0.2,0.7-0.4,0.9c-0.4,0.4-1,0.6-1.8,0.6C61.2,113,60.7,112.9,60.2,112.7z M63.3,109.5v-2
		c-0.4-0.4-0.8-0.6-1.3-0.6c-0.4,0-0.7,0.2-0.9,0.5s-0.3,0.8-0.3,1.3c0,1.1,0.4,1.6,1.1,1.6C62.3,110.3,62.8,110,63.3,109.5z
		 M65.9,111.1v-7h0.9v3.1c0.5-0.7,1-1,1.7-1c0.4,0,0.8,0.1,1,0.4s0.4,0.6,0.4,1.1v3.5H69V108c0-0.4-0.1-0.6-0.2-0.8
		c-0.1-0.2-0.3-0.2-0.5-0.2c-0.5,0-1,0.4-1.5,1.1v3.1L65.9,111.1L65.9,111.1z M73,111.3c-0.4,0-0.8-0.1-1-0.4s-0.4-0.6-0.4-1.1V107
		H71v-0.7h0.6v-0.9l0.9-0.1v1h1.3v0.7h-1.3v2.7c0,0.6,0.3,0.9,0.8,0.9c0.1,0,0.3,0,0.4-0.1v0.6C73.4,111.2,73.2,111.3,73,111.3z
		 M74.7,108.8v-0.7h4v0.7H74.7z M82.1,111.3c-0.7,0-1.2-0.2-1.6-0.7s-0.6-1.1-0.6-1.8c0-0.8,0.2-1.4,0.6-1.8s1-0.7,1.8-0.7
		c0.4,0,0.8,0.1,1.3,0.2v0.7c-0.5-0.1-0.9-0.2-1.2-0.2c-0.4,0-0.8,0.2-1.1,0.5c-0.3,0.3-0.4,0.8-0.4,1.3s0.1,1,0.4,1.3
		s0.6,0.5,1.1,0.5c0.4,0,0.8-0.1,1.2-0.3v0.8C83,111.2,82.5,111.3,82.1,111.3z M84.9,111.1v-7h0.9v7H84.9z M87.5,111.1v-4.8h0.9v4.8
		H87.5z M87.5,105.4v-0.9h0.9v0.9H87.5z M92.1,111.3c-0.7,0-1.2-0.2-1.6-0.7s-0.6-1.1-0.6-1.8c0-0.8,0.2-1.4,0.6-1.8s1-0.7,1.8-0.7
		c0.4,0,0.8,0.1,1.3,0.2v0.7c-0.5-0.1-0.9-0.2-1.2-0.2c-0.4,0-0.8,0.2-1.1,0.5c-0.3,0.3-0.4,0.8-0.4,1.3s0.1,1,0.4,1.3
		s0.6,0.5,1.1,0.5c0.4,0,0.8-0.1,1.2-0.3v0.8C93,111.2,92.5,111.3,92.1,111.3z M94.9,111.1v-7h0.9v4.5l2-2.3h0.9l-2,2.3l2.4,2.6H98
		l-2.3-2.5v2.5L94.9,111.1L94.9,111.1z"/>
	<path style="opacity:0.5;fill:#2B2B2B;enable-background:new    ;" d="M7.3,90.9v-7.4h2.2c0.7,0,1.3,0.2,1.6,0.5
		c0.4,0.3,0.6,0.8,0.6,1.4c0,1-0.5,1.7-1.5,2.1l2.5,3.5h-1.3l-2.1-3.1h-1V91L7.3,90.9L7.3,90.9z M8.3,87h0.3c1.3,0,2-0.5,2-1.6
		c0-0.8-0.6-1.1-1.7-1.1H8.3V87z M17.8,90.7c-0.7,0.2-1.2,0.3-1.7,0.3c-0.8,0-1.5-0.3-2-0.8s-0.8-1.2-0.8-2.1c0-0.8,0.2-1.5,0.7-2
		c0.4-0.5,1-0.8,1.7-0.8s1.2,0.2,1.5,0.7c0.4,0.5,0.5,1.1,0.5,2v0.3h-3.4c0.1,1.3,0.8,1.9,1.9,1.9c0.4,0,0.9-0.1,1.5-0.3v0.8H17.8z
		 M14.4,87.6h2.4c0-1-0.4-1.5-1.1-1.5C14.9,86.1,14.5,86.6,14.4,87.6z M23,92.9v-3c-0.4,0.8-1,1.1-1.8,1.1c-0.7,0-1.2-0.2-1.5-0.7
		c-0.4-0.5-0.6-1.1-0.6-2s0.2-1.6,0.6-2.2s1-0.8,1.7-0.8c0.6,0,1.2,0.2,1.6,0.7v-0.6h1v7.4L23,92.9L23,92.9z M23,86.7
		c-0.5-0.5-1-0.7-1.5-0.7c-0.9,0-1.4,0.7-1.4,2.2c0,1.3,0.4,1.9,1.3,1.9c0.5,0,1.1-0.3,1.6-0.9V86.7z M29.4,90.9v-1
		c-0.5,0.8-1.2,1.1-1.9,1.1c-0.5,0-0.9-0.1-1.1-0.4c-0.3-0.3-0.4-0.7-0.4-1.2v-3.9h1V89c0,0.4,0.1,0.7,0.2,0.9
		c0.1,0.2,0.3,0.3,0.6,0.3c0.6,0,1.2-0.4,1.7-1.2v-3.5h1v5.4C30.5,90.9,29.4,90.9,29.4,90.9z M36.3,90.7c-0.7,0.2-1.2,0.3-1.7,0.3
		c-0.8,0-1.5-0.3-2-0.8s-0.8-1.2-0.8-2.1c0-0.8,0.2-1.5,0.7-2c0.4-0.5,1-0.8,1.7-0.8s1.2,0.2,1.5,0.7c0.4,0.5,0.5,1.1,0.5,2v0.3
		h-3.4c0.1,1.3,0.8,1.9,1.9,1.9c0.4,0,0.9-0.1,1.5-0.3L36.3,90.7L36.3,90.7z M33,87.6h2.4c0-1-0.4-1.5-1.1-1.5
		C33.5,86.1,33,86.6,33,87.6z M39.5,91c-0.5,0-1-0.1-1.6-0.3v-0.9c0.6,0.3,1.2,0.5,1.7,0.5c0.3,0,0.5-0.1,0.7-0.2
		c0.2-0.2,0.3-0.3,0.3-0.6c0-0.3-0.3-0.6-0.8-0.8l-0.6-0.2c-0.9-0.4-1.3-0.9-1.3-1.5c0-0.5,0.2-0.8,0.5-1.1c0.3-0.3,0.8-0.4,1.4-0.4
		c0.3,0,0.7,0,1.1,0.1h0.2v0.8c-0.6-0.2-1-0.2-1.3-0.2c-0.6,0-1,0.2-1,0.7c0,0.3,0.2,0.5,0.7,0.8l0.5,0.2c0.5,0.2,0.9,0.5,1.1,0.7
		c0.2,0.3,0.3,0.6,0.3,0.9c0,0.5-0.2,0.9-0.6,1.2C40.6,90.9,40.1,91,39.5,91z M44.9,91c-0.5,0-0.9-0.1-1.2-0.4s-0.4-0.7-0.4-1.2
		v-3.2h-0.7v-0.7h0.7v-1l1-0.1v1.1h1.4v0.7h-1.4v3c0,0.7,0.3,1.1,0.9,1.1c0.1,0,0.3,0,0.5-0.1v0.7C45.4,91,45.1,91,44.9,91z"/>
	<path style="opacity:0.5;fill:#2B2B2B;enable-background:new    ;" d="M172.3,90.9v-7.4h2.2c0.7,0,1.3,0.2,1.6,0.5
		c0.4,0.3,0.6,0.8,0.6,1.4c0,1-0.5,1.7-1.5,2.1l2.5,3.5h-1.3l-2.1-3.1h-1V91L172.3,90.9L172.3,90.9z M173.4,87h0.3
		c1.3,0,2-0.5,2-1.6c0-0.8-0.6-1.1-1.7-1.1h-0.7L173.4,87L173.4,87z M182.8,90.7c-0.7,0.2-1.2,0.3-1.7,0.3c-0.8,0-1.5-0.3-2-0.8
		s-0.8-1.2-0.8-2.1c0-0.8,0.2-1.5,0.7-2c0.4-0.5,1-0.8,1.7-0.8s1.2,0.2,1.5,0.7c0.4,0.5,0.5,1.1,0.5,2v0.3h-3.4
		c0.1,1.3,0.8,1.9,1.9,1.9c0.4,0,0.9-0.1,1.5-0.3v0.8H182.8z M179.5,87.6h2.4c0-1-0.4-1.5-1.1-1.5C180,86.1,179.6,86.6,179.5,87.6z
		 M186,91c-0.5,0-1-0.1-1.6-0.3v-0.9c0.6,0.3,1.2,0.5,1.7,0.5c0.3,0,0.5-0.1,0.7-0.2c0.2-0.2,0.3-0.3,0.3-0.6c0-0.3-0.3-0.6-0.8-0.8
		l-0.6-0.2c-0.9-0.4-1.3-0.9-1.3-1.5c0-0.5,0.2-0.8,0.5-1.1c0.3-0.3,0.8-0.4,1.4-0.4c0.3,0,0.7,0,1.1,0.1h0.2v0.8
		c-0.6-0.2-1-0.2-1.3-0.2c-0.6,0-1,0.2-1,0.7c0,0.3,0.2,0.5,0.7,0.8l0.5,0.2c0.5,0.2,0.9,0.5,1.1,0.7c0.2,0.3,0.3,0.6,0.3,0.9
		c0,0.5-0.2,0.9-0.6,1.2C187.1,90.9,186.6,91,186,91z M189.8,92.9v-7.4h1v1c0.4-0.8,1-1.1,1.8-1.1c0.7,0,1.2,0.2,1.5,0.7
		c0.4,0.5,0.6,1.1,0.6,2s-0.2,1.6-0.6,2.2c-0.4,0.6-1,0.8-1.7,0.8c-0.6,0-1.2-0.2-1.6-0.7V93L189.8,92.9L189.8,92.9z M190.8,89.6
		c0.5,0.5,1,0.7,1.5,0.7c0.9,0,1.4-0.7,1.4-2.2c0-1.3-0.4-1.9-1.3-1.9c-0.6,0-1.1,0.3-1.6,0.9L190.8,89.6L190.8,89.6z M198.4,91
		c-0.8,0-1.4-0.3-1.9-0.8s-0.7-1.2-0.7-2.1s0.2-1.6,0.7-2.1s1.1-0.8,1.9-0.8c0.8,0,1.4,0.3,1.9,0.8s0.7,1.2,0.7,2.1
		s-0.2,1.6-0.7,2.1C199.8,90.8,199.2,91,198.4,91z M198.4,90.3c1,0,1.6-0.7,1.6-2.1s-0.5-2.1-1.5-2.1s-1.5,0.7-1.5,2.1
		C196.9,89.6,197.4,90.3,198.4,90.3z M202.6,90.9v-5.4h1v1c0.5-0.8,1.2-1.1,1.9-1.1c0.5,0,0.8,0.2,1.1,0.5s0.4,0.7,0.4,1.2V91h-1
		v-3.6c0-0.4-0.1-0.7-0.2-0.9c-0.1-0.2-0.3-0.3-0.6-0.3c-0.6,0-1.2,0.4-1.7,1.2v3.5C203.5,90.9,202.6,90.9,202.6,90.9z M210.4,91
		c-0.4,0-1-0.1-1.6-0.3v-0.9c0.6,0.3,1.2,0.5,1.7,0.5c0.3,0,0.5-0.1,0.7-0.2c0.2-0.2,0.3-0.3,0.3-0.6c0-0.3-0.3-0.6-0.8-0.8
		l-0.6-0.2c-0.9-0.4-1.3-0.9-1.3-1.5c0-0.5,0.2-0.8,0.5-1.1c0.3-0.3,0.8-0.4,1.4-0.4c0.3,0,0.7,0,1.1,0.1h0.2v0.8
		c-0.6-0.2-1-0.2-1.3-0.2c-0.6,0-1,0.2-1,0.7c0,0.3,0.2,0.5,0.7,0.8l0.5,0.2c0.5,0.2,0.9,0.5,1.1,0.7c0.2,0.3,0.3,0.6,0.3,0.9
		c0,0.5-0.2,0.9-0.6,1.2C211.4,90.9,210.9,91,210.4,91z M218.1,90.7c-0.7,0.2-1.2,0.3-1.7,0.3c-0.8,0-1.5-0.3-2-0.8
		s-0.8-1.2-0.8-2.1c0-0.8,0.2-1.5,0.7-2c0.4-0.5,1-0.8,1.7-0.8s1.2,0.2,1.5,0.7c0.4,0.5,0.5,1.1,0.5,2v0.3h-3.4
		c0.1,1.3,0.8,1.9,1.9,1.9c0.4,0,0.9-0.1,1.5-0.3v0.8H218.1z M214.8,87.6h2.4c0-1-0.4-1.5-1.1-1.5C215.3,86.1,214.9,86.6,214.8,87.6
		z"/>
	<path style="fill:#2B2B2B;" d="M33.5,102.1l4.2,10l1.5-4.3l4.4-1.5L33.5,102.1z"/>
	<path style="fill:none;stroke:#2B2B2B;stroke-width:1.1785;stroke-linecap:round;stroke-linejoin:round;" d="M39.4,108l3.5,3.5"/>
	<path style="fill:#CACACD;" d="M147.3,170.3l2.8,1.9l0.2-3.4L147.3,170.3z M112.1,108.1c0.2,0,0.4,0,0.6,0v-0.6c-0.2,0-0.4,0-0.6,0
		V108.1z M113.9,108.2c0.4,0,0.8,0,1.2,0v-0.6c-0.4,0-0.8,0-1.2,0V108.2z M116.2,108.2c0.4,0,0.8,0,1.2,0v-0.6c-0.4,0-0.8,0-1.2,0
		V108.2z M118.6,108.2c0.4,0,0.8,0,1.2,0v-0.6c-0.4,0-0.8,0-1.2,0V108.2z M121,108.2c0.4,0,0.8,0,1.2,0v-0.6c-0.4,0-0.8,0-1.2,0
		V108.2z M123.4,108.3c0.4,0,0.8,0,1.2,0v-0.6c-0.4,0-0.8,0-1.2,0V108.3z M125.8,108.3c0.4,0,0.8,0,1.2,0v-0.6c-0.4,0-0.8,0-1.2,0
		V108.3z M128.2,108.4c0.4,0,0.8,0,1.2,0v-0.6c-0.4,0-0.8,0-1.2,0V108.4z M130.5,108.5c0.4,0,0.8,0,1.2,0.1V108
		c-0.4,0-0.8,0-1.2-0.1V108.5z M132.9,108.7c0.4,0,0.8,0,1.2,0.1v-0.6c-0.4,0-0.8,0-1.2-0.1V108.7z M135.3,108.8
		c0.4,0,0.8,0.1,1.2,0.1v-0.6c-0.4,0-0.8-0.1-1.2-0.1V108.8z M137.7,109c0.4,0,0.8,0.1,1.2,0.1v-0.6c-0.4,0-0.8-0.1-1.2-0.1V109z
		 M140,109.2c0.4,0,0.8,0.1,1.2,0.1l0.1-0.6c-0.4,0-0.8-0.1-1.2-0.1L140,109.2z M142.4,109.4c0.4,0,0.8,0.1,1.2,0.1l0.1-0.6
		c-0.4,0-0.8-0.1-1.2-0.1L142.4,109.4z M144.8,109.6c0.4,0,0.8,0.1,1.2,0.1l0.1-0.6c-0.4,0-0.8-0.1-1.2-0.1L144.8,109.6z
		 M147.1,109.9c0.4,0.1,0.8,0.1,1.2,0.2l0.1-0.6c-0.4-0.1-0.8-0.1-1.2-0.2L147.1,109.9z M149.5,110.2c0.4,0.1,0.8,0.1,1.2,0.2
		l0.1-0.6c-0.4-0.1-0.8-0.1-1.2-0.2L149.5,110.2z M151.9,110.6c0.4,0.1,0.8,0.1,1.2,0.2l0.1-0.6c-0.4-0.1-0.8-0.1-1.2-0.2
		L151.9,110.6z M154.2,111c0.4,0.1,0.8,0.1,1.2,0.2l0.1-0.6c-0.4-0.1-0.8-0.2-1.2-0.2L154.2,111z M156.5,111.5
		c0.4,0.1,0.8,0.2,1.2,0.3l0.1-0.6c-0.4-0.1-0.8-0.2-1.2-0.3L156.5,111.5z M158.9,112c0.4,0.1,0.8,0.2,1.2,0.3l0.1-0.6
		c-0.4-0.1-0.8-0.2-1.2-0.3L158.9,112z M161.2,112.6c0.4,0.1,0.8,0.2,1.1,0.3l0.2-0.6c-0.4-0.1-0.8-0.2-1.1-0.3L161.2,112.6z
		 M163.4,113.2c0.4,0.1,0.8,0.2,1.1,0.4l0.2-0.6c-0.4-0.1-0.8-0.2-1.1-0.4L163.4,113.2z M165.7,113.9c0.4,0.1,0.7,0.3,1.1,0.4
		l0.2-0.6c-0.4-0.1-0.7-0.3-1.1-0.4L165.7,113.9z M167.9,114.8c0.4,0.1,0.7,0.3,1.1,0.5l0.2-0.5c-0.4-0.2-0.7-0.3-1.1-0.5
		L167.9,114.8z M170.1,115.7c0.4,0.2,0.7,0.3,1.1,0.5l0.3-0.5c-0.4-0.2-0.7-0.3-1.1-0.5L170.1,115.7z M172.2,116.8
		c0.4,0.2,0.7,0.4,1,0.6l0.3-0.5c-0.3-0.2-0.7-0.4-1.1-0.6L172.2,116.8z M174.3,117.9c0.3,0.2,0.7,0.4,1,0.6l0.3-0.5
		c-0.3-0.2-0.7-0.4-1-0.7L174.3,117.9z M176.2,119.3c0.3,0.2,0.6,0.5,0.9,0.7l0.4-0.5c-0.3-0.2-0.6-0.5-1-0.7L176.2,119.3z
		 M178.1,120.7c0.3,0.3,0.6,0.5,0.9,0.8l0.4-0.4c-0.3-0.3-0.6-0.5-0.9-0.8L178.1,120.7z M179.8,122.3c0.3,0.3,0.5,0.6,0.8,0.9
		l0.4-0.4c-0.3-0.3-0.5-0.6-0.8-0.9L179.8,122.3z M181.3,124.1c0.2,0.3,0.5,0.6,0.7,0.9l0.5-0.3c-0.2-0.3-0.5-0.7-0.7-1L181.3,124.1
		z M182.7,126.1c0.2,0.3,0.4,0.7,0.6,1l0.5-0.3c-0.2-0.4-0.4-0.7-0.6-1L182.7,126.1z M183.8,128.1c0.2,0.4,0.3,0.7,0.5,1.1l0.5-0.2
		c-0.2-0.4-0.3-0.7-0.5-1.1L183.8,128.1z M184.7,130.3c0.1,0.4,0.3,0.7,0.4,1.1l0.6-0.2c-0.1-0.4-0.2-0.8-0.4-1.1L184.7,130.3z
		 M185.4,132.6c0.1,0.4,0.2,0.8,0.3,1.2l0.6-0.1c-0.1-0.4-0.2-0.8-0.3-1.2L185.4,132.6z M185.9,134.9c0.1,0.4,0.1,0.8,0.2,1.2
		l0.6-0.1c0-0.4-0.1-0.8-0.2-1.2L185.9,134.9z M186.1,137.2c0,0.4,0.1,0.8,0.1,1.2h0.6c0-0.4,0-0.8-0.1-1.2H186.1z M186.3,139.6
		c0,0.2,0,0.4,0,0.6h0.6c0-0.2,0-0.4,0-0.6H186.3z M186.3,140.2c0,0.2,0,0.4,0,0.6h0.6c0-0.2,0-0.4,0-0.6H186.3z M186.2,142
		c0,0.4,0,0.8-0.1,1.2h0.6c0-0.4,0-0.8,0.1-1.2H186.2z M186.1,144.3c0,0.4-0.1,0.8-0.1,1.2l0.6,0.1c0.1-0.4,0.1-0.8,0.1-1.2
		L186.1,144.3z M185.8,146.6c-0.1,0.4-0.1,0.8-0.2,1.1l0.6,0.1c0.1-0.4,0.2-0.8,0.2-1.2L185.8,146.6z M185.3,148.9
		c-0.1,0.4-0.2,0.8-0.3,1.1l0.6,0.2c0.1-0.4,0.2-0.8,0.3-1.2L185.3,148.9z M184.6,151.2c-0.1,0.4-0.3,0.7-0.4,1.1l0.6,0.2
		c0.1-0.4,0.3-0.7,0.4-1.1L184.6,151.2z M183.8,153.3c-0.2,0.4-0.3,0.7-0.5,1.1l0.5,0.3c0.2-0.4,0.3-0.7,0.5-1.1L183.8,153.3z
		 M182.8,155.4c-0.2,0.3-0.4,0.7-0.6,1l0.5,0.3c0.2-0.3,0.4-0.7,0.6-1L182.8,155.4z M181.5,157.4c-0.2,0.3-0.4,0.6-0.7,0.9l0.5,0.4
		c0.2-0.3,0.5-0.6,0.7-1L181.5,157.4z M180.1,159.3c-0.3,0.3-0.5,0.6-0.8,0.9l0.4,0.4c0.3-0.3,0.5-0.6,0.8-0.9L180.1,159.3z
		 M178.5,161c-0.3,0.3-0.6,0.5-0.9,0.8l0.4,0.4c0.3-0.3,0.6-0.5,0.9-0.8L178.5,161z M176.8,162.6c-0.3,0.2-0.6,0.5-0.9,0.7l0.3,0.5
		c0.3-0.2,0.6-0.5,0.9-0.7L176.8,162.6z M174.9,164c-0.3,0.2-0.7,0.4-1,0.6l0.3,0.5c0.3-0.2,0.7-0.4,1-0.6L174.9,164z M172.9,165.2
		c-0.3,0.2-0.7,0.4-1,0.6l0.3,0.5c0.4-0.2,0.7-0.4,1.1-0.6L172.9,165.2z M170.8,166.2c-0.4,0.2-0.7,0.3-1.1,0.5l0.2,0.5
		c0.4-0.2,0.7-0.3,1.1-0.5L170.8,166.2z M168.7,167.2c-0.4,0.1-0.7,0.3-1.1,0.4l0.2,0.6c0.4-0.1,0.7-0.3,1.1-0.4L168.7,167.2z
		 M166.5,167.9c-0.4,0.1-0.8,0.2-1.1,0.3l0.2,0.6c0.4-0.1,0.8-0.2,1.1-0.3L166.5,167.9z M164.2,168.6c-0.4,0.1-0.8,0.2-1.1,0.3
		l0.1,0.6c0.4-0.1,0.8-0.2,1.2-0.3L164.2,168.6z M161.9,169.1c-0.4,0.1-0.8,0.2-1.2,0.2l0.1,0.6c0.4-0.1,0.8-0.1,1.2-0.2
		L161.9,169.1z M159.6,169.5c-0.4,0.1-0.8,0.1-1.2,0.2l0.1,0.6c0.4-0.1,0.8-0.1,1.2-0.2L159.6,169.5z M157.3,169.8
		c-0.4,0-0.8,0.1-1.2,0.1l0.1,0.6c0.4,0,0.8-0.1,1.2-0.1L157.3,169.8z M154.9,170c-0.4,0-0.8,0-1.2,0.1v0.6c0.4,0,0.8,0,1.2-0.1V170
		z M152.6,170.1c-0.4,0-0.8,0-1.2,0v0.6c0.4,0,0.8,0,1.2,0V170.1z M150.2,170.1c-0.4,0-0.8,0-1.2,0v0.6c0.4,0,0.8,0,1.2,0V170.1z"/>
</g>
</svg>
