<svg xmlns="http://www.w3.org/2000/svg" width="90" height="63" viewBox="0 0 90 63" fill="none">
    <g clip-path="url(#clip0_2384_24366)">
        <path d="M58.7427 13.3426L52.0459 9.47613C48.2195 7.267 42.0158 7.267 38.1895 9.47614L31.4926 13.3426" stroke="#5384B2" stroke-width="4" stroke-linecap="round"/>
        <path d="M76.6252 39.3998L83.322 35.5334C87.1484 33.3242 87.1484 29.7425 83.322 27.5334L76.6252 23.667" stroke="#5384B2" stroke-width="4" stroke-linecap="round"/>
        <path d="M13.6099 23.6674L6.91307 27.5338C3.08673 29.743 3.08673 33.3247 6.91307 35.5338L13.6099 39.4002" stroke="#5384B2" stroke-width="4" stroke-linecap="round"/>
        <path d="M32.3444 49.2328L39.0413 53.0992C42.8676 55.3084 49.0713 55.3084 52.8977 53.0992L59.5945 49.2328" stroke="#5384B2" stroke-width="4" stroke-linecap="round"/>
        <path d="M66.4736 27.288L52.0459 18.9582C48.2195 16.7491 42.0158 16.7491 38.1895 18.9582L23.7617 27.288C19.9354 29.4972 19.9354 33.0789 23.7617 35.288L38.1895 43.6179C42.0158 45.827 48.2195 45.827 52.0459 43.6179L66.4736 35.288C70.3 33.0789 70.3 29.4972 66.4736 27.288Z" fill="#5B4FFF"/>
        <path d="M36.1678 37.1829L33.9951 35.9285L37.199 34.0788L43.7089 33.7019L40.7804 32.0111L45.1346 29.4972L39.8342 26.437L51.6233 25.7509L54.0677 24.3396L56.2404 25.594L53.0365 27.4438L46.5311 27.8233L49.4552 29.5115L45.1009 32.0254L50.4013 35.0856L38.6123 35.7716L36.1678 37.1829Z" fill="white"/>
        <path opacity="0.3" d="M21.1777 17.1911L68.4099 44.4606" stroke="#2B2B2B" stroke-width="4" stroke-linecap="round"/>
        <path opacity="0.3" d="M21.1777 23.5123L68.4099 50.7818" stroke="white" stroke-width="4" stroke-linecap="round"/>
    </g>
    <defs>
        <clipPath id="clip0_2384_24366">
            <rect width="90" height="63" fill="white"/>
        </clipPath>
    </defs>
</svg>