<svg width="16" height="16" viewBox="0 0 16 16" fill="none" xmlns="http://www.w3.org/2000/svg">
<path fill-rule="evenodd" clip-rule="evenodd" d="M8 3.33333C5.42267 3.33333 3.33333 5.42267 3.33333 8C3.33333 10.5773 5.42267 12.6667 8 12.6667C10.5773 12.6667 12.6667 10.5773 12.6667 8C12.6667 5.42267 10.5773 3.33333 8 3.33333ZM2 8C2 4.68629 4.68629 2 8 2C11.3137 2 14 4.68629 14 8C14 11.3137 11.3137 14 8 14C4.68629 14 2 11.3137 2 8Z" fill="#262626"/>
<path fill-rule="evenodd" clip-rule="evenodd" d="M9.88593 7.0572C10.1463 6.79685 10.1463 6.37474 9.88593 6.11439C9.62558 5.85404 9.20347 5.85404 8.94312 6.11439L8.00059 7.05693L7.05806 6.11439C6.79771 5.85404 6.3756 5.85404 6.11525 6.11439C5.8549 6.37474 5.8549 6.79685 6.11525 7.0572L7.05778 7.99974L6.1147 8.94282C5.85435 9.20317 5.85435 9.62528 6.1147 9.88563C6.37505 10.146 6.79716 10.146 7.0575 9.88563L8.00059 8.94254L8.94367 9.88563C9.20402 10.146 9.62613 10.146 9.88648 9.88563C10.1468 9.62528 10.1468 9.20317 9.88648 8.94282L8.9434 7.99974L9.88593 7.0572Z" fill="#262626"/>
</svg>
