<svg width="12" height="12" viewBox="0 0 12 12" fill="none" xmlns="http://www.w3.org/2000/svg">
<path d="M1.44721 3.72361C1.26295 3.63148 1.26295 3.36852 1.44721 3.27639L5.55279 1.22361C5.83431 1.08284 6.16569 1.08284 6.44721 1.22361L10.5528 3.27639C10.737 3.36852 10.737 3.63148 10.5528 3.72361L6.44721 5.77639C6.16569 5.91716 5.83431 5.91716 5.55279 5.77639L1.44721 3.72361Z" stroke="#656565"/>
<path d="M3.5 4.75L1.44721 5.77639C1.26295 5.86852 1.26295 6.13148 1.44721 6.22361L5.55279 8.27639C5.83431 8.41716 6.16569 8.41716 6.44721 8.27639L10.5528 6.22361C10.737 6.13148 10.737 5.86852 10.5528 5.77639L8.5 4.75" stroke="#656565"/>
<path d="M3.5 7.25L1.44721 8.27639C1.26295 8.36852 1.26295 8.63148 1.44721 8.72361L5.55279 10.7764C5.83431 10.9172 6.16569 10.9172 6.44721 10.7764L10.5528 8.72361C10.737 8.63148 10.737 8.36852 10.5528 8.27639L8.5 7.25" stroke="#656565"/>
</svg>
