<svg width="12" height="12" viewBox="0 0 12 12" fill="none" xmlns="http://www.w3.org/2000/svg">
<rect x="3.5" y="3.5" width="7" height="7" rx="0.5" stroke="#656565"/>
<path d="M3.5 8.5H2C1.72386 8.5 1.5 8.27614 1.5 8V2C1.5 1.72386 1.72386 1.5 2 1.5H8C8.27614 1.5 8.5 1.72386 8.5 2V3.5" stroke="#656565"/>
<path d="M5.79297 5.84814H6.0874V8H5.79297V5.84814ZM7.38818 7.75098C7.48682 7.75098 7.56787 7.74072 7.63135 7.72021C7.74463 7.68213 7.8374 7.60889 7.90967 7.50049C7.96729 7.41357 8.00879 7.30225 8.03418 7.1665C8.04883 7.08545 8.05615 7.01025 8.05615 6.94092C8.05615 6.67432 8.00293 6.46729 7.89648 6.31982C7.79102 6.17236 7.62061 6.09863 7.38525 6.09863H6.86816V7.75098H7.38818ZM6.5752 5.84814H7.44678C7.74268 5.84814 7.97217 5.95312 8.13525 6.16309C8.28076 6.35254 8.35352 6.59521 8.35352 6.89111C8.35352 7.11963 8.31055 7.32617 8.22461 7.51074C8.07324 7.83691 7.81299 8 7.44385 8H6.5752V5.84814Z" fill="#656565"/>
</svg>
