<svg width="12" height="12" viewBox="0 0 12 12" fill="none" xmlns="http://www.w3.org/2000/svg">
<path d="M5.42119 9.55297L5.88394 10.7099C5.92585 10.8146 6.07415 10.8146 6.11606 10.7099L6.57881 9.55297C6.85489 8.86278 7.30511 8.25591 7.88557 7.79154L8.18316 7.55347C9.01548 6.88761 9.5 5.87709 9.5 4.8112C9.5 3.41111 8.66561 2.1424 7.37872 1.59088C6.4983 1.21356 5.5017 1.21356 4.62128 1.59088C3.33439 2.1424 2.5 3.41111 2.5 4.8112C2.5 5.87709 2.98452 6.88761 3.81684 7.55347L4.11443 7.79154C4.69489 8.25591 5.14511 8.86278 5.42119 9.55297Z" stroke="#656565"/>
<circle cx="6" cy="4.75" r="1" stroke="#656565"/>
</svg>
