<svg width="12" height="12" viewBox="0 0 12 12" fill="none" xmlns="http://www.w3.org/2000/svg">
    <circle cx="6" cy="6" r="2.5" stroke="#262626"/>
    <path fill-rule="evenodd" clip-rule="evenodd" d="M6 7C6.55228 7 7 6.55228 7 6C7 5.44772 6.55228 5 6 5C5.89751 5 5.79862 5.01542 5.70553 5.04406C5.87916 5.12245 6 5.29712 6 5.5C6 5.77614 5.77614 6 5.5 6C5.29712 6 5.12245 5.87916 5.04406 5.70553C5.01542 5.79862 5 5.89751 5 6C5 6.55228 5.44772 7 6 7Z" fill="#262626"/>
    <path d="M6 8.5C3.23328 8.5 1.37275 7.18699 0.631985 6.09011C0.691374 6.03619 0.759672 5.97535 0.836223 5.90894C1.14883 5.63776 1.59634 5.27618 2.13464 4.91531C3.22634 4.18343 4.62453 3.5 6 3.5C7.37547 3.5 8.77366 4.18343 9.86536 4.91531C10.4037 5.27618 10.8512 5.63776 11.1638 5.90894C11.2035 5.94341 11.241 5.97638 11.2762 6.00766C11.2453 6.03615 11.2126 6.06601 11.178 6.0971C10.8781 6.36706 10.4457 6.72728 9.91833 7.08689C8.85166 7.81416 7.45268 8.5 6 8.5Z" stroke="#262626"/>
    <path d="M10.707 2L9.99992 2.70711" stroke="#262626" stroke-linecap="round"/>
    <path d="M9 1V2" stroke="#262626" stroke-linecap="round"/>
    <path d="M11.5 3.75L10.5 3.75" stroke="#262626" stroke-linecap="round"/>
</svg>
