<svg width="12" height="12" viewBox="0 0 12 12" fill="none" xmlns="http://www.w3.org/2000/svg">
    <g clip-path="url(#clip0)">
        <path d="M5.03532 9.58171L5.78173 10.5794C5.84933 10.6698 5.99258 10.6314 6.00594 10.5193L6.1535 9.28209C6.24154 8.54397 6.51935 7.84125 6.95984 7.24247L7.18568 6.93549C7.8173 6.0769 8.02376 4.97541 7.74789 3.94584C7.38552 2.59345 6.2512 1.58393 4.86541 1.38427C3.91733 1.24768 2.95469 1.50561 2.20193 2.09795C1.10163 2.96376 0.62404 4.40518 0.986412 5.75757C1.26228 6.78714 1.99183 7.63783 2.96813 8.06558L3.3172 8.21851C3.99807 8.51683 4.59002 8.98649 5.03532 9.58171Z" stroke="#262626" stroke-linecap="round" stroke-dasharray="2 2"/>
        <circle cx="4.35128" cy="4.79259" r="1" transform="rotate(-15 4.35128 4.79259)" stroke="#262626"/>
        <path d="M6.10798 9.28212L6.25554 10.5194C6.2689 10.6314 6.41216 10.6698 6.47975 10.5794L7.22616 9.58174C7.67146 8.98652 8.26341 8.51685 8.94428 8.21854L9.29335 8.0656C10.2696 7.63786 10.9992 6.78717 11.2751 5.7576C11.6374 4.40521 11.1598 2.96378 10.0595 2.09798C9.30679 1.50564 8.34415 1.2477 7.39607 1.3843C6.01028 1.58396 4.87596 2.59348 4.51359 3.94587C4.23772 4.97544 4.44418 6.07693 5.0758 6.93551L5.30164 7.2425C5.74213 7.84128 6.01995 8.544 6.10798 9.28212Z" fill="white" stroke="#262626" stroke-linecap="round"/>
        <circle cx="7.91027" cy="4.79262" r="1" transform="rotate(15 7.91027 4.79262)" fill="white" stroke="#262626"/>
    </g>
    <defs>
        <clipPath id="clip0">
            <rect width="12" height="12" fill="white"/>
        </clipPath>
    </defs>
</svg>
