<svg width="12" height="12" viewBox="0 0 12 12" fill="none" xmlns="http://www.w3.org/2000/svg">
<path d="M3 1.5V1.5C2.38713 1.80643 2 2.43283 2 3.11803V4.49194C2 4.81724 1.87077 5.12923 1.64075 5.35925V5.35925C1.54753 5.45247 1.43989 5.53006 1.32197 5.58902L0.935119 5.78244C0.75584 5.87208 0.75584 6.12792 0.935119 6.21756L1.32197 6.41098C1.43989 6.46994 1.54753 6.54753 1.64075 6.64075V6.64075C1.87077 6.87077 2 7.18276 2 7.50806V8.88197C2 9.56717 2.38713 10.1936 3 10.5V10.5" stroke="#656565"/>
<path d="M9 1.5V1.5C9.61287 1.80643 10 2.43283 10 3.11803V4.49194C10 4.81724 10.1292 5.12923 10.3593 5.35925V5.35925C10.4525 5.45247 10.5601 5.53006 10.678 5.58902L11.0649 5.78244C11.2442 5.87208 11.2442 6.12792 11.0649 6.21756L10.678 6.41098C10.5601 6.46994 10.4525 6.54753 10.3593 6.64075V6.64075C10.1292 6.87077 10 7.18276 10 7.50806V8.88197C10 9.56717 9.61287 10.1936 9 10.5V10.5" stroke="#656565"/>
<path d="M6 7V7.7889C6 8.5786 5.76625 9.35063 5.3282 10.0077L5 10.5" stroke="#656565"/>
<circle cx="6" cy="4" r="1" fill="#656565"/>
</svg>
