<?xml version="1.0" encoding="utf-8"?>
<svg version="1.1" id="Layer_1" xmlns="http://www.w3.org/2000/svg" xmlns:xlink="http://www.w3.org/1999/xlink" x="0px" y="0px"
	 viewBox="0 0 800 900" style="enable-background:new 0 0 800 900;" xml:space="preserve">
<g>
	<defs>
		<rect id="SVGID_1_" y="0" width="800" height="900"/>
	</defs>
	<clipPath id="SVGID_00000101818489400783866950000013416298147540401070_">
		<use xlink:href="#SVGID_1_"  style="overflow:visible;"/>
	</clipPath>
	<g style="clip-path:url(#SVGID_00000101818489400783866950000013416298147540401070_);">

			<linearGradient id="SVGID_00000099661181187951370250000011141684716333150637_" gradientUnits="userSpaceOnUse" x1="157.1576" y1="269.1174" x2="885.2676" y2="809.2824" gradientTransform="matrix(1 0 0 -1 0 899.2756)">
			<stop  offset="0" style="stop-color:#12259E"/>
				<stop  offset="1" style="stop-color:#1554C3"/>
		</linearGradient>
		<rect y="0" style="fill:url(#SVGID_00000099661181187951370250000011141684716333150637_);" width="800" height="900"/>
		<g style="opacity:0.5;">
			<defs>
				<filter id="Adobe_OpacityMaskFilter" filterUnits="userSpaceOnUse" x="-1782" y="-1931" width="3632" height="4556">
					<feColorMatrix  type="matrix" values="1 0 0 0 0  0 1 0 0 0  0 0 1 0 0  0 0 0 1 0"/>
				</filter>
			</defs>

			<mask maskUnits="userSpaceOnUse" x="-1782" y="-1931" width="3632" height="4556" id="mask0_1816_52315_00000034787874614869279130000011260387347393043108_">
				<rect y="0" style="fill:#C4C4C4;filter:url(#Adobe_OpacityMaskFilter);" width="800" height="1071"/>
			</mask>
			<g style="mask:url(#mask0_1816_52315_00000034787874614869279130000011260387347393043108_);">
				<g style="opacity:0.15;">
					<path style="fill:#0094FF;" d="M661,2055H399v-389.3l353.1-435.2H399V701.5h-639L399-87v-297H661V5.3L308.4,440.5H661v529.1
						h639L661,1758V2055z"/>
				</g>
				<g style="opacity:0.15;">
					<path style="fill:#0094FF;" d="M1211,2625H949v-389.3l353.1-435.2H949v-529.1H310L949,483V186H1211v389.3l-352.5,435.2H1211
						v529.1h639L1211,2328V2625z"/>
				</g>
				<g style="opacity:0.15;">
					<path style="fill:#0094FF;" d="M-63.5,1701h-360.1v-535.2L61.8,567.6h-485.4v-727.3H-1302l878.5-1083.9V-1652h360.1v535.2
						l-484.6,598.2h484.6v727.3H815L-63.5,1292.7V1701z"/>
				</g>
				<g style="opacity:0.15;">
					<path style="fill:#0094FF;" d="M-543.5,2062h-360.1v-535.2l485.4-598.2h-485.4V201.2H-1782l878.5-1083.9V-1291h360.1v535.2
						l-484.6,598.2h484.6v727.3H335l-878.5,1083.9V2062z"/>
				</g>
				<g style="opacity:0.15;">
					<path style="fill:#0094FF;" d="M-543.5,1422h-360.1V886.8l485.4-598.2h-485.4v-727.3H-1782l878.5-1083.9V-1931h360.1v535.2
						l-484.6,598.2h484.6v727.3H335l-878.5,1083.9V1422z"/>
				</g>
			</g>
		</g>
	</g>
</g>
</svg>