<?xml version="1.0" encoding="utf-8"?>
<!-- Generator: Adobe Illustrator 27.5.0, SVG Export Plug-In . SVG Version: 6.00 Build 0)  -->
<svg version="1.1" id="Layer_1" xmlns="http://www.w3.org/2000/svg" x="0px" y="0px"
     viewBox="0 0 90 63" style="enable-background:new 0 0 90 63;" xml:space="preserve">
<path style="opacity:0.2;enable-background:new    ;" d="M49,12.4l38.4,22.5c1.4,0.8,1.4,2.2,0,3l-40,23.5c-1.4,0.8-3.7,0.8-5.2,0
	L3.8,38.9c-1.4-0.8-1.4-2.2,0-3l40-23.5C45.3,11.6,47.6,11.6,49,12.4z"/>
<path style="opacity:0.2;enable-background:new    ;" d="M49,12.4l38.4,22.5c1.4,0.8,1.4,2.2,0,3l-40,23.5c-1.4,0.8-3.7,0.8-5.2,0
	L3.8,38.9c-1.4-0.8-1.4-2.2,0-3l40-23.5C45.3,11.6,47.6,11.6,49,12.4z"/>
<path style="fill:#323945;" d="M47.8,3.4L86.2,26c1.4,0.8,1.4,2.2,0,3l-40,23.5c-1.4,0.8-3.7,0.8-5.2,0L2.6,30c-1.4-0.8-1.4-2.2,0-3
	l40-23.5C44,2.6,46.3,2.6,47.8,3.4z"/>
<path style="fill:#323945;" d="M47.8,4.1l38.4,22.5c1.4,0.8,1.4,2.2,0,3l-40,23.5c-1.4,0.8-3.7,0.8-5.2,0L2.6,30.6
	c-1.4-0.8-1.4-2.2,0-3l40-23.5C44,3.2,46.3,3.2,47.8,4.1z"/>
<path style="fill:#323945;" d="M47.8,4.7l38.4,22.5c1.4,0.8,1.4,2.2,0,3l-40,23.5c-1.4,0.8-3.7,0.8-5.2,0L2.6,31.3
	c-1.4-0.8-1.4-2.2,0-3l40-23.5C44,3.9,46.3,3.9,47.8,4.7z"/>
<path style="fill:#323945;" d="M47.8,5.4l38.4,22.5c1.4,0.8,1.4,2.2,0,3l-40,23.5c-1.4,0.8-3.7,0.8-5.2,0L2.6,31.9
	c-1.4-0.8-1.4-2.2,0-3l40-23.5C44,4.5,46.3,4.5,47.8,5.4z"/>
<path style="fill:#323945;" d="M47.8,6l38.4,22.5c1.4,0.8,1.4,2.2,0,3l-40,23.5c-1.4,0.8-3.7,0.8-5.2,0L2.6,32.5
	c-1.4-0.8-1.4-2.2,0-3L42.6,6C44,5.2,46.3,5.2,47.8,6z"/>
<path style="fill:#2C5175;" d="M47.8,2.8l38.4,22.5c1.4,0.8,1.4,2.2,0,3l-40,23.5c-1.4,0.8-3.7,0.8-5.2,0L2.6,29.3
	c-1.4-0.8-1.4-2.2,0-3l40-23.5C44,2,46.3,2,47.8,2.8z"/>
<path style="fill:#C5C7C8;" d="M42.6,2.8C44,2,46.3,2,47.8,2.8l38.4,22.5c1.4,0.8,1.4,2.2,0,3l-0.7,0.4L41.9,3.2L42.6,2.8z"/>
<path style="fill:#FF8D64;" d="M41.9,9.6l6,3.5c0.6,0.4,0.6,0.9,0,1.3l0,0c-0.6,0.4-1.6,0.4-2.2,0l-6-3.5c-0.6-0.4-0.6-0.9,0-1.3
	l0,0C40.3,9.2,41.3,9.2,41.9,9.6z"/>
<path style="fill:#9FBBD4;" d="M24.5,19.8l12,7c0.6,0.4,0.6,0.9,0,1.3l0,0c-0.6,0.4-1.6,0.4-2.2,0l-12-7c-0.6-0.4-0.6-0.9,0-1.3l0,0
	C22.9,19.5,23.9,19.5,24.5,19.8z"/>
<path style="fill:#FFFFFF;" d="M51.2,21.4l3.3,1.9c0.6,0.4,0.6,0.9,0,1.3l0,0c-0.6,0.4-1.6,0.4-2.2,0L49,22.7
	c-0.6-0.4-0.6-0.9,0-1.3l0,0C49.6,21.1,50.6,21.1,51.2,21.4z"/>
<path style="fill:#9FBBD4;" d="M57.7,25.3l8.7,5.1c0.6,0.4,0.6,0.9,0,1.3l0,0c-0.6,0.4-1.6,0.4-2.2,0l-8.7-5.1
	c-0.6-0.4-0.6-0.9,0-1.3l0,0C56.1,24.9,57.1,24.9,57.7,25.3z"/>
<path style="fill:#FFFFFF;" d="M51.2,15l19.6,11.5c0.6,0.4,0.6,0.9,0,1.3l0,0c-0.6,0.4-1.6,0.4-2.2,0L49,16.3
	c-0.6-0.4-0.6-0.9,0-1.3l0,0C49.6,14.7,50.6,14.7,51.2,15z"/>
<path style="fill:#FFFFFF;" d="M33.2,17.3l4.4,2.6c0.6,0.4,0.6,0.9,0,1.3l0,0c-0.6,0.4-1.6,0.4-2.2,0L31,18.5
	c-0.6-0.4-0.6-0.9,0-1.3l0,0C31.6,16.9,32.6,16.9,33.2,17.3z"/>
<path style="fill:#FFFFFF;" d="M28.9,35.2l4.4,2.6c0.6,0.4,0.6,0.9,0,1.3l0,0c-0.6,0.4-1.6,0.4-2.2,0l-4.4-2.6
	c-0.6-0.4-0.6-0.9,0-1.3l0,0C27.3,34.8,28.3,34.8,28.9,35.2z"/>
<path style="fill:#9189FE;" d="M21.2,24.3l4.4,2.6c0.6,0.4,0.6,0.9,0,1.3l0,0c-0.6,0.4-1.6,0.4-2.2,0l-4.4-2.6
	c-0.6-0.4-0.6-0.9,0-1.3l0,0C19.7,24,20.6,24,21.2,24.3z"/>
<path style="fill:#FFFFFF;" d="M28.9,28.8l7.6,4.5c0.6,0.4,0.6,0.9,0,1.3l0,0c-0.6,0.4-1.6,0.4-2.2,0l-7.6-4.5
	c-0.6-0.4-0.6-0.9,0-1.3l0,0C27.3,28.4,28.3,28.4,28.9,28.8z"/>
<path style="fill:#FF8D64;" d="M18,28.8l7.6,4.5c0.6,0.4,0.6,0.9,0,1.3l0,0c-0.6,0.4-1.6,0.4-2.2,0l-7.6-4.5c-0.6-0.4-0.6-0.9,0-1.3
	l0,0C16.4,28.4,17.4,28.4,18,28.8z"/>
<path style="fill:#FFFFFF;" d="M39.2,28.5l14.2,8.3c0.6,0.4,0.6,0.9,0,1.3l0,0c-0.6,0.4-1.6,0.4-2.2,0L37,29.7
	c-0.6-0.4-0.6-0.9,0-1.3l0,0C37.6,28.1,38.6,28.1,39.2,28.5z"/>
<path style="fill:#FF8D64;" d="M40.8,21.7l11.4,6.7c0.6,0.4,0.6,0.9,0,1.3l0,0c-0.6,0.4-1.6,0.4-2.2,0L38.7,23
	c-0.6-0.4-0.6-0.9,0-1.3l0,0C39.3,21.4,40.2,21.4,40.8,21.7z"/>
<path style="fill:#9189FE;" d="M38.7,14.1l9.3,5.4c0.6,0.4,0.6,0.9,0,1.3l0,0c-0.6,0.4-1.6,0.4-2.2,0l-9.3-5.4
	c-0.6-0.4-0.6-0.9,0-1.3l0,0C37.1,13.7,38.1,13.7,38.7,14.1z"/>
<path style="fill:#9FBBD4;" d="M36.5,39.7l7.1,4.2c0.6,0.4,0.6,0.9,0,1.3l0,0c-0.6,0.4-1.6,0.4-2.2,0l-7.1-4.2
	c-0.6-0.4-0.6-0.9,0-1.3l0,0C34.9,39.3,35.9,39.3,36.5,39.7z"/>
<path style="opacity:0.2;enable-background:new    ;" d="M27.1,7.9l17.1,10c1.4,0.8,1.4,2.2,0,3l-11.8,6.9c-1.4,0.8-3.7,0.8-5.2,0
	l-17.1-10c-1.4-0.8-1.4-2.2,0-3l11.8-6.9C23.4,7.1,25.7,7.1,27.1,7.9z"/>
<path style="fill:#363648;" d="M26.5,2.2l17.1,10c1.4,0.8,1.4,2.2,0,3l-11.8,6.9c-1.4,0.8-3.7,0.8-5.2,0l-17.1-10
	c-1.4-0.8-1.4-2.2,0-3l11.8-6.9C22.7,1.3,25,1.3,26.5,2.2z"/>
<path style="fill:#363648;" d="M26.5,2.8l17.1,10c1.4,0.8,1.4,2.2,0,3l-11.8,6.9c-1.4,0.8-3.7,0.8-5.2,0l-17.1-10
	c-1.4-0.8-1.4-2.2,0-3l11.8-6.9C22.7,2,25,2,26.5,2.8z"/>
<path style="fill:#363648;" d="M26.5,3.4l17.1,10c1.4,0.8,1.4,2.2,0,3l-11.8,6.9c-1.4,0.8-3.7,0.8-5.2,0l-17.1-10
	c-1.4-0.8-1.4-2.2,0-3l11.8-6.9C22.7,2.6,25,2.6,26.5,3.4z"/>
<path style="fill:#363648;" d="M26.5,4.1l17.1,10c1.4,0.8,1.4,2.2,0,3l-11.8,6.9c-1.4,0.8-3.7,0.8-5.2,0L9.5,14
	c-1.4-0.8-1.4-2.2,0-3l11.8-6.9C22.7,3.2,25,3.2,26.5,4.1z"/>
<path style="fill:#4B44AE;" d="M26.5,1.5l17.1,10c1.4,0.8,1.4,2.2,0,3l-11.8,6.9c-1.4,0.8-3.7,0.8-5.2,0l-17.1-10
	c-1.4-0.8-1.4-2.2,0-3l11.8-6.9C22.7,0.7,25,0.7,26.5,1.5z"/>
<path style="fill:#FFFFFF;" d="M20.7,8l2,2.5l-1.3,0.8L19,7.8l0.9-0.5L20.7,8z M24.7,9.3l-4.2-1.2l-1.4-0.5l0.9-0.5l6,1.4L24.7,9.3z
	"/>
<path style="fill:#FFFFFF;" d="M32.4,10.2l-10.3,3l-1-0.6l10.3-3L32.4,10.2z"/>
<path style="fill:#FFFFFF;" d="M32,14.9l-2-2.5l1.3-0.8l2.5,3.5l-0.9,0.6L32,14.9z M28,13.6l4.3,1.2l1.4,0.5l-0.9,0.5l-6-1.4
	L28,13.6z"/>
</svg>
