<svg width="388" height="116" viewBox="0 0 388 116" fill="none" xmlns="http://www.w3.org/2000/svg">
    <path fill-rule="evenodd" clip-rule="evenodd" d="M234.857 51.2262C240.386 56.7461 246.464 58.7474 255.028 58.7474C267.036 58.7474 275.525 52.4643 275.534 41.9738C275.534 37.0125 273.924 33.0751 270.88 30.2826C268.404 28.0486 265.518 26.8478 260.315 26.0473L253.511 25.0048C250.392 24.5207 248.708 23.7202 247.265 22.445C245.839 21.1086 245.076 19.2113 245.18 17.2602C245.18 12.1034 248.782 8.38012 255.503 8.38012C260.389 8.38012 264.55 9.41334 268.069 12.7829L273.514 7.33759C268.637 2.7486 263.433 0.821777 255.828 0.821777C243.988 0.821777 236.784 7.55168 236.784 17.4743C236.784 22.1936 238.226 25.8797 241.019 28.4395C243.504 30.8411 247.097 32.2838 251.751 33.0006L258.472 33.9314C261.357 34.3317 263.275 35.0577 264.718 36.333C266.319 37.7013 266.961 39.7026 266.961 42.2624C266.961 47.866 262.717 51.068 255.195 51.068C249.424 51.068 244.705 49.709 240.544 45.5389L234.857 51.2262ZM98.7321 58.2261H75.6754V1.23134H97.8478C108.413 1.23134 115.059 7.2352 115.059 16.8414C115.179 22.0588 112.145 26.8349 107.37 28.9422C111.773 30.7014 115.934 34.946 115.934 42.1507C115.934 52.6225 108.813 58.2261 98.7321 58.2261ZM97.1311 8.99447H84.3228V25.3212H97.1311C102.651 25.3212 106.439 22.445 106.439 17.1579C106.439 11.8707 102.651 8.99447 97.1311 8.99447ZM84.3228 33.0844H97.9502C103.935 33.0844 107.314 36.7239 107.314 41.7318C107.314 46.7396 103.954 50.463 97.9502 50.463H84.3228V33.0844ZM145.916 58.2261V54.1397C143.125 57.1313 139.2 58.8047 135.109 58.7474C131.414 58.8667 127.821 57.5295 125.103 55.024C121.984 51.9802 121.025 48.1359 121.025 43.5748V17.6419H129.189V42.3741C129.189 48.6944 132.791 51.4217 137.352 51.4217C141.913 51.4217 145.73 48.6292 145.73 42.3741V17.6419H153.893V58.2261H145.916ZM176.913 24.4463C179.714 24.4463 181.139 25.3026 183 27.1643L189.172 21.0022C186.656 18.3822 183.128 16.9801 179.5 17.1579C174.93 17.1579 170.769 19.1591 168.693 22.0447V17.6419H160.67V58.2261H168.833V33.5684C168.833 27.9648 172.51 24.4463 176.913 24.4463ZM210.283 58.7008C214.444 58.7008 217.888 57.3418 220.131 55.0985C224.05 51.0959 224.692 44.5243 224.692 37.8875C224.692 31.2506 224.05 24.7627 220.131 20.7602C217.888 18.5169 214.369 17.1579 210.199 17.1579C205.88 17.1579 202.52 18.2842 199.476 21.9609V17.6419H191.471V74.618H199.634V54.0467C202.594 57.6676 205.964 58.7008 210.283 58.7008ZM199.634 37.8875C199.634 30.6828 200.677 24.4463 208.123 24.4463C215.486 24.4463 216.501 30.6828 216.501 37.8875C216.501 45.0921 215.57 51.4217 208.123 51.4217C200.677 51.4217 199.634 45.0921 199.634 37.8875ZM304.688 58.2261V54.1397C301.897 57.1313 297.972 58.8047 293.881 58.7474C290.186 58.8667 286.592 57.5295 283.874 55.024C280.756 51.9802 279.797 48.1359 279.797 43.5748V17.6419H287.961V42.3741C287.961 48.6944 291.563 51.4217 296.124 51.4217C300.685 51.4217 304.501 48.6292 304.501 42.3741V17.6419H312.665V58.2261H304.688ZM319.218 9.63674V1.03587H327.865V9.68328L319.218 9.63674ZM319.46 58.2261V17.6419H327.623V58.2261H319.46ZM346.808 58.2261C339.203 58.2261 335.638 52.7807 335.638 46.9351V23.8784H330.984V17.6419H335.638V6.03443H343.801V17.6419H351.648V23.8784H343.801V46.5349C343.801 49.4949 345.244 51.2635 348.288 51.2635H351.648V58.2261H346.808ZM361.375 40.289C361.375 47.3354 364.978 51.6637 371.698 51.6637C376.259 51.6637 378.661 50.3792 381.546 47.4936L386.75 52.3805C382.598 56.5413 378.67 58.7474 371.549 58.7474C361.385 58.7474 353.296 53.3858 353.296 37.934C353.296 24.7348 360.1 17.2044 370.507 17.2044C381.397 17.2044 387.718 25.0513 387.718 36.9008V40.3355L361.375 40.289ZM378.503 29.119C377.041 25.998 373.906 24.0041 370.46 24.0041C367.014 24.0041 363.879 25.998 362.418 29.119C361.658 30.8467 361.301 32.7249 361.375 34.6109H379.62C379.634 32.7113 379.257 30.8291 378.512 29.0818L378.503 29.119Z" fill="#CBD0D1"/>
    <rect x="0.0546875" y="0.961426" width="57.5626" height="57.5626" fill="#5B4FFF"/>
    <path d="M31.0699 50.5279H26.6019V43.9004L32.6244 36.4724H26.6019V27.4619H15.7019L26.6019 14.0114V8.95703H31.0699V15.5845L25.0568 23.0126H31.0699V32.023H41.9699L31.0699 45.4735V50.5279Z" fill="white"/>
    <path fill-rule="evenodd" clip-rule="evenodd" d="M203.348 86.7559V83.9634H206.141V86.7559H203.348ZM203.618 115.202V94.1187H205.852V115.239L203.618 115.202ZM87.2642 101.966H78.1887V115.202H75.8243V84.0006H87.2642C92.6538 84.0006 96.6843 87.2864 96.6843 92.9831C96.6843 98.6798 92.6538 101.966 87.2642 101.966ZM86.9943 86.1415H78.1887V99.8992H86.9943C91.332 99.8992 94.3199 97.7117 94.3199 93.0204C94.3199 88.329 91.332 86.1043 86.9943 86.1043V86.1415ZM102.53 102.189C102.53 98.8101 104.55 95.7849 108.189 95.7849C109.71 95.6912 111.186 96.3188 112.173 97.479L113.793 95.8594C112.483 94.4646 110.621 93.7245 108.711 93.8395C106.264 93.7527 103.938 94.9083 102.53 96.9112V94.1187H100.296V115.221H102.53V102.189ZM117.107 113.145C120.407 116.249 125.553 116.249 128.854 113.145C131.097 110.874 131.488 107.653 131.488 104.637C131.488 101.621 131.097 98.3726 128.854 96.1386C125.553 93.0344 120.407 93.0344 117.107 96.1386C114.873 98.3726 114.482 101.612 114.482 104.637C114.482 107.662 114.873 110.911 117.107 113.145ZM118.605 97.5814C121.034 95.1861 124.936 95.1861 127.364 97.5814C129.124 99.3407 129.226 102.226 129.226 104.637C129.226 107.048 129.124 109.943 127.364 111.702C124.936 114.097 121.034 114.097 118.605 111.702C116.874 109.943 116.744 107.039 116.744 104.637C116.744 102.236 116.846 99.3407 118.605 97.5814ZM138.264 115.202V95.7477L143.04 95.7849V94.1187H138.264V89.5111C138.264 87.2771 139.27 86.0112 141.504 86.0112H143.04V84.0378H141.113C137.78 84.0378 136.021 86.3556 136.021 89.5577V94.1187H133.136V95.7477H136.021V115.202H138.264ZM153.307 113.499C148.792 113.499 146.428 110.52 146.428 105.121L161.116 105.168V104.162C161.116 97.6745 157.961 93.8581 152.655 93.8581C147.349 93.8581 144.194 97.8514 144.194 104.684C144.194 111.795 147.349 115.519 153.176 115.519C156.081 115.648 158.888 114.453 160.809 112.27L159.143 110.957C157.683 112.645 155.537 113.58 153.307 113.499ZM152.655 95.7849C155.04 95.7203 157.218 97.135 158.128 99.3407C158.661 100.599 158.915 101.959 158.873 103.325H146.428C146.39 101.959 146.644 100.601 147.173 99.3407C148.117 97.1595 150.278 95.7579 152.655 95.7849ZM163.779 112.447C165.919 114.541 168.6 115.472 172.324 115.472C177.536 115.472 180.794 113.061 180.822 109.198C180.822 105.084 178.141 104.032 174.641 103.678L171.216 103.371C168.237 103.064 166.925 102.059 166.925 99.8247C166.925 97.1905 168.805 95.7477 172.314 95.7477C174.43 95.6904 176.507 96.3207 178.234 97.5442L179.724 96.0549C177.547 94.5266 174.936 93.74 172.277 93.8116C167.679 93.8116 164.7 96.1014 164.7 99.8247C164.7 103.148 166.804 104.991 171.048 105.345L174.558 105.652C177.359 105.912 178.588 106.964 178.588 109.198C178.588 112.047 176.401 113.499 172.23 113.499C169.66 113.652 167.145 112.712 165.305 110.911L163.779 112.447ZM191.61 115.472C187.887 115.472 185.206 114.541 183.056 112.447L184.592 110.911C186.212 112.624 188.539 113.499 191.517 113.499C195.678 113.499 197.875 112.047 197.875 109.198C197.875 106.964 196.646 105.912 193.844 105.652L190.335 105.345C186.081 104.991 183.978 103.148 183.978 99.8247C183.978 96.1014 186.956 93.8116 191.564 93.8116C194.222 93.7413 196.833 94.5278 199.01 96.0549L197.521 97.5442C195.793 96.3232 193.716 95.6931 191.601 95.7477C188.092 95.7477 186.212 97.1905 186.212 99.8247C186.212 102.059 187.524 103.064 190.503 103.371L193.919 103.678C197.428 104.032 200.1 105.084 200.1 109.198C200.062 113.061 196.823 115.472 191.61 115.472ZM212.638 113.145C215.938 116.249 221.084 116.249 224.385 113.145C226.619 110.874 227.01 107.653 227.01 104.637C227.01 101.621 226.619 98.3726 224.385 96.1386C221.084 93.0344 215.938 93.0344 212.638 96.1386C210.404 98.3726 210.004 101.612 210.004 104.637C210.004 107.662 210.404 110.911 212.638 113.145ZM214.127 97.5814C216.559 95.185 220.464 95.185 222.896 97.5814C224.646 99.3407 224.757 102.226 224.757 104.637C224.757 107.048 224.646 109.943 222.896 111.702C220.464 114.099 216.559 114.099 214.127 111.702C212.405 109.943 212.265 107.039 212.265 104.637C212.265 102.236 212.377 99.3407 214.127 97.5814ZM245.301 102.096V115.202L247.535 115.239V101.742C247.732 98.3077 245.657 95.1491 242.426 93.9677C239.195 92.7864 235.571 93.8612 233.507 96.6134V94.1187H231.273V115.202H233.507V102.096C233.507 98.0655 235.667 95.7849 239.474 95.7849C243.281 95.7849 245.301 98.0189 245.301 102.096ZM265.165 113.098V115.202H267.399V100.737C267.399 96.3155 264.783 93.8116 259.198 93.8116C255.745 93.8116 253.557 94.5562 251.751 97.0602L253.38 98.4657C254.739 96.5296 256.229 95.7849 259.207 95.7849C263.545 95.7849 265.165 97.5814 265.165 100.96V103.325H258.332C253.762 103.325 250.969 105.559 250.969 109.422C250.923 110.941 251.475 112.418 252.505 113.536C253.864 114.941 255.568 115.472 258.723 115.472C261.702 115.472 263.368 114.895 265.165 113.098ZM258.593 105.121H265.165V107.839C265.165 109.766 264.774 111.125 263.982 111.87C262.447 113.322 260.65 113.499 258.723 113.499C254.87 113.499 253.203 112.223 253.203 109.375C253.203 106.527 255 105.121 258.593 105.121ZM272.425 109.729C272.425 113.061 274.054 115.202 277.517 115.202H279.462V113.229H277.908C275.413 113.229 274.668 112.093 274.668 109.682V84.0006H272.425V109.729Z" fill="#CBD0D1"/>
</svg>
