<svg width="188" height="131" viewBox="0 0 188 131" fill="none" xmlns="http://www.w3.org/2000/svg">
    <path d="M58.3602 46.924C58.3602 24.3676 76.5791 6.08203 99.0532 6.08203C121.527 6.08203 139.746 24.3676 139.746 46.924C139.746 58.7858 134.706 69.4685 126.662 76.9277L116.369 93.7438V104.277C116.369 106.196 114.819 107.753 112.906 107.753V115.573C112.906 117.493 111.356 119.049 109.443 119.049H108.168L106.267 126.047C105.856 127.559 104.487 128.608 102.925 128.608H95.1809C93.6192 128.608 92.2506 127.559 91.8397 126.047L89.6625 119.049H97.7783C95.8657 119.049 94.3151 117.493 94.3151 115.573V107.753C92.4024 107.753 90.8519 106.196 90.8519 104.277V94.2833H90.272L80.5335 76.9042C72.505 69.4461 58.3602 58.7733 58.3602 46.924Z" fill="#2B2B2B"/>
    <path d="M69.6915 75.1623C61.6295 67.8026 56.5715 57.2076 56.5715 45.4313C56.5715 23.2042 74.5902 5.18555 96.8173 5.18555C119.044 5.18555 137.063 23.2042 137.063 45.4313C137.063 57.2076 132.005 67.8026 123.943 75.1623L112.916 91.9375H79.8246L69.6915 75.1623Z" fill="#26649D"/>
    <path fill-rule="evenodd" clip-rule="evenodd" d="M105.314 91.9375H112.916L123.943 75.1623C132.005 67.8026 137.063 57.2076 137.063 45.4313C137.063 23.2042 119.045 5.18555 96.8174 5.18555C95.4591 5.18555 94.1166 5.25284 92.7928 5.38426C113.13 7.40349 129.014 24.5625 129.014 45.4313C129.014 57.2076 123.956 67.8026 115.894 75.1623L105.314 91.9375Z" fill="#2C5175"/>
    <path d="M101.641 91.9368H96.9065V71.8656L103.288 63.9949H96.9065V54.4475H85.3569L96.9065 40.1955V30.0913H101.641V41.8623L95.2692 49.733H101.641V59.2804H113.19L101.641 73.5324V91.9368Z" fill="#2C5175"/>
    <path d="M98.7916 91.9371H94.0574V69.9666L100.439 62.096H94.0574V52.5486H82.5078L94.0574 38.2966V28.1924H98.7916V39.9634L92.4201 47.8341H98.7916V57.3814H110.341L98.7916 71.6335V91.9371Z" fill="#79A0C3"/>
    <path d="M88.7682 115.191H104.866L102.543 123.711C102.331 124.489 101.624 125.029 100.817 125.029H92.8174C92.0108 125.029 91.304 124.489 91.0918 123.711L88.7682 115.191Z" fill="#525255"/>
    <path fill-rule="evenodd" clip-rule="evenodd" d="M90.2653 120.682L91.0914 123.711C91.3036 124.489 92.0104 125.029 92.817 125.029H100.817C101.623 125.029 102.33 124.489 102.543 123.711L104.866 115.191H103.24L101.648 121.028C101.436 121.806 100.729 122.346 99.9223 122.346H93.2887C92.0386 122.346 90.9082 121.698 90.2653 120.682Z" fill="#424244"/>
    <path d="M79.8248 91.939H112.916V101.777C112.916 102.765 112.115 103.566 111.127 103.566H81.6135C80.6257 103.566 79.8248 102.765 79.8248 101.777V91.939Z" fill="#525255"/>
    <path fill-rule="evenodd" clip-rule="evenodd" d="M79.8248 91.939H79.8248V101.777C79.8248 102.765 80.6257 103.566 81.6135 103.566H111.127C112.115 103.566 112.916 102.765 112.916 101.777V91.939H110.158V99.0942C110.158 100.082 109.357 100.883 108.37 100.883H83.4022C81.4265 100.883 79.8248 99.2813 79.8248 97.3055V91.939Z" fill="#424244"/>
    <path d="M84.2963 103.565H109.338V113.403C109.338 114.391 108.537 115.192 107.549 115.192H86.085C85.0971 115.192 84.2963 114.391 84.2963 113.403V103.565Z" fill="#525255"/>
    <path fill-rule="evenodd" clip-rule="evenodd" d="M84.2963 105.346C84.2963 105.349 84.2963 105.351 84.2963 105.354V113.403C84.2963 114.391 85.0971 115.192 86.085 115.192H107.549C108.537 115.192 109.338 114.391 109.338 113.403V103.565H106.655V110.72C106.655 111.707 105.854 112.508 104.866 112.508H87.8737C85.8979 112.508 84.2963 110.907 84.2963 108.931V105.346Z" fill="#424244"/>
    <path fill-rule="evenodd" clip-rule="evenodd" d="M75.7872 16.1079C77.6506 18.8214 80.339 20.0739 85.5616 21.5745C85.9423 21.6837 86.2041 22.0315 86.2041 22.4273C86.2041 22.8231 85.9423 23.171 85.5616 23.2802C77.0587 25.7242 75.2731 27.5097 72.829 36.0132C72.7199 36.3939 72.372 36.6557 71.9762 36.6557C71.5804 36.6557 71.2325 36.3939 71.1233 36.0132C69.7415 31.2071 68.5705 28.547 66.2783 26.7011C68.74 22.5857 71.9768 18.9874 75.7872 16.1079Z" fill="#2C5175"/>
    <path d="M44.7665 16.8213C47.0046 16.1782 47.4744 15.7082 48.118 13.4699C48.1467 13.3697 48.2383 13.3008 48.3425 13.3008C48.4466 13.3008 48.5382 13.3697 48.5669 13.4699C49.2103 15.7082 49.6803 16.1782 51.9184 16.8213C52.0186 16.85 52.0875 16.9416 52.0875 17.0457C52.0875 17.1499 52.0186 17.2415 51.9184 17.2702C49.6803 17.9135 49.2103 18.3835 48.5669 20.6218C48.5382 20.722 48.4466 20.7909 48.3425 20.7909C48.2383 20.7909 48.1467 20.722 48.118 20.6218C47.4744 18.3835 47.0046 17.9135 44.7665 17.2702C44.6663 17.2415 44.5974 17.1501 44.5974 17.0457C44.5974 16.9413 44.6663 16.85 44.7665 16.8213Z" fill="#2B2B2B"/>
    <path d="M51.4013 10.8111C54.6325 9.88264 55.3107 9.20411 56.2398 5.97268C56.2813 5.828 56.4135 5.72852 56.5639 5.72852C56.7143 5.72852 56.8465 5.828 56.888 5.97268C57.8168 9.20411 58.4953 9.88264 61.7265 10.8111C61.8712 10.8525 61.9707 10.9847 61.9707 11.1352C61.9707 11.2856 61.8712 11.4178 61.7265 11.4592C58.4953 12.388 57.8168 13.0665 56.888 16.298C56.8465 16.4426 56.7143 16.5421 56.5639 16.5421C56.4135 16.5421 56.2813 16.4426 56.2398 16.298C55.3107 13.0665 54.6325 12.388 51.4013 11.4592C51.2566 11.4178 51.1571 11.2859 51.1571 11.1352C51.1571 10.9844 51.2566 10.8525 51.4013 10.8111Z" fill="#2B2B2B"/>
    <path d="M56.7433 19.8698C65.2462 17.4266 67.0309 15.6411 69.4758 7.13763C69.585 6.75691 69.9329 6.49512 70.3287 6.49512C70.7245 6.49512 71.0724 6.75691 71.1816 7.13763C73.6257 15.6411 75.4113 17.4266 83.9141 19.8698C84.2948 19.9789 84.5566 20.3268 84.5566 20.7226C84.5566 21.1184 84.2948 21.4663 83.9141 21.5754C75.4113 24.0195 73.6257 25.805 71.1816 34.3085C71.0724 34.6892 70.7245 34.951 70.3287 34.951C69.9329 34.951 69.585 34.6892 69.4758 34.3085C67.0309 25.805 65.2462 24.0195 56.7433 21.5754C56.3626 21.4663 56.1008 21.1193 56.1008 20.7226C56.1008 20.3259 56.3626 19.9789 56.7433 19.8698Z" fill="white"/>
    <path d="M44.2644 15.9965C46.5026 15.3535 46.9723 14.8835 47.6159 12.6452C47.6446 12.545 47.7362 12.4761 47.8404 12.4761C47.9446 12.4761 48.0361 12.545 48.0649 12.6452C48.7082 14.8835 49.1782 15.3535 51.4163 15.9965C51.5165 16.0253 51.5854 16.1168 51.5854 16.221C51.5854 16.3252 51.5165 16.4168 51.4163 16.4455C49.1782 17.0888 48.7082 17.5588 48.0649 19.7971C48.0361 19.8973 47.9446 19.9662 47.8404 19.9662C47.7362 19.9662 47.6446 19.8973 47.6159 19.7971C46.9723 17.5588 46.5026 17.0888 44.2644 16.4455C44.1642 16.4168 44.0953 16.3254 44.0953 16.221C44.0953 16.1166 44.1642 16.0253 44.2644 15.9965Z" fill="#9189FE"/>
    <path d="M50.5775 10.3701C53.8087 9.44172 54.4869 8.7632 55.4161 5.53176C55.4576 5.38708 55.5898 5.2876 55.7402 5.2876C55.8906 5.2876 56.0228 5.38708 56.0643 5.53176C56.9931 8.7632 57.6716 9.44172 60.9028 10.3701C61.0475 10.4116 61.147 10.5438 61.147 10.6942C61.147 10.8446 61.0475 10.9768 60.9028 11.0183C57.6716 11.9471 56.9931 12.6256 56.0643 15.857C56.0228 16.0017 55.8906 16.1012 55.7402 16.1012C55.5898 16.1012 55.4576 16.0017 55.4161 15.857C54.4869 12.6256 53.8087 11.9471 50.5775 11.0183C50.4328 10.9768 50.3334 10.845 50.3334 10.6942C50.3334 10.5435 50.4328 10.4116 50.5775 10.3701Z" fill="#FF8D64"/>
</svg>
