<svg width="14" height="14" viewBox="0 0 14 14" fill="none" xmlns="http://www.w3.org/2000/svg">
<g clip-path="url(#clip0_1466_19879)">
<path fill-rule="evenodd" clip-rule="evenodd" d="M3.72267 2.89812C4.62082 2.17966 5.76007 1.75004 6.99967 1.75004C9.89917 1.75004 12.2497 4.10055 12.2497 7.00004C12.2497 8.23964 11.8201 9.3789 11.1016 10.277L3.72267 2.89812ZM2.89772 3.72308C2.17928 4.62122 1.74967 5.76046 1.74967 7.00004C1.74967 9.89954 4.10018 12.25 6.99967 12.25C8.23926 12.25 9.3785 11.8204 10.2766 11.102L2.89772 3.72308ZM6.99967 0.583374C3.45585 0.583374 0.583008 3.45621 0.583008 7.00004C0.583008 10.5439 3.45585 13.4167 6.99967 13.4167C10.5435 13.4167 13.4163 10.5439 13.4163 7.00004C13.4163 3.45621 10.5435 0.583374 6.99967 0.583374Z" fill="#EE95A1"/>
</g>
<defs>
<clipPath id="clip0_1466_19879">
<rect width="14" height="14" fill="white"/>
</clipPath>
</defs>
</svg>
