<svg width="90" height="63" viewBox="0 0 90 63" fill="none" xmlns="http://www.w3.org/2000/svg">
	<g clip-path="url(#clip0_1833_21636)">
		<path d="M61.8479 28.587L55.8746 28.5183L54.2371 33.8146C54.2371 33.8146 53.7445 37.7822 53.6424 38.0892C53.5404 38.3961 62.842 37.9517 62.842 37.9517C62.842 37.9517 67.2797 32.7608 67.3774 31.8445C67.475 30.9282 67.87 30.3189 65.6999 29.6041C64.4372 29.1841 63.1508 28.8444 61.8479 28.587Z" fill="#2B2B2B"/>
		<path d="M28.3333 28.5183L33.0859 28.8688L33.8329 34.0781C33.8329 34.0781 35.5653 37.6535 35.6661 37.9708C35.7669 38.2881 27.3159 38.1792 27.3159 38.1792C27.3159 38.1792 22.733 32.8136 22.6276 31.8665C22.5222 30.9193 22.1189 30.2895 24.3599 29.5507C25.6628 29.1231 26.9897 28.7783 28.3333 28.5183Z" fill="#2B2B2B"/>
		<path d="M40.8881 10.1594C42.7428 8.56852 46.3668 9.21212 48.5224 10.3724C50.678 11.5327 51.8142 9.10788 52.9593 11.2789C54.7242 14.6147 55.7436 18.2996 56.4082 22.0207C57.1178 25.9911 57.4321 30.102 56.6013 34.0497C55.7705 37.9974 53.6733 44.1252 50.3726 46.3914C47.0719 48.6576 44.319 49.4644 39.6351 47.2979C37.0215 46.0922 34.9827 40.5809 33.86 37.9113C30.7825 30.481 30.7357 22.125 33.7298 14.6601C35.342 10.6942 38.0005 7.97478 42.159 7.08643" fill="#525255"/>
		<path d="M67.1602 30.7033C67.2826 30.8712 67.3372 31.0782 67.3132 31.2837L67.8535 30.9109L68.1595 30.2644C68.0687 29.7925 67.1267 28.5183 59.8633 28.5183V29.4621C66.4238 29.4621 66.9689 30.4579 67.1602 30.7033Z" fill="#333E55"/>
		<path d="M22.8364 30.7033C22.7139 30.8712 22.6593 31.0782 22.6834 31.2837L22.143 30.9109L21.8418 30.2644C21.9326 29.7925 22.8699 28.5183 30.138 28.5183V29.4621C23.5728 29.4621 23.0277 30.4579 22.8364 30.7033Z" fill="#333E55"/>
		<path d="M56.2012 24.5531C57.5014 24.1987 58.881 24.3631 60.072 25.0143C61.6353 26.0104 61.5912 29.5338 60.2261 30.8204C58.861 32.1071 56.7868 32.204 55.0254 31.669" fill="#525255"/>
		<path d="M33.1066 25.246C31.8062 24.8894 30.4255 25.0539 29.2348 25.7071C27.6711 26.7032 27.7195 30.2311 29.0806 31.5131C30.4417 32.7951 32.5208 32.8965 34.2827 32.3616" fill="#525255"/>
		<path d="M39.1237 34.0492C41.7964 34.0492 43.9631 31.8825 43.9631 29.2097C43.9631 26.5369 41.7964 24.3702 39.1237 24.3702C36.4509 24.3702 34.2842 26.5369 34.2842 29.2097C34.2842 31.8825 36.4509 34.0492 39.1237 34.0492Z" fill="#2B2B2B"/>
		<path d="M55.716 29.2054C55.7169 30.1629 55.4135 31.0992 54.8441 31.8957C54.2747 32.6922 53.4649 33.3132 52.5173 33.68C51.5696 34.0468 50.5267 34.143 49.5204 33.9564C48.5142 33.7698 47.5898 33.3088 46.8644 32.6317C46.139 31.9547 45.645 31.092 45.4451 30.1528C45.2452 29.2136 45.3483 28.2402 45.7413 27.3557C46.1343 26.4713 46.7996 25.7155 47.653 25.184C48.5064 24.6526 49.5096 24.3694 50.5355 24.3702C51.9094 24.3702 53.2271 24.8797 54.1987 25.7864C55.1702 26.6932 55.716 27.923 55.716 29.2054Z" fill="#2B2B2B"/>
		<path d="M48.1119 27.827H43.2725V29.2097H48.1119V27.827Z" fill="#2B2B2B"/>
		<path d="M44.6472 62.3948V46.8269C44.6472 46.8269 45.1978 39.6242 36.4692 37.4898C26.2089 34.9784 21.8801 30.2554 22.0133 29.9011C21.9915 32.7671 22.713 35.5878 24.1044 38.0756C26.3865 41.9676 27.9093 42.944 27.9093 42.944C25.3568 42.4276 22.7079 42.9141 20.4904 44.3064C19.6289 44.8527 18.8055 45.4597 18.0264 46.123C17.4844 46.5962 17.1298 47.2554 17.0293 47.977C16.9287 48.6986 17.0891 49.4329 17.4803 50.0422C18.9099 52.272 21.9511 55.8779 27.7184 58.5119C33.0482 60.9588 38.8063 62.2795 44.6472 62.3948Z" fill="#333E55"/>
		<path d="M44.6603 62.3157V46.7857C44.6603 46.7857 44.1004 39.6006 53.0446 37.4713C63.5684 34.966 68.0018 30.2545 67.8698 29.9011C67.8892 32.7604 67.148 35.5739 65.7214 38.0557C63.3817 41.9383 61.8205 42.9123 61.8205 42.9123C64.4373 42.3972 67.1531 42.8824 69.4265 44.2714L71.9846 45.8796C72.3517 46.1091 72.6411 46.4429 72.8156 46.8378C72.99 47.2327 73.0415 47.6707 72.9632 48.095C72.5081 50.7045 70.6873 56.1092 63.9234 59.1218C54.7561 63.1901 44.6603 62.3157 44.6603 62.3157Z" fill="#333E55"/>
		<path d="M29.3767 18.3086C29.3767 18.3086 18.9586 19.5201 19.0742 21.2225C19.1898 22.9249 33.7698 28.7753 45.3929 28.5095C57.0161 28.2438 69.4929 23.3077 69.5418 21.3621C69.5996 19.8399 60.6133 18.831 60.6133 18.831L56.2913 1.68981C56.2142 1.38448 56.0767 1.09821 55.887 0.848405C55.6973 0.598604 55.4594 0.390493 55.1878 0.236728C54.9162 0.0829637 54.6166 -0.0132427 54.3071 -0.0460399C53.9977 -0.0788371 53.6849 -0.0475374 53.3877 0.0459507L45.7309 2.44643C45.2569 2.59393 44.7486 2.58288 44.2813 2.41491L36.58 -0.381909C36.2778 -0.491654 35.9563 -0.536083 35.6362 -0.512336C35.316 -0.488589 35.0043 -0.397194 34.7212 -0.244033C34.438 -0.0908731 34.1897 0.120658 33.9921 0.376934C33.7946 0.63321 33.6522 0.92855 33.5742 1.24394L29.3767 18.3086Z" fill="#333E55"/>
		<path d="M45.6077 20.9017C50.655 20.7628 55.6718 20.0825 60.5691 18.8731C60.7935 18.8162 60.9871 18.6767 61.1097 18.4833C61.2324 18.2899 61.2747 18.0576 61.228 17.8343C60.9888 16.6624 60.4111 13.7459 60.0862 11.9658C60.0639 11.8436 60.0158 11.7272 59.945 11.6244C59.8742 11.5215 59.7822 11.4345 59.675 11.3688C59.5678 11.3031 59.4478 11.2603 59.3227 11.2431C59.1976 11.2258 59.0702 11.2347 58.9488 11.2689C56.11 12.0546 53.533 12.6894 46.5961 13.4174C41.9836 13.8968 37.0326 14.1321 31.1157 12.1745C30.9952 12.1341 30.8674 12.1192 30.7407 12.1308C30.6139 12.1425 30.4911 12.1803 30.3803 12.242C30.2694 12.3036 30.1731 12.3876 30.0976 12.4884C30.0222 12.5892 29.9692 12.7046 29.9423 12.827C29.5496 14.5494 29.0396 16.3783 28.7824 17.3949C28.724 17.6143 28.7531 17.8474 28.8639 18.0463C28.9747 18.2453 29.1587 18.395 29.3781 18.4647C34.2321 20.0077 39.2931 20.8291 44.3937 20.9017C44.8134 20.9195 45.2151 20.9151 45.6077 20.9017Z" fill="#41506D"/>
		<path d="M44.6178 46.4462C44.6178 46.4462 44.6152 61.5374 44.5 62.1" stroke="#2B2B2B" stroke-width="0.691354" stroke-miterlimit="10" stroke-linecap="round"/>
	</g>
	<defs>
		<clipPath id="clip0_1833_21636">
			<rect width="90" height="63" fill="white"/>
		</clipPath>
	</defs>
</svg>
