<svg width="90" height="63" viewBox="0 0 90 63" fill="none" xmlns="http://www.w3.org/2000/svg">
	<g clip-path="url(#clip0_1833_21630)">
		<rect x="37.6484" y="17.655" width="12.9001" height="7.5883" rx="3" transform="rotate(129.889 37.6484 17.655)" fill="#333E55"/>
		<path opacity="0.3" d="M30.3527 14.5519C29.0801 11.1295 24.3206 4.93141 15.463 7.51817C14.4891 16.6942 21.4334 20.2783 25.0273 20.9234L30.3527 14.5519Z" fill="#B86633"/>
		<path d="M29.2876 15.8263C28.5936 13.831 25.905 10.2519 20.7031 11.8981C20.0062 17.3095 24.0056 19.3203 26.0924 19.6492L29.2876 15.8263Z" fill="#B86633"/>
		<path d="M50.827 16.7436L50.8481 26.7093L41.8015 19.1481C41.348 18.769 41.0853 18.2088 41.0841 17.6177L41.072 11.9421C41.0684 10.243 43.051 9.31365 44.3546 10.4033L50.1096 15.2133C50.5631 15.5923 50.8257 16.1525 50.827 16.7436Z" fill="#333E55"/>
		<path d="M30.8181 40.6848L40.6294 38.9372L31.5828 31.3759C31.1293 30.9968 30.5313 30.8378 29.9494 30.9415L24.3617 31.9368C22.689 32.2347 22.1262 34.3508 23.4298 35.4404L29.1848 40.2504C29.6383 40.6294 30.2362 40.7885 30.8181 40.6848Z" fill="#333E55"/>
		<path d="M68.1149 53.9483C69.6373 53.9231 70.7448 52.598 70.4995 51.0954C69.7593 46.5613 67.4192 39.5706 61.8161 34.8874L50.6233 48.2789C56.2264 52.9621 63.5215 54.0245 68.1149 53.9483Z" fill="#333E55"/>
		<path d="M62.9805 35.8608L51.7877 49.2524L29.4233 30.56C27.3045 28.7891 27.0225 25.6358 28.7934 23.517L33.5731 17.7984C35.3441 15.6796 38.4973 15.3976 40.6161 17.1685L62.9805 35.8608Z" fill="#26649D"/>
		<path d="M39.6503 28.6565L40.3953 27.7652L41.7893 28.9303L42.3434 31.4341L43.3475 30.2327L45.2421 31.8162L47.0595 29.6417L48.0653 34.1758L49.1289 35.0648L48.3839 35.9561L46.9899 34.791L46.4343 32.289L45.4317 33.4886L43.5371 31.9051L41.7197 34.0796L40.7139 29.5455L39.6503 28.6565Z" fill="#C5C7C8"/>
		<path d="M11.9824 44.8665C11.3564 44.3239 10.409 44.3916 9.86647 45.0176C9.3239 45.6436 9.39157 46.591 10.0176 47.1335L11.9824 44.8665ZM25.0176 60.1335C25.6436 60.6761 26.591 60.6084 27.1335 59.9824C27.6761 59.3564 27.6084 58.409 26.9824 57.8665L25.0176 60.1335ZM10.0176 47.1335L25.0176 60.1335L26.9824 57.8665L11.9824 44.8665L10.0176 47.1335Z" fill="#3D3C3C"/>
		<path d="M34.0034 47.8851C33.3877 47.3309 32.4392 47.3808 31.8851 47.9966C31.3309 48.6123 31.3808 49.5608 31.9966 50.1149L34.0034 47.8851ZM41.9966 59.1149C42.6123 59.6691 43.5608 59.6192 44.1149 59.0034C44.6691 58.3877 44.6192 57.4392 44.0034 56.8851L41.9966 59.1149ZM31.9966 50.1149L41.9966 59.1149L44.0034 56.8851L34.0034 47.8851L31.9966 50.1149Z" fill="#3D3C3C"/>
		<path d="M55.9209 1.81597C55.267 1.30737 54.3246 1.42517 53.816 2.07909C53.3074 2.73301 53.4252 3.67542 54.0791 4.18403L55.9209 1.81597ZM63.0791 11.184C63.733 11.6926 64.6754 11.5748 65.184 10.9209C65.6926 10.267 65.5748 9.32458 64.9209 8.81597L63.0791 11.184ZM54.0791 4.18403L63.0791 11.184L64.9209 8.81597L55.9209 1.81597L54.0791 4.18403Z" fill="#3D3C3C"/>
		<path d="M65.937 22.8287C65.2901 22.3112 64.3462 22.4161 63.8287 23.063C63.3112 23.7099 63.4161 24.6538 64.063 25.1713L65.937 22.8287ZM79.063 37.1713C79.7099 37.6888 80.6538 37.5839 81.1713 36.937C81.6888 36.2901 81.5839 35.3462 80.937 34.8287L79.063 37.1713ZM64.063 25.1713L79.063 37.1713L80.937 34.8287L65.937 22.8287L64.063 25.1713Z" fill="#3D3C3C"/>
	</g>
	<defs>
		<clipPath id="clip0_1833_21630">
			<rect width="90" height="63" fill="white"/>
		</clipPath>
	</defs>
</svg>
