<?xml version="1.0" encoding="utf-8"?>
<!-- Generator: Adobe Illustrator 26.0.1, SVG Export Plug-In . SVG Version: 6.00 Build 0)  -->
<svg version="1.1" id="Layer_1" xmlns="http://www.w3.org/2000/svg" x="0px" y="0px"
	 viewBox="0 0 321 215" style="enable-background:new 0 0 321 215;" xml:space="preserve">
<rect style="fill:#2C2E30;" width="320.3" height="70.5"/>
<path style="fill:#3D3C3C;" d="M13.5,11.5h292.1c1.8,0,3.2,1.4,3.2,3.2l0,0c0,1.8-1.4,3.2-3.2,3.2H13.5c-1.8,0-3.2-1.4-3.2-3.2l0,0
	C10.3,13,11.7,11.5,13.5,11.5z"/>
<path style="fill:#3D3C3C;" d="M13.5,24.3h292.1c1.8,0,3.2,1.4,3.2,3.2l0,0c0,1.8-1.4,3.2-3.2,3.2H13.5c-1.8,0-3.2-1.4-3.2-3.2l0,0
	C10.3,25.8,11.7,24.3,13.5,24.3z"/>
<path style="fill:#3D3C3C;" d="M13.5,37.2h292.1c1.8,0,3.2,1.4,3.2,3.2l0,0c0,1.8-1.4,3.2-3.2,3.2H13.5c-1.8,0-3.2-1.4-3.2-3.2l0,0
	C10.3,38.6,11.7,37.2,13.5,37.2z"/>
<path style="fill:#3D3C3C;" d="M13.5,50h292.1c1.8,0,3.2,1.4,3.2,3.2l0,0c0,1.8-1.4,3.2-3.2,3.2H13.5c-1.8,0-3.2-1.4-3.2-3.2l0,0
	C10.3,51.4,11.7,50,13.5,50z"/>
<rect y="76.9" style="fill:#2B2B2B;" width="157.6" height="116.6"/>
<rect x="164" y="76.9" style="fill:#2E3238;" width="156.3" height="116.6"/>
<rect x="47.7" y="123.9" style="fill:#525255;" width="92.2" height="90.9"/>
<rect x="47.7" y="159.7" style="fill:#333E55;" width="92.2" height="19.2"/>
<path style="fill:#FFFFFF;" d="M56.2,172.2c-0.4,0-1-0.1-1.7-0.3V171c0.7,0.3,1.4,0.5,1.8,0.5c0.4,0,0.7-0.1,0.9-0.3
	s0.3-0.4,0.3-0.8c0-0.3-0.1-0.5-0.2-0.7c-0.1-0.2-0.4-0.4-0.8-0.6l-0.5-0.3c-0.6-0.3-1-0.6-1.2-0.9c-0.2-0.3-0.3-0.6-0.3-1
	c0-0.5,0.2-0.9,0.6-1.3c0.4-0.3,0.8-0.5,1.4-0.5c0.5,0,1,0.1,1.6,0.3v0.9c-0.7-0.3-1.2-0.4-1.6-0.4c-0.3,0-0.6,0.1-0.8,0.3
	s-0.3,0.4-0.3,0.6c0,0.2,0.1,0.4,0.2,0.6c0.2,0.2,0.4,0.4,0.8,0.6l0.5,0.3c0.6,0.3,1,0.6,1.2,0.9s0.3,0.6,0.3,1c0,0.6-0.2,1-0.6,1.4
	C57.5,172,56.9,172.2,56.2,172.2z M63.4,171.9c-0.6,0.2-1.1,0.3-1.5,0.3c-0.7,0-1.3-0.2-1.7-0.7s-0.7-1.1-0.7-1.8s0.2-1.3,0.6-1.8
	c0.4-0.5,0.9-0.7,1.5-0.7s1,0.2,1.4,0.6c0.3,0.4,0.5,1,0.5,1.8v0.3h-3.1c0.1,1.1,0.7,1.7,1.7,1.7c0.4,0,0.8-0.1,1.3-0.3V171.9z
	 M60.4,169.1h2.1c0-0.9-0.3-1.4-1-1.4C60.9,167.7,60.5,168.2,60.4,169.1z M64.9,172v-4.8h0.9v0.9c0.5-0.7,1-1,1.7-1
	c0.4,0,0.8,0.1,1,0.4c0.2,0.3,0.4,0.6,0.4,1.1v3.5H68v-3.2c0-0.4-0.1-0.6-0.2-0.8s-0.3-0.2-0.5-0.2c-0.5,0-1,0.4-1.5,1.1v3.1h-0.9
	V172z M73.7,172v-0.9c-0.4,0.7-0.9,1-1.6,1c-0.6,0-1-0.2-1.4-0.6c-0.3-0.4-0.5-1-0.5-1.7c0-0.8,0.2-1.5,0.6-1.9
	c0.4-0.5,0.9-0.7,1.5-0.7s1,0.2,1.4,0.7V165h0.9v7H73.7z M73.7,168.4c-0.5-0.4-0.9-0.6-1.3-0.6c-0.8,0-1.3,0.6-1.3,1.9
	c0,1.1,0.4,1.7,1.1,1.7c0.5,0,1-0.3,1.4-0.8v-2.2L73.7,168.4L73.7,168.4z M80.7,172.1c-0.4,0-0.8-0.1-1-0.4
	c-0.2-0.3-0.4-0.6-0.4-1.1v-2.8h-0.6v-0.7h0.6v-0.9l0.9-0.1v1h1.3v0.7h-1.3v2.7c0,0.6,0.3,0.9,0.8,0.9c0.1,0,0.3,0,0.4-0.1v0.6
	C81.1,172.1,80.9,172.1,80.7,172.1z M84.5,172.1c-0.7,0-1.2-0.2-1.7-0.7c-0.4-0.5-0.6-1.1-0.6-1.8c0-0.8,0.2-1.4,0.6-1.8
	c0.4-0.5,1-0.7,1.7-0.7s1.3,0.2,1.7,0.7c0.4,0.5,0.6,1.1,0.6,1.8c0,0.8-0.2,1.4-0.6,1.9C85.8,171.9,85.3,172.1,84.5,172.1z
	 M84.6,171.5c0.9,0,1.4-0.6,1.4-1.9c0-1.2-0.5-1.9-1.4-1.9s-1.4,0.6-1.4,1.9S83.7,171.5,84.6,171.5z M91.1,172v-6.6H92v6.6H91.1z
	 M93.8,172v-4.8h0.9v0.9c0.5-0.7,1-1,1.7-1c0.4,0,0.8,0.1,1,0.4c0.2,0.3,0.4,0.6,0.4,1.1v3.5h-0.9v-3.2c0-0.4-0.1-0.6-0.2-0.8
	s-0.3-0.2-0.5-0.2c-0.5,0-1,0.4-1.5,1.1v3.1h-0.9V172z M100.9,172.1c-0.4,0-0.8-0.1-1-0.4c-0.2-0.3-0.4-0.6-0.4-1.1v-2.8h-0.6v-0.7
	h0.6v-0.9l0.9-0.1v1h1.3v0.7h-1.3v2.7c0,0.6,0.3,0.9,0.8,0.9c0.1,0,0.3,0,0.4-0.1v0.6C101.3,172.1,101.1,172.1,100.9,172.1z
	 M102.8,172v-4.8h0.9v0.9c0.3-0.7,0.9-1,1.5-1c0.1,0,0.2,0,0.3,0v0.8c-0.2-0.1-0.3-0.1-0.4-0.1c-0.6,0-1,0.3-1.4,1v3.2L102.8,172
	L102.8,172z M109.6,172v-0.9c-0.5,0.7-1,1-1.7,1c-0.4,0-0.8-0.1-1-0.4c-0.2-0.3-0.4-0.6-0.4-1.1v-3.5h0.9v3.2c0,0.4,0.1,0.6,0.2,0.8
	s0.3,0.2,0.5,0.2c0.5,0,1-0.4,1.5-1.1v-3.1h0.9v4.8h-0.9V172z M115.4,172v-0.9c-0.4,0.7-0.9,1-1.6,1c-0.6,0-1-0.2-1.4-0.6
	c-0.3-0.4-0.5-1-0.5-1.7c0-0.8,0.2-1.5,0.6-1.9c0.4-0.5,0.9-0.7,1.5-0.7s1,0.2,1.4,0.7V165h0.9v7H115.4z M115.4,168.4
	c-0.5-0.4-0.9-0.6-1.3-0.6c-0.8,0-1.3,0.6-1.3,1.9c0,1.1,0.4,1.7,1.1,1.7c0.5,0,1-0.3,1.4-0.8v-2.2L115.4,168.4L115.4,168.4z
	 M121.5,171.9c-0.6,0.2-1.1,0.3-1.5,0.3c-0.7,0-1.3-0.2-1.7-0.7c-0.4-0.5-0.7-1.1-0.7-1.8s0.2-1.3,0.6-1.8s0.9-0.7,1.5-0.7
	s1,0.2,1.4,0.6c0.3,0.4,0.5,1,0.5,1.8v0.3h-3.1c0.1,1.1,0.7,1.7,1.7,1.7c0.4,0,0.8-0.1,1.3-0.3C121.5,171.3,121.5,171.9,121.5,171.9
	z M118.5,169.1h2.1c0-0.9-0.3-1.4-1-1.4C119,167.7,118.6,168.2,118.5,169.1z M123.1,172v-4.8h0.9v0.9c0.3-0.7,0.9-1,1.5-1
	c0.1,0,0.2,0,0.3,0v0.8c-0.2-0.1-0.3-0.1-0.4-0.1c-0.6,0-1,0.3-1.4,1v3.2L123.1,172L123.1,172z"/>
<path style="fill:#69696C;" d="M58.6,131.8h70.6c1.6,0,2.9,1.3,2.9,2.9l0,0c0,1.6-1.3,2.9-2.9,2.9H58.6c-1.6,0-2.9-1.3-2.9-2.9l0,0
	C55.6,133.1,57,131.8,58.6,131.8z"/>
<path style="fill:#69696C;" d="M58.6,141.2H121c1.6,0,2.9,1.3,2.9,2.9l0,0c0,1.6-1.3,2.9-2.9,2.9H58.6c-1.6,0-2.9-1.3-2.9-2.9l0,0
	C55.6,142.5,57,141.2,58.6,141.2z"/>
<path style="fill:#69696C;" d="M58.6,150.6h48.3c1.6,0,2.9,1.3,2.9,2.9l0,0c0,1.6-1.3,2.9-2.9,2.9H58.6c-1.6,0-2.9-1.3-2.9-2.9l0,0
	C55.6,151.9,57,150.6,58.6,150.6z"/>
<path style="fill:#69696C;" d="M58.6,183h50c1.6,0,2.9,1.3,2.9,2.9l0,0c0,1.6-1.3,2.9-2.9,2.9h-50c-1.6,0-2.9-1.3-2.9-2.9l0,0
	C55.6,184.3,57,183,58.6,183z"/>
<path style="fill:#69696C;" d="M58.6,192.4H121c1.6,0,2.9,1.3,2.9,2.9l0,0c0,1.6-1.3,2.9-2.9,2.9H58.6c-1.6,0-2.9-1.3-2.9-2.9l0,0
	C55.6,193.7,57,192.4,58.6,192.4z"/>
<path style="fill:#69696C;" d="M58.6,201.8h48.3c1.6,0,2.9,1.3,2.9,2.9l0,0c0,1.6-1.3,2.9-2.9,2.9H58.6c-1.6,0-2.9-1.3-2.9-2.9l0,0
	C55.6,203.1,57,201.8,58.6,201.8z"/>
<path style="fill:#FFFFFF;" d="M51.1,111.1v-6.6h2c0.6,0,1.1,0.1,1.5,0.4c0.3,0.3,0.5,0.7,0.5,1.2c0,0.9-0.4,1.5-1.3,1.9l2.2,3.1
	h-1.1l-1.9-2.8h-1v2.8H51.1z M52,107.7h0.3c1.2,0,1.8-0.5,1.8-1.4c0-0.7-0.5-1-1.5-1H52V107.7z M56.9,111.1v-4.8h0.9v4.8H56.9z
	 M56.9,105.4v-0.9h0.9v0.9H56.9z M59.5,112.7l0.1-0.8c0.5,0.2,1,0.4,1.5,0.4c1,0,1.5-0.5,1.5-1.6V110c-0.3,0.7-0.9,1-1.6,1
	c-0.6,0-1-0.2-1.4-0.6c-0.3-0.4-0.5-1-0.5-1.7s0.2-1.3,0.6-1.8c0.4-0.5,0.9-0.7,1.5-0.7c0.5,0,1,0.2,1.4,0.7v-0.6h0.9v3.5
	c0,0.8,0,1.3-0.1,1.7c-0.1,0.4-0.2,0.7-0.4,0.9c-0.4,0.4-1,0.6-1.8,0.6C60.6,113,60,112.9,59.5,112.7z M62.6,109.5v-2
	c-0.4-0.4-0.8-0.6-1.3-0.6c-0.4,0-0.7,0.2-0.9,0.5s-0.3,0.8-0.3,1.3c0,1.1,0.4,1.6,1.1,1.6C61.7,110.3,62.2,110,62.6,109.5z
	 M65.2,111.1v-7h0.9v3.1c0.5-0.7,1-1,1.7-1c0.4,0,0.8,0.1,1,0.4s0.4,0.6,0.4,1.1v3.5h-0.9V108c0-0.4-0.1-0.6-0.2-0.8
	c-0.1-0.2-0.3-0.2-0.5-0.2c-0.5,0-1,0.4-1.5,1.1v3.1L65.2,111.1L65.2,111.1z M72.3,111.3c-0.4,0-0.8-0.1-1-0.4s-0.4-0.6-0.4-1.1V107
	h-0.6v-0.7h0.6v-0.9l0.9-0.1v1H73v0.7h-1.3v2.7c0,0.6,0.3,0.9,0.8,0.9c0.1,0,0.3,0,0.4-0.1v0.6C72.8,111.2,72.5,111.3,72.3,111.3z
	 M74.1,108.8v-0.7h4v0.7H74.1z M81.4,111.3c-0.7,0-1.2-0.2-1.6-0.7s-0.6-1.1-0.6-1.8c0-0.8,0.2-1.4,0.6-1.8s1-0.7,1.8-0.7
	c0.4,0,0.8,0.1,1.3,0.2v0.7c-0.5-0.1-0.9-0.2-1.2-0.2c-0.4,0-0.8,0.2-1.1,0.5c-0.3,0.3-0.4,0.8-0.4,1.3s0.1,1,0.4,1.3
	s0.6,0.5,1.1,0.5c0.4,0,0.8-0.1,1.2-0.3v0.8C82.4,111.2,81.9,111.3,81.4,111.3z M84.2,111.1v-7h0.9v7H84.2z M86.9,111.1v-4.8h0.9
	v4.8H86.9z M86.9,105.4v-0.9h0.9v0.9H86.9z M91.4,111.3c-0.7,0-1.2-0.2-1.6-0.7s-0.6-1.1-0.6-1.8c0-0.8,0.2-1.4,0.6-1.8
	s1-0.7,1.8-0.7c0.4,0,0.8,0.1,1.3,0.2v0.7c-0.5-0.1-0.9-0.2-1.2-0.2c-0.4,0-0.8,0.2-1.1,0.5c-0.3,0.3-0.4,0.8-0.4,1.3s0.1,1,0.4,1.3
	s0.6,0.5,1.1,0.5c0.4,0,0.8-0.1,1.2-0.3v0.8C92.3,111.2,91.8,111.3,91.4,111.3z M94.2,111.1v-7h0.9v4.5l2-2.3H98l-2,2.3l2.4,2.6
	h-1.1l-2.3-2.5v2.5L94.2,111.1L94.2,111.1z"/>
<path style="fill:#FFFFFF;" d="M32.8,102.1l4.2,10l1.5-4.3l4.4-1.5L32.8,102.1z"/>
<path style="fill:none;stroke:#FFFFFF;stroke-width:1.1785;stroke-linecap:round;stroke-linejoin:round;" d="M38.7,108l3.5,3.5"/>
<path style="fill:#FFFFFF;" d="M146.6,170.3l2.8,1.9l0.2-3.4L146.6,170.3z M108.4,107.6c0.2,0,0.4,0,0.6,0V107c-0.2,0-0.4,0-0.6,0
	V107.6z M110.1,107.6c0.4,0,0.8,0,1.2,0V107c-0.4,0-0.8,0-1.2,0V107.6z M112.4,107.7c0.4,0,0.8,0,1.2,0v-0.6c-0.4,0-0.8,0-1.2,0
	V107.7z M114.8,107.7c0.4,0,0.8,0,1.2,0v-0.6c-0.4,0-0.8,0-1.2,0V107.7z M117.1,107.7c0.4,0,0.8,0,1.2,0v-0.6c-0.4,0-0.8,0-1.2,0
	V107.7z M119.4,107.8c0.4,0,0.8,0,1.2,0v-0.6c-0.4,0-0.8,0-1.2,0V107.8z M121.8,107.8c0.4,0,0.8,0,1.2,0v-0.6c-0.4,0-0.8,0-1.2,0
	V107.8z M124.1,107.9c0.4,0,0.8,0,1.2,0v-0.6c-0.4,0-0.8,0-1.2,0V107.9z M126.4,108c0.4,0,0.8,0,1.2,0.1v-0.6c-0.4,0-0.8,0-1.2-0.1
	V108z M128.8,108.1c0.4,0,0.8,0,1.2,0.1v-0.6c-0.4,0-0.8,0-1.2-0.1V108.1z M131.1,108.3c0.4,0,0.8,0.1,1.2,0.1v-0.6
	c-0.4,0-0.8-0.1-1.2-0.1V108.3z M133.4,108.4c0.4,0,0.8,0.1,1.2,0.1v-0.6c-0.4,0-0.8-0.1-1.2-0.1V108.4z M135.8,108.6
	c0.4,0,0.8,0.1,1.2,0.1l0.1-0.6c-0.4,0-0.8-0.1-1.2-0.1L135.8,108.6z M138.1,108.8c0.4,0,0.8,0.1,1.2,0.1l0.1-0.6
	c-0.4,0-0.8-0.1-1.2-0.1L138.1,108.8z M140.4,109.1c0.4,0,0.8,0.1,1.2,0.1l0.1-0.6c-0.4,0-0.8-0.1-1.2-0.1L140.4,109.1z
	 M142.7,109.3c0.4,0,0.8,0.1,1.1,0.1l0.1-0.6c-0.4,0-0.8-0.1-1.1-0.1L142.7,109.3z M145,109.6c0.4,0.1,0.8,0.1,1.2,0.2l0.1-0.6
	c-0.4-0.1-0.8-0.1-1.2-0.2L145,109.6z M147.3,110c0.4,0.1,0.8,0.1,1.2,0.2l0.1-0.6c-0.4-0.1-0.8-0.1-1.2-0.2L147.3,110z
	 M149.6,110.3c0.4,0.1,0.8,0.1,1.1,0.2l0.1-0.6c-0.4-0.1-0.8-0.1-1.1-0.2L149.6,110.3z M151.9,110.7c0.4,0.1,0.8,0.1,1.1,0.2
	l0.1-0.6c-0.4-0.1-0.8-0.2-1.1-0.2L151.9,110.7z M154.2,111.2c0.4,0.1,0.8,0.2,1.1,0.2l0.1-0.6c-0.4-0.1-0.8-0.2-1.2-0.3
	L154.2,111.2z M156.5,111.7c0.4,0.1,0.8,0.2,1.1,0.3l0.1-0.6c-0.4-0.1-0.8-0.2-1.1-0.3L156.5,111.7z M158.7,112.3
	c0.4,0.1,0.7,0.2,1.1,0.3l0.2-0.6c-0.4-0.1-0.7-0.2-1.1-0.3L158.7,112.3z M161,112.9c0.4,0.1,0.7,0.2,1.1,0.3l0.2-0.6
	c-0.4-0.1-0.7-0.2-1.1-0.3L161,112.9z M163.2,113.6c0.4,0.1,0.7,0.2,1.1,0.4l0.2-0.6c-0.4-0.1-0.7-0.3-1.1-0.4L163.2,113.6z
	 M165.4,114.4c0.4,0.1,0.7,0.3,1.1,0.4l0.2-0.5c-0.4-0.1-0.7-0.3-1.1-0.4L165.4,114.4z M167.5,115.2c0.4,0.2,0.7,0.3,1.1,0.5
	l0.2-0.5c-0.4-0.2-0.7-0.3-1.1-0.5L167.5,115.2z M169.6,116.2c0.4,0.2,0.7,0.3,1,0.5l0.3-0.5c-0.3-0.2-0.7-0.4-1.1-0.5L169.6,116.2z
	 M171.7,117.3c0.3,0.2,0.7,0.4,1,0.6l0.3-0.5c-0.3-0.2-0.7-0.4-1-0.6L171.7,117.3z M173.7,118.4c0.3,0.2,0.7,0.4,1,0.6l0.3-0.5
	c-0.3-0.2-0.7-0.4-1-0.7L173.7,118.4z M175.6,119.8c0.3,0.2,0.6,0.5,0.9,0.7l0.4-0.5c-0.3-0.2-0.6-0.5-0.9-0.7L175.6,119.8z
	 M177.4,121.2c0.3,0.3,0.6,0.5,0.9,0.8l0.4-0.4c-0.3-0.3-0.6-0.5-0.9-0.8L177.4,121.2z M179.1,122.8c0.3,0.3,0.5,0.6,0.8,0.9
	l0.4-0.4c-0.3-0.3-0.5-0.6-0.8-0.9L179.1,122.8z M180.6,124.5c0.2,0.3,0.5,0.6,0.7,0.9l0.5-0.3c-0.2-0.3-0.5-0.6-0.7-0.9
	L180.6,124.5z M181.9,126.4c0.2,0.3,0.4,0.7,0.6,1l0.5-0.3c-0.2-0.3-0.4-0.7-0.6-1L181.9,126.4z M183,128.4c0.2,0.3,0.3,0.7,0.5,1
	l0.5-0.2c-0.2-0.4-0.3-0.7-0.5-1.1L183,128.4z M184,130.5c0.1,0.4,0.3,0.7,0.4,1.1l0.6-0.2c-0.1-0.4-0.3-0.8-0.4-1.1L184,130.5z
	 M184.7,132.7c0.1,0.4,0.2,0.7,0.3,1.1l0.6-0.1c-0.1-0.4-0.2-0.8-0.3-1.1L184.7,132.7z M185.2,135c0.1,0.4,0.1,0.8,0.2,1.1l0.6-0.1
	c-0.1-0.4-0.1-0.8-0.2-1.2L185.2,135z M185.5,137.3c0,0.4,0.1,0.8,0.1,1.2h0.6c0-0.4-0.1-0.8-0.1-1.2H185.5z M185.6,139.6
	c0,0.2,0,0.4,0,0.6h0.6c0-0.2,0-0.4,0-0.6H185.6z M185.6,140.2c0,0.2,0,0.4,0,0.6h0.6c0-0.2,0-0.4,0-0.6H185.6z M185.6,142
	c0,0.4,0,0.8-0.1,1.2h0.6c0-0.4,0-0.8,0.1-1.2H185.6z M185.4,144.3c0,0.4-0.1,0.8-0.1,1.2l0.6,0.1c0.1-0.4,0.1-0.8,0.1-1.2
	L185.4,144.3z M185.1,146.6c-0.1,0.4-0.1,0.8-0.2,1.1l0.6,0.1c0.1-0.4,0.2-0.8,0.2-1.2L185.1,146.6z M184.6,148.9
	c-0.1,0.4-0.2,0.8-0.3,1.1l0.6,0.2c0.1-0.4,0.2-0.8,0.3-1.2L184.6,148.9z M184,151.2c-0.1,0.4-0.3,0.7-0.4,1.1l0.5,0.2
	c0.1-0.4,0.3-0.7,0.4-1.1L184,151.2z M183.1,153.3c-0.2,0.4-0.3,0.7-0.5,1.1l0.5,0.3c0.2-0.4,0.3-0.7,0.5-1.1L183.1,153.3z
	 M182.1,155.4c-0.2,0.3-0.4,0.7-0.6,1l0.5,0.3c0.2-0.3,0.4-0.7,0.6-1L182.1,155.4z M180.9,157.4c-0.2,0.3-0.4,0.6-0.7,0.9l0.5,0.4
	c0.2-0.3,0.5-0.6,0.7-1L180.9,157.4z M179.5,159.3c-0.3,0.3-0.5,0.6-0.8,0.9l0.4,0.4c0.3-0.3,0.5-0.6,0.8-0.9L179.5,159.3z
	 M177.9,161c-0.3,0.3-0.6,0.5-0.9,0.8l0.4,0.4c0.3-0.3,0.6-0.5,0.9-0.8L177.9,161z M176.1,162.6c-0.3,0.2-0.6,0.5-0.9,0.7l0.4,0.5
	c0.3-0.2,0.6-0.5,0.9-0.7L176.1,162.6z M174.3,164c-0.3,0.2-0.7,0.4-1,0.6l0.3,0.5c0.3-0.2,0.7-0.4,1-0.6L174.3,164z M172.3,165.2
	c-0.3,0.2-0.7,0.4-1,0.6l0.3,0.5c0.4-0.2,0.7-0.4,1.1-0.6L172.3,165.2z M170.2,166.2c-0.4,0.2-0.7,0.3-1.1,0.5l0.2,0.5
	c0.4-0.2,0.7-0.3,1.1-0.5L170.2,166.2z M168,167.2c-0.4,0.1-0.7,0.3-1.1,0.4l0.2,0.6c0.4-0.1,0.7-0.3,1.1-0.4L168,167.2z
	 M165.8,167.9c-0.4,0.1-0.8,0.2-1.1,0.3l0.2,0.6c0.4-0.1,0.8-0.2,1.1-0.3L165.8,167.9z M163.5,168.6c-0.4,0.1-0.8,0.2-1.1,0.3
	l0.1,0.6c0.4-0.1,0.8-0.2,1.2-0.3L163.5,168.6z M161.2,169.1c-0.4,0.1-0.8,0.2-1.2,0.2l0.1,0.6c0.4-0.1,0.8-0.1,1.2-0.2L161.2,169.1
	z M158.9,169.5c-0.4,0.1-0.8,0.1-1.2,0.2l0.1,0.6c0.4-0.1,0.8-0.1,1.2-0.2L158.9,169.5z M156.6,169.8c-0.4,0-0.8,0.1-1.2,0.1
	l0.1,0.6c0.4,0,0.8-0.1,1.2-0.1L156.6,169.8z M154.3,170c-0.4,0-0.8,0-1.2,0.1v0.6c0.4,0,0.8,0,1.2-0.1V170z M151.9,170.1
	c-0.4,0-0.8,0-1.2,0v0.6c0.4,0,0.8,0,1.2,0V170.1z M149.5,170.1c-0.4,0-0.8,0-1.2,0v0.6c0.4,0,0.8,0,1.2,0V170.1z"/>
<path style="fill:#6D6F74;" d="M7,90.9v-7.4h2.2c0.7,0,1.3,0.2,1.6,0.5c0.4,0.3,0.6,0.8,0.6,1.4c0,1-0.5,1.7-1.5,2.1l2.5,3.5h-1.3
	L9,87.8H8v3.1H7z M8,87h0.3c1.3,0,2-0.5,2-1.6c0-0.8-0.6-1.1-1.7-1.1H8V87z M17.5,90.7c-0.7,0.2-1.2,0.3-1.7,0.3
	c-0.8,0-1.5-0.3-2-0.8S13,89,13,88.1c0-0.8,0.2-1.5,0.7-2c0.4-0.5,1-0.8,1.7-0.8c0.7,0,1.2,0.2,1.5,0.7c0.4,0.5,0.5,1.1,0.5,2v0.3
	H14c0.1,1.3,0.8,1.9,1.9,1.9c0.4,0,0.9-0.1,1.5-0.3v0.8H17.5z M14.1,87.6h2.4c0-1-0.4-1.5-1.1-1.5C14.6,86.1,14.2,86.6,14.1,87.6z
	 M22.7,92.9v-3c-0.4,0.8-1,1.1-1.8,1.1c-0.7,0-1.2-0.2-1.5-0.7c-0.4-0.5-0.6-1.1-0.6-2s0.2-1.6,0.6-2.2s1-0.8,1.7-0.8
	c0.6,0,1.2,0.2,1.6,0.7v-0.6h1v7.4L22.7,92.9L22.7,92.9z M22.7,86.7c-0.5-0.5-1-0.7-1.5-0.7c-0.9,0-1.4,0.7-1.4,2.2
	c0,1.3,0.4,1.9,1.3,1.9c0.5,0,1.1-0.3,1.6-0.9V86.7z M29,90.9v-1c-0.5,0.8-1.2,1.1-1.9,1.1c-0.5,0-0.9-0.1-1.1-0.4
	c-0.3-0.3-0.4-0.7-0.4-1.2v-3.9h1V89c0,0.4,0.1,0.7,0.2,0.9c0.1,0.2,0.3,0.3,0.6,0.3c0.6,0,1.2-0.4,1.7-1.2v-3.5h1v5.4
	C30.1,90.9,29,90.9,29,90.9z M36,90.7c-0.7,0.2-1.2,0.3-1.7,0.3c-0.8,0-1.5-0.3-2-0.8s-0.8-1.2-0.8-2.1c0-0.8,0.2-1.5,0.7-2
	c0.4-0.5,1-0.8,1.7-0.8s1.2,0.2,1.5,0.7c0.4,0.5,0.5,1.1,0.5,2v0.3h-3.4c0.1,1.3,0.8,1.9,1.9,1.9c0.4,0,0.9-0.1,1.5-0.3L36,90.7
	L36,90.7z M32.6,87.6H35c0-1-0.4-1.5-1.1-1.5C33.1,86.1,32.7,86.6,32.6,87.6z M39.2,91c-0.5,0-1-0.1-1.6-0.3v-0.9
	c0.6,0.3,1.2,0.5,1.7,0.5c0.3,0,0.5-0.1,0.7-0.2c0.2-0.2,0.3-0.3,0.3-0.6c0-0.3-0.3-0.6-0.8-0.8l-0.6-0.2c-0.9-0.4-1.3-0.9-1.3-1.5
	c0-0.5,0.2-0.8,0.5-1.1c0.3-0.3,0.8-0.4,1.4-0.4c0.3,0,0.7,0,1.1,0.1h0.2v0.8c-0.6-0.2-1-0.2-1.3-0.2c-0.6,0-1,0.2-1,0.7
	c0,0.3,0.2,0.5,0.7,0.8l0.5,0.2c0.5,0.2,0.9,0.5,1.1,0.7c0.2,0.3,0.3,0.6,0.3,0.9c0,0.5-0.2,0.9-0.6,1.2C40.2,90.9,39.8,91,39.2,91z
	 M44.6,91c-0.5,0-0.9-0.1-1.2-0.4S43,89.9,43,89.4v-3.2h-0.7v-0.7H43v-1l1-0.1v1.1h1.4v0.7H44v3c0,0.7,0.3,1.1,0.9,1.1
	c0.1,0,0.3,0,0.5-0.1v0.7C45.1,91,44.8,91,44.6,91z"/>
<path style="fill:#6D6F74;" d="M172,90.9v-7.4h2.2c0.7,0,1.3,0.2,1.6,0.5c0.4,0.3,0.6,0.8,0.6,1.4c0,1-0.5,1.7-1.5,2.1l2.5,3.5h-1.3
	l-2.1-3.1h-1V91L172,90.9L172,90.9z M173.1,87h0.3c1.3,0,2-0.5,2-1.6c0-0.8-0.6-1.1-1.7-1.1H173L173.1,87L173.1,87z M182.5,90.7
	c-0.7,0.2-1.2,0.3-1.7,0.3c-0.8,0-1.5-0.3-2-0.8S178,89,178,88.1c0-0.8,0.2-1.5,0.7-2c0.4-0.5,1-0.8,1.7-0.8s1.2,0.2,1.5,0.7
	c0.4,0.5,0.5,1.1,0.5,2v0.3H179c0.1,1.3,0.8,1.9,1.9,1.9c0.4,0,0.9-0.1,1.5-0.3v0.8H182.5z M179.2,87.6h2.4c0-1-0.4-1.5-1.1-1.5
	C179.7,86.1,179.2,86.6,179.2,87.6z M185.7,91c-0.5,0-1-0.1-1.6-0.3v-0.9c0.6,0.3,1.2,0.5,1.7,0.5c0.3,0,0.5-0.1,0.7-0.2
	c0.2-0.2,0.3-0.3,0.3-0.6c0-0.3-0.3-0.6-0.8-0.8l-0.6-0.2c-0.9-0.4-1.3-0.9-1.3-1.5c0-0.5,0.2-0.8,0.5-1.1c0.3-0.3,0.8-0.4,1.4-0.4
	c0.3,0,0.7,0,1.1,0.1h0.2v0.8c-0.6-0.2-1-0.2-1.3-0.2c-0.6,0-1,0.2-1,0.7c0,0.3,0.2,0.5,0.7,0.8l0.5,0.2c0.5,0.2,0.9,0.5,1.1,0.7
	c0.2,0.3,0.3,0.6,0.3,0.9c0,0.5-0.2,0.9-0.6,1.2C186.8,90.9,186.3,91,185.7,91z M189.5,92.9v-7.4h1v1c0.4-0.8,1-1.1,1.8-1.1
	c0.7,0,1.2,0.2,1.5,0.7c0.4,0.5,0.6,1.1,0.6,2s-0.2,1.6-0.6,2.2c-0.4,0.6-1,0.8-1.7,0.8c-0.6,0-1.2-0.2-1.6-0.7V93L189.5,92.9
	L189.5,92.9z M190.5,89.6c0.5,0.5,1,0.7,1.5,0.7c0.9,0,1.4-0.7,1.4-2.2c0-1.3-0.4-1.9-1.3-1.9c-0.6,0-1.1,0.3-1.6,0.9L190.5,89.6
	L190.5,89.6z M198.1,91c-0.8,0-1.4-0.3-1.9-0.8s-0.7-1.2-0.7-2.1s0.2-1.6,0.7-2.1s1.1-0.8,1.9-0.8c0.8,0,1.4,0.3,1.9,0.8
	s0.7,1.2,0.7,2.1s-0.2,1.6-0.7,2.1C199.5,90.8,198.9,91,198.1,91z M198.1,90.3c1,0,1.6-0.7,1.6-2.1s-0.5-2.1-1.5-2.1
	s-1.5,0.7-1.5,2.1C196.6,89.6,197.1,90.3,198.1,90.3z M202.2,90.9v-5.4h1v1c0.5-0.8,1.2-1.1,1.9-1.1c0.5,0,0.8,0.2,1.1,0.5
	s0.4,0.7,0.4,1.2V91h-1v-3.6c0-0.4-0.1-0.7-0.2-0.9c-0.1-0.2-0.3-0.3-0.6-0.3c-0.6,0-1.2,0.4-1.7,1.2v3.5
	C203.1,90.9,202.2,90.9,202.2,90.9z M210,91c-0.4,0-1-0.1-1.6-0.3v-0.9c0.6,0.3,1.2,0.5,1.7,0.5c0.3,0,0.5-0.1,0.7-0.2
	c0.2-0.2,0.3-0.3,0.3-0.6c0-0.3-0.3-0.6-0.8-0.8l-0.6-0.2c-0.9-0.4-1.3-0.9-1.3-1.5c0-0.5,0.2-0.8,0.5-1.1c0.3-0.3,0.8-0.4,1.4-0.4
	c0.3,0,0.7,0,1.1,0.1h0.2v0.8c-0.6-0.2-1-0.2-1.3-0.2c-0.6,0-1,0.2-1,0.7c0,0.3,0.2,0.5,0.7,0.8l0.5,0.2c0.5,0.2,0.9,0.5,1.1,0.7
	c0.2,0.3,0.3,0.6,0.3,0.9c0,0.5-0.2,0.9-0.6,1.2C211.1,90.9,210.6,91,210,91z M217.8,90.7c-0.7,0.2-1.2,0.3-1.7,0.3
	c-0.8,0-1.5-0.3-2-0.8s-0.8-1.2-0.8-2.1c0-0.8,0.2-1.5,0.7-2c0.4-0.5,1-0.8,1.7-0.8s1.2,0.2,1.5,0.7c0.4,0.5,0.5,1.1,0.5,2v0.3h-3.4
	c0.1,1.3,0.8,1.9,1.9,1.9c0.4,0,0.9-0.1,1.5-0.3v0.8H217.8z M214.4,87.6h2.4c0-1-0.4-1.5-1.1-1.5C215,86.1,214.5,86.6,214.4,87.6z"
	/>
</svg>
