<svg xmlns="http://www.w3.org/2000/svg" width="90" height="63" viewBox="0 0 90 63" fill="none">
    <path d="M23.9843 32.9538C22.2738 32.5897 20.4994 32.401 18.7789 32.7138C15.5462 33.3008 12.8707 35.5731 10.6321 38.0079C8.39342 40.4428 6.38797 43.1551 3.70823 45.0788C2.82554 45.7123 1.87954 46.2524 0.994732 46.8827C0.523049 47.219 0.0270944 47.6569 0.00176907 48.2407C-0.0283047 48.9246 0.601135 49.4459 1.21686 49.7271C2.57598 50.3489 4.13982 50.3847 5.60552 50.1056C7.07122 49.826 8.46253 49.2491 9.84224 48.6754C9.0925 49.0716 9.15159 50.2901 9.78051 50.8627C10.4089 51.4353 11.3401 51.5011 12.1811 51.4123C14.5855 51.1584 16.764 49.9169 18.8633 48.7022C18.2033 49.1245 18.4344 50.2682 19.1134 50.6585C19.7924 51.0488 20.6493 50.8825 21.3748 50.5916C24.6391 49.2817 26.797 45.7877 30.1964 44.8975C30.7678 44.7478 31.3851 44.6666 31.8499 44.2976C32.3696 43.8849 32.5933 43.1754 32.5664 42.5071C32.5395 41.8388 32.2952 41.1998 32.0225 40.5909C30.3484 36.8467 28.106 33.8317 23.9854 32.9549L23.9843 32.9538Z" fill="#CADAF0"/>
    <path d="M10.2071 46.9506C8.82744 47.5243 7.43613 48.1017 5.97042 48.3808C4.50472 48.6604 2.94141 48.6241 1.58176 48.0023C1.19766 47.8264 0.807754 47.5574 0.57666 47.2131C0.26748 47.4938 0.0189754 47.8312 0.00103665 48.2402C-0.0290372 48.924 0.600402 49.4453 1.21612 49.7265C2.57525 50.3484 4.13909 50.3842 5.60479 50.1051C7.06205 49.8271 8.44597 49.255 9.81776 48.6845C9.53021 48.0712 9.62202 47.2596 10.2077 46.9501L10.2071 46.9506Z" fill="#9FBBD4"/>
    <path d="M32.5403 42.2242C32.4485 42.3542 32.3404 42.4723 32.2143 42.5723C31.7494 42.9412 31.1321 43.0225 30.5607 43.1722C27.1613 44.0624 25.0034 47.5564 21.7391 48.8663C21.0136 49.1577 20.1568 49.3234 19.4777 48.9331C18.7987 48.5428 18.5676 47.3992 19.2276 46.9768C17.1283 48.1916 14.9503 49.433 12.5455 49.687C11.7044 49.7757 10.7737 49.7105 10.1448 49.1374C10.0082 49.0128 9.89843 48.8577 9.81824 48.6877C9.09277 49.0962 9.15661 50.2954 9.77867 50.8622C10.407 51.4348 11.3383 51.5005 12.1793 51.4118C14.5836 51.1578 16.7621 49.9164 18.8615 48.7016C18.2014 49.124 18.4325 50.2676 19.1116 50.6579C19.7906 51.0482 20.6474 50.8819 21.3729 50.5911C24.6372 49.2812 26.7952 45.7872 30.1946 44.897C30.766 44.7473 31.3833 44.666 31.8481 44.2971C32.3678 43.8844 32.5915 43.1749 32.5646 42.5065C32.5609 42.4119 32.5525 42.3178 32.5403 42.2248V42.2242Z" fill="#9FBBD4"/>
    <path d="M9.58034 42.1553C10.071 42.7996 11.0191 42.8814 11.7931 42.6638C12.8858 42.3569 13.7901 41.5971 14.6581 40.8577C14.3288 41.3234 14.2745 41.9735 14.5219 42.4884C14.8686 43.2102 15.7201 43.57 16.5116 43.5449C17.303 43.5197 18.049 43.1797 18.7555 42.8167C19.9368 42.2093 21.0775 41.5196 22.166 40.7545C21.9354 40.9812 21.7006 41.2148 21.5603 41.5073C21.4199 41.8003 21.3899 42.1692 21.5682 42.4403C21.6542 42.5713 21.7819 42.6696 21.9159 42.7498C22.6297 43.1744 23.523 43.1123 24.3344 42.9461C26.4465 42.513 28.3949 41.472 30.1746 40.2407C28.4767 40.8219 26.7103 41.1977 24.9254 41.3581C24.4125 41.4041 23.8089 41.3939 23.4971 40.9791C23.1579 40.5283 23.3673 39.8851 23.5884 39.3644C22.0694 40.6075 20.2265 41.4399 18.2986 41.7527C17.6559 41.857 16.8957 41.8623 16.4762 41.3581C16.0568 40.8539 16.1897 40.1017 16.3459 39.4617C15.0601 40.5508 13.4599 41.2539 11.7963 41.4602C11.2091 41.533 10.529 41.51 10.1407 41.0577C9.66476 40.5032 9.90113 39.6847 10.175 39.0955C9.42522 39.806 8.87545 41.2287 9.58139 42.1553H9.58034Z" fill="#9FBBD4"/>
    <path d="M15.4357 36.6061C15.6315 36.968 16.0535 37.1621 16.4609 37.168C16.8682 37.1739 17.2618 37.0188 17.6206 36.8242C18.4257 36.3863 19.1021 35.7453 19.7685 35.1117C19.3902 35.3999 19.0541 35.741 18.6763 36.0302C18.2985 36.3195 17.8654 36.5601 17.3937 36.6013C16.9225 36.643 16.4097 36.4494 16.1686 36.0367C16.0219 35.7859 15.9876 35.4774 16.0414 35.1908C16.0504 35.1427 16.0572 35.0818 16.0171 35.055C15.9723 35.0246 15.9148 35.0652 15.8779 35.1048C15.5191 35.4908 15.1524 36.0826 15.4352 36.6061H15.4357Z" fill="#9FBBD4"/>
    <path d="M21.049 38.4875C21.7777 38.695 22.5527 38.4244 23.2307 38.0844C24.2569 37.5695 25.2008 36.8852 26.0128 36.0671C25.1417 36.7216 24.153 37.2145 23.1094 37.5139C22.5828 37.6652 22.0183 37.7668 21.4912 37.6176C20.9636 37.4685 20.4892 37.0065 20.4787 36.4521C20.4819 36.6071 20.2835 36.8723 20.2576 37.0541C20.2291 37.2519 20.2302 37.4867 20.2724 37.6834C20.3616 38.0994 20.6433 38.372 21.0485 38.4875H21.049Z" fill="#9FBBD4"/>
    <path d="M65.5843 32.9538C67.2948 32.5897 69.0691 32.401 70.7897 32.7138C74.0224 33.3008 76.6979 35.5731 78.9365 38.0079C81.1752 40.4428 83.1806 43.1551 85.8604 45.0788C86.743 45.7123 87.6891 46.2524 88.5739 46.8827C89.0455 47.219 89.5415 47.6569 89.5668 48.2407C89.5969 48.9246 88.9675 49.4459 88.3517 49.7271C86.9926 50.3489 85.4288 50.3847 83.9631 50.1056C82.4974 49.826 81.1061 49.2491 79.7264 48.6754C80.4761 49.0716 80.417 50.2901 79.7881 50.8627C79.1597 51.4353 78.2285 51.5011 77.3875 51.4123C74.9831 51.1584 72.8046 49.9169 70.7053 48.7022C71.3653 49.1245 71.1342 50.2682 70.4552 50.6585C69.7761 51.0488 68.9193 50.8825 68.1938 50.5916C64.9295 49.2817 62.7716 45.7877 59.3722 44.8975C58.8008 44.7478 58.1835 44.6666 57.7187 44.2976C57.199 43.8849 56.9753 43.1754 57.0022 42.5071C57.0291 41.8388 57.2734 41.1998 57.5461 40.5909C59.2202 36.8467 61.4626 33.8317 65.5832 32.9549L65.5843 32.9538Z" fill="#CADAF0"/>
    <path d="M79.3619 46.9506C80.7416 47.5243 82.1329 48.1017 83.5986 48.3808C85.0643 48.6604 86.6276 48.6241 87.9872 48.0023C88.3713 47.8264 88.7612 47.5574 88.9923 47.2131C89.3015 47.4938 89.55 47.8312 89.568 48.2402C89.598 48.924 88.9686 49.4453 88.3529 49.7265C86.9937 50.3484 85.4299 50.3842 83.9642 50.1051C82.5069 49.8271 81.123 49.255 79.7512 48.6845C80.0388 48.0712 79.947 47.2596 79.3613 46.9501L79.3619 46.9506Z" fill="#9FBBD4"/>
    <path d="M57.0281 42.2242C57.1199 42.3542 57.2281 42.4723 57.3542 42.5723C57.819 42.9412 58.4363 43.0225 59.0077 43.1722C62.4071 44.0624 64.5651 47.5564 67.8294 48.8663C68.5549 49.1577 69.4117 49.3234 70.0907 48.9331C70.7698 48.5428 71.0009 47.3992 70.3408 46.9768C72.4402 48.1916 74.6182 49.433 77.023 49.687C77.864 49.7757 78.7947 49.7105 79.4236 49.1374C79.5603 49.0128 79.67 48.8577 79.7502 48.6877C80.4757 49.0962 80.4118 50.2954 79.7898 50.8622C79.1614 51.4348 78.2302 51.5005 77.3892 51.4118C74.9848 51.1578 72.8063 49.9164 70.707 48.7016C71.367 49.124 71.1359 50.2676 70.4569 50.6579C69.7779 51.0482 68.921 50.8819 68.1955 50.5911C64.9312 49.2812 62.7733 45.7872 59.3739 44.897C58.8025 44.7473 58.1852 44.666 57.7204 44.2971C57.2007 43.8844 56.977 43.1749 57.0039 42.5065C57.0076 42.4119 57.016 42.3178 57.0281 42.2248V42.2242Z" fill="#9FBBD4"/>
    <path d="M79.9885 42.1552C79.4978 42.7995 78.5497 42.8813 77.7757 42.6637C76.683 42.3568 75.7787 41.5971 74.9108 40.8576C75.24 41.3233 75.2944 41.9735 75.0469 42.4883C74.7003 43.2101 73.8487 43.5699 73.0573 43.5448C72.2659 43.5197 71.5198 43.1796 70.8134 42.8166C69.632 42.2092 68.4914 41.5195 67.4029 40.7544C67.6335 40.9811 67.8682 41.2148 68.0086 41.5072C68.1489 41.8002 68.179 42.1691 68.0007 42.4402C67.9147 42.5712 67.787 42.6696 67.653 42.7498C66.9391 43.1743 66.0459 43.1123 65.2344 42.946C63.1224 42.5129 61.1739 41.4719 59.3943 40.2406C61.0921 40.8218 62.8586 41.1977 64.6435 41.3581C65.1563 41.404 65.7599 41.3939 66.0717 40.979C66.411 40.5283 66.2015 39.8851 65.9805 39.3643C67.4994 40.6074 69.3424 41.4399 71.2703 41.7526C71.9129 41.8569 72.6732 41.8622 73.0926 41.3581C73.5121 40.8539 73.3791 40.1016 73.223 39.4616C74.5088 40.5507 76.109 41.2538 77.7726 41.4602C78.3598 41.5329 79.0399 41.5099 79.4282 41.0576C79.9041 40.5032 79.6677 39.6846 79.3939 39.0954C80.1436 39.806 80.6934 41.2287 79.9875 42.1552H79.9885Z" fill="#9FBBD4"/>
    <path d="M74.1332 36.6061C73.9374 36.968 73.5153 37.1621 73.108 37.168C72.7007 37.1739 72.3071 37.0188 71.9483 36.8242C71.1432 36.3863 70.4668 35.7453 69.8004 35.1117C70.1787 35.3999 70.5148 35.741 70.8926 36.0302C71.2703 36.3195 71.7035 36.5601 72.1747 36.6013C72.6458 36.643 73.1587 36.4494 73.3998 36.0367C73.5464 35.7859 73.5807 35.4774 73.5269 35.1908C73.518 35.1427 73.5111 35.0818 73.5512 35.055C73.596 35.0246 73.6536 35.0652 73.6905 35.1048C74.0493 35.4908 74.416 36.0826 74.1332 36.6061Z" fill="#9FBBD4"/>
    <path d="M68.5194 38.4875C67.7908 38.695 67.0157 38.4244 66.3378 38.0844C65.3116 37.5695 64.3677 36.8852 63.5557 36.0671C64.4267 36.7216 65.4155 37.2145 66.4591 37.5139C66.9857 37.6652 67.5502 37.7668 68.0773 37.6176C68.6049 37.4685 69.0792 37.0065 69.0898 36.4521C69.0866 36.6071 69.285 36.8723 69.3108 37.0541C69.3393 37.2519 69.3378 37.4867 69.2961 37.6834C69.2069 38.0994 68.9252 38.372 68.52 38.4875H68.5194Z" fill="#9FBBD4"/>
    <path d="M63.1685 29.0099H56.9887V18.3024C56.9887 11.6433 51.6103 6.2253 45 6.2253C38.3896 6.2253 33.0112 11.6433 33.0112 18.3024V29.0099H26.8314V18.3024C26.8314 8.2107 34.9821 0 45 0C55.0178 0 63.1685 8.2107 63.1685 18.3024V29.0099Z" fill="#525255"/>
    <path d="M63.1686 18.3024V29.0099H56.9888V26.1462C59.4607 25.1502 60.4495 23.1581 60.4495 20.419V18.3024C60.4495 8.66989 53.0258 0.753725 43.6405 0.0508694C43.7402 0.0428368 43.8412 0.0374817 43.9422 0.0307878C43.9621 0.0307878 43.9821 0.0281102 44.002 0.0267715C44.0724 0.0227552 44.1442 0.0187388 44.2146 0.0174001C44.2425 0.0174001 44.2718 0.0147225 44.2997 0.0133837C44.3395 0.0133837 44.3794 0.00936741 44.4206 0.00936741C44.5004 0.00535109 44.5788 0.00401232 44.6585 0.00267355C44.7728 -3.99991e-06 44.8871 -0.00134277 45.0014 -0.00134277C55.0206 -0.00134277 63.1699 8.20802 63.1699 18.301L63.1686 18.3024Z" fill="#424244"/>
    <path d="M64.342 26.7688H25.658C24.19 26.7688 23 27.9676 23 29.4463V60.3225C23 61.8012 24.19 63 25.658 63H64.342C65.81 63 67 61.8012 67 60.3225V29.4463C67 27.9676 65.81 26.7688 64.342 26.7688Z" fill="#26649D"/>
    <path d="M49.4427 50.5936C49.6408 51.8453 48.6812 52.9766 47.424 52.9766H42.5746C41.3173 52.9766 40.3591 51.8453 40.5558 50.5936L41.2456 46.2332C40.2076 45.2345 39.5604 43.8274 39.5604 42.2691C39.5604 39.2435 41.9951 36.7908 44.9986 36.7908C48.0021 36.7908 50.4368 39.2435 50.4368 42.2691C50.4368 43.8274 49.7909 45.2345 48.7517 46.2332L49.4414 50.5936H49.4427Z" fill="#2C5175"/>
    <path d="M67.0001 29.2589V60.5099C67.0001 61.8862 65.8943 63 64.5282 63H32.8877C45.7416 63 59.4607 60.8834 59.4607 45.9427V33.2431C59.4607 29.6672 56.5835 26.7688 53.0338 26.7688H64.5282C65.8943 26.7688 67.0001 27.8827 67.0001 29.2589Z" fill="#2C5175"/>
</svg>