<svg width="90" height="63" viewBox="0 0 90 63" fill="none" xmlns="http://www.w3.org/2000/svg">
	<path d="M39.3878 17.3812C45.492 13.857 55.3889 13.857 61.4931 17.3812L80.003 28.0679C83.1655 29.8938 83.2051 32.8471 80.0918 34.701L46.8682 54.4852C43.6424 56.4061 38.3005 56.3998 35.0883 54.4712L11.2687 40.1701C8.17771 38.3143 8.22756 35.3716 11.3809 33.5511L39.3878 17.3812Z" fill="#2B2B2B"/>
	<path d="M38.9864 11.0277C45.0906 7.50346 54.9875 7.50346 61.0917 11.0277L79.5128 21.6631C82.7102 23.5092 82.7102 26.5022 79.5128 28.3483L46.3548 47.492C43.1574 49.338 37.9733 49.338 34.7759 47.492L11.0917 33.8179C7.89422 31.9719 7.89422 28.9788 11.0917 27.1328L38.9864 11.0277Z" fill="#333E55"/>
	<path d="M44.2454 4.345C47.4451 2.49761 52.633 2.49761 55.8328 4.345L79.5128 18.0167C82.7102 19.8627 82.7102 22.8557 79.5128 24.7018L46.3548 43.8455C43.1574 45.6916 37.9733 45.6916 34.7759 43.8455L11.0917 30.1714C7.89422 28.3254 7.89422 25.3323 11.0917 23.4863L44.2454 4.345Z" fill="#41506D"/>
	<g opacity="0.6">
		<path d="M33.7529 10.4023L69.0161 30.7616L46.3539 43.8456C43.1565 45.6916 37.9724 45.6916 34.775 43.8456L11.0908 30.1715C7.89332 28.3254 7.89331 25.3324 11.0908 23.4864L33.7529 10.4023Z" fill="#26649D"/>
	</g>
	<path d="M50.6486 21.2709L46.6951 23.5535L34.1759 24.3143L39.7766 27.5479L34.1759 30.7815L40.106 34.2053L27.9162 34.7759L23.6333 37.2486" stroke="url(#paint0_linear_1833_21634)" stroke-width="2" stroke-linecap="square" stroke-linejoin="round"/>
	<rect x="54" y="13" width="9.8" height="3" fill="#333E55"/>
	<circle r="4" transform="matrix(0.866025 -0.5 0.866025 0.5 58.9282 16)" fill="#333E55"/>
	<circle r="4" transform="matrix(0.866025 -0.5 0.866025 0.5 58.9282 13)" fill="#26649D"/>
	<rect x="64" y="19" width="9.8" height="3" fill="#333E55"/>
	<circle r="4" transform="matrix(0.866025 -0.5 0.866025 0.5 68.9282 22)" fill="#333E55"/>
	<circle r="4" transform="matrix(0.866025 -0.5 0.866025 0.5 68.9282 19)" fill="#26649D"/>
	<defs>
		<linearGradient id="paint0_linear_1833_21634" x1="50.8133" y1="21.366" x2="37.1409" y2="45.0473" gradientUnits="userSpaceOnUse">
			<stop stop-color="#BBBBBB" stop-opacity="0.43"/>
			<stop offset="0.333333" stop-color="#BBBBBB"/>
			<stop offset="1" stop-color="#BBBBBB" stop-opacity="0"/>
		</linearGradient>
	</defs>
</svg>
