<svg width="152" height="82" viewBox="0 0 152 82" fill="none" xmlns="http://www.w3.org/2000/svg">
<path d="M1 11C1 5.47715 5.47715 1 11 1H141C146.523 1 151 5.47715 151 11V71C151 76.5229 146.523 81 141 81H11C5.47715 81 1 76.5229 1 71V11Z" fill="#323945"/>
<path d="M11 61H151V71C151 76.5228 146.523 81 141 81H11V61Z" fill="#2B2B2B"/>
<path d="M47.5908 77.624C46.8418 78.3138 46.1203 78.6587 45.4263 78.6587C44.855 78.6587 44.381 78.481 44.0044 78.1255C43.6278 77.7658 43.4395 77.313 43.4395 76.7671C43.4395 76.0138 43.7547 75.4362 44.3853 75.0342C45.02 74.6279 45.9277 74.4248 47.1084 74.4248H47.4067V73.5933C47.4067 72.7935 46.9963 72.3936 46.1753 72.3936C45.5151 72.3936 44.8021 72.5967 44.0361 73.0029V71.9683C44.8783 71.6255 45.6675 71.4541 46.4038 71.4541C47.174 71.4541 47.741 71.6276 48.105 71.9746C48.4731 72.3216 48.6572 72.8612 48.6572 73.5933V76.7163C48.6572 77.4315 48.8773 77.7891 49.3174 77.7891C49.3724 77.7891 49.4528 77.7806 49.5586 77.7637L49.6475 78.4556C49.3639 78.591 49.0508 78.6587 48.708 78.6587C48.124 78.6587 47.7516 78.3138 47.5908 77.624ZM47.4067 76.9448V75.1611L46.9878 75.1484C46.3022 75.1484 45.7479 75.2796 45.3247 75.542C44.9015 75.8001 44.6899 76.1408 44.6899 76.564C44.6899 76.8644 44.7957 77.1183 45.0073 77.3257C45.2189 77.533 45.4771 77.6367 45.7817 77.6367C46.3022 77.6367 46.8439 77.4061 47.4067 76.9448Z" fill="#C5C7C8"/>
<path d="M41.2432 78.6587C40.6084 78.6587 40.1133 78.4767 39.7578 78.1128C39.4023 77.7489 39.2246 77.2432 39.2246 76.5957V72.5459H38.3613V71.6064H39.2246V70.356L40.4751 70.2354V71.6064H42.2778V72.5459H40.4751V76.3672C40.4751 77.2686 40.8644 77.7192 41.6431 77.7192C41.8081 77.7192 42.0091 77.6917 42.2461 77.6367V78.5C41.861 78.6058 41.5267 78.6587 41.2432 78.6587Z" fill="#C5C7C8"/>
<path d="M35.542 77.624C34.793 78.3138 34.0715 78.6587 33.3774 78.6587C32.8062 78.6587 32.3322 78.481 31.9556 78.1255C31.5789 77.7658 31.3906 77.313 31.3906 76.7671C31.3906 76.0138 31.7059 75.4362 32.3364 75.0342C32.9712 74.6279 33.8789 74.4248 35.0596 74.4248H35.3579V73.5933C35.3579 72.7935 34.9474 72.3936 34.1265 72.3936C33.4663 72.3936 32.7533 72.5967 31.9873 73.0029V71.9683C32.8294 71.6255 33.6187 71.4541 34.355 71.4541C35.1252 71.4541 35.6922 71.6276 36.0562 71.9746C36.4243 72.3216 36.6084 72.8612 36.6084 73.5933V76.7163C36.6084 77.4315 36.8285 77.7891 37.2686 77.7891C37.3236 77.7891 37.404 77.7806 37.5098 77.7637L37.5986 78.4556C37.3151 78.591 37.002 78.6587 36.6592 78.6587C36.0752 78.6587 35.7028 78.3138 35.542 77.624ZM35.3579 76.9448V75.1611L34.939 75.1484C34.2534 75.1484 33.6991 75.2796 33.2759 75.542C32.8527 75.8001 32.6411 76.1408 32.6411 76.564C32.6411 76.8644 32.7469 77.1183 32.9585 77.3257C33.1701 77.533 33.4282 77.6367 33.7329 77.6367C34.2534 77.6367 34.7951 77.4061 35.3579 76.9448Z" fill="#C5C7C8"/>
<path d="M22.2129 78.5V69.1055H25.3359C26.2669 69.1055 27.0181 69.2091 27.5894 69.4165C28.1649 69.6239 28.6621 69.9751 29.0811 70.4702C29.7454 71.2573 30.0776 72.2941 30.0776 73.5806C30.0776 75.1421 29.665 76.3524 28.8398 77.2114C28.0146 78.0705 26.853 78.5 25.355 78.5H22.2129ZM23.5459 77.5034H25.2534C26.4722 77.5034 27.3354 77.1755 27.8433 76.5195C28.3892 75.8213 28.6621 74.884 28.6621 73.7075C28.6621 72.603 28.3934 71.7355 27.856 71.105C27.5301 70.7199 27.1408 70.4575 26.688 70.3179C26.2352 70.174 25.5539 70.1021 24.644 70.1021H23.5459V77.5034Z" fill="#C5C7C8"/>
<rect width="140" height="25" transform="translate(11 36)" fill="#2B2B2B"/>
<path d="M47.5908 52.624C46.8418 53.3138 46.1203 53.6587 45.4263 53.6587C44.855 53.6587 44.381 53.481 44.0044 53.1255C43.6278 52.7658 43.4395 52.313 43.4395 51.7671C43.4395 51.0138 43.7547 50.4362 44.3853 50.0342C45.02 49.6279 45.9277 49.4248 47.1084 49.4248H47.4067V48.5933C47.4067 47.7935 46.9963 47.3936 46.1753 47.3936C45.5151 47.3936 44.8021 47.5967 44.0361 48.0029V46.9683C44.8783 46.6255 45.6675 46.4541 46.4038 46.4541C47.174 46.4541 47.741 46.6276 48.105 46.9746C48.4731 47.3216 48.6572 47.8612 48.6572 48.5933V51.7163C48.6572 52.4315 48.8773 52.7891 49.3174 52.7891C49.3724 52.7891 49.4528 52.7806 49.5586 52.7637L49.6475 53.4556C49.3639 53.591 49.0508 53.6587 48.708 53.6587C48.124 53.6587 47.7516 53.3138 47.5908 52.624ZM47.4067 51.9448V50.1611L46.9878 50.1484C46.3022 50.1484 45.7479 50.2796 45.3247 50.542C44.9015 50.8001 44.6899 51.1408 44.6899 51.564C44.6899 51.8644 44.7957 52.1183 45.0073 52.3257C45.2189 52.533 45.4771 52.6367 45.7817 52.6367C46.3022 52.6367 46.8439 52.4061 47.4067 51.9448Z" fill="#C5C7C8"/>
<path d="M41.2432 53.6587C40.6084 53.6587 40.1133 53.4767 39.7578 53.1128C39.4023 52.7489 39.2246 52.2432 39.2246 51.5957V47.5459H38.3613V46.6064H39.2246V45.356L40.4751 45.2354V46.6064H42.2778V47.5459H40.4751V51.3672C40.4751 52.2686 40.8644 52.7192 41.6431 52.7192C41.8081 52.7192 42.0091 52.6917 42.2461 52.6367V53.5C41.861 53.6058 41.5267 53.6587 41.2432 53.6587Z" fill="#C5C7C8"/>
<path d="M35.542 52.624C34.793 53.3138 34.0715 53.6587 33.3774 53.6587C32.8062 53.6587 32.3322 53.481 31.9556 53.1255C31.5789 52.7658 31.3906 52.313 31.3906 51.7671C31.3906 51.0138 31.7059 50.4362 32.3364 50.0342C32.9712 49.6279 33.8789 49.4248 35.0596 49.4248H35.3579V48.5933C35.3579 47.7935 34.9474 47.3936 34.1265 47.3936C33.4663 47.3936 32.7533 47.5967 31.9873 48.0029V46.9683C32.8294 46.6255 33.6187 46.4541 34.355 46.4541C35.1252 46.4541 35.6922 46.6276 36.0562 46.9746C36.4243 47.3216 36.6084 47.8612 36.6084 48.5933V51.7163C36.6084 52.4315 36.8285 52.7891 37.2686 52.7891C37.3236 52.7891 37.404 52.7806 37.5098 52.7637L37.5986 53.4556C37.3151 53.591 37.002 53.6587 36.6592 53.6587C36.0752 53.6587 35.7028 53.3138 35.542 52.624ZM35.3579 51.9448V50.1611L34.939 50.1484C34.2534 50.1484 33.6991 50.2796 33.2759 50.542C32.8527 50.8001 32.6411 51.1408 32.6411 51.564C32.6411 51.8644 32.7469 52.1183 32.9585 52.3257C33.1701 52.533 33.4282 52.6367 33.7329 52.6367C34.2534 52.6367 34.7951 52.4061 35.3579 51.9448Z" fill="#C5C7C8"/>
<path d="M22.2129 53.5V44.1055H25.3359C26.2669 44.1055 27.0181 44.2091 27.5894 44.4165C28.1649 44.6239 28.6621 44.9751 29.0811 45.4702C29.7454 46.2573 30.0776 47.2941 30.0776 48.5806C30.0776 50.1421 29.665 51.3524 28.8398 52.2114C28.0146 53.0705 26.853 53.5 25.355 53.5H22.2129ZM23.5459 52.5034H25.2534C26.4722 52.5034 27.3354 52.1755 27.8433 51.5195C28.3892 50.8213 28.6621 49.884 28.6621 48.7075C28.6621 47.603 28.3934 46.7355 27.856 46.105C27.5301 45.7199 27.1408 45.4575 26.688 45.3179C26.2352 45.174 25.5539 45.1021 24.644 45.1021H23.5459V52.5034Z" fill="#C5C7C8"/>
<rect width="140" height="25" transform="translate(11 11)" fill="#2B2B2B"/>
<path d="M47.5908 27.624C46.8418 28.3138 46.1203 28.6587 45.4263 28.6587C44.855 28.6587 44.381 28.481 44.0044 28.1255C43.6278 27.7658 43.4395 27.313 43.4395 26.7671C43.4395 26.0138 43.7547 25.4362 44.3853 25.0342C45.02 24.6279 45.9277 24.4248 47.1084 24.4248H47.4067V23.5933C47.4067 22.7935 46.9963 22.3936 46.1753 22.3936C45.5151 22.3936 44.8021 22.5967 44.0361 23.0029V21.9683C44.8783 21.6255 45.6675 21.4541 46.4038 21.4541C47.174 21.4541 47.741 21.6276 48.105 21.9746C48.4731 22.3216 48.6572 22.8612 48.6572 23.5933V26.7163C48.6572 27.4315 48.8773 27.7891 49.3174 27.7891C49.3724 27.7891 49.4528 27.7806 49.5586 27.7637L49.6475 28.4556C49.3639 28.591 49.0508 28.6587 48.708 28.6587C48.124 28.6587 47.7516 28.3138 47.5908 27.624ZM47.4067 26.9448V25.1611L46.9878 25.1484C46.3022 25.1484 45.7479 25.2796 45.3247 25.542C44.9015 25.8001 44.6899 26.1408 44.6899 26.564C44.6899 26.8644 44.7957 27.1183 45.0073 27.3257C45.2189 27.533 45.4771 27.6367 45.7817 27.6367C46.3022 27.6367 46.8439 27.4061 47.4067 26.9448Z" fill="#C5C7C8"/>
<path d="M41.2432 28.6587C40.6084 28.6587 40.1133 28.4767 39.7578 28.1128C39.4023 27.7489 39.2246 27.2432 39.2246 26.5957V22.5459H38.3613V21.6064H39.2246V20.356L40.4751 20.2354V21.6064H42.2778V22.5459H40.4751V26.3672C40.4751 27.2686 40.8644 27.7192 41.6431 27.7192C41.8081 27.7192 42.0091 27.6917 42.2461 27.6367V28.5C41.861 28.6058 41.5267 28.6587 41.2432 28.6587Z" fill="#C5C7C8"/>
<path d="M35.542 27.624C34.793 28.3138 34.0715 28.6587 33.3774 28.6587C32.8062 28.6587 32.3322 28.481 31.9556 28.1255C31.5789 27.7658 31.3906 27.313 31.3906 26.7671C31.3906 26.0138 31.7059 25.4362 32.3364 25.0342C32.9712 24.6279 33.8789 24.4248 35.0596 24.4248H35.3579V23.5933C35.3579 22.7935 34.9474 22.3936 34.1265 22.3936C33.4663 22.3936 32.7533 22.5967 31.9873 23.0029V21.9683C32.8294 21.6255 33.6187 21.4541 34.355 21.4541C35.1252 21.4541 35.6922 21.6276 36.0562 21.9746C36.4243 22.3216 36.6084 22.8612 36.6084 23.5933V26.7163C36.6084 27.4315 36.8285 27.7891 37.2686 27.7891C37.3236 27.7891 37.404 27.7806 37.5098 27.7637L37.5986 28.4556C37.3151 28.591 37.002 28.6587 36.6592 28.6587C36.0752 28.6587 35.7028 28.3138 35.542 27.624ZM35.3579 26.9448V25.1611L34.939 25.1484C34.2534 25.1484 33.6991 25.2796 33.2759 25.542C32.8527 25.8001 32.6411 26.1408 32.6411 26.564C32.6411 26.8644 32.7469 27.1183 32.9585 27.3257C33.1701 27.533 33.4282 27.6367 33.7329 27.6367C34.2534 27.6367 34.7951 27.4061 35.3579 26.9448Z" fill="#C5C7C8"/>
<path d="M22.2129 28.5V19.1055H25.3359C26.2669 19.1055 27.0181 19.2091 27.5894 19.4165C28.1649 19.6239 28.6621 19.9751 29.0811 20.4702C29.7454 21.2573 30.0776 22.2941 30.0776 23.5806C30.0776 25.1421 29.665 26.3524 28.8398 27.2114C28.0146 28.0705 26.853 28.5 25.355 28.5H22.2129ZM23.5459 27.5034H25.2534C26.4722 27.5034 27.3354 27.1755 27.8433 26.5195C28.3892 25.8213 28.6621 24.884 28.6621 23.7075C28.6621 22.603 28.3934 21.7355 27.856 21.105C27.5301 20.7199 27.1408 20.4575 26.688 20.3179C26.2352 20.174 25.5539 20.1021 24.644 20.1021H23.5459V27.5034Z" fill="#C5C7C8"/>
<line x1="12" y1="11.5" x2="151" y2="11.5" stroke="#525255"/>
<line x1="11.5" y1="11" x2="11.5" y2="82" stroke="#525255"/>
<path fill-rule="evenodd" clip-rule="evenodd" d="M0 11.3614C0 5.08669 5.11508 0 11.4248 0H140.575C146.885 0 152 5.08669 152 11.3614V70.6386C152 76.9133 146.885 82 140.575 82H11.4248C5.11507 82 0 76.9133 0 70.6386V11.3614ZM11.4248 2.96386C6.7611 2.96386 2.98039 6.72359 2.98039 11.3614V70.6386C2.98039 75.2764 6.7611 79.0361 11.4248 79.0361H140.575C145.239 79.0361 149.02 75.2764 149.02 70.6386V11.3614C149.02 6.72359 145.239 2.96386 140.575 2.96386H11.4248Z" fill="#26649D"/>
</svg>
