<svg width="90" height="63" viewBox="0 0 90 63" fill="none" xmlns="http://www.w3.org/2000/svg">
    <rect width="46" height="57" rx="2" transform="matrix(0.866025 0.5 -0.866025 0.5 49.3635 9)" fill="#2B2B2B"/>
    <path d="M88.1717 27.0169L88.1718 23.3035C88.1719 22.8133 87.6803 22.3674 86.911 22.1598C86.5245 22.0556 86.0936 22.0189 85.6713 22.0542L44.8037 25.4791C44.6376 25.493 44.4695 25.497 44.3019 25.4911L16.9024 24.5207C16.5186 24.5071 16.1346 24.5459 15.7816 24.6338L2.5504 27.9315C1.65291 28.1551 1.07171 28.6655 1.07171 29.2299L1.07175 32.6645C1.07175 33.041 1.33185 33.402 1.79439 33.6675L38.1112 54.5095C39.0662 55.0576 40.6085 55.0578 41.564 54.51L63.8205 41.75L87.4599 28.0136C87.9158 27.7487 88.1717 27.3904 88.1717 27.0169Z"
          fill="#323945"/>
    <path d="M66.6839 5C67.1622 4.72386 67.9377 4.72386 68.416 5L80.5403 12C81.0186 12.2761 81.0186 12.7239 80.5403 13L77.9422 14.5L64.0858 6.5L66.6839 5Z" fill="#2C5175"/>
    <rect width="46" height="57" rx="2" transform="matrix(0.866025 0.5 -0.866025 0.5 49.3634 0)" fill="#2C5175"/>
    <rect width="38" height="49" rx="1" transform="matrix(0.866025 0.5 -0.866025 0.5 49.3634 4)" fill="#26649D"/>
    <path d="M59.7557 5C60.234 4.72386 61.0095 4.72386 61.4878 5L80.5403 16C81.0186 16.2761 81.0186 16.7239 80.5403 17L76.2102 19.5C74.2971 20.6046 71.1952 20.6046 69.282 19.5L55.4256 11.5C53.5124 10.3954 53.5124 8.60457 55.4256 7.5L59.7557 5Z"
          fill="#5384B2"/>
    <g clip-path="url(#clip0_2395_24512)">
        <path fill-rule="evenodd" clip-rule="evenodd"
              d="M68.3116 25.9561C68.3537 26.1989 68.0468 26.4155 67.6261 26.4398L60.4093 26.8564C60.1941 26.8689 59.9798 26.8282 59.8195 26.7444C59.6591 26.6606 59.5676 26.5416 59.5676 26.4167L59.5676 24.75C59.5676 24.506 59.9103 24.3081 60.3331 24.3081C60.7558 24.3081 61.0986 24.506 61.0986 24.75L61.0986 25.9284L67.4738 25.5603C67.8945 25.536 68.2696 25.7132 68.3116 25.9561Z"
              fill="#C5C7C8" stroke="#C5C7C8" stroke-width="0.5" stroke-linecap="round" stroke-linejoin="round"/>
    </g>
    <g clip-path="url(#clip1_2395_24512)">
        <path fill-rule="evenodd" clip-rule="evenodd"
              d="M57.9193 31.9561C57.9614 32.1989 57.6545 32.4155 57.2338 32.4398L50.0169 32.8564C49.8017 32.8689 49.5875 32.8282 49.4271 32.7444C49.2668 32.6606 49.1753 32.5416 49.1753 32.4167L49.1753 30.75C49.1753 30.506 49.518 30.3081 49.9408 30.3081C50.3635 30.3081 50.7062 30.506 50.7062 30.75L50.7062 31.9284L57.0815 31.5603C57.5021 31.536 57.8772 31.7132 57.9193 31.9561Z"
              fill="#C5C7C8" stroke="#C5C7C8" stroke-width="0.5" stroke-linecap="round" stroke-linejoin="round"/>
    </g>
    <g clip-path="url(#clip2_2395_24512)">
        <path fill-rule="evenodd" clip-rule="evenodd"
              d="M47.527 37.9561C47.5691 38.1989 47.2622 38.4155 46.8415 38.4398L39.6246 38.8564C39.4095 38.8689 39.1952 38.8282 39.0348 38.7444C38.8745 38.6606 38.783 38.5416 38.783 38.4167L38.783 36.75C38.783 36.506 39.1257 36.3081 39.5485 36.3081C39.9712 36.3081 40.3139 36.506 40.3139 36.75L40.3139 37.9284L46.6892 37.5603C47.1098 37.536 47.485 37.7132 47.527 37.9561Z"
              fill="#C5C7C8" stroke="#C5C7C8" stroke-width="0.5" stroke-linecap="round" stroke-linejoin="round"/>
    </g>
    <rect width="8" height="2" rx="1" transform="matrix(0.866025 0.5 -0.866025 0.5 42.4352 11)" fill="#C5C7C8"/>
    <rect width="15" height="2" rx="1" transform="matrix(0.866025 0.5 -0.866025 0.5 38.9711 13)" fill="#C5C7C8"/>
    <rect width="10" height="2" rx="1" transform="matrix(0.866025 0.5 -0.866025 0.5 51.0955 16)" fill="#C5C7C8"/>
    <rect width="8" height="2" rx="1" transform="matrix(0.866025 0.5 -0.866025 0.5 21.6506 23)" fill="#C5C7C8"/>
    <rect width="15" height="2" rx="1" transform="matrix(0.866025 0.5 -0.866025 0.5 18.1865 25)" fill="#C5C7C8"/>
    <rect width="10" height="2" rx="1" transform="matrix(0.866025 0.5 -0.866025 0.5 30.3109 28)" fill="#C5C7C8"/>
    <rect width="5" height="2" rx="1" transform="matrix(0.866025 0.5 -0.866025 0.5 32.0429 17)" fill="#C5C7C8"/>
    <rect width="20" height="2" rx="1" transform="matrix(0.866025 0.5 -0.866025 0.5 28.5788 19)" fill="#C5C7C8"/>
    <rect width="10" height="2" rx="1" transform="matrix(0.866025 0.5 -0.866025 0.5 38.1051 20.5)" fill="#C5C7C8"/>
    <circle cx="1.5" cy="1.5" r="1.5" transform="matrix(0.866025 0.5 -0.866025 0.5 64.0859 8.5)" fill="#2C5175"/>
    <circle cx="1.5" cy="1.5" r="1.5" transform="matrix(0.866025 0.5 -0.866025 0.5 72.7461 13.5)" fill="#2C5175"/>
    <defs>
        <clipPath id="clip0_2395_24512">
            <rect width="10" height="10" fill="white" transform="matrix(0.866025 0.5 -0.866025 0.5 63.2198 21)"/>
        </clipPath>
        <clipPath id="clip1_2395_24512">
            <rect width="10" height="10" fill="white" transform="matrix(0.866025 0.5 -0.866025 0.5 52.8275 27)"/>
        </clipPath>
        <clipPath id="clip2_2395_24512">
            <rect width="10" height="10" fill="white" transform="matrix(0.866025 0.5 -0.866025 0.5 42.4352 33)"/>
        </clipPath>
    </defs>
</svg>
