<svg width="90" height="63" viewBox="0 0 90 63" fill="none" xmlns="http://www.w3.org/2000/svg">
	<path d="M11.6935 40.7258C17.0165 36.3586 23.6051 32.5547 31.1693 29.4815L60.5242 46.4295C52.96 49.5027 46.3713 53.3066 41.0484 57.6738L11.6935 40.7258Z" fill="#2B2B2B"/>
	<path d="M31.1691 29.4814C36.4921 25.1142 43.0807 21.3103 50.6449 18.2371L79.9998 35.1851C72.4356 38.2583 65.8469 42.0623 60.524 46.4294L31.1691 29.4814Z" fill="#2B2B2B"/>
	<path d="M11.6935 34.4665C17.0165 30.0993 23.6051 26.2954 31.1693 23.2222L60.5242 40.1702C52.96 43.2434 46.3713 47.0474 41.0484 51.4146L11.6935 34.4665Z" fill="#41506D"/>
	<path d="M31.1691 23.2222C36.4921 18.855 43.0807 15.051 50.6449 11.9778L79.9998 28.9258C72.4356 31.999 65.8469 35.803 60.524 40.1702L31.1691 23.2222Z" fill="#333E55"/>
	<path d="M11.6935 31.4665C17.0165 27.0993 23.6051 23.2954 31.1693 20.2222L60.5242 37.1702C52.96 40.2434 46.3713 44.0474 41.0484 48.4146L11.6935 31.4665Z" fill="#26649D"/>
	<path d="M31.1691 20.2222C36.4921 15.855 43.0807 12.051 50.6449 8.9778L79.9998 25.9258C72.4356 28.999 65.8469 32.803 60.524 37.1702L31.1691 20.2222Z" fill="#41506D"/>
	<path d="M58.7308 24.5049C61.4426 22.9392 61.4426 20.4007 58.7308 18.835C56.0189 17.2693 51.6221 17.2693 48.9103 18.835C46.1984 20.4007 46.1984 22.9392 48.9103 24.5049C51.6221 26.0706 56.0189 26.0706 58.7308 24.5049Z" stroke="#969698" stroke-linecap="round" stroke-linejoin="round"/>
	<path d="M50.874 19.969L53.8202 21.67L56.7663 21.103" stroke="#969698" stroke-linecap="round" stroke-linejoin="round"/>
	<path d="M25 33.8245L35.0885 27.9999" stroke="#969698" stroke-width="1.5" stroke-linecap="round"/>
	<path d="M28.21 35.678L38.2984 29.8534" stroke="#969698" stroke-width="1.5" stroke-linecap="round"/>
	<path d="M35.0889 39.6492L45.1773 33.8246" stroke="#969698" stroke-width="1.5" stroke-linecap="round"/>
	<path d="M31.8789 37.7959L36.9231 34.8836" stroke="#969698" stroke-width="1.5" stroke-linecap="round"/>
</svg>
