<svg width="90" height="63" viewBox="0 0 90 63" fill="none" xmlns="http://www.w3.org/2000/svg">
	<path fill-rule="evenodd" clip-rule="evenodd" d="M33.0167 45.0659L30.897 56.43L50.5802 55.2062L46.1388 52.642L72.7868 37.2567L64.106 32.2449L37.458 47.6301L33.0167 45.0659Z" fill="#2B2B2B"/>
	<path fill-rule="evenodd" clip-rule="evenodd" d="M56.6363 27.9324L58.756 16.5683L39.0728 17.7921L43.5141 20.3564L16.8661 35.7416L25.5469 40.7534L52.1949 25.3682L56.6363 27.9324Z" fill="#2B2B2B"/>
	<path fill-rule="evenodd" clip-rule="evenodd" d="M33.0167 39.0659L30.897 50.43L50.5802 49.2062L46.1388 46.642L72.7868 31.2567L64.106 26.2449L37.458 41.6301L33.0167 39.0659Z" fill="#41506D"/>
	<path fill-rule="evenodd" clip-rule="evenodd" d="M56.6363 21.9324L58.756 10.5683L39.0728 11.7921L43.5141 14.3564L16.8661 29.7416L25.5469 34.7534L52.1949 19.3682L56.6363 21.9324Z" fill="#26649D"/>
</svg>
