<?xml version="1.0" encoding="utf-8"?>
<!-- Generator: Adobe Illustrator 26.0.1, SVG Export Plug-In . SVG Version: 6.00 Build 0)  -->
<svg version="1.1" id="Layer_1" xmlns="http://www.w3.org/2000/svg" x="0px" y="0px"
	 viewBox="0 0 321 215" style="enable-background:new 0 0 321 215;" xml:space="preserve">
<rect x="0.3" style="fill:#2C2E30;" width="320.3" height="70.5"/>
<path style="fill:#3D3C3C;" d="M13.8,11.5h292.1c1.8,0,3.2,1.4,3.2,3.2l0,0c0,1.8-1.4,3.2-3.2,3.2H13.8c-1.8,0-3.2-1.4-3.2-3.2l0,0
	C10.6,13,12,11.5,13.8,11.5z"/>
<path style="fill:#3D3C3C;" d="M13.8,24.3h292.1c1.8,0,3.2,1.4,3.2,3.2l0,0c0,1.8-1.4,3.2-3.2,3.2H13.8c-1.8,0-3.2-1.4-3.2-3.2l0,0
	C10.6,25.8,12,24.3,13.8,24.3z"/>
<path style="fill:#3D3C3C;" d="M13.8,37.2h292.1c1.8,0,3.2,1.4,3.2,3.2l0,0c0,1.8-1.4,3.2-3.2,3.2H13.8c-1.8,0-3.2-1.4-3.2-3.2l0,0
	C10.6,38.6,12,37.2,13.8,37.2z"/>
<path style="fill:#3D3C3C;" d="M13.8,50h292.1c1.8,0,3.2,1.4,3.2,3.2l0,0c0,1.8-1.4,3.2-3.2,3.2H13.8c-1.8,0-3.2-1.4-3.2-3.2l0,0
	C10.6,51.4,12,50,13.8,50z"/>
<rect x="0.3" y="76.9" style="fill:#2B2B2B;" width="157.6" height="116.6"/>
<rect x="164.3" y="76.9" style="fill:#2E3238;" width="156.3" height="116.6"/>
<rect x="48" y="123.9" style="fill:#525255;" width="92.2" height="90.9"/>
<rect x="48" y="159.7" style="fill:#333E55;" width="92.2" height="19.2"/>
<path style="fill:#FFFFFF;" d="M56.5,172.2c-0.4,0-1-0.1-1.7-0.3V171c0.7,0.3,1.4,0.5,1.8,0.5c0.4,0,0.7-0.1,0.9-0.3
	s0.3-0.4,0.3-0.8c0-0.3-0.1-0.5-0.2-0.7c-0.1-0.2-0.4-0.4-0.8-0.6l-0.5-0.3c-0.6-0.3-1-0.6-1.2-0.9c-0.2-0.3-0.3-0.6-0.3-1
	c0-0.5,0.2-0.9,0.6-1.3c0.4-0.3,0.8-0.5,1.4-0.5c0.5,0,1,0.1,1.6,0.3v0.9c-0.7-0.3-1.2-0.4-1.6-0.4c-0.3,0-0.6,0.1-0.8,0.3
	s-0.3,0.4-0.3,0.6c0,0.2,0.1,0.4,0.2,0.6c0.2,0.2,0.4,0.4,0.8,0.6l0.5,0.3c0.6,0.3,1,0.6,1.2,0.9s0.3,0.6,0.3,1c0,0.6-0.2,1-0.6,1.4
	C57.8,172,57.2,172.2,56.5,172.2z M63.7,171.9c-0.6,0.2-1.1,0.3-1.5,0.3c-0.7,0-1.3-0.2-1.7-0.7s-0.7-1.1-0.7-1.8s0.2-1.3,0.6-1.8
	c0.4-0.5,0.9-0.7,1.5-0.7s1,0.2,1.4,0.6c0.3,0.4,0.5,1,0.5,1.8v0.3h-3.1c0.1,1.1,0.7,1.7,1.7,1.7c0.4,0,0.8-0.1,1.3-0.3V171.9z
	 M60.7,169.1h2.1c0-0.9-0.3-1.4-1-1.4C61.2,167.7,60.8,168.2,60.7,169.1z M65.3,172v-4.8h0.9v0.9c0.5-0.7,1-1,1.7-1
	c0.4,0,0.8,0.1,1,0.4c0.2,0.3,0.4,0.6,0.4,1.1v3.5h-0.9v-3.2c0-0.4-0.1-0.6-0.2-0.8s-0.3-0.2-0.5-0.2c-0.5,0-1,0.4-1.5,1.1v3.1h-0.9
	V172z M74.1,172v-0.9c-0.4,0.7-0.9,1-1.6,1c-0.6,0-1-0.2-1.4-0.6c-0.3-0.4-0.5-1-0.5-1.7c0-0.8,0.2-1.5,0.6-1.9
	c0.4-0.5,0.9-0.7,1.5-0.7s1,0.2,1.4,0.7V165H75v7H74.1z M74.1,168.4c-0.5-0.4-0.9-0.6-1.3-0.6c-0.8,0-1.3,0.6-1.3,1.9
	c0,1.1,0.4,1.7,1.1,1.7c0.5,0,1-0.3,1.4-0.8v-2.2L74.1,168.4L74.1,168.4z M81,172.1c-0.4,0-0.8-0.1-1-0.4c-0.2-0.3-0.4-0.6-0.4-1.1
	v-2.8H79v-0.7h0.6v-0.9l0.9-0.1v1h1.3v0.7h-1.3v2.7c0,0.6,0.3,0.9,0.8,0.9c0.1,0,0.3,0,0.4-0.1v0.6C81.5,172.1,81.2,172.1,81,172.1z
	 M84.9,172.1c-0.7,0-1.2-0.2-1.7-0.7c-0.4-0.5-0.6-1.1-0.6-1.8c0-0.8,0.2-1.4,0.6-1.8c0.4-0.5,1-0.7,1.7-0.7s1.3,0.2,1.7,0.7
	c0.4,0.5,0.6,1.1,0.6,1.8c0,0.8-0.2,1.4-0.6,1.9C86.2,171.9,85.6,172.1,84.9,172.1z M84.9,171.5c0.9,0,1.4-0.6,1.4-1.9
	c0-1.2-0.5-1.9-1.4-1.9s-1.4,0.6-1.4,1.9S84,171.5,84.9,171.5z M91.5,172v-6.6h2c0.6,0,1.1,0.1,1.5,0.4c0.3,0.3,0.5,0.7,0.5,1.2
	c0,0.9-0.4,1.5-1.3,1.9l2.2,3.1h-1.1l-1.9-2.8h-0.9v2.8L91.5,172L91.5,172z M92.4,168.6h0.3c1.2,0,1.8-0.5,1.8-1.4
	c0-0.7-0.5-1-1.5-1h-0.6C92.4,166.2,92.4,168.6,92.4,168.6z M100.8,171.9c-0.6,0.2-1.1,0.3-1.5,0.3c-0.7,0-1.3-0.2-1.7-0.7
	c-0.4-0.5-0.7-1.1-0.7-1.8s0.2-1.3,0.6-1.8s0.9-0.7,1.5-0.7s1,0.2,1.4,0.6c0.3,0.4,0.5,1,0.5,1.8v0.3h-3.1c0.1,1.1,0.7,1.7,1.7,1.7
	c0.4,0,0.8-0.1,1.3-0.3C100.8,171.3,100.8,171.9,100.8,171.9z M97.8,169.1h2.1c0-0.9-0.3-1.4-1-1.4
	C98.3,167.7,97.9,168.2,97.8,169.1z M102.3,173.8v-6.6h0.9v0.9c0.4-0.7,0.9-1,1.6-1c0.6,0,1,0.2,1.4,0.6c0.3,0.4,0.5,1,0.5,1.7
	c0,0.8-0.2,1.4-0.6,1.9s-0.9,0.7-1.5,0.7s-1.1-0.2-1.4-0.7v2.3h-0.9V173.8z M103.2,170.9c0.5,0.4,0.9,0.6,1.3,0.6
	c0.8,0,1.3-0.6,1.3-1.9c0-1.1-0.4-1.7-1.1-1.7c-0.5,0-1,0.3-1.4,0.8v2.2L103.2,170.9L103.2,170.9z M111.6,171.9
	c-0.6,0.2-1.1,0.3-1.5,0.3c-0.7,0-1.3-0.2-1.7-0.7c-0.4-0.5-0.7-1.1-0.7-1.8s0.2-1.3,0.6-1.8s0.9-0.7,1.5-0.7s1,0.2,1.4,0.6
	c0.3,0.4,0.5,1,0.5,1.8v0.3h-3.1c0.1,1.1,0.7,1.7,1.7,1.7c0.4,0,0.8-0.1,1.3-0.3C111.6,171.3,111.6,171.9,111.6,171.9z M108.6,169.1
	h2.1c0-0.9-0.3-1.4-1-1.4C109.1,167.7,108.7,168.2,108.6,169.1z M115.7,171.4c-0.5,0.5-1,0.7-1.5,0.7c-0.4,0-0.7-0.1-1-0.4
	c-0.3-0.3-0.4-0.6-0.4-1c0-0.5,0.2-0.9,0.7-1.2c0.4-0.3,1.1-0.4,1.9-0.4h0.2v-0.6c0-0.6-0.3-0.8-0.9-0.8c-0.5,0-1,0.1-1.5,0.4v-0.7
	c0.6-0.2,1.1-0.4,1.7-0.4c0.5,0,0.9,0.1,1.2,0.4c0.3,0.2,0.4,0.6,0.4,1.1v2.2c0,0.5,0.2,0.8,0.5,0.8c0,0,0.1,0,0.2,0l0.1,0.5
	c-0.2,0.1-0.4,0.1-0.7,0.1C116,172.1,115.8,171.9,115.7,171.4z M115.5,170.9v-1.3h-0.3c-0.5,0-0.9,0.1-1.2,0.3
	c-0.3,0.2-0.4,0.4-0.4,0.7c0,0.2,0.1,0.4,0.2,0.5s0.3,0.2,0.5,0.2C114.8,171.4,115.1,171.3,115.5,170.9z M119.7,172.1
	c-0.4,0-0.8-0.1-1-0.4c-0.2-0.3-0.4-0.6-0.4-1.1v-2.8h-0.6v-0.7h0.6v-0.9l0.9-0.1v1h1.3v0.7h-1.3v2.7c0,0.6,0.3,0.9,0.8,0.9
	c0.1,0,0.3,0,0.4-0.1v0.6C120.1,172.1,119.9,172.1,119.7,172.1z M125.2,171.9c-0.6,0.2-1.1,0.3-1.5,0.3c-0.7,0-1.3-0.2-1.7-0.7
	c-0.4-0.5-0.7-1.1-0.7-1.8s0.2-1.3,0.6-1.8s0.9-0.7,1.5-0.7s1,0.2,1.4,0.6c0.3,0.4,0.5,1,0.5,1.8v0.3h-3.1c0.1,1.1,0.7,1.7,1.7,1.7
	c0.4,0,0.8-0.1,1.3-0.3C125.2,171.3,125.2,171.9,125.2,171.9z M122.2,169.1h2.1c0-0.9-0.3-1.4-1-1.4
	C122.6,167.7,122.3,168.2,122.2,169.1z M126.7,172v-4.8h0.9v0.9c0.3-0.7,0.9-1,1.5-1c0.1,0,0.2,0,0.3,0v0.8
	c-0.2-0.1-0.3-0.1-0.4-0.1c-0.6,0-1,0.3-1.4,1v3.2L126.7,172L126.7,172z"/>
<path style="fill:#69696C;" d="M58.9,131.8h70.6c1.6,0,2.9,1.3,2.9,2.9l0,0c0,1.6-1.3,2.9-2.9,2.9H58.9c-1.6,0-2.9-1.3-2.9-2.9l0,0
	C56,133.1,57.3,131.8,58.9,131.8z"/>
<path style="fill:#69696C;" d="M58.9,141.2h62.4c1.6,0,2.9,1.3,2.9,2.9l0,0c0,1.6-1.3,2.9-2.9,2.9H58.9c-1.6,0-2.9-1.3-2.9-2.9l0,0
	C56,142.5,57.3,141.2,58.9,141.2z"/>
<path style="fill:#69696C;" d="M58.9,150.6h48.3c1.6,0,2.9,1.3,2.9,2.9l0,0c0,1.6-1.3,2.9-2.9,2.9H58.9c-1.6,0-2.9-1.3-2.9-2.9l0,0
	C56,151.9,57.3,150.6,58.9,150.6z"/>
<path style="fill:#69696C;" d="M58.9,183h50c1.6,0,2.9,1.3,2.9,2.9l0,0c0,1.6-1.3,2.9-2.9,2.9h-50c-1.6,0-2.9-1.3-2.9-2.9l0,0
	C56,184.3,57.3,183,58.9,183z"/>
<path style="fill:#69696C;" d="M58.9,192.4h62.4c1.6,0,2.9,1.3,2.9,2.9l0,0c0,1.6-1.3,2.9-2.9,2.9H58.9c-1.6,0-2.9-1.3-2.9-2.9l0,0
	C56,193.7,57.3,192.4,58.9,192.4z"/>
<path style="fill:#69696C;" d="M58.9,201.8h48.3c1.6,0,2.9,1.3,2.9,2.9l0,0c0,1.6-1.3,2.9-2.9,2.9H58.9c-1.6,0-2.9-1.3-2.9-2.9l0,0
	C56,203.1,57.3,201.8,58.9,201.8z"/>
<path style="fill:#FFFFFF;" d="M51.4,111.1v-6.6h2c0.6,0,1.1,0.1,1.5,0.4c0.3,0.3,0.5,0.7,0.5,1.2c0,0.9-0.4,1.5-1.3,1.9l2.2,3.1
	h-1.1l-1.9-2.8h-0.9v2.8H51.4z M52.3,107.7h0.3c1.2,0,1.8-0.5,1.8-1.4c0-0.7-0.5-1-1.5-1h-0.6V107.7z M57.2,111.1v-4.8h0.9v4.8H57.2
	z M57.2,105.4v-0.9h0.9v0.9H57.2z M59.9,112.7L60,112c0.5,0.2,1,0.4,1.5,0.4c1,0,1.5-0.5,1.5-1.6V110c-0.3,0.7-0.9,1-1.6,1
	c-0.6,0-1-0.2-1.4-0.6c-0.3-0.4-0.5-1-0.5-1.7s0.2-1.3,0.6-1.8c0.4-0.5,0.9-0.7,1.5-0.7c0.5,0,1,0.2,1.4,0.7v-0.6h0.9v3.5
	c0,0.8,0,1.3-0.1,1.7c-0.1,0.4-0.2,0.7-0.4,0.9c-0.4,0.4-1,0.6-1.8,0.6C60.9,113,60.4,112.9,59.9,112.7z M62.9,109.5v-2
	c-0.4-0.4-0.8-0.6-1.3-0.6c-0.4,0-0.7,0.2-0.9,0.5s-0.3,0.8-0.3,1.3c0,1.1,0.4,1.6,1.1,1.6C62,110.3,62.5,110,62.9,109.5z
	 M65.5,111.1v-7h0.9v3.1c0.5-0.7,1-1,1.7-1c0.4,0,0.8,0.1,1,0.4s0.4,0.6,0.4,1.1v3.5h-0.9V108c0-0.4-0.1-0.6-0.2-0.8
	c-0.1-0.2-0.3-0.2-0.5-0.2c-0.5,0-1,0.4-1.5,1.1v3.1L65.5,111.1L65.5,111.1z M72.7,111.3c-0.4,0-0.8-0.1-1-0.4s-0.4-0.6-0.4-1.1V107
	h-0.6v-0.7h0.6v-0.9l0.9-0.1v1h1.3v0.7h-1.3v2.7c0,0.6,0.3,0.9,0.8,0.9c0.1,0,0.3,0,0.4-0.1v0.6C73.1,111.2,72.9,111.3,72.7,111.3z
	 M74.4,108.8v-0.7h4v0.7H74.4z M81.8,111.3c-0.7,0-1.2-0.2-1.6-0.7s-0.6-1.1-0.6-1.8c0-0.8,0.2-1.4,0.6-1.8s1-0.7,1.8-0.7
	c0.4,0,0.8,0.1,1.3,0.2v0.7c-0.5-0.1-0.9-0.2-1.2-0.2c-0.4,0-0.8,0.2-1.1,0.5c-0.3,0.3-0.4,0.8-0.4,1.3s0.1,1,0.4,1.3
	s0.6,0.5,1.1,0.5c0.4,0,0.8-0.1,1.2-0.3v0.8C82.7,111.2,82.2,111.3,81.8,111.3z M84.6,111.1v-7h0.9v7H84.6z M87.2,111.1v-4.8h0.9
	v4.8H87.2z M87.2,105.4v-0.9h0.9v0.9H87.2z M91.7,111.3c-0.7,0-1.2-0.2-1.6-0.7s-0.6-1.1-0.6-1.8c0-0.8,0.2-1.4,0.6-1.8
	s1-0.7,1.8-0.7c0.4,0,0.8,0.1,1.3,0.2v0.7c-0.5-0.1-0.9-0.2-1.2-0.2c-0.4,0-0.8,0.2-1.1,0.5c-0.3,0.3-0.4,0.8-0.4,1.3s0.1,1,0.4,1.3
	s0.6,0.5,1.1,0.5c0.4,0,0.8-0.1,1.2-0.3v0.8C92.6,111.2,92.2,111.3,91.7,111.3z M94.5,111.1v-7h0.9v4.5l2-2.3h0.9l-2,2.3l2.4,2.6
	h-1.1l-2.3-2.5v2.5L94.5,111.1L94.5,111.1z"/>
<path style="fill:#6D6F74;" d="M7,90.9v-7.4h2.2c0.7,0,1.3,0.2,1.6,0.5c0.4,0.3,0.6,0.8,0.6,1.4c0,1-0.5,1.7-1.5,2.1l2.5,3.5h-1.3
	L9,87.8H8v3.1H7z M8,87h0.3c1.3,0,2-0.5,2-1.6c0-0.8-0.6-1.1-1.7-1.1H8V87z M17.5,90.7c-0.7,0.2-1.2,0.3-1.7,0.3
	c-0.8,0-1.5-0.3-2-0.8S13,89,13,88.1c0-0.8,0.2-1.5,0.7-2c0.4-0.5,1-0.8,1.7-0.8c0.7,0,1.2,0.2,1.5,0.7c0.4,0.5,0.5,1.1,0.5,2v0.3
	H14c0.1,1.3,0.8,1.9,1.9,1.9c0.4,0,0.9-0.1,1.5-0.3v0.8H17.5z M14.1,87.6h2.4c0-1-0.4-1.5-1.1-1.5C14.6,86.1,14.2,86.6,14.1,87.6z
	 M22.7,92.9v-3c-0.4,0.8-1,1.1-1.8,1.1c-0.7,0-1.2-0.2-1.5-0.7c-0.4-0.5-0.6-1.1-0.6-2s0.2-1.6,0.6-2.2s1-0.8,1.7-0.8
	c0.6,0,1.2,0.2,1.6,0.7v-0.6h1v7.4L22.7,92.9L22.7,92.9z M22.7,86.7c-0.5-0.5-1-0.7-1.5-0.7c-0.9,0-1.4,0.7-1.4,2.2
	c0,1.3,0.4,1.9,1.3,1.9c0.5,0,1.1-0.3,1.6-0.9V86.7z M29,90.9v-1c-0.5,0.8-1.2,1.1-1.9,1.1c-0.5,0-0.9-0.1-1.1-0.4
	c-0.3-0.3-0.4-0.7-0.4-1.2v-3.9h1V89c0,0.4,0.1,0.7,0.2,0.9c0.1,0.2,0.3,0.3,0.6,0.3c0.6,0,1.2-0.4,1.7-1.2v-3.5h1v5.4
	C30.1,90.9,29,90.9,29,90.9z M36,90.7c-0.7,0.2-1.2,0.3-1.7,0.3c-0.8,0-1.5-0.3-2-0.8s-0.8-1.2-0.8-2.1c0-0.8,0.2-1.5,0.7-2
	c0.4-0.5,1-0.8,1.7-0.8s1.2,0.2,1.5,0.7c0.4,0.5,0.5,1.1,0.5,2v0.3h-3.4c0.1,1.3,0.8,1.9,1.9,1.9c0.4,0,0.9-0.1,1.5-0.3L36,90.7
	L36,90.7z M32.6,87.6H35c0-1-0.4-1.5-1.1-1.5C33.1,86.1,32.7,86.6,32.6,87.6z M39.2,91c-0.5,0-1-0.1-1.6-0.3v-0.9
	c0.6,0.3,1.2,0.5,1.7,0.5c0.3,0,0.5-0.1,0.7-0.2c0.2-0.2,0.3-0.3,0.3-0.6c0-0.3-0.3-0.6-0.8-0.8l-0.6-0.2c-0.9-0.4-1.3-0.9-1.3-1.5
	c0-0.5,0.2-0.8,0.5-1.1c0.3-0.3,0.8-0.4,1.4-0.4c0.3,0,0.7,0,1.1,0.1h0.2v0.8c-0.6-0.2-1-0.2-1.3-0.2c-0.6,0-1,0.2-1,0.7
	c0,0.3,0.2,0.5,0.7,0.8l0.5,0.2c0.5,0.2,0.9,0.5,1.1,0.7c0.2,0.3,0.3,0.6,0.3,0.9c0,0.5-0.2,0.9-0.6,1.2C40.2,90.9,39.8,91,39.2,91z
	 M44.6,91c-0.5,0-0.9-0.1-1.2-0.4S43,89.9,43,89.4v-3.2h-0.7v-0.7H43v-1l1-0.1v1.1h1.4v0.7H44v3c0,0.7,0.3,1.1,0.9,1.1
	c0.1,0,0.3,0,0.5-0.1v0.7C45.1,91,44.8,91,44.6,91z"/>
<path style="fill:#6D6F74;" d="M172,90.9v-7.4h2.2c0.7,0,1.3,0.2,1.6,0.5c0.4,0.3,0.6,0.8,0.6,1.4c0,1-0.5,1.7-1.5,2.1l2.5,3.5h-1.3
	l-2.1-3.1h-1V91L172,90.9L172,90.9z M173.1,87h0.3c1.3,0,2-0.5,2-1.6c0-0.8-0.6-1.1-1.7-1.1H173L173.1,87L173.1,87z M182.5,90.7
	c-0.7,0.2-1.2,0.3-1.7,0.3c-0.8,0-1.5-0.3-2-0.8S178,89,178,88.1c0-0.8,0.2-1.5,0.7-2c0.4-0.5,1-0.8,1.7-0.8s1.2,0.2,1.5,0.7
	c0.4,0.5,0.5,1.1,0.5,2v0.3H179c0.1,1.3,0.8,1.9,1.9,1.9c0.4,0,0.9-0.1,1.5-0.3v0.8H182.5z M179.2,87.6h2.4c0-1-0.4-1.5-1.1-1.5
	C179.7,86.1,179.2,86.6,179.2,87.6z M185.7,91c-0.5,0-1-0.1-1.6-0.3v-0.9c0.6,0.3,1.2,0.5,1.7,0.5c0.3,0,0.5-0.1,0.7-0.2
	c0.2-0.2,0.3-0.3,0.3-0.6c0-0.3-0.3-0.6-0.8-0.8l-0.6-0.2c-0.9-0.4-1.3-0.9-1.3-1.5c0-0.5,0.2-0.8,0.5-1.1c0.3-0.3,0.8-0.4,1.4-0.4
	c0.3,0,0.7,0,1.1,0.1h0.2v0.8c-0.6-0.2-1-0.2-1.3-0.2c-0.6,0-1,0.2-1,0.7c0,0.3,0.2,0.5,0.7,0.8l0.5,0.2c0.5,0.2,0.9,0.5,1.1,0.7
	c0.2,0.3,0.3,0.6,0.3,0.9c0,0.5-0.2,0.9-0.6,1.2C186.8,90.9,186.3,91,185.7,91z M189.5,92.9v-7.4h1v1c0.4-0.8,1-1.1,1.8-1.1
	c0.7,0,1.2,0.2,1.5,0.7c0.4,0.5,0.6,1.1,0.6,2s-0.2,1.6-0.6,2.2c-0.4,0.6-1,0.8-1.7,0.8c-0.6,0-1.2-0.2-1.6-0.7V93L189.5,92.9
	L189.5,92.9z M190.5,89.6c0.5,0.5,1,0.7,1.5,0.7c0.9,0,1.4-0.7,1.4-2.2c0-1.3-0.4-1.9-1.3-1.9c-0.6,0-1.1,0.3-1.6,0.9L190.5,89.6
	L190.5,89.6z M198.1,91c-0.8,0-1.4-0.3-1.9-0.8s-0.7-1.2-0.7-2.1s0.2-1.6,0.7-2.1s1.1-0.8,1.9-0.8c0.8,0,1.4,0.3,1.9,0.8
	s0.7,1.2,0.7,2.1s-0.2,1.6-0.7,2.1C199.5,90.8,198.9,91,198.1,91z M198.1,90.3c1,0,1.6-0.7,1.6-2.1s-0.5-2.1-1.5-2.1
	s-1.5,0.7-1.5,2.1C196.6,89.6,197.1,90.3,198.1,90.3z M202.2,90.9v-5.4h1v1c0.5-0.8,1.2-1.1,1.9-1.1c0.5,0,0.8,0.2,1.1,0.5
	s0.4,0.7,0.4,1.2V91h-1v-3.6c0-0.4-0.1-0.7-0.2-0.9c-0.1-0.2-0.3-0.3-0.6-0.3c-0.6,0-1.2,0.4-1.7,1.2v3.5
	C203.1,90.9,202.2,90.9,202.2,90.9z M210,91c-0.4,0-1-0.1-1.6-0.3v-0.9c0.6,0.3,1.2,0.5,1.7,0.5c0.3,0,0.5-0.1,0.7-0.2
	c0.2-0.2,0.3-0.3,0.3-0.6c0-0.3-0.3-0.6-0.8-0.8l-0.6-0.2c-0.9-0.4-1.3-0.9-1.3-1.5c0-0.5,0.2-0.8,0.5-1.1c0.3-0.3,0.8-0.4,1.4-0.4
	c0.3,0,0.7,0,1.1,0.1h0.2v0.8c-0.6-0.2-1-0.2-1.3-0.2c-0.6,0-1,0.2-1,0.7c0,0.3,0.2,0.5,0.7,0.8l0.5,0.2c0.5,0.2,0.9,0.5,1.1,0.7
	c0.2,0.3,0.3,0.6,0.3,0.9c0,0.5-0.2,0.9-0.6,1.2C211.1,90.9,210.6,91,210,91z M217.8,90.7c-0.7,0.2-1.2,0.3-1.7,0.3
	c-0.8,0-1.5-0.3-2-0.8s-0.8-1.2-0.8-2.1c0-0.8,0.2-1.5,0.7-2c0.4-0.5,1-0.8,1.7-0.8s1.2,0.2,1.5,0.7c0.4,0.5,0.5,1.1,0.5,2v0.3h-3.4
	c0.1,1.3,0.8,1.9,1.9,1.9c0.4,0,0.9-0.1,1.5-0.3v0.8H217.8z M214.4,87.6h2.4c0-1-0.4-1.5-1.1-1.5C215,86.1,214.5,86.6,214.4,87.6z"
	/>
<path style="fill:#FFFFFF;" d="M33.2,102.1l4.2,10l1.5-4.3l4.4-1.5L33.2,102.1z"/>
<path style="fill:none;stroke:#FFFFFF;stroke-width:1.1785;stroke-linecap:round;stroke-linejoin:round;" d="M39.1,108l3.5,3.5"/>
<path style="fill:#FFFFFF;" d="M146.9,170.3l2.8,1.9l0.2-3.4L146.9,170.3z M108.7,107.6c0.2,0,0.4,0,0.6,0V107c-0.2,0-0.4,0-0.6,0
	V107.6z M110.5,107.6c0.4,0,0.8,0,1.2,0V107c-0.4,0-0.8,0-1.2,0V107.6z M112.8,107.7c0.4,0,0.8,0,1.2,0v-0.6c-0.4,0-0.8,0-1.2,0
	V107.7z M115.1,107.7c0.4,0,0.8,0,1.2,0v-0.6c-0.4,0-0.8,0-1.2,0V107.7z M117.4,107.7c0.4,0,0.8,0,1.2,0v-0.6c-0.4,0-0.8,0-1.2,0
	V107.7z M119.8,107.8c0.4,0,0.8,0,1.2,0v-0.6c-0.4,0-0.8,0-1.2,0V107.8z M122.1,107.8c0.4,0,0.8,0,1.2,0v-0.6c-0.4,0-0.8,0-1.2,0
	V107.8z M124.5,107.9c0.4,0,0.8,0,1.2,0v-0.6c-0.4,0-0.8,0-1.2,0V107.9z M126.8,108c0.4,0,0.8,0,1.2,0.1v-0.6c-0.4,0-0.8,0-1.2-0.1
	V108z M129.1,108.1c0.4,0,0.8,0,1.2,0.1v-0.6c-0.4,0-0.8,0-1.2-0.1V108.1z M131.4,108.3c0.4,0,0.8,0.1,1.2,0.1v-0.6
	c-0.4,0-0.8-0.1-1.2-0.1V108.3z M133.8,108.4c0.4,0,0.8,0.1,1.2,0.1v-0.6c-0.4,0-0.8-0.1-1.2-0.1V108.4z M136.1,108.6
	c0.4,0,0.8,0.1,1.2,0.1l0.1-0.6c-0.4,0-0.8-0.1-1.2-0.1L136.1,108.6z M138.4,108.8c0.4,0,0.8,0.1,1.2,0.1l0.1-0.6
	c-0.4,0-0.8-0.1-1.2-0.1L138.4,108.8z M140.7,109.1c0.4,0,0.8,0.1,1.2,0.1l0.1-0.6c-0.4,0-0.8-0.1-1.2-0.1L140.7,109.1z M143,109.3
	c0.4,0,0.8,0.1,1.1,0.1l0.1-0.6c-0.4,0-0.8-0.1-1.2-0.1L143,109.3z M145.4,109.6c0.4,0.1,0.8,0.1,1.2,0.2l0.1-0.6
	c-0.4-0.1-0.8-0.1-1.2-0.2L145.4,109.6z M147.7,110c0.4,0.1,0.8,0.1,1.2,0.2l0.1-0.6c-0.4-0.1-0.8-0.1-1.2-0.2L147.7,110z
	 M150,110.3c0.4,0.1,0.8,0.1,1.1,0.2l0.1-0.6c-0.4-0.1-0.8-0.1-1.1-0.2L150,110.3z M152.3,110.7c0.4,0.1,0.8,0.1,1.1,0.2l0.1-0.6
	c-0.4-0.1-0.8-0.2-1.1-0.2L152.3,110.7z M154.5,111.2c0.4,0.1,0.8,0.2,1.1,0.2l0.1-0.6c-0.4-0.1-0.8-0.2-1.2-0.3L154.5,111.2z
	 M156.8,111.7c0.4,0.1,0.8,0.2,1.1,0.3l0.1-0.6c-0.4-0.1-0.8-0.2-1.1-0.3L156.8,111.7z M159.1,112.3c0.4,0.1,0.7,0.2,1.1,0.3
	l0.2-0.6c-0.4-0.1-0.7-0.2-1.1-0.3L159.1,112.3z M161.3,112.9c0.4,0.1,0.7,0.2,1.1,0.3l0.2-0.6c-0.4-0.1-0.7-0.2-1.1-0.3
	L161.3,112.9z M163.5,113.6c0.4,0.1,0.7,0.2,1.1,0.4l0.2-0.6c-0.4-0.1-0.7-0.3-1.1-0.4L163.5,113.6z M165.7,114.4
	c0.4,0.1,0.7,0.3,1.1,0.4l0.2-0.5c-0.4-0.1-0.7-0.3-1.1-0.4L165.7,114.4z M167.9,115.2c0.4,0.2,0.7,0.3,1.1,0.5l0.2-0.5
	c-0.4-0.2-0.7-0.3-1.1-0.5L167.9,115.2z M170,116.2c0.4,0.2,0.7,0.3,1,0.5l0.3-0.5c-0.3-0.2-0.7-0.4-1.1-0.5L170,116.2z M172,117.3
	c0.3,0.2,0.7,0.4,1,0.6l0.3-0.5c-0.3-0.2-0.7-0.4-1-0.6L172,117.3z M174,118.4c0.3,0.2,0.7,0.4,1,0.6l0.3-0.5
	c-0.3-0.2-0.7-0.4-1-0.7L174,118.4z M175.9,119.8c0.3,0.2,0.6,0.5,0.9,0.7l0.4-0.5c-0.3-0.2-0.6-0.5-0.9-0.7L175.9,119.8z
	 M177.7,121.2c0.3,0.3,0.6,0.5,0.9,0.8l0.4-0.4c-0.3-0.3-0.6-0.5-0.9-0.8L177.7,121.2z M179.4,122.8c0.3,0.3,0.5,0.6,0.8,0.9
	l0.4-0.4c-0.3-0.3-0.5-0.6-0.8-0.9L179.4,122.8z M180.9,124.5c0.2,0.3,0.5,0.6,0.7,0.9l0.5-0.3c-0.2-0.3-0.5-0.6-0.7-0.9
	L180.9,124.5z M182.2,126.4c0.2,0.3,0.4,0.7,0.6,1l0.5-0.3c-0.2-0.3-0.4-0.7-0.6-1L182.2,126.4z M183.4,128.4c0.2,0.3,0.3,0.7,0.5,1
	l0.5-0.2c-0.2-0.4-0.3-0.7-0.5-1.1L183.4,128.4z M184.3,130.5c0.1,0.4,0.3,0.7,0.4,1.1l0.6-0.2c-0.1-0.4-0.3-0.8-0.4-1.1
	L184.3,130.5z M185,132.7c0.1,0.4,0.2,0.7,0.3,1.1l0.6-0.1c-0.1-0.4-0.2-0.8-0.3-1.1L185,132.7z M185.5,135c0.1,0.4,0.1,0.8,0.2,1.1
	l0.6-0.1c-0.1-0.4-0.1-0.8-0.2-1.2L185.5,135z M185.8,137.3c0,0.4,0.1,0.8,0.1,1.2h0.6c0-0.4,0-0.8-0.1-1.2H185.8z M185.9,139.6
	c0,0.2,0,0.4,0,0.6h0.6c0-0.2,0-0.4,0-0.6H185.9z M185.9,140.2c0,0.2,0,0.4,0,0.6h0.6c0-0.2,0-0.4,0-0.6H185.9z M185.9,142
	c0,0.4,0,0.8-0.1,1.2h0.6c0-0.4,0-0.8,0.1-1.2H185.9z M185.7,144.3c0,0.4-0.1,0.8-0.1,1.2l0.6,0.1c0.1-0.4,0.1-0.8,0.1-1.2
	L185.7,144.3z M185.4,146.6c-0.1,0.4-0.1,0.8-0.2,1.1l0.6,0.1c0.1-0.4,0.2-0.8,0.2-1.2L185.4,146.6z M185,148.9
	c-0.1,0.4-0.2,0.8-0.3,1.1l0.6,0.2c0.1-0.4,0.2-0.8,0.3-1.2L185,148.9z M184.3,151.2c-0.1,0.4-0.3,0.7-0.4,1.1l0.6,0.2
	c0.1-0.4,0.3-0.7,0.4-1.1L184.3,151.2z M183.5,153.3c-0.2,0.4-0.3,0.7-0.5,1.1l0.5,0.3c0.2-0.4,0.3-0.7,0.5-1.1L183.5,153.3z
	 M182.4,155.4c-0.2,0.3-0.4,0.7-0.6,1l0.5,0.3c0.2-0.3,0.4-0.7,0.6-1L182.4,155.4z M181.2,157.4c-0.2,0.3-0.4,0.6-0.7,0.9l0.5,0.4
	c0.2-0.3,0.5-0.6,0.7-1L181.2,157.4z M179.8,159.3c-0.3,0.3-0.5,0.6-0.8,0.9l0.4,0.4c0.3-0.3,0.5-0.6,0.8-0.9L179.8,159.3z
	 M178.2,161c-0.3,0.3-0.6,0.5-0.9,0.8l0.4,0.4c0.3-0.3,0.6-0.5,0.9-0.8L178.2,161z M176.5,162.6c-0.3,0.2-0.6,0.5-0.9,0.7l0.4,0.5
	c0.3-0.2,0.6-0.5,0.9-0.7L176.5,162.6z M174.6,164c-0.3,0.2-0.7,0.4-1,0.6l0.3,0.5c0.3-0.2,0.7-0.4,1-0.6L174.6,164z M172.6,165.2
	c-0.3,0.2-0.7,0.4-1,0.6l0.3,0.5c0.4-0.2,0.7-0.4,1.1-0.6L172.6,165.2z M170.5,166.2c-0.4,0.2-0.7,0.3-1.1,0.5l0.2,0.5
	c0.4-0.2,0.7-0.3,1.1-0.5L170.5,166.2z M168.4,167.2c-0.4,0.1-0.7,0.3-1.1,0.4l0.2,0.6c0.4-0.1,0.7-0.3,1.1-0.4L168.4,167.2z
	 M166.1,167.9c-0.4,0.1-0.8,0.2-1.1,0.3l0.2,0.6c0.4-0.1,0.8-0.2,1.1-0.3L166.1,167.9z M163.9,168.6c-0.4,0.1-0.8,0.2-1.1,0.3
	l0.1,0.6c0.4-0.1,0.8-0.2,1.2-0.3L163.9,168.6z M161.6,169.1c-0.4,0.1-0.8,0.2-1.2,0.2l0.1,0.6c0.4-0.1,0.8-0.1,1.2-0.2L161.6,169.1
	z M159.3,169.5c-0.4,0.1-0.8,0.1-1.2,0.2l0.1,0.6c0.4-0.1,0.8-0.1,1.2-0.2L159.3,169.5z M156.9,169.8c-0.4,0-0.8,0.1-1.2,0.1
	l0.1,0.6c0.4,0,0.8-0.1,1.2-0.1L156.9,169.8z M154.6,170c-0.4,0-0.8,0-1.2,0.1v0.6c0.4,0,0.8,0,1.2-0.1V170z M152.2,170.1
	c-0.4,0-0.8,0-1.2,0v0.6c0.4,0,0.8,0,1.2,0V170.1z M149.9,170.1c-0.4,0-0.8,0-1.2,0v0.6c0.4,0,0.8,0,1.2,0V170.1z"/>
</svg>
