<svg xmlns="http://www.w3.org/2000/svg" width="90" height="63" viewBox="0 0 90 63" fill="none">
    <g clip-path="url(#clip0_602_3324)">
        <path d="M58.7428 13.3426L52.0459 9.47613C48.2196 7.267 42.0159 7.267 38.1895 9.47614L31.4927 13.3426" stroke="#26649D" stroke-width="4" stroke-linecap="round"/>
        <path d="M76.6252 39.3998L83.322 35.5334C87.1484 33.3242 87.1484 29.7425 83.322 27.5334L76.6252 23.667" stroke="#26649D" stroke-width="4" stroke-linecap="round"/>
        <path d="M13.6101 23.6674L6.91325 27.5338C3.08691 29.743 3.08691 33.3247 6.91325 35.5338L13.6101 39.4002" stroke="#26649D" stroke-width="4" stroke-linecap="round"/>
        <path d="M32.3446 49.2328L39.0414 53.0992C42.8677 55.3084 49.0715 55.3084 52.8978 53.0992L59.5947 49.2328" stroke="#26649D" stroke-width="4" stroke-linecap="round"/>
        <path d="M66.4737 27.288L52.046 18.9582C48.2197 16.7491 42.0159 16.7491 38.1896 18.9582L23.7619 27.288C19.9355 29.4972 19.9355 33.0789 23.7619 35.288L38.1896 43.6179C42.0159 45.827 48.2197 45.827 52.046 43.6179L66.4737 35.288C70.3001 33.0789 70.3001 29.4972 66.4737 27.288Z" fill="#5B4FFF"/>
        <path d="M36.1679 37.1829L33.9952 35.9285L37.1991 34.0788L43.709 33.7019L40.7804 32.0111L45.1347 29.4972L39.8343 26.437L51.6233 25.7509L54.0678 24.3396L56.2405 25.594L53.0366 27.4438L46.5312 27.8233L49.4552 29.5115L45.101 32.0254L50.4014 35.0856L38.6123 35.7716L36.1679 37.1829Z" fill="white"/>
        <path opacity="0.3" d="M21.1778 17.1911L68.41 44.4606" stroke="white" stroke-width="4" stroke-linecap="round"/>
        <path opacity="0.3" d="M21.1778 23.5123L68.41 50.7818" stroke="#323334" stroke-width="4" stroke-linecap="round"/>
    </g>
    <defs>
        <clipPath id="clip0_602_3324">
            <rect width="90" height="63" fill="white"/>
        </clipPath>
    </defs>
</svg>