<svg xmlns="http://www.w3.org/2000/svg" width="90" height="63" viewBox="0 0 90 63" fill="none">
    <rect x="3" y="2" width="84" height="59" rx="5" fill="url(#paint0_linear_1006_10464)"/>
    <path d="M41.0004 32C42.6547 32 44.0004 30.6543 44.0004 29C44.0004 27.3457 42.6547 26 41.0004 26C39.3461 26 38.0004 27.3457 38.0004 29C38.0004 30.6543 39.3461 32 41.0004 32ZM41.0004 28C41.5517 28 42.0004 28.4487 42.0004 29C42.0004 29.5513 41.5517 30 41.0004 30C40.4491 30 40.0004 29.5513 40.0004 29C40.0004 28.4487 40.4491 28 41.0004 28ZM49.0004 32C50.6547 32 52.0004 30.6543 52.0004 29C52.0004 27.3457 50.6547 26 49.0004 26C47.3461 26 46.0004 27.3457 46.0004 29C46.0004 30.6543 47.3461 32 49.0004 32ZM49.0004 28C49.5521 28 50.0004 28.4487 50.0004 29C50.0004 29.5513 49.5521 30 49.0004 30C48.4486 30 48.0004 29.5513 48.0004 29C48.0004 28.4487 48.4486 28 49.0004 28ZM42.2934 36.293L44.2934 34.293C44.684 33.9023 45.3168 33.9023 45.7074 34.293L47.7074 36.293C48.098 36.6836 48.098 37.3164 47.7074 37.707C47.5121 37.9023 47.2562 38 47.0004 38C46.7445 38 46.4887 37.9023 46.2934 37.707L45.0004 36.4141L43.7074 37.707C43.5121 37.9023 43.2562 38 43.0004 38C42.7445 38 42.4887 37.9023 42.2934 37.707C41.9027 37.3164 41.9027 36.6836 42.2934 36.293ZM27.1493 23.5332C26.8466 24.4746 27.0092 25.4897 27.5917 26.314C28.2519 27.2578 29.4228 27.75 30.5521 27.5708C31.0341 27.5019 31.4848 27.3242 31.8827 27.0483C32.12 26.8857 32.4643 26.8833 32.7816 27.0391L34.2335 27.7498C34.0818 28.4766 34.0004 29.2288 34.0004 30V34C34.0004 34.1191 34.022 34.2324 34.0355 34.348L32.7792 34.9619C32.4647 35.1172 32.1205 35.1128 31.891 34.9575C31.4848 34.6758 31.0341 34.498 30.5678 34.4316C29.4169 34.251 28.2519 34.7427 27.5951 35.6816C27.0092 36.5102 26.8466 37.5254 27.1493 38.4668C27.4022 39.2539 27.9652 39.9092 28.6928 40.2861L28.703 40.3071C28.5546 41.1099 28.727 41.9541 29.1918 42.6352C29.7494 43.4531 30.6508 43.9487 31.6596 43.9961C31.7104 43.999 31.7616 44 31.8124 44C32.9062 44 33.9398 43.3926 34.4774 42.4184C34.7147 41.9868 34.8495 41.5332 34.8798 41.0522C34.892 40.7783 35.1054 40.4966 35.4188 40.3472L38.0004 39.0892V40C38.0004 41.6543 39.3461 43 41.0004 43H49.015C49.8197 43 50.5766 42.685 51.1439 42.1138C51.7113 41.542 52.0209 40.7837 52.015 39.9785L52.0084 39.0861L54.5902 40.3516C54.8959 40.4966 55.1088 40.7773 55.1215 41.0737C55.1527 41.5366 55.2875 41.9892 55.5248 42.4209C56.0609 43.3926 57.0951 44.0005 58.184 44.0005C58.2348 44.0005 58.2855 43.999 58.3363 43.9966C59.35 43.9487 60.2514 43.4531 60.809 42.6357C61.2738 41.9541 61.4467 41.1099 61.2982 40.3061L61.308 40.2861C62.0365 39.9092 62.599 39.2539 62.852 38.4668C63.1547 37.5254 62.9916 36.5098 62.4086 35.6855C61.7484 34.7422 60.5805 34.249 59.4486 34.4292C58.9682 34.498 58.518 34.6753 58.1176 34.9521C57.8803 35.1128 57.5365 35.1172 57.2191 34.9604L55.9652 34.3476C55.9788 34.2321 56.0004 34.119 56.0004 34V30C56.0004 29.2289 55.9189 28.4767 55.7672 27.7499L57.2211 27.0386C57.5385 26.8828 57.8812 26.8877 58.1107 27.0434C58.518 27.3247 58.9682 27.5019 59.433 27.5683C60.5756 27.748 61.7475 27.2573 62.4057 26.3188C62.9916 25.4902 63.1547 24.4746 62.852 23.5332C62.599 22.7461 62.0365 22.0908 61.308 21.7139L61.2982 21.6938C61.4467 20.8901 61.2738 20.0459 60.809 19.3642C60.2514 18.5469 59.35 18.0513 58.3412 18.0039C57.2221 17.9448 56.0863 18.562 55.5229 19.5815C55.2875 20.0107 55.1527 20.4634 55.1205 20.9492C55.1088 21.2226 54.8959 21.5034 54.5814 21.6533L52.97 22.4401C50.9643 20.3266 48.1372 19 45.0004 19C41.8636 19 39.0365 20.3266 37.0308 22.44L35.4105 21.6484C35.1054 21.5034 34.892 21.2217 34.8788 20.9292C34.8495 20.4668 34.7147 20.0132 34.4765 19.5791C33.9149 18.5625 32.8148 17.9551 31.6645 18.0034C30.6508 18.0513 29.7494 18.5474 29.1918 19.3647C28.727 20.0459 28.5546 20.8901 28.703 21.6929L28.6928 21.7139C27.9652 22.0908 27.4022 22.7461 27.1493 23.5332ZM34.5512 38.5454C33.5673 39.0132 32.9271 39.9399 32.8827 40.9448C32.872 41.1142 32.8202 41.2817 32.7255 41.4541C32.538 41.7944 32.143 42.0278 31.7582 41.9985C31.2372 41.9741 30.9618 41.6811 30.8441 41.5083C30.6444 41.2158 30.5951 40.855 30.7089 40.519C30.7929 40.27 30.7758 39.998 30.6615 39.7617L30.3314 39.0815C30.2152 38.8428 30.0092 38.6597 29.7587 38.5732C29.4193 38.4556 29.1625 38.1938 29.0536 37.8545C28.9896 37.6567 28.9276 37.2607 29.2313 36.8315C29.4486 36.5205 29.8676 36.3452 30.2709 36.4097C30.4437 36.4341 30.601 36.4966 30.7597 36.6069C31.5912 37.1709 32.7035 37.2285 33.6601 36.7573L34.9112 36.146C35.4519 36.6726 36.1877 37 37.0004 37C37.1694 37 37.3214 37.0529 37.4612 37.1273L34.5512 38.5454ZM59.2475 36.602C59.3998 36.4971 59.557 36.4341 59.7455 36.4072C60.1244 36.3472 60.5521 36.5205 60.7729 36.8364C61.0736 37.2612 61.0111 37.6567 60.9477 37.8545C60.8383 38.1938 60.5814 38.4556 60.2416 38.5727C59.9906 38.6597 59.7846 38.8433 59.6684 39.0825L59.3393 39.7627C59.225 39.9985 59.2084 40.27 59.2924 40.5185C59.4057 40.855 59.3568 41.2153 59.1566 41.5083C59.0395 41.6811 58.7641 41.9741 58.2377 41.999C57.8549 42.0078 57.4633 41.7949 57.2768 41.4565C57.1811 41.2822 57.1283 41.1138 57.1186 40.9648C57.0746 39.9404 56.435 39.0132 55.4604 38.5503L52.5471 37.1225C52.6873 37.0499 52.8378 37 53.0004 37C53.813 37 54.5489 36.6725 55.0896 36.146L56.3383 36.7563C57.2973 37.2285 58.4115 37.1714 59.2475 36.602ZM55.4496 23.4551C56.435 22.9868 57.0746 22.0596 57.1176 21.0581C57.1283 20.8862 57.1811 20.7178 57.2748 20.5459C57.4633 20.2051 57.8822 19.9795 58.2426 20.0015C58.7641 20.0259 59.0395 20.3188 59.1566 20.4917C59.3568 20.7847 59.4057 21.145 59.2924 21.4814C59.2084 21.73 59.225 22.0015 59.3393 22.2373L59.6684 22.9175C59.7846 23.1567 59.9906 23.3403 60.2416 23.4272C60.5814 23.5444 60.8383 23.8061 60.9477 24.1455C61.0111 24.3432 61.0736 24.7388 60.7699 25.168C60.5521 25.4785 60.1391 25.6533 59.7299 25.5903C59.557 25.5659 59.3998 25.5029 59.2406 25.3935C58.4086 24.8281 57.2963 24.772 56.3402 25.2432L55.1691 25.8165C54.9126 25.1952 54.5976 24.6052 54.2365 24.0469L55.4496 23.4551ZM45.0004 21C49.9633 21 54.0004 25.0376 54.0004 30V34C54.0004 34.5513 53.5521 35 53.0004 35C52.1947 35 51.4389 35.3149 50.8715 35.8862C50.3041 36.4575 49.9945 37.2158 50.0004 38.0215L50.015 39.9927C50.017 40.2612 49.9135 40.5137 49.724 40.7046C49.5355 40.895 49.2836 41 49.015 41H41.0004C40.4491 41 40.0004 40.5513 40.0004 40V38C40.0004 36.3457 38.6547 35 37.0004 35C36.4491 35 36.0004 34.5513 36.0004 34V30C36.0004 25.0376 40.038 21 45.0004 21ZM29.0536 24.1455C29.1625 23.8061 29.4193 23.5444 29.7587 23.4267C30.0092 23.3403 30.2152 23.1572 30.331 22.9184L30.6615 22.2383C30.7758 22.0019 30.7929 21.73 30.7089 21.4809C30.5951 21.145 30.6444 20.7842 30.8441 20.4917C30.9618 20.3188 31.2372 20.0259 31.7631 20.001C32.1557 19.9883 32.538 20.206 32.7245 20.5434C32.8202 20.7182 32.872 20.8857 32.8817 21.0366C32.9271 22.06 33.5673 22.9868 34.5419 23.4502L35.7642 24.0471C35.4032 24.6053 35.0882 25.1952 34.8317 25.8164L33.663 25.2441C32.705 24.7724 31.5927 24.8296 30.7514 25.3989C30.601 25.5034 30.4437 25.5659 30.2553 25.5928C29.8681 25.6518 29.4486 25.4795 29.2279 25.1641C28.9276 24.7392 28.9896 24.3432 29.0536 24.1455Z" fill="url(#paint1_linear_1006_10464)"/>
    <path d="M3 7C3 4.23858 5.23858 2 8 2H82C84.7614 2 87 4.23858 87 7V10H3V7Z" fill="#26649D"/>
    <circle cx="8" cy="6" r="2" fill="#D6213F"/>
    <circle cx="14" cy="6" r="2" fill="#DB612F"/>
    <circle cx="20" cy="6" r="2" fill="#9BCF88"/>
    <defs>
        <linearGradient id="paint0_linear_1006_10464" x1="45" y1="28" x2="45" y2="58.9419" gradientUnits="userSpaceOnUse">
            <stop stop-color="#333E55"/>
            <stop offset="1" stop-color="#333E55" stop-opacity="0"/>
        </linearGradient>
        <linearGradient id="paint1_linear_1006_10464" x1="45.0006" y1="18" x2="45.0006" y2="44.0005" gradientUnits="userSpaceOnUse">
            <stop stop-color="#C5C7C8"/>
            <stop offset="1" stop-color="#C5C7C8" stop-opacity="0"/>
        </linearGradient>
    </defs>
</svg>