<svg xmlns="http://www.w3.org/2000/svg" width="110" height="135" fill="none">
    <circle cx="2" cy="16.5" r="2" fill="#C4C4C4"/>
    <circle cx="42.3" cy="16.5" r="2" fill="#C4C4C4"/>
    <circle cx="15.5" cy="16.5" r="2" fill="#C4C4C4"/>
    <circle cx="55.7" cy="16.5" r="2" fill="#C4C4C4"/>
    <circle cx="28.9" cy="16.5" r="2" fill="#C4C4C4"/>
    <circle cx="69.1" cy="16.5" r="2" fill="#C4C4C4"/>
    <circle cx="2" cy="43.3" r="2" fill="#C4C4C4"/>
    <circle cx="42.3" cy="43.3" r="2" fill="#C4C4C4"/>
    <circle cx="15.5" cy="43.3" r="2" fill="#C4C4C4"/>
    <circle cx="55.7" cy="43.3" r="2" fill="#C4C4C4"/>
    <circle cx="28.9" cy="43.3" r="2" fill="#C4C4C4"/>
    <circle cx="69.1" cy="43.3" r="2" fill="#C4C4C4"/>
    <circle cx="2" cy="70.1" r="2" fill="#C4C4C4"/>
    <circle cx="42.3" cy="70.1" r="2" fill="#C4C4C4"/>
    <circle cx="15.5" cy="70.1" r="2" fill="#C4C4C4"/>
    <circle cx="55.7" cy="70.1" r="2" fill="#C4C4C4"/>
    <circle cx="28.9" cy="70.1" r="2" fill="#C4C4C4"/>
    <circle cx="69.1" cy="70.1" r="2" fill="#C4C4C4"/>
    <circle cx="2" cy="29.9" r="2" fill="#C4C4C4"/>
    <circle cx="42.3" cy="29.9" r="2" fill="#C4C4C4"/>
    <circle cx="15.5" cy="29.9" r="2" fill="#C4C4C4"/>
    <circle cx="55.7" cy="29.9" r="2" fill="#C4C4C4"/>
    <circle cx="28.9" cy="29.9" r="2" fill="#C4C4C4"/>
    <circle cx="69.1" cy="29.9" r="2" fill="#C4C4C4"/>
    <circle cx="2" cy="56.7" r="2" fill="#C4C4C4"/>
    <circle cx="42.3" cy="56.7" r="2" fill="#C4C4C4"/>
    <circle cx="15.5" cy="56.7" r="2" fill="#C4C4C4"/>
    <circle cx="55.7" cy="56.7" r="2" fill="#C4C4C4"/>
    <circle cx="28.9" cy="56.7" r="2" fill="#C4C4C4"/>
    <circle cx="69.1" cy="56.7" r="2" fill="#C4C4C4"/>
    <circle cx="2" cy="83.5" r="2" fill="#C4C4C4"/>
    <circle cx="42.3" cy="83.5" r="2" fill="#C4C4C4"/>
    <circle cx="15.5" cy="83.5" r="2" fill="#C4C4C4"/>
    <circle cx="55.7" cy="83.5" r="2" fill="#C4C4C4"/>
    <circle cx="28.9" cy="83.5" r="2" fill="#C4C4C4"/>
    <circle cx="69.1" cy="83.5" r="2" fill="#C4C4C4"/>
  </svg>